<svg width="29" height="29" viewBox="0 0 29 29" fill="none" xmlns="http://www.w3.org/2000/svg">
<path d="M16.0537 29C9.04659 29 3.36621 22.5081 3.36621 14.5C3.36621 6.49186 9.04659 0 16.0537 0C23.0608 0 28.7412 6.49186 28.7412 14.5C28.7412 22.5081 23.0608 29 16.0537 29Z" fill="#FFD949"/>
<path d="M3.36618 14.5C3.36618 7.09361 8.22627 0.988071 14.5001 0.111857C13.9905 0.0409107 13.4727 0 12.9465 0C5.93941 0 0.259033 6.49186 0.259033 14.5C0.259033 22.5081 5.93941 29 12.9465 29C13.4727 29 13.9905 28.9591 14.5001 28.8881C8.22627 28.0119 3.36618 21.9064 3.36618 14.5Z" fill="#F4BF1A"/>
<path d="M16.0977 26.1644H16.0531C15.6906 26.1644 15.3255 26.1426 14.9682 26.1002C14.6839 26.066 14.4814 25.8086 14.5151 25.5243C14.5493 25.24 14.8087 25.0417 15.091 25.0717C15.4079 25.1095 15.7315 25.1287 16.0531 25.1287C16.3395 25.1287 16.5933 25.3607 16.5933 25.6465C16.5933 25.9324 16.3846 26.1644 16.0977 26.1644ZM19.109 25.6066C18.8998 25.6066 18.7025 25.4787 18.6243 25.2711C18.5233 25.0033 18.6585 24.7045 18.9262 24.6041C19.2245 24.4917 19.5223 24.3596 19.8097 24.212C20.0645 24.0805 20.3762 24.1815 20.5072 24.4363C20.6377 24.6905 20.5373 25.0028 20.2825 25.1333C19.9598 25.299 19.6269 25.4461 19.2913 25.573C19.2317 25.5958 19.1701 25.6066 19.109 25.6066ZM12.0998 25.211C12.0211 25.211 11.9408 25.1929 11.8657 25.1545C11.5473 24.9925 11.2319 24.8107 10.9289 24.6118C10.6897 24.4554 10.6229 24.1349 10.7793 23.8951C10.9367 23.6564 11.2567 23.5891 11.4965 23.7455C11.7673 23.9231 12.0496 24.0867 12.3344 24.2312C12.5892 24.3607 12.6912 24.6724 12.5617 24.9272C12.4706 25.1074 12.2883 25.211 12.0998 25.211ZM22.5139 23.3685C22.3824 23.3685 22.2503 23.3182 22.1493 23.2183C21.9463 23.0168 21.9448 22.689 22.1462 22.486C22.3715 22.2592 22.5906 22.0148 22.7972 21.76C22.9779 21.5383 23.3042 21.5047 23.5258 21.6849C23.7475 21.8651 23.7816 22.1914 23.6009 22.4135C23.3725 22.6942 23.1307 22.964 22.8816 23.2152C22.7801 23.3172 22.6465 23.3685 22.5139 23.3685ZM8.93674 22.6393C8.78708 22.6393 8.63845 22.5746 8.53592 22.4503C8.31117 22.1758 8.09522 21.8858 7.89481 21.5881C7.73479 21.3509 7.79745 21.0288 8.03463 20.8688C8.27129 20.7087 8.5934 20.7709 8.75342 21.0086C8.93622 21.2799 9.13249 21.544 9.33704 21.7931C9.51829 22.0143 9.48619 22.3405 9.26506 22.5223C9.16926 22.601 9.05222 22.6393 8.93674 22.6393ZM24.7904 19.9791C24.721 19.9791 24.6511 19.9651 24.5838 19.9361C24.3212 19.8217 24.2016 19.5166 24.3155 19.2541C24.4455 18.9568 24.5641 18.6482 24.6682 18.338C24.7593 18.0677 25.053 17.9211 25.3243 18.0123C25.5952 18.1039 25.7412 18.397 25.6501 18.6684C25.5361 19.0065 25.4067 19.3432 25.2653 19.6678C25.1798 19.8626 24.9893 19.9791 24.7904 19.9791ZM6.96267 19.064C6.74724 19.064 6.54579 18.9278 6.47226 18.7129C6.35781 18.3773 6.25631 18.0319 6.17035 17.686C6.10095 17.4084 6.26977 17.1278 6.54735 17.0589C6.82388 16.9885 7.10611 17.1583 7.17499 17.4359C7.25422 17.7533 7.34743 18.0708 7.45256 18.3784C7.54474 18.6492 7.40026 18.9434 7.12993 19.0355C7.07504 19.0547 7.01808 19.064 6.96267 19.064ZM25.7686 16.0102C25.7552 16.0102 25.7417 16.0097 25.7283 16.0087C25.4429 15.9864 25.2301 15.7373 25.2518 15.452C25.2762 15.1382 25.2886 14.8176 25.2886 14.5002C25.2886 14.2143 25.5206 13.9657 25.8065 13.9657C26.0923 13.9657 26.3243 14.1806 26.3243 14.4665V14.5002C26.3243 14.8445 26.3108 15.1915 26.2844 15.5322C26.2637 15.8036 26.0364 16.0102 25.7686 16.0102ZM6.30033 15.0237C6.01447 15.0237 5.78247 14.7974 5.78247 14.5115V14.5002C5.78247 14.147 5.79645 13.7917 5.8239 13.4453C5.84668 13.1605 6.09474 12.9492 6.38111 12.9699C6.66645 12.9927 6.87929 13.2423 6.85651 13.5271C6.83113 13.8471 6.81818 14.1744 6.81818 14.5002C6.81818 14.786 6.58618 15.0237 6.30033 15.0237ZM25.4279 11.9357C25.1964 11.9357 24.9856 11.7793 24.9266 11.5447C24.8463 11.2263 24.7526 10.9093 24.647 10.6017C24.5543 10.3314 24.6988 10.0367 24.9691 9.94405C25.2399 9.85031 25.5346 9.99531 25.6268 10.2662C25.7417 10.6007 25.8437 10.9456 25.9307 11.291C26.0007 11.5686 25.8323 11.8498 25.5553 11.9197C25.5133 11.9311 25.4709 11.9357 25.4279 11.9357ZM6.95593 10.9948C6.90052 10.9948 6.8446 10.9855 6.78918 10.9668C6.51835 10.8752 6.37335 10.581 6.46501 10.3102C6.57945 9.97356 6.70943 9.63747 6.85185 9.31174C6.96681 9.04919 7.27131 8.9306 7.53386 9.04453C7.7959 9.15897 7.91552 9.46451 7.80108 9.72655C7.67006 10.0253 7.55095 10.334 7.44635 10.6426C7.37229 10.8586 7.17188 10.9948 6.95593 10.9948ZM23.7708 8.20197C23.6045 8.20197 23.4419 8.12222 23.3415 7.97412C23.1581 7.70379 22.9613 7.44021 22.7563 7.19112C22.5745 6.97051 22.6061 6.64374 22.8267 6.46197C23.0473 6.28021 23.3741 6.3118 23.5558 6.5324C23.7811 6.80635 23.9976 7.09583 24.199 7.3936C24.3596 7.63026 24.2974 7.95237 24.0608 8.1129C23.9717 8.17297 23.8712 8.20197 23.7708 8.20197ZM8.92172 7.41431C8.80676 7.41431 8.69076 7.37599 8.59444 7.29728C8.37279 7.11654 8.34017 6.7903 8.52142 6.56865C8.74979 6.28901 8.99215 6.01972 9.24176 5.76856C9.44372 5.5666 9.77152 5.56505 9.97401 5.76649C10.177 5.96846 10.178 6.29574 9.97659 6.49874C9.75081 6.72608 9.53072 6.96999 9.32306 7.22426C9.22156 7.34958 9.07242 7.41431 8.92172 7.41431ZM20.8749 5.32735C20.7781 5.32735 20.6802 5.30042 20.5932 5.24346C20.3223 5.06687 20.0396 4.90426 19.7532 4.75978C19.4984 4.63083 19.3959 4.3196 19.5248 4.06429C19.6538 3.81003 19.9645 3.70594 20.2203 3.8354C20.5404 3.99646 20.8557 4.17822 21.1582 4.37553C21.3979 4.53192 21.4658 4.85299 21.3094 5.09224C21.21 5.24501 21.0448 5.32735 20.8749 5.32735ZM12.0812 4.83538C11.8927 4.83538 11.7109 4.73233 11.6192 4.55263C11.4893 4.29785 11.5908 3.9861 11.8455 3.85612C12.1682 3.69196 12.5017 3.54437 12.8378 3.41904C13.105 3.31858 13.4038 3.45426 13.5042 3.72251C13.6042 3.99024 13.4685 4.28853 13.2003 4.38899C12.9009 4.50085 12.6032 4.63187 12.3152 4.77894C12.2407 4.81726 12.1599 4.83538 12.0812 4.83538ZM17.0557 3.92965C17.0355 3.92965 17.0153 3.92862 16.9951 3.92603C16.6834 3.88978 16.3664 3.87165 16.0531 3.87165C15.7673 3.87165 15.5244 3.63965 15.5244 3.35379C15.5244 3.06794 15.7455 2.83594 16.0314 2.83594H16.0531C16.4063 2.83594 16.7636 2.85665 17.1147 2.89756C17.3985 2.93019 17.6026 3.18704 17.5694 3.47135C17.5394 3.73546 17.3146 3.92965 17.0557 3.92965Z" fill="#F4BF1A"/>
<path d="M3.36514 15.0181H0.259033C0.26939 15.3666 0.289069 15.712 0.320658 16.0538H3.42935C3.39725 15.712 3.37601 15.3666 3.36514 15.0181Z" fill="#DCA815"/>
<path d="M3.4838 12.4287H0.378733C0.335751 12.77 0.304679 13.1159 0.283447 13.4644H3.39007C3.41182 13.1159 3.44082 12.77 3.4838 12.4287Z" fill="#DCA815"/>
<path d="M3.6499 17.6069H0.542236C0.609558 17.957 0.687236 18.3024 0.77579 18.6426H3.88242C3.79438 18.3024 3.71722 17.957 3.6499 17.6069Z" fill="#DCA815"/>
<path d="M4.37435 20.1963H1.26514C1.39719 20.5495 1.54323 20.8938 1.69858 21.232H4.80624C4.65089 20.8944 4.5064 20.5489 4.37435 20.1963Z" fill="#DCA815"/>
<path d="M4.02493 9.83936H0.921407C0.820425 10.1796 0.726175 10.524 0.647461 10.8751H3.75823C3.83694 10.525 3.92446 10.1786 4.02493 9.83936Z" fill="#DCA815"/>
<path d="M5.05638 7.25H1.94923C1.77834 7.58713 1.61729 7.93202 1.47021 8.28571H4.57943C4.7265 7.93254 4.88548 7.58713 5.05638 7.25Z" fill="#DCA815"/>
<path d="M7.16973 4.14307H4.05896C3.7643 4.47242 3.48414 4.81783 3.21899 5.17878H6.32873C6.59439 4.81783 6.87507 4.47242 7.16973 4.14307Z" fill="#DCA815"/>
<path d="M10.3365 1.55371H7.22258C6.69333 1.85925 6.18583 2.20518 5.70215 2.58943H8.81395C9.29815 2.20518 9.80668 1.85925 10.3365 1.55371Z" fill="#DCA815"/>
<path d="M5.96539 23.3037H2.85669C3.09698 23.6626 3.35073 24.008 3.61898 24.3394H6.72974C6.46149 24.008 6.20619 23.6626 5.96539 23.3037Z" fill="#DCA815"/>
<path d="M5.0918 25.8931C5.50764 26.2675 5.94315 26.615 6.39887 26.9288H9.51326C9.05548 26.6144 8.6153 26.269 8.1979 25.8931H5.0918Z" fill="#DCA815"/>
</svg>
