<svg width="101" height="101" viewBox="0 0 101 101" fill="none" xmlns="http://www.w3.org/2000/svg">
    <path d="M49.8178 3.61719H51.4876L54.2707 38.5915H47.0347L49.8178 3.61719Z" fill="#FFC000" />
    <circle cx="50.6525" cy="3.61792" r="3.61792" fill="#FFC000" />
    <path d="M49.8157 96.4805L51.4856 96.4805L54.2687 61.5062L47.0326 61.5062L49.8157 96.4805Z"
        fill="#FFC000" />
    <circle cx="3.61792" cy="3.61792" r="3.61792"
        transform="matrix(1 1.54176e-07 1.54176e-07 -1 47.0327 100.098)" fill="#FFC000" />
    <path d="M96.4794 51.4864L96.4794 49.8166L61.5051 47.0335L61.5051 54.2695L96.4794 51.4864Z"
        fill="#FFC000" />
    <circle cx="3.61792" cy="3.61792" r="3.61792"
        transform="matrix(-5.1392e-08 -1 -1 5.1392e-08 100.098 54.2695)" fill="#FFC000" />
    <path d="M3.61865 49.8222L3.61865 51.492L38.593 54.2751L38.593 47.0391L3.61865 49.8222Z"
        fill="#FFC000" />
    <circle cx="3.61792" cy="3.61792" r="3.61792"
        transform="matrix(-5.13919e-08 1 1 5.13919e-08 0 47.0391)" fill="#FFC000" />
    <path
        d="M62.7112 50.0494C62.7112 57.0429 57.0419 62.7122 50.0485 62.7122C43.055 62.7122 37.3857 57.0429 37.3857 50.0494C37.3857 43.056 43.055 37.3867 50.0485 37.3867C57.0419 37.3867 62.7112 43.056 62.7112 50.0494ZM43.4424 50.0494C43.4424 53.6979 46.4 56.6555 50.0485 56.6555C53.6969 56.6555 56.6545 53.6979 56.6545 50.0494C56.6545 46.401 53.6969 43.4434 50.0485 43.4434C46.4 43.4434 43.4424 46.401 43.4424 50.0494Z"
        fill="#FFC000" />
</svg>
    