<svg width="350" height="350" viewBox="0 0 350 350" fill="none" xmlns="http://www.w3.org/2000/svg">
    <path
        d="M258 174.5C258 220.616 220.616 258 174.5 258C128.384 258 91 220.616 91 174.5C91 128.384 128.384 91 174.5 91C220.616 91 258 128.384 258 174.5ZM96.1752 174.5C96.1752 217.758 131.242 252.825 174.5 252.825C217.758 252.825 252.825 217.758 252.825 174.5C252.825 131.242 217.758 96.1752 174.5 96.1752C131.242 96.1752 96.1752 131.242 96.1752 174.5Z"
        fill="#AE8F41" />
    <path
        d="M164.201 51.5571C171.171 50.9672 178.179 50.9706 185.148 51.5671L181.668 92.2262C177.002 91.8268 172.309 91.8246 167.643 92.2195L164.201 51.5571Z"
        fill="#F1323E" />
    <path
        d="M164.201 51.5571C171.171 50.9672 178.179 50.9706 185.148 51.5671L181.668 92.2262C177.002 91.8268 172.309 91.8246 167.643 92.2195L164.201 51.5571Z"
        fill="#2AB161" />
    <path
        d="M168.366 77.3486C168.231 75.6058 169.609 74.1172 171.357 74.1172H177.875C179.623 74.1172 181.001 75.6058 180.866 77.3486L180.247 85.3486C180.126 86.911 178.823 88.1172 177.256 88.1172H171.976C170.409 88.1172 169.106 86.9111 168.985 85.3486L168.366 77.3486Z"
        fill="black" fill-opacity="0.25" />
    <path
        d="M171.725 62.976L171.671 57.8283L172.934 56.5391L176.343 56.5036L177.633 57.7662L177.686 62.9139L176.424 64.2032L173.014 64.2387L171.725 62.976ZM175.706 62.9346L176.185 62.4456L176.142 58.2658L175.653 57.7868L173.651 57.8077L173.172 58.2967L173.215 62.4765L173.704 62.9554L175.706 62.9346Z"
        fill="white" />
    <path
        d="M185.149 51.5691C192.118 52.1656 199.024 53.3532 205.793 55.1191L195.491 94.6052C190.959 93.4228 186.335 92.6276 181.668 92.2282L185.149 51.5691Z"
        fill="#F1323E" />
    <path
        d="M185.149 51.5691C192.118 52.1656 199.024 53.3532 205.793 55.1191L195.491 94.6052C190.959 93.4228 186.335 92.6276 181.668 92.2282L185.149 51.5691Z"
        fill="#F1323E" />
    <path
        d="M184.895 77.6921C185.056 75.9515 186.666 74.7172 188.389 75.0126L194.813 76.1141C196.536 76.4096 197.642 78.1096 197.215 79.8046L195.253 87.5849C194.869 89.1044 193.381 90.073 191.837 89.8081L186.633 88.9158C185.088 88.651 184.008 87.242 184.153 85.6816L184.895 77.6921Z"
        fill="black" fill-opacity="0.25" />
    <path
        d="M187.555 63.6889L187.747 62.4942L189.224 62.7317L189.104 63.4811L189.405 63.8971L191.359 64.2114L191.775 63.9106L191.973 62.6834L191.681 62.28L189.509 61.9307L189.712 60.6709L191.884 61.0201L192.287 60.7285L192.477 59.5447L192.177 59.1286L190.287 58.8248L189.871 59.1256L189.75 59.875L188.273 59.6375L188.465 58.4429L189.827 57.4585L193.042 57.9753L194.026 59.3369L193.694 61.4004L193.053 61.8543L193.518 62.4973L193.181 64.5934L191.819 65.5777L188.54 65.0504L187.555 63.6889ZM194.221 64.2592L198.702 61.3364L198.826 60.5653L198.525 60.1493L196.766 59.8664L196.35 60.1672L196.226 60.9383L194.749 60.7008L194.944 59.4845L196.306 58.5001L199.39 58.996L200.374 60.3575L200.109 62.0083L195.702 64.8204L195.684 64.929L199.583 65.5558L199.384 66.7939L193.954 65.9209L194.221 64.2592Z"
        fill="white" />
    <path
        d="M205.794 55.1163C212.562 56.8822 219.169 59.2199 225.541 62.1042L208.714 99.2813C204.447 97.35 200.024 95.7847 195.492 94.6024L205.794 55.1163Z"
        fill="#F1323E" />
    <path
        d="M205.794 55.1163C212.562 56.8822 219.169 59.2199 225.541 62.1042L208.714 99.2813C204.447 97.35 200.024 95.7847 195.492 94.6024L205.794 55.1163Z"
        fill="#202329" />
    <path
        d="M201.128 80.8216C201.582 79.1333 203.377 78.1888 205.025 78.7712L211.171 80.9426C212.819 81.5249 213.622 83.3875 212.914 84.9859L209.665 92.3226C209.031 93.7555 207.4 94.4586 205.923 93.9366L200.945 92.1777C199.467 91.6556 198.64 90.0842 199.047 88.5708L201.128 80.8216Z"
        fill="black" fill-opacity="0.25" />
    <path
        d="M210.156 63.6513L208.306 63.9262L208.751 62.6251L210.952 62.238L212.087 62.6257L209.597 69.9121L208.182 69.4284L210.156 63.6513ZM211.177 69.1963L211.582 68.0097L212.998 68.4934L212.738 69.2532L212.965 69.7141L214.817 70.3472L215.278 70.121L215.84 68.4764L215.614 68.0155L212.106 66.817L213.386 63.0697L218.508 64.8194L218.095 66.0269L214.369 64.7537L213.913 66.0861L216.651 67.0214L217.398 68.5437L216.548 71.0315L215.04 71.7716L211.917 70.7046L211.177 69.1963Z"
        fill="white" />
    <path
        d="M225.541 62.1068C231.913 64.9912 238.029 68.4118 243.823 72.3316L220.955 106.13C217.076 103.505 212.981 101.215 208.714 99.2838L225.541 62.1068Z"
        fill="#F1323E" />
    <path
        d="M225.541 62.1068C231.913 64.9912 238.029 68.4118 243.823 72.3316L220.955 106.13C217.076 103.505 212.981 101.215 208.714 99.2838L225.541 62.1068Z"
        fill="#F1323E" />
    <path
        d="M216.598 86.654C217.33 85.0667 219.259 84.4391 220.785 85.2917L226.475 88.4704C228.001 89.323 228.478 91.2945 227.511 92.7503L223.069 99.4324C222.201 100.737 220.475 101.155 219.107 100.391L214.498 97.8157C213.13 97.0514 212.58 95.3629 213.237 93.9399L216.598 86.654Z"
        fill="black" fill-opacity="0.25" />
    <path
        d="M228.298 71.2054L226.429 71.1638L227.087 69.9565L229.322 69.947L230.375 70.5209L226.69 77.2817L225.376 76.5658L228.298 71.2054ZM228.513 76.9222L228.981 76.0626L230.295 76.7785L230.052 77.2228L230.206 77.7451L231.848 78.6401L232.37 78.4863L233.218 76.9313L232.367 77.1817L230.233 76.0183L229.758 74.4066L230.964 72.1948L232.576 71.7203L235.531 73.3312L236.006 74.9429L233.458 79.6176L231.846 80.0921L228.987 78.5338L228.513 76.9222ZM232.901 76.0193L233.871 75.7337L234.466 74.6423L234.312 74.1199L232.573 73.1723L232.051 73.3261L231.298 74.7073L231.452 75.2296L232.901 76.0193Z"
        fill="white" />
    <path
        d="M243.825 72.3316C249.619 76.2515 255.069 80.6565 260.116 85.4991L231.865 114.947C228.485 111.704 224.836 108.755 220.957 106.13L243.825 72.3316Z"
        fill="#F1323E" />
    <path
        d="M243.825 72.3316C249.619 76.2515 255.069 80.6565 260.116 85.4991L231.865 114.947C228.485 111.704 224.836 108.755 220.957 106.13L243.825 72.3316Z"
        fill="#202329" />
    <path
        d="M230.862 95.015C231.852 93.5743 233.86 93.2817 235.22 94.3799L240.291 98.4746C241.651 99.5728 241.788 101.597 240.588 102.868L235.08 108.703C234.005 109.843 232.233 109.963 231.014 108.978L226.906 105.661C225.687 104.677 225.431 102.92 226.318 101.628L230.862 95.015Z"
        fill="black" fill-opacity="0.25" />
    <path
        d="M245.445 88.0695L242.528 85.7639L243.463 84.5816L249.1 82.9663L250.507 84.0782L247.41 87.9961L248.143 88.5759L247.352 89.5769L246.619 88.9971L245.732 90.119L244.558 89.1913L245.445 88.0695ZM246.261 87.1438L248.348 84.5031L248.313 84.4759L244.535 85.5838L244.44 85.7046L246.261 87.1438Z"
        fill="white" />
    <path
        d="M75.3552 101.137C79.5172 95.5152 84.1493 90.2569 89.2016 85.4191L117.425 114.893C114.042 118.133 110.94 121.653 108.154 125.418L75.3552 101.137Z"
        fill="#F1323E" />
    <path
        d="M75.3552 101.137C79.5172 95.5152 84.1493 90.2569 89.2016 85.4191L117.425 114.893C114.042 118.133 110.94 121.653 108.154 125.418L75.3552 101.137Z"
        fill="#202329" />
    <path
        d="M97.4682 115.049C96.0708 113.999 95.8636 111.981 97.0185 110.668L101.324 105.776C102.479 104.463 104.507 104.413 105.726 105.665L111.323 111.415C112.416 112.538 112.46 114.313 111.425 115.49L107.937 119.453C106.902 120.629 105.135 120.811 103.883 119.869L97.4682 115.049Z"
        fill="black" fill-opacity="0.25" />
    <path
        d="M86.4653 105.234L86.3256 99.8859L85.734 99.376L85.222 99.4141L84.0587 100.764L84.0967 101.276L84.6883 101.786L83.7118 102.919L82.7785 102.115L82.6541 100.439L84.6934 98.0728L86.3689 97.9484L87.6355 99.0399L87.7194 104.267L87.8028 104.339L90.3807 101.347L91.3306 102.166L87.7402 106.332L86.4653 105.234ZM91.0426 100.68L89.4594 99.3161L89.3868 98.3387L88.5646 98.3998L87.0814 97.1216L86.957 95.4461L89.1256 92.9296L90.8011 92.8052L92.2843 94.0834L92.3454 94.9056L93.3227 94.8331L94.9059 96.1974L95.0304 97.8729L92.7181 100.556L91.0426 100.68ZM91.073 95.5227L91.0327 94.9797L90.1828 94.2473L89.6398 94.2876L88.376 95.7541L88.4163 96.2971L89.2662 97.0296L89.8092 96.9892L91.073 95.5227ZM93.6114 97.5649L93.571 97.0219L92.6378 96.2176L92.0948 96.258L90.6873 97.8912L90.7277 98.4342L91.6609 99.2384L92.2039 99.1981L93.6114 97.5649Z"
        fill="white" />
    <path
        d="M89.2035 85.4193C94.2557 80.5816 99.7099 76.1818 105.507 72.2674L128.343 106.088C124.461 108.708 120.809 111.654 117.426 114.894L89.2035 85.4193Z"
        fill="#F1323E" />
    <path
        d="M89.2035 85.4193C94.2557 80.5816 99.7099 76.1818 105.507 72.2674L128.343 106.088C124.461 108.708 120.809 111.654 117.426 114.894L89.2035 85.4193Z"
        fill="#F1323E" />
    <path
        d="M108.647 102.869C107.447 101.598 107.584 99.5737 108.944 98.4755L114.015 94.3808C115.375 93.2826 117.382 93.5752 118.372 95.0159L122.916 101.629C123.804 102.921 123.548 104.678 122.329 105.662L118.221 108.979C117.002 109.963 115.23 109.844 114.155 108.704L108.647 102.869Z"
        fill="black" fill-opacity="0.25" />
    <path
        d="M98.8959 86.0696L98.1605 87.7884L97.2856 86.7277L98.1101 84.6502L99.0351 83.8873L103.935 89.8274L102.781 90.7793L98.8959 86.0696ZM103.787 87.7673L104.553 82.4726L104.056 81.8701L103.545 81.8211L102.171 82.955L102.122 83.466L102.619 84.0685L101.465 85.0204L100.681 84.07L100.841 82.3976L103.251 80.4098L104.924 80.5703L105.987 81.8602L105.187 87.0264L105.257 87.1113L108.303 84.5986L109.101 85.5659L104.858 89.0656L103.787 87.7673Z"
        fill="white" />
    <path
        d="M105.506 72.2628C111.303 68.3485 117.422 64.9338 123.798 62.0555L140.589 99.2485C136.321 101.176 132.223 103.462 128.342 106.083L105.506 72.2628Z"
        fill="#F1323E" />
    <path
        d="M105.506 72.2628C111.303 68.3485 117.422 64.9338 123.798 62.0555L140.589 99.2485C136.321 101.176 132.223 103.462 128.342 106.083L105.506 72.2628Z"
        fill="#202329" />
    <path
        d="M121.721 92.746C120.753 91.2902 121.23 89.3187 122.756 88.4662L128.446 85.2874C129.972 84.4348 131.901 85.0624 132.633 86.6497L135.994 93.9357C136.651 95.3586 136.101 97.0471 134.733 97.8114L130.124 100.386C128.756 101.151 127.03 100.733 126.163 99.4281L121.721 92.746Z"
        fill="black" fill-opacity="0.25" />
    <path
        d="M114.839 80.2681L114.238 79.218L115.536 78.4748L115.913 79.1335L116.408 79.2683L118.127 78.2846L118.261 77.7893L117.644 76.7105L117.164 76.5799L115.254 77.6728L114.62 76.5653L116.53 75.4725L116.66 74.9921L116.065 73.9515L115.569 73.8168L113.908 74.7676L113.774 75.263L114.151 75.9217L112.852 76.6649L112.251 75.6147L112.692 73.9935L115.518 72.376L117.139 72.8169L118.177 74.6308L117.964 75.3868L118.729 75.595L119.784 77.4375L119.343 79.0587L116.46 80.709L114.839 80.2681ZM120.686 76.9209L120.063 75.8326L121.362 75.0894L121.761 75.7863L122.256 75.921L123.955 74.9484L124.09 74.453L123.227 72.9446L122.731 72.8099L119.514 74.6514L117.547 71.2146L122.244 68.5261L122.878 69.6335L119.46 71.5898L120.159 72.8118L122.67 71.3746L124.306 71.8196L125.612 74.1013L125.172 75.7225L122.308 77.3618L120.686 76.9209Z"
        fill="white" />
    <path
        d="M123.8 62.0609C130.175 59.1827 136.783 56.8513 143.553 55.0919L153.818 94.5877C149.284 95.7658 144.86 97.3268 140.591 99.254L123.8 62.0609Z"
        fill="#F1323E" />
    <path
        d="M123.8 62.0609C130.175 59.1827 136.783 56.8513 143.553 55.0919L153.818 94.5877C149.284 95.7658 144.86 97.3268 140.591 99.254L123.8 62.0609Z"
        fill="#F1323E" />
    <path
        d="M136.319 84.9909C135.611 83.3925 136.414 81.5299 138.063 80.9476L144.208 78.7762C145.856 78.1938 147.651 79.1383 148.105 80.8266L150.186 88.5758C150.593 90.0892 149.766 91.6606 148.288 92.1827L143.31 93.9416C141.833 94.4637 140.202 93.7605 139.568 92.3277L136.319 84.9909Z"
        fill="black" fill-opacity="0.25" />
    <path
        d="M134.778 70.3844L134.363 69.2478L135.768 68.7347L136.029 69.4477L136.494 69.6642L138.354 68.9852L138.571 68.5197L138.144 67.3521L137.693 67.1421L135.626 67.8966L135.189 66.698L137.255 65.9435L137.465 65.4921L137.054 64.3659L136.589 64.1494L134.791 64.8058L134.574 65.2712L134.834 65.9842L133.429 66.4973L133.014 65.3606L133.723 63.8373L136.781 62.7206L138.305 63.4292L139.021 65.3924L138.683 66.1014L139.402 66.436L140.131 68.4303L139.422 69.9537L136.301 71.0929L134.778 70.3844Z"
        fill="white" />
    <path
        d="M143.555 55.0872C150.325 53.3278 157.232 52.1468 164.202 51.5569L167.644 92.2193C162.977 92.6143 158.352 93.4051 153.819 94.5831L143.555 55.0872Z"
        fill="#F1323E" />
    <path
        d="M143.555 55.0872C150.325 53.3278 157.232 52.1468 164.202 51.5569L167.644 92.2193C162.977 92.6143 158.352 93.4051 153.819 94.5831L143.555 55.0872Z"
        fill="#202329" />
    <path
        d="M152.019 79.8029C151.591 78.1079 152.698 76.4078 154.421 76.1124L160.845 75.0109C162.568 74.7154 164.177 75.9497 164.339 77.6903L165.081 85.6799C165.226 87.2402 164.145 88.6492 162.601 88.9141L157.397 89.8064C155.852 90.0712 154.364 89.1027 153.981 87.5832L152.019 79.8029Z"
        fill="black" fill-opacity="0.25" />
    <path
        d="M149.71 65.2391L152.961 60.9905L152.821 60.2222L152.399 59.9301L150.646 60.2496L150.354 60.6717L150.494 61.4401L149.022 61.7083L148.801 60.4962L149.757 59.1145L152.831 58.5545L154.212 59.5103L154.512 61.1552L151.293 65.2749L151.313 65.3831L155.198 64.6752L155.423 65.9089L150.012 66.8949L149.71 65.2391ZM156.186 64.5623L155.232 59.3245L156.188 57.9428L159.456 57.3473L160.838 58.3031L161.035 59.3853L159.563 59.6535L159.451 59.0366L159.003 58.7269L157.098 59.0739L156.789 59.5217L157.114 61.3073L157.64 60.5741L160.01 60.1423L161.392 61.0981L161.835 63.533L160.88 64.9147L157.568 65.5181L156.186 64.5623ZM159.969 63.7836L160.279 63.3358L160.005 61.8316L159.557 61.5218L158.02 61.8018L157.378 62.7574L157.573 63.8288L158.021 64.1385L159.969 63.7836Z"
        fill="white" />
    <path
        d="M260.115 85.5026C265.163 90.3453 269.79 95.608 273.947 101.234L241.125 125.483C238.342 121.716 235.244 118.192 231.864 114.95L260.115 85.5026Z"
        fill="#F1323E" />
    <path
        d="M260.115 85.5026C265.163 90.3453 269.79 95.608 273.947 101.234L241.125 125.483C238.342 121.716 235.244 118.192 231.864 114.95L260.115 85.5026Z"
        fill="#F1323E" />
    <path
        d="M243.505 105.67C244.725 104.418 246.753 104.468 247.907 105.781L252.213 110.674C253.368 111.986 253.161 114.004 251.764 115.054L245.349 119.874C244.096 120.816 242.33 120.634 241.295 119.458L237.807 115.495C236.771 114.318 236.816 112.543 237.909 111.42L243.505 105.67Z"
        fill="black" fill-opacity="0.25" />
    <path
        d="M255.582 97.0507L260.905 97.5917L261.486 97.0696L261.513 96.557L260.322 95.2316L259.809 95.2043L259.228 95.7263L258.228 94.6136L259.145 93.7901L260.822 93.8796L262.91 96.2031L262.821 97.8808L261.577 98.9985L256.382 98.4175L256.3 98.4911L258.94 101.428L258.007 102.266L254.331 98.1757L255.582 97.0507ZM264.101 99.9137L262.352 99.2518L263.375 98.3327L265.486 99.0684L266.287 99.9602L260.56 105.107L259.56 103.995L264.101 99.9137Z"
        fill="white" />
    <path
        d="M273.948 101.227C278.105 106.853 281.776 112.822 284.922 119.069L248.474 137.423C246.368 133.24 243.91 129.243 241.127 125.476L273.948 101.227Z"
        fill="#F1323E" />
    <path
        d="M273.948 101.227C278.105 106.853 281.776 112.822 284.922 119.069L248.474 137.423C246.368 133.24 243.91 129.243 241.127 125.476L273.948 101.227Z"
        fill="#202329" />
    <path
        d="M254.169 118.294C255.583 117.265 257.573 117.658 258.489 119.147L261.906 124.697C262.823 126.185 262.277 128.139 260.723 128.938L253.586 132.605C252.192 133.321 250.482 132.844 249.66 131.51L246.892 127.014C246.07 125.679 246.414 123.937 247.681 123.015L254.169 118.294Z"
        fill="black" fill-opacity="0.25" />
    <path
        d="M268.648 113.618L273.803 115.05L274.464 114.634L274.577 114.133L273.627 112.626L273.127 112.512L272.466 112.929L271.668 111.663L272.711 111.006L274.349 111.378L276.014 114.021L275.643 115.659L274.228 116.551L269.205 115.1L269.112 115.159L271.218 118.5L270.157 119.168L267.225 114.515L268.648 113.618Z"
        fill="white" />
    <path
        d="M284.921 119.072C288.067 125.32 290.676 131.824 292.721 138.513L253.696 150.443C252.327 145.964 250.579 141.609 248.473 137.426L284.921 119.072Z"
        fill="#F1323E" />
    <path
        d="M284.921 119.072C288.067 125.32 290.676 131.824 292.721 138.513L253.696 150.443C252.327 145.964 250.579 141.609 248.473 137.426L284.921 119.072Z"
        fill="#F1323E" />
    <path
        d="M262.542 132.554C264.108 131.779 266.003 132.503 266.655 134.125L269.085 140.172C269.737 141.795 268.869 143.628 267.202 144.153L259.548 146.561C258.053 147.031 256.448 146.272 255.864 144.818L253.895 139.919C253.311 138.464 253.944 136.806 255.349 136.111L262.542 132.554Z"
        fill="black" fill-opacity="0.25" />
    <path
        d="M276.327 127.308L281.166 129.591L281.887 129.292L282.084 128.818L281.402 127.171L280.928 126.975L280.206 127.274L279.634 125.891L280.772 125.42L282.324 126.063L283.519 128.95L282.876 130.502L281.331 131.141L276.626 128.863L276.524 128.905L278.035 132.554L276.876 133.033L274.772 127.951L276.327 127.308ZM278.311 133.394L279.47 132.915L280.042 134.297L279.3 134.604L279.103 135.078L279.852 136.887L280.327 137.084L281.932 136.419L282.129 135.945L280.711 132.52L284.37 131.005L286.44 136.006L285.261 136.494L283.755 132.855L282.454 133.394L283.56 136.067L282.911 137.633L280.482 138.639L278.93 137.995L277.668 134.946L278.311 133.394Z"
        fill="white" />
    <path
        d="M292.723 138.512C294.767 145.201 296.24 152.052 297.125 158.991L256.645 164.153C256.053 159.507 255.066 154.92 253.697 150.441L292.723 138.512Z"
        fill="#F1323E" />
    <path
        d="M292.723 138.512C294.767 145.201 296.24 152.052 297.125 158.991L256.645 164.153C256.053 159.507 255.066 154.92 253.697 150.441L292.723 138.512Z"
        fill="#202329" />
    <path
        d="M268.387 148.015C270.062 147.516 271.808 148.549 272.176 150.258L273.549 156.63C273.917 158.339 272.752 159.999 271.02 160.234L263.069 161.314C261.516 161.525 260.063 160.506 259.733 158.974L258.621 153.812C258.291 152.28 259.195 150.753 260.697 150.305L268.387 148.015Z"
        fill="black" fill-opacity="0.25" />
    <path
        d="M287.842 147.153L286.639 145.722L287.98 145.418L289.463 147.09L289.728 148.259L282.218 149.96L281.888 148.501L287.842 147.153ZM289.419 153.121L289.516 153.099L288.665 149.344L289.91 149.062L291.105 154.341L289.732 154.652L282.913 153.026L282.563 151.481L289.419 153.121Z"
        fill="white" />
    <path
        d="M297.123 158.994C298.008 165.933 298.302 172.935 298.001 179.923L257.231 178.17C257.432 173.491 257.236 168.803 256.643 164.157L297.123 158.994Z"
        fill="#F1323E" />
    <path
        d="M297.123 158.994C298.008 165.933 298.302 172.935 298.001 179.923L257.231 178.17C257.432 173.491 257.236 168.803 256.643 164.157L297.123 158.994Z"
        fill="#F1323E" />
    <path
        d="M271.532 164.25C273.267 164.041 274.813 165.355 274.887 167.101L275.163 173.613C275.237 175.36 273.809 176.8 272.062 176.739L264.042 176.459C262.476 176.405 261.216 175.154 261.15 173.588L260.926 168.314C260.859 166.748 262.009 165.395 263.565 165.208L271.532 164.25Z"
        fill="black" fill-opacity="0.25" />
    <path
        d="M285.78 163.871L286.989 163.807L287.068 165.301L286.31 165.341L285.966 165.723L286.071 167.7L286.453 168.043L287.694 167.978L288.027 167.608L287.911 165.411L289.185 165.343L289.301 167.54L289.671 167.873L290.868 167.81L291.212 167.428L291.111 165.517L290.729 165.174L289.971 165.214L289.892 163.72L291.1 163.656L292.35 164.779L292.521 168.031L291.398 169.28L289.311 169.39L288.732 168.859L288.201 169.449L286.081 169.561L284.832 168.438L284.657 165.12L285.78 163.871ZM286.554 173.915L286.357 170.202L287.862 170.123L292.799 173.288L292.894 175.078L287.907 175.342L287.956 176.275L286.682 176.343L286.633 175.409L285.205 175.485L285.126 173.991L286.554 173.915ZM287.788 173.916L291.149 173.738L291.147 173.694L287.819 171.59L287.665 171.598L287.788 173.916Z"
        fill="white" />
    <path
        d="M298.003 179.925C297.702 186.914 296.809 193.864 295.331 200.701L255.444 192.083C256.433 187.505 257.032 182.851 257.233 178.172L298.003 179.925Z"
        fill="#F1323E" />
    <path
        d="M298.003 179.925C297.702 186.914 296.809 193.864 295.331 200.701L255.444 192.083C256.433 187.505 257.032 182.851 257.233 178.172L298.003 179.925Z"
        fill="#202329" />
    <path
        d="M271.891 180.779C273.637 180.867 274.938 182.422 274.716 184.156L273.888 190.621C273.666 192.355 272.014 193.533 270.303 193.177L262.446 191.547C260.912 191.228 259.881 189.783 260.08 188.228L260.751 182.991C260.95 181.437 262.312 180.298 263.877 180.376L271.891 180.779Z"
        fill="black" fill-opacity="0.25" />
    <path
        d="M285.614 186.093L290.901 186.715L291.943 188.033L291.555 191.333L290.236 192.374L289.144 192.245L289.318 190.76L289.941 190.833L290.368 190.495L290.594 188.573L290.257 188.145L288.454 187.933L289.001 188.651L288.72 191.044L287.402 192.085L284.944 191.796L283.902 190.477L284.295 187.134L285.614 186.093ZM285.251 189.938L285.588 190.365L287.107 190.544L287.534 190.207L287.716 188.655L286.991 187.761L285.909 187.634L285.482 187.972L285.251 189.938Z"
        fill="white" />
    <path
        d="M295.329 200.701C293.852 207.538 291.797 214.237 289.185 220.727L251.328 205.491C253.077 201.146 254.453 196.66 255.442 192.082L295.329 200.701Z"
        fill="#F1323E" />
    <path
        d="M295.329 200.701C293.852 207.538 291.797 214.237 289.185 220.727L251.328 205.491C253.077 201.146 254.453 196.66 255.442 192.082L295.329 200.701Z"
        fill="#F1323E" />
    <path
        d="M269.449 197.129C271.155 197.51 272.175 199.264 271.663 200.935L269.754 207.167C269.242 208.838 267.415 209.72 265.788 209.08L258.32 206.146C256.862 205.572 256.09 203.973 256.549 202.475L258.095 197.427C258.554 195.928 260.089 195.036 261.619 195.378L269.449 197.129Z"
        fill="black" fill-opacity="0.25" />
    <path
        d="M283.339 202.152L285.669 206.968L286.418 207.189L286.869 206.944L287.373 205.235L287.128 204.784L286.379 204.563L286.802 203.128L287.983 203.476L288.787 204.952L287.903 207.948L286.427 208.752L284.824 208.279L282.595 203.55L282.489 203.519L281.372 207.306L280.169 206.952L281.725 201.676L283.339 202.152ZM285.021 212.858L285.116 212.886L286.205 209.193L287.429 209.554L285.898 214.745L284.548 214.347L279.387 209.602L279.835 208.083L285.021 212.858Z"
        fill="white" />
    <path
        d="M289.188 220.729C286.576 227.218 283.418 233.474 279.747 239.428L245.01 218.014C247.467 214.027 249.582 209.838 251.331 205.493L289.188 220.729Z"
        fill="#F1323E" />
    <path
        d="M289.188 220.729C286.576 227.218 283.418 233.474 279.747 239.428L245.01 218.014C247.467 214.027 249.582 209.838 251.331 205.493L289.188 220.729Z"
        fill="#202329" />
    <path
        d="M264.283 212.835C265.9 213.499 266.609 215.4 265.822 216.96L262.887 222.78C262.1 224.341 260.151 224.901 258.655 223.996L251.791 219.841C250.45 219.03 249.96 217.323 250.665 215.924L253.043 211.21C253.748 209.81 255.412 209.19 256.861 209.785L264.283 212.835Z"
        fill="black" fill-opacity="0.25" />
    <path
        d="M280.157 223.989L280.119 222.12L281.353 222.726L281.458 224.959L280.929 226.035L274.018 222.64L274.678 221.297L280.157 223.989ZM274.576 224.198L275.662 224.732L275.002 226.075L274.321 225.74L273.835 225.906L272.962 227.683L273.128 228.169L274.243 228.717L274.714 228.556L275.685 226.582L276.83 227.144L275.86 229.119L276.02 229.59L277.097 230.119L277.582 229.953L278.426 228.235L278.261 227.749L277.579 227.414L278.239 226.072L279.325 226.605L279.868 228.195L278.432 231.118L276.842 231.66L274.966 230.739L274.72 229.993L273.969 230.249L272.063 229.313L271.521 227.722L272.986 224.741L274.576 224.198Z"
        fill="white" />
    <path
        d="M279.745 239.428C276.075 245.382 271.905 251.014 267.28 256.263L236.662 229.285C239.758 225.771 242.55 222 245.008 218.013L279.745 239.428Z"
        fill="#F1323E" />
    <path
        d="M279.745 239.428C276.075 245.382 271.905 251.014 267.28 256.263L236.662 229.285C239.758 225.771 242.55 222 245.008 218.013L279.745 239.428Z"
        fill="#F1323E" />
    <path
        d="M256.533 227.44C258.015 228.368 258.392 230.361 257.352 231.766L253.476 237.006C252.437 238.411 250.421 238.634 249.1 237.489L243.036 232.234C241.852 231.207 241.657 229.443 242.589 228.183L245.729 223.938C246.661 222.678 248.405 222.348 249.733 223.18L256.533 227.44Z"
        fill="black" fill-opacity="0.25" />
    <path
        d="M267.994 235.905L268.974 236.615L268.097 237.827L267.482 237.382L266.975 237.463L265.814 239.067L265.896 239.574L266.903 240.302L267.394 240.224L268.684 238.441L269.718 239.189L268.428 240.972L268.507 241.463L269.478 242.166L269.985 242.085L271.107 240.534L271.026 240.028L270.411 239.583L271.288 238.371L272.268 239.08L272.534 240.739L270.625 243.377L268.966 243.643L267.273 242.417L267.157 241.64L266.373 241.766L264.653 240.521L264.387 238.862L266.335 236.171L267.994 235.905ZM263.979 241.453L268.292 244.574L268.558 246.233L266.61 248.924L264.952 249.19L264.06 248.545L264.937 247.333L265.445 247.701L265.983 247.615L267.118 246.046L267.032 245.509L265.562 244.445L265.689 245.338L264.277 247.29L262.618 247.555L260.613 246.104L260.347 244.445L262.32 241.719L263.979 241.453ZM261.787 244.632L261.873 245.17L263.112 246.066L263.649 245.98L264.565 244.715L264.367 243.58L263.485 242.942L262.948 243.028L261.787 244.632Z"
        fill="white" />
    <path
        d="M267.281 256.265C262.657 261.513 257.595 266.359 252.15 270.751L226.531 238.987C230.177 236.047 233.566 232.802 236.662 229.288L267.281 256.265Z"
        fill="#F1323E" />
    <path
        d="M267.281 256.265C262.657 261.513 257.595 266.359 252.15 270.751L226.531 238.987C230.177 236.047 233.566 232.802 236.662 229.288L267.281 256.265Z"
        fill="#202329" />
    <path
        d="M246.429 240.523C247.732 241.689 247.767 243.717 246.505 244.926L241.8 249.436C240.537 250.645 238.513 250.524 237.404 249.172L232.316 242.968C231.322 241.756 231.429 239.984 232.56 238.899L236.372 235.246C237.503 234.162 239.279 234.131 240.447 235.176L246.429 240.523Z"
        fill="black" fill-opacity="0.25" />
    <path
        d="M256.812 257.181L257.399 255.406L258.361 256.389L257.715 258.528L256.858 259.367L251.473 253.863L252.542 252.817L256.812 257.181ZM253.81 260.118L254.397 258.343L255.359 259.326L254.713 261.466L253.856 262.304L248.471 256.801L249.54 255.755L253.81 260.118Z"
        fill="white" />
    <path
        d="M252.149 270.751C246.704 275.142 240.896 279.063 234.787 282.471L214.905 246.834C218.995 244.552 222.884 241.927 226.53 238.987L252.149 270.751Z"
        fill="#F1323E" />
    <path
        d="M252.149 270.751C246.704 275.142 240.896 279.063 234.787 282.471L214.905 246.834C218.995 244.552 222.884 241.927 226.53 238.987L252.149 270.751Z"
        fill="#F1323E" />
    <path
        d="M234.257 251.713C235.344 253.081 235.036 255.086 233.588 256.065L228.187 259.714C226.739 260.693 224.764 260.231 223.9 258.711L219.933 251.736C219.159 250.374 219.563 248.645 220.862 247.768L225.236 244.812C226.534 243.934 228.289 244.204 229.264 245.431L234.257 251.713Z"
        fill="black" fill-opacity="0.25" />
    <path
        d="M242.379 263.42L243.066 264.415L241.836 265.266L241.404 264.641L240.899 264.549L239.27 265.675L239.178 266.18L239.885 267.202L240.374 267.292L242.184 266.041L242.91 267.091L241.1 268.341L241.01 268.831L241.692 269.817L242.197 269.91L243.772 268.822L243.864 268.317L243.432 267.692L244.663 266.842L245.351 267.837L245.049 269.49L242.37 271.341L240.718 271.039L239.53 269.32L239.678 268.548L238.898 268.406L237.691 266.659L237.993 265.006L240.726 263.118L242.379 263.42ZM236.795 267.385L239.722 271.62L239.397 273.396L236.592 275.334L234.817 275.01L231.89 270.775L232.215 269L235.02 267.061L236.795 267.385ZM233.519 269.649L233.396 270.322L235.772 273.761L236.446 273.884L238.093 272.746L238.216 272.073L235.839 268.634L235.166 268.511L233.519 269.649Z"
        fill="white" />
    <path
        d="M234.788 282.472C228.679 285.88 222.292 288.763 215.695 291.09L202.122 252.605C206.539 251.048 210.815 249.117 214.906 246.835L234.788 282.472Z"
        fill="#F1323E" />
    <path
        d="M234.788 282.472C228.679 285.88 222.292 288.763 215.695 291.09L202.122 252.605C206.539 251.048 210.815 249.117 214.906 246.835L234.788 282.472Z"
        fill="#202329" />
    <path
        d="M220.371 260.686C221.211 262.218 220.569 264.142 218.976 264.862L213.036 267.546C211.443 268.266 209.575 267.477 208.98 265.833L206.249 258.288C205.716 256.815 206.407 255.179 207.835 254.534L212.646 252.359C214.074 251.714 215.758 252.277 216.512 253.651L220.371 260.686Z"
        fill="black" fill-opacity="0.25" />
    <path
        d="M223.169 275.096L224.049 276.992L223.713 277.912L224.487 278.195L225.312 279.971L224.735 281.549L221.722 282.948L220.145 282.372L219.32 280.596L219.603 279.821L218.682 279.485L217.802 277.589L218.379 276.012L221.591 274.519L223.169 275.096ZM221.016 279.783L220.829 280.295L221.302 281.312L221.813 281.499L223.569 280.684L223.756 280.172L223.283 279.155L222.772 278.968L221.016 279.783ZM219.545 276.877L219.358 277.388L219.877 278.505L220.388 278.692L222.344 277.784L222.531 277.273L222.011 276.155L221.5 275.968L219.545 276.877Z"
        fill="white" />
    <path
        d="M215.694 291.088C209.097 293.414 202.315 295.176 195.42 296.355L188.546 256.13C193.162 255.341 197.704 254.161 202.121 252.604L215.694 291.088Z"
        fill="#F1323E" />
    <path
        d="M215.694 291.088C209.097 293.414 202.315 295.176 195.42 296.355L188.546 256.13C193.162 255.341 197.704 254.161 202.121 252.604L215.694 291.088Z"
        fill="#F1323E" />
    <path
        d="M205.166 267.178C205.736 268.831 204.778 270.618 203.086 271.059L196.778 272.7C195.087 273.141 193.378 272.047 193.07 270.327L191.653 262.429C191.377 260.886 192.334 259.391 193.851 258.996L198.96 257.666C200.477 257.271 202.042 258.11 202.552 259.592L205.166 267.178Z"
        fill="black" fill-opacity="0.25" />
    <path
        d="M208.597 281.525L205.717 286.034L205.922 286.787L206.367 287.043L208.087 286.576L208.342 286.13L208.138 285.377L209.582 284.985L209.904 286.174L209.069 287.631L206.054 288.45L204.596 287.615L204.158 286.001L207.016 281.623L206.988 281.517L203.177 282.552L202.848 281.341L208.156 279.901L208.597 281.525ZM202.414 282.69L202.731 283.858L201.287 284.25L201.088 283.517L200.643 283.262L198.732 283.781L198.477 284.226L198.802 285.426L199.234 285.673L201.357 285.097L201.692 286.329L199.568 286.905L199.321 287.337L199.635 288.494L200.081 288.749L201.928 288.248L202.183 287.802L201.984 287.07L203.428 286.678L203.745 287.846L202.91 289.303L199.767 290.156L198.309 289.321L197.762 287.304L198.159 286.626L197.471 286.232L196.915 284.183L197.75 282.725L200.956 281.855L202.414 282.69Z"
        fill="white" />
    <path
        d="M195.419 296.357C188.524 297.536 181.542 298.126 174.547 298.122L174.57 257.314C179.253 257.317 183.929 256.921 188.545 256.133L195.419 296.357Z"
        fill="#F1323E" />
    <path
        d="M195.419 296.357C188.524 297.536 181.542 298.126 174.547 298.122L174.57 257.314C179.253 257.317 183.929 256.921 188.545 256.133L195.419 296.357Z"
        fill="#202329" />
    <path
        d="M189.084 271.012C189.366 272.737 188.12 274.337 186.378 274.486L179.883 275.038C178.142 275.186 176.643 273.819 176.629 272.071L176.568 264.048C176.556 262.481 177.753 261.168 179.314 261.036L184.575 260.588C186.136 260.456 187.537 261.547 187.79 263.093L189.084 271.012Z"
        fill="black" fill-opacity="0.25" />
    <path
        d="M188.18 290.353L189.752 289.341L189.883 290.709L188.036 291.969L186.843 292.083L186.111 284.418L187.6 284.275L188.18 290.353ZM184.865 285.818L185.355 290.943L184.206 292.335L180.811 292.659L179.42 291.51L178.93 286.385L180.079 284.994L183.473 284.669L184.865 285.818ZM180.901 286.197L180.465 286.725L180.863 290.886L181.391 291.322L183.383 291.131L183.819 290.603L183.422 286.442L182.894 286.007L180.901 286.197Z"
        fill="white" />
    <path
        d="M174.546 298.118C167.551 298.114 160.569 297.515 153.675 296.329L160.595 256.112C165.211 256.907 169.885 257.307 174.569 257.31L174.546 298.118Z"
        fill="#F1323E" />
    <path
        d="M174.546 298.118C167.551 298.114 160.569 297.515 153.675 296.329L160.595 256.112C165.211 256.907 169.885 257.307 174.569 257.31L174.546 298.118Z"
        fill="#F1323E" />
    <path
        d="M172.586 272.064C172.572 273.812 171.073 275.178 169.331 275.03L162.837 274.476C161.095 274.328 159.849 272.728 160.131 271.002L161.427 263.084C161.68 261.537 163.081 260.446 164.642 260.579L169.903 261.028C171.464 261.161 172.66 262.473 172.648 264.04L172.586 272.064Z"
        fill="black" fill-opacity="0.25" />
    <path
        d="M167.884 286.001L167.79 287.251L166.298 287.14L166.358 286.339L166.023 285.95L164.071 285.804L163.682 286.139L163.552 287.872L163.887 288.261L167.584 288.538L167.289 292.487L161.892 292.083L161.987 290.811L165.914 291.104L166.019 289.7L163.134 289.485L162.028 288.2L162.224 285.578L163.497 284.482L166.788 284.728L167.884 286.001Z"
        fill="white" />
    <path
        d="M153.675 296.331C146.781 295.145 140.001 293.375 133.406 291.041L147.023 252.572C151.438 254.135 155.978 255.32 160.594 256.114L153.675 296.331Z"
        fill="#F1323E" />
    <path
        d="M153.675 296.331C146.781 295.145 140.001 293.375 133.406 291.041L147.023 252.572C151.438 254.135 155.978 255.32 160.594 256.114L153.675 296.331Z"
        fill="#202329" />
    <path
        d="M156.146 270.322C155.837 272.042 154.128 273.135 152.437 272.695L146.129 271.052C144.438 270.611 143.479 268.823 144.049 267.171L146.665 259.585C147.176 258.104 148.741 257.265 150.257 257.66L155.366 258.991C156.883 259.386 157.84 260.881 157.563 262.424L156.146 270.322Z"
        fill="black" fill-opacity="0.25" />
    <path
        d="M152.018 284.489L147.306 287.021L147.117 287.779L147.381 288.219L149.11 288.65L149.55 288.385L149.739 287.628L151.191 287.99L150.893 289.185L149.452 290.05L146.421 289.294L145.556 287.854L145.961 286.232L150.591 283.804L150.617 283.697L146.786 282.742L147.089 281.525L152.426 282.856L152.018 284.489ZM142.653 281.892L146.26 282.792L145.896 284.254L141.424 288.048L139.684 287.614L140.893 282.769L139.985 282.542L140.294 281.304L141.201 281.53L141.547 280.143L142.999 280.505L142.653 281.892ZM142.291 283.072L141.476 286.338L141.519 286.348L144.506 283.783L144.543 283.633L142.291 283.072Z"
        fill="white" />
    <path
        d="M133.406 291.036C126.812 288.702 120.429 285.812 114.324 282.397L134.246 246.783C138.334 249.069 142.608 251.005 147.023 252.567L133.406 291.036Z"
        fill="#F1323E" />
    <path
        d="M133.406 291.036C126.812 288.702 120.429 285.812 114.324 282.397L134.246 246.783C138.334 249.069 142.608 251.005 147.023 252.567L133.406 291.036Z"
        fill="#F1323E" />
    <path
        d="M140.238 265.82C139.642 267.463 137.774 268.252 136.181 267.532L130.242 264.847C128.649 264.126 128.007 262.202 128.848 260.67L132.708 253.635C133.462 252.262 135.146 251.699 136.574 252.345L141.385 254.52C142.812 255.166 143.503 256.802 142.969 258.275L140.238 265.82Z"
        fill="black" fill-opacity="0.25" />
    <path
        d="M129.864 282.197L131.73 282.08L131.176 283.338L128.95 283.537L127.852 283.055L130.952 276.006L132.321 276.608L129.864 282.197ZM129.216 276.541L127.074 281.414L125.508 282.024L122.467 280.687L121.857 279.121L122.3 278.114L123.67 278.716L123.417 279.29L123.615 279.798L125.387 280.577L125.894 280.379L126.625 278.718L125.778 279.031L123.573 278.061L122.964 276.495L123.96 274.23L125.526 273.62L128.607 274.975L129.216 276.541ZM125.646 275.067L125.139 275.265L124.524 276.664L124.721 277.172L126.151 277.801L127.218 277.369L127.656 276.372L127.459 275.864L125.646 275.067Z"
        fill="white" />
    <path
        d="M114.322 282.403C108.218 278.988 102.414 275.06 96.9742 270.663L122.629 238.928C126.271 241.872 130.157 244.502 134.245 246.788L114.322 282.403Z"
        fill="#F1323E" />
    <path
        d="M114.322 282.403C108.218 278.988 102.414 275.06 96.9742 270.663L122.629 238.928C126.271 241.872 130.157 244.502 134.245 246.788L114.322 282.403Z"
        fill="#202329" />
    <path
        d="M125.317 258.702C124.452 260.222 122.477 260.683 121.029 259.704L115.629 256.054C114.181 255.075 113.873 253.07 114.961 251.702L119.955 245.421C120.93 244.194 122.685 243.925 123.983 244.802L128.357 247.759C129.655 248.637 130.059 250.366 129.284 251.728L125.317 258.702Z"
        fill="black" fill-opacity="0.25" />
    <path
        d="M117.253 270.453L116.586 271.462L115.338 270.638L115.756 270.004L115.654 269.501L114.002 268.41L113.499 268.512L112.813 269.549L112.913 270.037L114.748 271.25L114.045 272.315L112.209 271.101L111.722 271.201L111.061 272.201L111.163 272.704L112.76 273.76L113.263 273.657L113.681 273.024L114.929 273.849L114.262 274.858L112.616 275.194L109.9 273.399L109.564 271.753L110.716 270.009L111.488 269.86L111.329 269.082L112.499 267.311L114.146 266.975L116.917 268.807L117.253 270.453ZM111.724 266.798L111.057 267.808L109.808 266.983L110.227 266.35L110.124 265.847L108.473 264.755L107.97 264.858L107.284 265.895L107.384 266.382L109.219 267.595L108.515 268.66L106.68 267.447L106.192 267.546L105.531 268.547L105.634 269.05L107.231 270.105L107.734 270.002L108.152 269.369L109.4 270.194L108.733 271.203L107.087 271.539L104.371 269.744L104.035 268.098L105.187 266.354L105.958 266.205L105.8 265.428L106.97 263.656L108.616 263.32L111.388 265.152L111.724 266.798Z"
        fill="white" />
    <path
        d="M96.9751 270.66C91.5353 266.262 86.479 261.411 81.8607 256.157L112.51 229.214C115.602 232.732 118.988 235.981 122.63 238.925L96.9751 270.66Z"
        fill="#F1323E" />
    <path
        d="M96.9751 270.66C91.5353 266.262 86.479 261.411 81.8607 256.157L112.51 229.214C115.602 232.732 118.988 235.981 122.63 238.925L96.9751 270.66Z"
        fill="#F1323E" />
    <path
        d="M111.817 249.158C110.708 250.51 108.683 250.631 107.421 249.421L102.716 244.911C101.454 243.701 101.49 241.673 102.793 240.508L108.776 235.162C109.945 234.117 111.72 234.148 112.851 235.233L116.663 238.886C117.794 239.971 117.9 241.743 116.906 242.955L111.817 249.158Z"
        fill="black" fill-opacity="0.25" />
    <path
        d="M94.0859 258.801L95.8841 259.312L94.943 260.315L92.7777 259.761L91.9035 258.94L97.1739 253.326L98.2646 254.35L94.0859 258.801Z"
        fill="white" />
    <path
        d="M81.8588 256.158C77.2405 250.905 73.0769 245.268 69.4129 239.31L104.175 217.934C106.628 221.924 109.416 225.698 112.508 229.216L81.8588 256.158Z"
        fill="#F1323E" />
    <path
        d="M81.8588 256.158C77.2405 250.905 73.0769 245.268 69.4129 239.31L104.175 217.934C106.628 221.924 109.416 225.698 112.508 229.216L81.8588 256.158Z"
        fill="#202329" />
    <path
        d="M100.121 237.475C98.7996 238.62 96.7835 238.397 95.7442 236.992L91.8691 231.751C90.8298 230.345 91.2075 228.352 92.6891 227.425L99.4896 223.166C100.818 222.334 102.562 222.665 103.494 223.925L106.633 228.17C107.565 229.43 107.37 231.195 106.185 232.221L100.121 237.475Z"
        fill="black" fill-opacity="0.25" />
    <path
        d="M88.2529 246.225L82.9957 245.235L82.3726 245.706L82.3018 246.214L83.3761 247.636L83.8846 247.706L84.5077 247.236L85.4096 248.429L84.4267 249.172L82.7626 248.94L80.8792 246.448L81.1108 244.784L82.4448 243.776L87.5723 244.796L87.6601 244.729L85.2793 241.579L86.2798 240.823L89.5956 245.211L88.2529 246.225ZM84.6635 240.8L80.5562 243.904L78.7689 243.655L76.7131 240.935L76.9618 239.147L81.0691 236.044L82.8564 236.292L84.9122 239.013L84.6635 240.8ZM82.2628 237.623L81.5848 237.529L78.2499 240.049L78.1555 240.727L79.3625 242.324L80.0405 242.419L83.3754 239.899L83.4698 239.221L82.2628 237.623Z"
        fill="white" />
    <path
        d="M69.414 239.308C65.7501 233.349 62.599 227.09 59.9947 220.598L97.8689 205.405C99.6126 209.752 101.722 213.943 104.176 217.932L69.414 239.308Z"
        fill="#F1323E" />
    <path
        d="M69.414 239.308C65.7501 233.349 62.599 227.09 59.9947 220.598L97.8689 205.405C99.6126 209.752 101.722 213.943 104.176 217.932L69.414 239.308Z"
        fill="#F1323E" />
    <path
        d="M90.5707 223.978C89.075 224.883 87.1256 224.323 86.3388 222.762L83.4051 216.942C82.6183 215.381 83.3275 213.48 84.9445 212.816L92.367 209.768C93.8166 209.173 95.4801 209.794 96.1855 211.193L98.5619 215.908C99.2672 217.307 98.7767 219.014 97.4359 219.825L90.5707 223.978Z"
        fill="black" fill-opacity="0.25" />
    <path
        d="M72.1036 229.995L73.6287 231.076L72.4074 231.708L70.5504 230.464L69.9996 229.399L76.8391 225.862L77.5263 227.19L72.1036 229.995ZM73.4576 222.436L75.1655 225.738L73.8269 226.431L68.0247 225.58L67.201 223.987L71.6369 221.693L71.2074 220.863L72.3408 220.277L72.7703 221.107L74.0405 220.45L74.7277 221.779L73.4576 222.436ZM72.3329 222.943L69.3431 224.49L69.3633 224.529L73.2623 225.076L73.3991 225.005L72.3329 222.943Z"
        fill="white" />
    <path
        d="M59.9931 220.598C57.3889 214.106 55.3409 207.405 53.8713 200.566L93.7683 191.992C94.7523 196.571 96.1236 201.059 97.8673 205.406L59.9931 220.598Z"
        fill="#F1323E" />
    <path
        d="M59.9931 220.598C57.3889 214.106 55.3409 207.405 53.8713 200.566L93.7683 191.992C94.7523 196.571 96.1236 201.059 97.8673 205.406L59.9931 220.598Z"
        fill="#202329" />
    <path
        d="M83.4359 209.065C81.8089 209.704 79.9822 208.822 79.4705 207.151L77.5627 200.919C77.051 199.247 78.0711 197.494 79.7771 197.113L87.6079 195.363C89.1373 195.021 90.6721 195.914 91.1307 197.413L92.6761 202.461C93.1348 203.959 92.3629 205.559 90.9043 206.131L83.4359 209.065Z"
        fill="black" fill-opacity="0.25" />
    <path
        d="M69.413 211.985L68.2597 212.351L67.807 210.925L68.5304 210.695L68.7665 210.239L68.1673 208.352L67.7114 208.116L66.5267 208.492L66.2978 208.934L66.9636 211.031L65.7474 211.417L65.0816 209.32L64.6396 209.092L63.4968 209.454L63.2607 209.91L63.84 211.734L64.2958 211.971L65.0192 211.741L65.472 213.167L64.3187 213.533L62.8269 212.76L61.8415 209.657L62.6142 208.165L64.6062 207.533L65.3002 207.901L65.6651 207.196L67.6885 206.554L69.1804 207.326L70.1857 210.493L69.413 211.985ZM62.2513 205.677L63.5717 207.001L62.2612 207.417L60.6412 205.877L60.2783 204.734L67.6172 202.404L68.07 203.83L62.2513 205.677Z"
        fill="white" />
    <path
        d="M53.8732 200.562C52.4036 193.723 51.5178 186.772 51.2251 179.783L91.9972 178.076C92.1931 182.755 92.7863 187.41 93.7703 191.989L53.8732 200.562Z"
        fill="#F1323E" />
    <path
        d="M53.8732 200.562C52.4036 193.723 51.5178 186.772 51.2251 179.783L91.9972 178.076C92.1931 182.755 92.7863 187.41 93.7703 191.989L53.8732 200.562Z"
        fill="#F1323E" />
    <path
        d="M78.9278 193.158C77.2161 193.513 75.5647 192.335 75.3429 190.601L74.5158 184.136C74.294 182.402 75.5957 180.847 77.3416 180.759L85.3555 180.358C86.9206 180.28 88.2824 181.42 88.4812 182.974L89.1512 188.211C89.35 189.765 88.319 191.211 86.7845 191.529L78.9278 193.158Z"
        fill="black" fill-opacity="0.25" />
    <path
        d="M64.3056 191.448L63.3358 191.582L63.1306 190.1L63.6318 190.031L63.9603 189.597L63.7037 187.744L63.2695 187.416L61.5153 187.659L62.2224 188.194L62.5559 190.602L61.5422 191.941L59.047 192.287L57.7072 191.273L57.2454 187.939L58.2591 186.599L63.5328 185.869L64.8726 186.883L65.3193 190.108L64.3056 191.448ZM60.9705 188.456L60.1642 187.846L58.9329 188.016L58.6044 188.451L58.8761 190.412L59.3103 190.74L60.8684 190.525L61.1969 190.09L60.9705 188.456Z"
        fill="white" />
    <path
        d="M51.2219 179.782C50.9293 172.793 51.231 165.792 52.1237 158.854L92.5978 164.062C92.0001 168.708 91.7981 173.396 91.994 178.075L51.2219 179.782Z"
        fill="#F1323E" />
    <path
        d="M51.2219 179.782C50.9293 172.793 51.231 165.792 52.1237 158.854L92.5978 164.062C92.0001 168.708 91.7981 173.396 91.994 178.075L51.2219 179.782Z"
        fill="#202329" />
    <path
        d="M77.1674 176.72C75.4204 176.78 73.9918 175.34 74.0662 173.594L74.3437 167.082C74.4181 165.336 75.964 164.022 77.6995 164.231L85.6659 165.19C87.2218 165.378 88.3714 166.731 88.3046 168.297L88.0799 173.571C88.0132 175.137 86.7526 176.388 85.1865 176.442L77.1674 176.72Z"
        fill="black" fill-opacity="0.25" />
    <path
        d="M62.4506 175.643L58.9828 171.569L58.2022 171.544L57.8277 171.895L57.7704 173.676L58.1215 174.051L58.9021 174.076L58.854 175.571L57.6227 175.532L56.4735 174.306L56.574 171.184L57.7996 170.035L59.4707 170.088L62.8193 174.103L62.9292 174.107L63.0563 170.16L64.3096 170.2L64.1327 175.697L62.4506 175.643ZM62.6538 169.33L59.186 165.256L58.4054 165.231L58.0309 165.582L57.9736 167.363L58.3247 167.738L59.1053 167.763L59.0572 169.258L57.8258 169.219L56.6767 167.993L56.7772 164.871L58.0028 163.721L59.6739 163.775L63.0225 167.79L63.1324 167.793L63.2595 163.847L64.5128 163.887L64.3359 169.384L62.6538 169.33Z"
        fill="white" />
    <path
        d="M52.1256 158.854C53.0183 151.916 54.4989 145.067 56.5513 138.379L95.563 150.353C94.1887 154.83 93.1974 159.417 92.5997 164.062L52.1256 158.854Z"
        fill="#F1323E" />
    <path
        d="M52.1256 158.854C53.0183 151.916 54.4989 145.067 56.5513 138.379L95.563 150.353C94.1887 154.83 93.1974 159.417 92.5997 164.062L52.1256 158.854Z"
        fill="#F1323E" />
    <path
        d="M78.2155 160.218C76.4833 159.982 75.3187 158.322 75.6872 156.613L77.0612 150.242C77.4297 148.533 79.1753 147.5 80.8506 147.999L88.5403 150.291C90.0421 150.738 90.9464 152.266 90.6161 153.798L89.503 158.959C89.1727 160.491 87.719 161.511 86.1662 161.299L78.2155 160.218Z"
        fill="black" fill-opacity="0.25" />
    <path
        d="M60.0048 153.613L60.5121 155.412L59.1651 155.136L58.5018 153.002L58.7424 151.827L66.2858 153.372L65.9857 154.837L60.0048 153.613ZM65.3865 151.842L63.3389 151.423L62.7991 150.605L62.111 151.059L60.1928 150.666L59.2673 149.264L59.9337 146.01L61.3359 145.084L63.2541 145.477L63.7083 146.165L64.5262 145.625L66.5737 146.044L67.4992 147.447L66.7886 150.917L65.3865 151.842ZM62.8983 147.324L62.5984 146.87L61.4992 146.644L61.0448 146.944L60.6563 148.841L60.9563 149.295L62.0555 149.521L62.5099 149.221L62.8983 147.324ZM66.1102 147.869L65.8102 147.415L64.6033 147.168L64.1489 147.468L63.7163 149.58L64.0162 150.034L65.2232 150.282L65.6776 149.982L66.1102 147.869Z"
        fill="white" />
    <path
        d="M56.5502 138.376C58.6026 131.689 61.2195 125.189 64.3725 118.945L100.799 137.339C98.6883 141.52 96.9361 145.872 95.5619 150.35L56.5502 138.376Z"
        fill="#F1323E" />
    <path
        d="M56.5502 138.376C58.6026 131.689 61.2195 125.189 64.3725 118.945L100.799 137.339C98.6883 141.52 96.9361 145.872 95.5619 150.35L56.5502 138.376Z"
        fill="#202329" />
    <path
        d="M82.0339 144.133C80.3665 143.609 79.4993 141.775 80.1513 140.153L82.5823 134.106C83.2343 132.484 85.1294 131.76 86.6962 132.536L93.888 136.094C95.2926 136.789 95.9256 138.448 95.3411 139.902L93.3719 144.8C92.7874 146.254 91.1823 147.014 89.6875 146.543L82.0339 144.133Z"
        fill="black" fill-opacity="0.25" />
    <path
        d="M68.4114 138.485L66.4989 133.489L65.7712 133.205L65.3012 133.411L64.6538 135.072L64.8601 135.542L65.5877 135.825L65.0442 137.219L63.8964 136.772L63.2212 135.233L64.3561 132.323L65.8946 131.647L67.4523 132.255L69.2721 137.156L69.3746 137.196L70.8093 133.517L71.9776 133.972L69.9794 139.096L68.4114 138.485ZM71.2513 132.565L70.3392 132.209L70.8827 130.815L71.3541 130.999L71.8527 130.78L72.5321 129.038L72.3133 128.54L70.6633 127.896L71.0196 128.708L70.1364 130.973L68.598 131.648L66.2511 130.733L65.5759 129.195L66.7988 126.059L68.3372 125.383L73.2974 127.318L73.9727 128.856L72.7897 131.89L71.2513 132.565ZM69.7989 128.327L69.3925 127.401L68.2344 126.949L67.7358 127.168L67.0165 129.013L67.2353 129.511L68.7008 130.083L69.1994 129.864L69.7989 128.327Z"
        fill="white" />
    <path
        d="M64.3744 118.948C67.5274 112.704 71.2053 106.739 75.3682 101.118L108.162 125.404C105.375 129.168 102.912 133.162 100.801 137.342L64.3744 118.948Z"
        fill="#F1323E" />
    <path
        d="M64.3744 118.948C67.5274 112.704 71.2053 106.739 75.3682 101.118L108.162 125.404C105.375 129.168 102.912 133.162 100.801 137.342L64.3744 118.948Z"
        fill="#F1323E" />
    <path
        d="M88.5188 128.927C86.9641 128.128 86.4192 126.174 87.336 124.686L90.7541 119.136C91.6708 117.648 93.6609 117.255 95.0741 118.284L101.561 123.007C102.828 123.929 103.172 125.671 102.35 127.005L99.581 131.501C98.7591 132.835 97.0488 133.312 95.6551 132.595L88.5188 128.927Z"
        fill="black" fill-opacity="0.25" />
    <path
        d="M75.7857 112.487L75.7009 112.436L73.7161 115.735L72.6227 115.077L75.4128 110.44L76.6193 111.166L80.4171 117.058L79.6005 118.416L75.7857 112.487Z"
        fill="white" />
</svg>
    