<svg width="350" height="350" viewBox="0 0 350 350" fill="none" xmlns="http://www.w3.org/2000/svg">
    <path
        d="M296.298 154.029C297.427 160.746 297.999 167.544 298.008 174.355L257.2 174.406C257.194 169.846 256.812 165.294 256.055 160.797L296.298 154.029Z"
        fill="#202329" />
    <path
        d="M296.298 154.029C297.427 160.746 297.999 167.544 298.008 174.355L257.2 174.406C257.194 169.846 256.812 165.294 256.055 160.797L296.298 154.029Z"
        fill="#202329" />
    <path
        d="M270.041 160.268C271.766 159.989 273.364 161.238 273.51 162.98L274.052 169.475C274.197 171.217 272.828 172.714 271.08 172.725L263.056 172.773C261.489 172.782 260.179 171.584 260.049 170.022L259.61 164.761C259.479 163.199 260.573 161.8 262.12 161.55L270.041 160.268Z"
        fill="black" fill-opacity="0.25" />
    <path
        d="M290.325 161.84L289.315 160.267L290.684 160.138L291.941 161.987L292.053 163.18L284.386 163.901L284.247 162.411L290.325 161.84ZM291.121 167.962L291.219 167.953L290.859 164.119L292.13 164L292.636 169.388L291.234 169.52L284.681 167.031L284.532 165.454L291.121 167.962Z"
        fill="white" />
    <path
        d="M291.267 134.27C293.486 140.709 295.169 147.321 296.298 154.037L256.055 160.802C255.299 156.305 254.172 151.878 252.686 147.567L291.267 134.27Z"
        fill="#F1323E" />
    <path
        d="M291.267 134.27C293.486 140.709 295.169 147.321 296.298 154.037L256.055 160.802C255.299 156.305 254.172 151.878 252.686 147.567L291.267 134.27Z"
        fill="#F1323E" />
    <path
        d="M266.393 144.744C268.049 144.185 269.831 145.154 270.261 146.849L271.864 153.166C272.294 154.86 271.19 156.562 269.468 156.86L261.562 158.228C260.017 158.495 258.528 157.529 258.142 156.01L256.844 150.892C256.458 149.373 257.307 147.814 258.791 147.312L266.393 144.744Z"
        fill="black" fill-opacity="0.25" />
    <path
        d="M281.126 141.268L282.296 140.958L282.679 142.404L281.945 142.599L281.687 143.042L282.194 144.956L282.638 145.214L283.84 144.896L284.09 144.466L283.526 142.339L284.76 142.012L285.323 144.139L285.754 144.389L286.913 144.082L287.171 143.638L286.68 141.788L286.237 141.53L285.503 141.724L285.12 140.278L286.289 139.968L287.742 140.813L288.576 143.96L287.732 145.413L285.711 145.948L285.036 145.546L284.637 146.232L282.585 146.776L281.133 145.932L280.282 142.721L281.126 141.268ZM283.313 147.591L287.804 150.498L288.559 150.298L288.817 149.854L288.361 148.131L287.917 147.873L287.162 148.073L286.779 146.627L287.97 146.312L289.422 147.156L290.222 150.176L289.378 151.628L287.762 152.056L283.402 149.172L283.295 149.2L284.307 153.017L283.094 153.338L281.686 148.022L283.313 147.591Z"
        fill="white" />
    <path
        d="M164.227 51.4405C171.014 50.8735 177.836 50.8688 184.624 51.4266L181.282 92.0973C176.737 91.7238 172.169 91.7269 167.624 92.1066L164.227 51.4405Z"
        fill="#F1323E" />
    <path
        d="M164.227 51.4405C171.014 50.8735 177.836 50.8688 184.624 51.4266L181.282 92.0973C176.737 91.7238 172.169 91.7269 167.624 92.1066L164.227 51.4405Z"
        fill="#2AB161" />
    <path
        d="M168.259 78.126C168.124 76.3831 169.502 74.8945 171.25 74.8945H177.768C179.516 74.8945 180.894 76.3831 180.759 78.126L180.14 86.126C180.019 87.6884 178.716 88.8945 177.149 88.8945H171.869C170.302 88.8945 168.999 87.6884 168.878 86.126L168.259 78.126Z"
        fill="black" fill-opacity="0.25" />
    <path
        d="M171.617 62.8706L171.563 57.7228L172.826 56.4336L176.236 56.3981L177.525 57.6608L177.579 62.8085L176.316 64.0977L172.906 64.1332L171.617 62.8706ZM175.599 62.8291L176.078 62.3401L176.034 58.1603L175.545 57.6814L173.543 57.7022L173.064 58.1912L173.108 62.371L173.597 62.8499L175.599 62.8291Z"
        fill="white" />
    <path
        d="M241.96 71.0584C247.665 74.7782 253.053 78.9635 258.068 83.5715L230.457 113.621C227.099 110.535 223.492 107.733 219.672 105.242L241.96 71.0584Z"
        fill="#F1323E" />
    <path
        d="M241.96 71.0584C247.665 74.7782 253.053 78.9635 258.068 83.5715L230.457 113.621C227.099 110.535 223.492 107.733 219.672 105.242L241.96 71.0584Z"
        fill="#F1323E" />
    <path
        d="M228.757 94.5986C229.721 93.1402 231.722 92.8113 233.102 93.8846L238.247 97.8866C239.626 98.9599 239.8 100.981 238.623 102.274L233.223 108.208C232.168 109.367 230.399 109.519 229.162 108.557L224.995 105.315C223.758 104.353 223.47 102.601 224.334 101.293L228.757 94.5986Z"
        fill="black" fill-opacity="0.25" />
    <path
        d="M237.91 82.5462L238.643 81.5834L239.833 82.4897L239.374 83.0936L239.443 83.6023L241.018 84.8017L241.527 84.7327L242.28 83.7437L242.213 83.2505L240.462 81.9178L241.235 80.9025L242.986 82.2352L243.479 82.1684L244.205 81.2144L244.136 80.7057L242.614 79.5463L242.105 79.6152L241.645 80.2191L240.455 79.3129L241.188 78.3501L242.853 78.1245L245.443 80.0969L245.669 81.7618L244.403 83.4247L243.623 83.5224L243.73 84.3086L242.444 85.9978L240.779 86.2234L238.136 84.2111L237.91 82.5462ZM243.412 86.6244L246.53 82.5284L248.319 82.2861L251.032 84.3517L251.274 86.1399L248.156 90.2359L246.368 90.4782L243.654 88.4126L243.412 86.6244ZM246.58 89.0365L247.259 88.9446L249.791 85.6188L249.699 84.9405L248.106 83.7278L247.428 83.8197L244.896 87.1455L244.987 87.8238L246.58 89.0365Z"
        fill="white" />
    <path
        d="M224.019 61.3726C230.259 64.103 236.261 67.3448 241.966 71.0649L219.676 105.247C215.857 102.756 211.837 100.586 207.659 98.7575L224.019 61.3726Z"
        fill="#F1323E" />
    <path
        d="M224.019 61.3726C230.259 64.103 236.261 67.3448 241.966 71.0649L219.676 105.247C215.857 102.756 211.837 100.586 207.659 98.7575L224.019 61.3726Z"
        fill="#202329" />
    <path
        d="M214.869 86.762C215.58 85.1649 217.5 84.5111 219.037 85.3428L224.77 88.4438C226.308 89.2755 226.811 91.2404 225.863 92.7092L221.513 99.4512C220.663 100.768 218.943 101.209 217.565 100.463L212.921 97.9513C211.543 97.2057 210.97 95.5248 211.607 94.0931L214.869 86.762Z"
        fill="black" fill-opacity="0.25" />
    <path
        d="M222.47 73.1041L227.651 71.7703L228.015 71.0795L227.863 70.5891L226.287 69.7576L225.797 69.9093L225.432 70.6001L224.109 69.9021L224.684 68.8124L226.289 68.316L229.052 69.7736L229.549 71.3787L228.768 72.8575L223.693 74.1099L223.641 74.2072L227.134 76.0498L226.549 77.1589L221.685 74.5926L222.47 73.1041ZM227.981 76.5712L230.465 71.8623L232.07 71.3658L235.009 72.9158L235.505 74.5209L234.992 75.4938L233.669 74.7958L233.961 74.2412L233.8 73.7211L232.088 72.8178L231.568 72.9786L230.721 74.584L231.587 74.3322L233.718 75.4562L234.215 77.0613L233.06 79.2504L231.455 79.7468L228.478 78.1762L227.981 76.5712ZM231.437 78.2949L231.957 78.134L232.671 76.7816L232.51 76.2615L231.128 75.5326L230.033 75.8877L229.525 76.8509L229.686 77.371L231.437 78.2949Z"
        fill="white" />
    <path
        d="M204.729 54.7668C211.333 56.4334 217.787 58.6434 224.027 61.3742L207.664 98.7581C203.487 96.9297 199.165 95.4499 194.743 94.334L204.729 54.7668Z"
        fill="#F1323E" />
    <path
        d="M204.729 54.7668C211.333 56.4334 217.787 58.6434 224.027 61.3742L207.664 98.7581C203.487 96.9297 199.165 95.4499 194.743 94.334L204.729 54.7668Z"
        fill="#F1323E" />
    <path
        d="M199.881 81.3173C200.319 79.6251 202.106 78.6643 203.759 79.2317L209.924 81.3472C211.577 81.9146 212.397 83.7698 211.704 85.3745L208.522 92.7405C207.901 94.1791 206.277 94.8969 204.794 94.3883L199.8 92.6746C198.318 92.166 197.477 90.6022 197.87 89.0851L199.881 81.3173Z"
        fill="black" fill-opacity="0.25" />
    <path
        d="M208.167 68.1222L208.475 67.1929L209.895 67.6637L209.736 68.144L209.98 68.6306L211.755 69.2191L212.242 68.9749L212.799 67.2938L212.007 67.6917L209.699 66.9266L208.945 65.4251L209.738 63.0341L211.24 62.2803L214.435 63.3396L215.188 64.8412L213.513 69.8946L212.011 70.6484L208.921 69.6237L208.167 68.1222ZM212.325 66.4528L213.228 65.9992L213.62 64.8193L213.375 64.3327L211.496 63.7096L211.009 63.9539L210.514 65.4469L210.759 65.9335L212.325 66.4528Z"
        fill="white" />
    <path
        d="M184.615 51.4219C191.403 51.9793 198.133 53.0972 204.737 54.7642L194.748 94.3307C190.327 93.2145 185.82 92.466 181.275 92.0928L184.615 51.4219Z"
        fill="#202329" />
    <path
        d="M184.615 51.4219C191.403 51.9793 198.133 53.0972 204.737 54.7642L194.748 94.3307C190.327 93.2145 185.82 92.466 181.275 92.0928L184.615 51.4219Z"
        fill="#202329" />
    <path
        d="M184.202 78.4082C184.356 76.6669 185.96 75.4253 187.684 75.713L194.113 76.7853C195.837 77.0729 196.952 78.7679 196.532 80.4649L194.605 88.254C194.229 89.7752 192.745 90.7505 191.199 90.4927L185.991 89.624C184.446 89.3662 183.359 87.9621 183.497 86.4011L184.202 78.4082Z"
        fill="black" fill-opacity="0.25" />
    <path
        d="M186.873 63.0083L191.341 60.0652L191.461 59.2936L191.159 58.8789L189.398 58.604L188.983 58.9067L188.863 59.6783L187.385 59.4476L187.575 58.2303L188.932 57.2398L192.018 57.7217L193.009 59.0787L192.751 60.7307L188.357 63.5627L188.34 63.6714L192.241 64.2806L192.048 65.5196L186.614 64.6712L186.873 63.0083ZM193.157 64.4904L193.48 62.4254L194.271 61.8476L193.785 61.1816L194.087 59.2471L195.444 58.2565L198.727 58.769L199.717 60.126L199.415 62.0606L198.749 62.5467L199.327 63.3383L199.005 65.4032L197.647 66.3938L194.148 65.8474L193.157 64.4904ZM197.553 61.7922L197.993 61.4712L198.166 60.3626L197.845 59.9228L195.932 59.6242L195.492 59.9452L195.319 61.0537L195.64 61.4935L197.553 61.7922ZM197.16 65.0262L197.599 64.7051L197.789 63.4879L197.468 63.0481L195.338 62.7155L194.898 63.0366L194.708 64.2538L195.029 64.6936L197.16 65.0262Z"
        fill="white" />
    <path
        d="M258.062 83.5629C263.077 88.1707 267.703 93.1854 271.891 98.5558L239.713 123.653C236.909 120.057 233.812 116.699 230.453 113.614L258.062 83.5629Z"
        fill="#202329" />
    <path
        d="M241.167 104.608C242.357 103.328 244.386 103.333 245.57 104.618L249.986 109.412C251.17 110.698 251.009 112.72 249.636 113.801L243.332 118.766C242.101 119.736 240.331 119.595 239.269 118.442L235.692 114.559C234.631 113.406 234.635 111.631 235.702 110.483L241.167 104.608Z"
        fill="black" fill-opacity="0.25" />
    <path
        d="M258.672 93.9579L256.909 93.3358L257.911 92.3938L260.037 93.0814L260.859 93.9548L255.25 99.2304L254.225 98.1407L258.672 93.9579ZM261.55 97.0174L259.787 96.3953L260.788 95.4533L262.915 96.1409L263.737 97.0143L258.128 102.29L257.103 101.2L261.55 97.0174Z"
        fill="white" />
    <path
        d="M283.057 115.607C286.305 121.593 289.053 127.838 291.272 134.277L252.69 147.571C251.204 143.26 249.365 139.078 247.19 135.07L283.057 115.607Z"
        fill="#202329" />
    <path
        d="M283.057 115.607C286.305 121.593 289.053 127.838 291.272 134.277L252.69 147.571C251.204 143.26 249.365 139.078 247.19 135.07L283.057 115.607Z"
        fill="#202329" />
    <path
        d="M260.245 130.028C261.787 129.204 263.704 129.867 264.407 131.468L267.028 137.435C267.731 139.036 266.922 140.896 265.272 141.473L257.698 144.123C256.219 144.641 254.591 143.933 253.96 142.498L251.837 137.664C251.207 136.229 251.788 134.551 253.17 133.812L260.245 130.028Z"
        fill="black" fill-opacity="0.25" />
    <path
        d="M274.562 123.763L279.47 125.891L280.181 125.57L280.363 125.09L279.629 123.466L279.149 123.284L278.437 123.606L277.822 122.242L278.944 121.735L280.516 122.329L281.802 125.176L281.208 126.748L279.684 127.436L274.909 125.308L274.809 125.353L276.434 128.952L275.292 129.468L273.028 124.456L274.562 123.763ZM276.863 129.847L281.555 127.728L283.243 128.366L284.646 131.474L284.009 133.162L279.317 135.281L277.629 134.643L276.225 131.536L276.863 129.847ZM278.502 133.476L279.142 133.718L282.952 131.998L283.194 131.357L282.37 129.533L281.729 129.291L277.92 131.012L277.678 131.652L278.502 133.476Z"
        fill="white" />
    <path
        d="M271.889 98.5476C276.078 103.918 279.816 109.625 283.063 115.612L247.195 135.072C245.02 131.064 242.518 127.242 239.713 123.647L271.889 98.5476Z"
        fill="#F1323E" />
    <path
        d="M251.761 116.529C253.146 115.462 255.146 115.8 256.103 117.263L259.67 122.719C260.627 124.182 260.135 126.149 258.602 126.99L251.568 130.85C250.194 131.604 248.471 131.174 247.614 129.862L244.724 125.443C243.867 124.132 244.163 122.381 245.405 121.425L251.761 116.529Z"
        fill="black" fill-opacity="0.25" />
    <path
        d="M272.796 111.518L272.879 111.463L270.738 108.262L271.799 107.553L274.808 112.052L273.637 112.834L266.689 113.763L265.808 112.446L272.796 111.518Z"
        fill="white" />
    <path
        d="M164.252 297.578C157.465 297.013 150.736 295.887 144.135 294.212L154.171 254.657C158.591 255.779 163.097 256.533 167.641 256.912L164.252 297.578Z"
        fill="#F1323E" />
    <path
        d="M164.252 297.578C157.465 297.013 150.736 295.887 144.135 294.212L154.171 254.657C158.591 255.779 163.097 256.533 167.641 256.912L164.252 297.578Z"
        fill="#F1323E" />
    <path
        d="M164.698 270.592C164.542 272.333 162.937 273.573 161.213 273.283L154.785 272.203C153.061 271.913 151.949 270.217 152.371 268.52L154.308 260.734C154.686 259.213 156.171 258.239 157.716 258.499L162.923 259.374C164.468 259.634 165.553 261.039 165.414 262.6L164.698 270.592Z"
        fill="black" fill-opacity="0.25" />
    <path
        d="M161.383 285.891L156.912 288.829L156.79 289.6L157.092 290.015L158.853 290.292L159.268 289.99L159.389 289.219L160.867 289.451L160.675 290.668L159.317 291.657L156.231 291.171L155.242 289.813L155.502 288.161L159.9 285.335L159.917 285.226L156.016 284.612L156.211 283.373L161.644 284.228L161.383 285.891ZM150.988 288.954L150.972 289.052L154.775 289.651L154.577 290.911L149.231 290.07L149.45 288.679L153.481 282.944L155.046 283.19L150.988 288.954Z"
        fill="white" />
    <path
        d="M90.8451 265.352C85.8354 260.738 81.2159 255.717 77.0338 250.342L109.242 225.284C112.043 228.884 115.136 232.245 118.49 235.334L90.8451 265.352Z"
        fill="#F1323E" />
    <path
        d="M90.8451 265.352C85.8354 260.738 81.2159 255.717 77.0338 250.342L109.242 225.284C112.043 228.884 115.136 232.245 118.49 235.334L90.8451 265.352Z"
        fill="#F1323E" />
    <path
        d="M107.766 244.325C106.574 245.603 104.545 245.596 103.363 244.309L98.9526 239.51C97.7698 238.222 97.9337 236.201 99.3082 235.121L105.618 230.164C106.85 229.195 108.62 229.339 109.68 230.493L113.252 234.38C114.313 235.534 114.306 237.31 113.238 238.456L107.766 244.325Z"
        fill="black" fill-opacity="0.25" />
    <path
        d="M90.9716 255.726L92.7338 256.35L91.7311 257.291L89.6052 256.601L88.7848 255.727L94.4 250.458L95.4237 251.549L90.9716 255.726ZM92.3535 250.736L87.0208 250.31L86.4513 250.844L86.4349 251.357L87.6543 252.657L88.1674 252.673L88.7369 252.139L89.7605 253.23L88.8621 254.073L87.1829 254.019L85.0453 251.741L85.0987 250.062L86.318 248.918L91.5249 249.387L91.6051 249.312L88.903 246.432L89.8175 245.574L93.5809 249.585L92.3535 250.736Z"
        fill="white" />
    <path
        d="M106.932 277.876C101.232 274.149 95.8491 269.957 90.8397 265.343L118.487 235.328C121.841 238.417 125.445 241.224 129.262 243.719L106.932 277.876Z"
        fill="#202329" />
    <path
        d="M106.932 277.876C101.232 274.149 95.8491 269.957 90.8397 265.343L118.487 235.328C121.841 238.417 125.445 241.224 129.262 243.719L106.932 277.876Z"
        fill="#202329" />
    <path
        d="M120.164 254.353C119.199 255.81 117.197 256.137 115.818 255.061L110.679 251.053C109.3 249.978 109.129 247.957 110.307 246.666L115.715 240.738C116.771 239.58 118.541 239.431 119.776 240.394L123.94 243.641C125.175 244.605 125.461 246.357 124.596 247.664L120.164 254.353Z"
        fill="black" fill-opacity="0.25" />
    <path
        d="M110.426 266.579L105.096 267.036L104.622 267.657L104.69 268.166L106.107 269.247L106.615 269.178L107.089 268.558L108.279 269.465L107.531 270.445L105.866 270.668L103.383 268.773L103.159 267.108L104.173 265.779L109.387 265.385L109.453 265.297L106.314 262.901L107.075 261.904L111.447 265.242L110.426 266.579ZM105.522 262.213L104.928 262.992L103.739 262.084L104.046 261.682L103.973 261.142L102.487 260.007L101.947 260.08L100.872 261.488L101.751 261.37L103.684 262.845L103.907 264.51L102.379 266.512L100.714 266.736L98.0381 264.693L97.8145 263.028L101.045 258.796L102.71 258.573L105.298 260.548L105.522 262.213ZM101.047 262.437L100.045 262.572L99.2907 263.56L99.3632 264.1L100.937 265.301L101.477 265.229L102.431 263.978L102.359 263.439L101.047 262.437Z"
        fill="white" />
    <path
        d="M124.861 287.588C118.625 284.85 112.626 281.601 106.925 277.874L129.257 243.719C133.074 246.214 137.091 248.39 141.266 250.223L124.861 287.588Z"
        fill="#F1323E" />
    <path
        d="M124.861 287.588C118.625 284.85 112.626 281.601 106.925 277.874L129.257 243.719C133.074 246.214 137.091 248.39 141.266 250.223L124.861 287.588Z"
        fill="#F1323E" />
    <path
        d="M134.041 262.208C133.328 263.805 131.407 264.456 129.871 263.622L124.142 260.514C122.605 259.681 122.104 257.715 123.054 256.248L127.413 249.511C128.264 248.195 129.984 247.757 131.362 248.504L136.003 251.021C137.38 251.769 137.95 253.45 137.312 254.881L134.041 262.208Z"
        fill="black" fill-opacity="0.25" />
    <path
        d="M126.348 275.818L121.166 277.146L120.8 277.836L120.951 278.327L122.527 279.16L123.017 279.009L123.382 278.319L124.705 279.018L124.129 280.107L122.523 280.602L119.762 279.141L119.267 277.535L120.049 276.057L125.126 274.811L125.178 274.714L121.687 272.867L122.274 271.759L127.135 274.331L126.348 275.818ZM120.938 272.396L120.352 273.504L119.029 272.805L119.405 272.095L119.254 271.604L117.523 270.689L117.033 270.84L116.22 272.376L116.371 272.867L119.647 274.6L117.795 278.101L113.012 275.569L113.609 274.442L117.089 276.283L117.748 275.039L115.191 273.686L114.692 272.065L115.921 269.741L117.527 269.247L120.444 270.79L120.938 272.396Z"
        fill="white" />
    <path
        d="M144.141 294.22C137.54 292.545 131.088 290.327 124.852 287.589L141.26 250.225C145.435 252.058 149.755 253.543 154.176 254.665L144.141 294.22Z"
        fill="#202329" />
    <path
        d="M144.141 294.22C137.54 292.545 131.088 290.327 124.852 287.589L141.26 250.225C145.435 252.058 149.755 253.543 154.176 254.665L144.141 294.22Z"
        fill="#202329" />
    <path
        d="M149.022 267.676C148.582 269.368 146.794 270.326 145.142 269.757L138.979 267.634C137.327 267.064 136.509 265.208 137.204 263.604L140.395 256.242C141.018 254.804 142.643 254.088 144.125 254.599L149.117 256.319C150.598 256.829 151.437 258.394 151.043 259.91L149.022 267.676Z"
        fill="black" fill-opacity="0.25" />
    <path
        d="M140.082 285.832L141.929 285.542L141.495 286.847L139.297 287.251L138.159 286.873L140.591 279.567L142.011 280.039L140.082 285.832ZM138.885 280.344L137.259 285.228L135.645 286.036L132.41 284.959L131.602 283.345L133.228 278.461L134.842 277.653L138.078 278.73L138.885 280.344ZM135.107 279.086L134.495 279.392L133.175 283.358L133.481 283.97L135.381 284.603L135.993 284.296L137.313 280.33L137.007 279.718L135.107 279.086Z"
        fill="white" />
    <path
        d="M77.0385 250.35C72.8561 244.975 69.1256 239.263 65.885 233.272L101.777 213.856C103.947 217.867 106.445 221.691 109.246 225.29L77.0385 250.35Z"
        fill="#202329" />
    <path
        d="M77.0385 250.35C72.8561 244.975 69.1256 239.263 65.885 233.272L101.777 213.856C103.947 217.867 106.445 221.691 109.246 225.29L77.0385 250.35Z"
        fill="#202329" />
    <path
        d="M97.1883 232.396C95.8021 233.461 93.8026 233.12 92.8477 231.656L89.2874 226.197C88.3325 224.733 88.8267 222.765 90.3603 221.926L97.3994 218.075C98.7742 217.323 100.496 217.755 101.352 219.068L104.236 223.49C105.092 224.803 104.794 226.553 103.551 227.508L97.1883 232.396Z"
        fill="black" fill-opacity="0.25" />
    <path
        d="M82.6342 237.846L80.8956 239.006L79.9345 238.814L79.773 239.622L78.1442 240.709L76.4966 240.38L74.6531 237.616L74.9821 235.969L76.611 234.882L77.4195 235.044L77.6114 234.083L79.3501 232.923L80.9976 233.252L82.9632 236.198L82.6342 237.846ZM77.6731 236.435L77.1392 236.328L76.2058 236.951L76.0992 237.485L77.1736 239.095L77.7075 239.202L78.6409 238.579L78.7475 238.045L77.6731 236.435ZM80.3207 234.536L79.7868 234.43L78.7619 235.114L78.6553 235.647L79.8517 237.441L80.3857 237.548L81.4105 236.864L81.5172 236.33L80.3207 234.536Z"
        fill="white" />
    <path
        d="M57.7 214.606C55.4888 208.165 53.8142 201.551 52.6934 194.833L92.9448 188.118C93.6953 192.616 94.8165 197.044 96.2971 201.357L57.7 214.606Z"
        fill="#202329" />
    <path
        d="M57.7 214.606C55.4888 208.165 53.8142 201.551 52.6934 194.833L92.9448 188.118C93.6953 192.616 94.8165 197.044 96.2971 201.357L57.7 214.606Z"
        fill="#202329" />
    <path
        d="M82.5866 204.166C80.9297 204.723 79.1492 203.752 78.7212 202.057L77.1257 195.737C76.6977 194.042 77.8037 192.342 79.5266 192.046L87.4347 190.688C88.9792 190.423 90.4676 191.391 90.8512 192.91L92.1437 198.029C92.5273 199.549 91.6769 201.107 90.1916 201.607L82.5866 204.166Z"
        fill="black" fill-opacity="0.25" />
    <path
        d="M67.5791 206.598L66.4091 206.907L66.0278 205.46L66.7617 205.267L67.0202 204.823L66.5155 202.909L66.072 202.65L64.8701 202.967L64.6194 203.397L65.1801 205.524L63.9463 205.85L63.3855 203.722L62.9554 203.472L61.796 203.777L61.5376 204.221L62.0254 206.071L62.4689 206.33L63.2029 206.137L63.5842 207.583L62.4141 207.892L60.9626 207.046L60.1327 203.897L60.9786 202.446L62.9996 201.913L63.6744 202.315L64.0739 201.63L66.1268 201.089L67.5784 201.934L68.4251 205.147L67.5791 206.598ZM60.7399 199.943L61.9929 201.33L60.6633 201.681L59.1218 200.062L58.8162 198.903L66.2619 196.94L66.6432 198.387L60.7399 199.943Z"
        fill="white" />
    <path
        d="M65.8853 233.279C62.6443 227.289 59.9044 221.041 57.6936 214.599L96.2915 201.352C97.7718 205.666 99.6064 209.849 101.776 213.86L65.8853 233.279Z"
        fill="#F1323E" />
    <path
        d="M88.7145 218.885C87.172 219.708 85.2558 219.042 84.5548 217.441L81.9413 211.47C81.2403 209.869 82.0515 208.01 83.7022 207.434L91.2791 204.794C92.7589 204.278 94.3863 204.988 95.0147 206.423L97.1318 211.26C97.7602 212.696 97.1778 214.373 95.7949 215.11L88.7145 218.885Z"
        fill="black" fill-opacity="0.25" />
    <path
        d="M69.2475 224.481L70.7117 225.644L69.4579 226.208L67.6711 224.865L67.179 223.772L74.2003 220.611L74.8144 221.975L69.2475 224.481ZM72.5307 219.796L71.638 220.198L71.0239 218.834L71.4853 218.627L71.6783 218.117L70.9106 216.412L70.4015 216.219L68.7866 216.946L69.6158 217.261L70.6137 219.477L70.0181 221.048L67.7211 222.082L66.1501 221.487L64.7684 218.417L65.364 216.846L70.2187 214.661L71.7897 215.257L73.1263 218.226L72.5307 219.796ZM68.4884 217.865L67.5429 217.506L66.4094 218.016L66.2164 218.526L67.0292 220.331L67.5383 220.524L68.9727 219.878L69.1657 219.369L68.4884 217.865Z"
        fill="white" />
    <path
        d="M298.005 174.341C298.014 181.152 297.459 187.951 296.347 194.671L256.087 188.007C256.832 183.508 257.203 178.955 257.197 174.395L298.005 174.341Z"
        fill="#F1323E" />
    <path
        d="M298.005 174.341C298.014 181.152 297.459 187.951 296.347 194.671L256.087 188.007C256.832 183.508 257.203 178.955 257.197 174.395L298.005 174.341Z"
        fill="#F1323E" />
    <path
        d="M271.079 176.172C272.827 176.18 274.198 177.676 274.055 179.418L273.521 185.914C273.377 187.656 271.781 188.907 270.055 188.63L262.133 187.357C260.585 187.109 259.49 185.711 259.618 184.149L260.051 178.888C260.179 177.326 261.488 176.126 263.055 176.133L271.079 176.172Z"
        fill="black" fill-opacity="0.25" />
    <path
        d="M285.91 180.904L287.161 180.994L287.054 182.486L286.253 182.429L285.865 182.765L285.725 184.718L286.061 185.106L287.794 185.23L288.182 184.894L288.448 181.197L292.398 181.48L292.01 186.878L290.738 186.787L291.019 182.859L289.615 182.758L289.408 185.644L288.126 186.754L285.504 186.566L284.404 185.296L284.64 182.004L285.91 180.904Z"
        fill="white" />
    <path
        d="M272.084 250.205C267.909 255.586 263.296 260.613 258.293 265.233L230.607 235.254C233.957 232.16 237.046 228.794 239.841 225.191L272.084 250.205Z"
        fill="#F1323E" />
    <path
        d="M272.084 250.205C267.909 255.586 263.296 260.613 258.293 265.233L230.607 235.254C233.957 232.16 237.046 228.794 239.841 225.191L272.084 250.205Z"
        fill="#F1323E" />
    <path
        d="M249.706 235.119C251.081 236.199 251.245 238.22 250.062 239.508L245.652 244.307C244.469 245.594 242.441 245.601 241.249 244.323L235.777 238.454C234.708 237.308 234.702 235.532 235.762 234.378L239.334 230.491C240.395 229.337 242.164 229.193 243.397 230.162L249.706 235.119Z"
        fill="black" fill-opacity="0.25" />
    <path
        d="M258.566 247.893L259.465 248.702L258.465 249.814L257.9 249.306L257.388 249.333L256.063 250.805L256.09 251.318L257.014 252.149L257.511 252.123L258.983 250.488L259.931 251.341L258.46 252.977L258.486 253.474L259.377 254.276L259.89 254.249L261.17 252.826L261.143 252.313L260.579 251.806L261.58 250.694L262.479 251.503L262.568 253.181L260.39 255.601L258.712 255.69L257.158 254.292L257.125 253.507L256.332 253.548L254.754 252.128L254.666 250.451L256.888 247.981L258.566 247.893Z"
        fill="white" />
    <path
        d="M283.207 233.119C279.974 239.114 276.252 244.831 272.077 250.212L239.836 225.196C242.631 221.593 245.124 217.765 247.288 213.751L283.207 233.119Z"
        fill="#202329" />
    <path
        d="M283.207 233.119C279.974 239.114 276.252 244.831 272.077 250.212L239.836 225.196C242.631 221.593 245.124 217.765 247.288 213.751L283.207 233.119Z"
        fill="#202329" />
    <path
        d="M258.652 221.921C260.185 222.76 260.68 224.727 259.725 226.191L256.164 231.651C255.209 233.115 253.21 233.456 251.824 232.391L245.461 227.503C244.218 226.548 243.92 224.797 244.776 223.485L247.66 219.062C248.516 217.75 250.238 217.317 251.613 218.069L258.652 221.921Z"
        fill="black" fill-opacity="0.25" />
    <path
        d="M273.946 235.226L274.115 233.364L275.274 234.103L275.131 236.334L274.487 237.345L267.993 233.206L268.797 231.945L273.946 235.226ZM268.316 234.91L269.374 235.584L268.57 236.846L267.892 236.414L267.391 236.525L266.339 238.176L266.45 238.677L267.915 239.612L268.417 239.501L270.409 236.375L273.748 238.503L270.84 243.067L269.764 242.381L271.88 239.06L270.693 238.303L269.138 240.743L267.482 241.11L265.265 239.696L264.902 238.056L266.676 235.273L268.316 234.91Z"
        fill="white" />
    <path
        d="M291.371 214.436C289.169 220.881 286.438 227.132 283.205 233.127L247.287 213.756C249.452 209.743 251.281 205.557 252.755 201.241L291.371 214.436Z"
        fill="#F1323E" />
    <path
        d="M291.371 214.436C289.169 220.881 286.438 227.132 283.205 233.127L247.287 213.756C249.452 209.743 251.281 205.557 252.755 201.241L291.371 214.436Z"
        fill="#F1323E" />
    <path
        d="M265.309 207.429C266.959 208.005 267.77 209.864 267.069 211.465L264.456 217.436C263.755 219.037 261.839 219.703 260.296 218.88L253.216 215.105C251.833 214.368 251.251 212.691 251.879 211.255L253.996 206.418C254.624 204.983 256.252 204.273 257.732 204.789L265.309 207.429Z"
        fill="black" fill-opacity="0.25" />
    <path
        d="M279.082 213.708L280.195 214.182L279.609 215.559L278.911 215.262L278.435 215.454L277.66 217.276L277.852 217.752L278.996 218.238L279.457 218.052L280.318 216.028L281.493 216.527L280.632 218.552L280.818 219.013L281.921 219.483L282.397 219.291L283.146 217.529L282.954 217.053L282.256 216.756L282.841 215.38L283.955 215.853L284.583 217.411L283.309 220.408L281.75 221.036L279.827 220.218L279.541 219.486L278.805 219.783L276.851 218.952L276.223 217.394L277.523 214.337L279.082 213.708ZM275.362 223.071L276.818 219.649L278.204 220.239L281.248 225.252L280.546 226.901L275.951 224.947L275.585 225.807L274.411 225.308L274.777 224.447L273.461 223.887L274.046 222.511L275.362 223.071ZM276.47 223.614L279.567 224.931L279.585 224.891L277.52 221.538L277.379 221.478L276.47 223.614Z"
        fill="white" />
    <path
        d="M296.353 194.664C295.241 201.384 293.576 207.999 291.373 214.444L252.758 201.247C254.233 196.932 255.348 192.502 256.092 188.003L296.353 194.664Z"
        fill="#202329" />
    <path
        d="M296.353 194.664C295.241 201.384 293.576 207.999 291.373 214.444L252.758 201.247C254.233 196.932 255.348 192.502 256.092 188.003L296.353 194.664Z"
        fill="#202329" />
    <path
        d="M269.492 192.041C271.215 192.337 272.321 194.037 271.893 195.732L270.298 202.052C269.87 203.747 268.089 204.718 266.432 204.161L258.827 201.602C257.342 201.102 256.491 199.544 256.875 198.024L258.168 192.905C258.551 191.386 260.04 190.418 261.584 190.683L269.492 192.041Z"
        fill="black" fill-opacity="0.25" />
    <path
        d="M284.539 196.305L287.106 200.998L287.865 201.182L288.303 200.914L288.721 199.182L288.454 198.744L287.695 198.56L288.046 197.106L289.243 197.395L290.119 198.829L289.386 201.866L287.952 202.742L286.327 202.349L283.865 197.738L283.758 197.712L282.831 201.551L281.612 201.256L282.903 195.91L284.539 196.305ZM283.056 202.445L285.624 207.138L286.383 207.322L286.821 207.054L287.239 205.322L286.971 204.884L286.212 204.7L286.563 203.246L287.761 203.535L288.637 204.969L287.904 208.006L286.47 208.882L284.845 208.489L282.382 203.878L282.275 203.852L281.349 207.691L280.13 207.396L281.42 202.05L283.056 202.445Z"
        fill="white" />
    <path
        d="M258.302 265.229C253.299 269.85 247.922 274.049 242.227 277.784L219.851 243.658C223.665 241.157 227.265 238.346 230.615 235.252L258.302 265.229Z"
        fill="#202329" />
    <path
        d="M258.302 265.229C253.299 269.85 247.922 274.049 242.227 277.784L219.851 243.658C223.665 241.157 227.265 238.346 230.615 235.252L258.302 265.229Z"
        fill="#202329" />
    <path
        d="M238.712 246.668C239.89 247.96 239.719 249.981 238.341 251.056L233.201 255.064C231.823 256.139 229.821 255.812 228.855 254.355L224.424 247.666C223.558 246.36 223.844 244.607 225.08 243.644L229.243 240.397C230.479 239.433 232.248 239.583 233.304 240.74L238.712 246.668Z"
        fill="black" fill-opacity="0.25" />
    <path
        d="M247.991 259.255L247.136 264.536L247.622 265.146L248.132 265.204L249.526 264.094L249.584 263.584L249.097 262.973L250.267 262.04L251.035 263.004L250.846 264.673L248.403 266.62L246.733 266.431L245.691 265.124L246.579 259.972L246.511 259.886L243.422 262.346L242.641 261.366L246.942 257.938L247.991 259.255ZM240.235 265.111L243.143 262.794L244.082 263.973L244.375 269.83L242.972 270.947L239.86 267.041L239.129 267.624L238.334 266.626L239.065 266.043L238.174 264.925L239.344 263.993L240.235 265.111ZM240.951 266.116L243.049 268.748L243.083 268.721L242.862 264.79L242.767 264.669L240.951 266.116Z"
        fill="white" />
    <path
        d="M184.94 297.565C178.154 298.14 171.331 298.153 164.543 297.604L167.835 256.929C172.381 257.297 176.949 257.288 181.493 256.903L184.94 297.565Z"
        fill="#2AB161" />
    <path
        d="M180.875 270.886C181.012 272.629 179.636 274.119 177.888 274.121L171.37 274.129C169.622 274.131 168.242 272.644 168.375 270.901L168.984 262.901C169.103 261.338 170.405 260.13 171.972 260.128L177.252 260.122C178.819 260.12 180.123 261.325 180.246 262.887L180.875 270.886Z"
        fill="black" fill-opacity="0.25" />
    <path
        d="M181.123 286.104L181.183 291.251L179.922 292.542L176.512 292.582L175.221 291.321L175.161 286.173L176.422 284.882L179.832 284.843L181.123 286.104ZM177.141 286.15L176.663 286.64L176.711 290.819L177.201 291.298L179.203 291.274L179.681 290.785L179.633 286.605L179.143 286.127L177.141 286.15ZM173.948 286.187L174.007 291.335L172.746 292.625L169.337 292.665L168.046 291.404L167.986 286.256L169.247 284.966L172.657 284.926L173.948 286.187ZM169.966 286.233L169.487 286.723L169.536 290.903L170.026 291.381L172.028 291.358L172.506 290.868L172.457 286.688L171.968 286.21L169.966 286.233Z"
        fill="white" />
    <path
        d="M205.044 294.17C198.445 295.854 191.718 296.989 184.932 297.564L181.487 256.902C186.031 256.517 190.535 255.757 194.954 254.629L205.044 294.17Z"
        fill="#F1323E" />
    <path
        d="M205.044 294.17C198.445 295.854 191.718 296.989 184.932 297.564L181.487 256.902C186.031 256.517 190.535 255.757 194.954 254.629L205.044 294.17Z"
        fill="#F1323E" />
    <path
        d="M196.646 268.523C197.067 270.219 195.955 271.915 194.231 272.205L187.804 273.285C186.08 273.575 184.474 272.335 184.319 270.594L183.603 262.602C183.463 261.042 184.549 259.636 186.094 259.376L191.301 258.501C192.846 258.242 194.331 259.215 194.709 260.736L196.646 268.523Z"
        fill="black" fill-opacity="0.25" />
    <path
        d="M193.936 289.374L195.42 288.237L195.662 289.59L193.925 290.996L192.744 291.207L191.389 283.627L192.862 283.364L193.936 289.374Z"
        fill="white" />
    <path
        d="M224.317 287.516C218.085 290.263 211.636 292.49 205.037 294.174L194.949 254.632C199.368 253.505 203.686 252.014 207.859 250.175L224.317 287.516Z"
        fill="#202329" />
    <path
        d="M224.317 287.516C218.085 290.263 211.636 292.49 205.037 294.174L194.949 254.632C199.368 253.505 203.686 252.014 207.859 250.175L224.317 287.516Z"
        fill="#202329" />
    <path
        d="M211.813 263.6C212.508 265.204 211.69 267.061 210.037 267.63L203.875 269.753C202.222 270.322 200.435 269.364 199.994 267.672L197.974 259.907C197.579 258.39 198.418 256.825 199.9 256.315L204.892 254.595C206.373 254.085 207.998 254.801 208.621 256.238L211.813 263.6Z"
        fill="black" fill-opacity="0.25" />
    <path
        d="M215.694 283.5L216.971 282.135L217.432 283.43L215.949 285.103L214.82 285.505L212.236 278.251L213.645 277.749L215.694 283.5ZM211.548 279.757L211.954 280.897L210.545 281.399L210.29 280.684L209.827 280.464L207.961 281.129L207.741 281.592L208.158 282.763L208.608 282.977L210.681 282.238L211.109 283.44L209.036 284.179L208.823 284.628L209.225 285.758L209.689 285.978L211.492 285.336L211.712 284.872L211.457 284.157L212.867 283.655L213.273 284.795L212.552 286.313L209.485 287.405L207.967 286.685L207.266 284.716L207.61 284.01L206.893 283.669L206.181 281.669L206.901 280.152L210.031 279.037L211.548 279.757Z"
        fill="white" />
    <path
        d="M242.235 277.783C236.54 281.518 230.545 284.775 224.313 287.522L207.857 250.179C212.03 248.34 216.043 246.159 219.857 243.658L242.235 277.783Z"
        fill="#F1323E" />
    <path
        d="M242.235 277.783C236.54 281.518 230.545 284.775 224.313 287.522L207.857 250.179C212.03 248.34 216.043 246.159 219.857 243.658L242.235 277.783Z"
        fill="#F1323E" />
    <path
        d="M225.965 256.252C226.914 257.719 226.413 259.685 224.877 260.518L219.148 263.626C217.611 264.46 215.69 263.808 214.978 262.212L211.707 254.885C211.068 253.454 211.638 251.773 213.016 251.025L217.657 248.508C219.034 247.76 220.755 248.199 221.606 249.515L225.965 256.252Z"
        fill="black" fill-opacity="0.25" />
    <path
        d="M233.188 269.549L233.776 270.606L232.468 271.333L232.099 270.67L231.606 270.529L229.875 271.491L229.734 271.985L230.339 273.071L230.817 273.208L232.74 272.139L233.36 273.254L231.437 274.323L231.301 274.802L231.883 275.85L232.377 275.99L234.05 275.06L234.191 274.567L233.822 273.903L235.129 273.176L235.717 274.234L235.256 275.849L232.411 277.432L230.795 276.971L229.779 275.144L230.002 274.391L229.24 274.173L228.208 272.318L228.669 270.702L231.572 269.088L233.188 269.549ZM227.203 272.877L229.79 277.53L229.329 279.145L226.426 280.76L224.81 280.299L224.276 279.337L225.583 278.61L225.888 279.158L226.411 279.308L228.103 278.367L228.253 277.843L227.371 276.257L227.108 277.12L225.003 278.291L223.387 277.83L222.184 275.667L222.645 274.051L225.587 272.416L227.203 272.877ZM223.871 274.83L223.722 275.353L224.465 276.69L224.988 276.839L226.354 276.08L226.654 274.969L226.125 274.017L225.602 273.868L223.871 274.83Z"
        fill="white" />
    <path
        d="M52.6934 194.843C51.5722 188.125 51.0085 181.326 51.0083 174.515L91.8161 174.514C91.8162 179.074 92.1936 183.626 92.9444 188.124L52.6934 194.843Z"
        fill="#F1323E" />
    <path
        d="M52.6934 194.843C51.5722 188.125 51.0085 181.326 51.0083 174.515L91.8161 174.514C91.8162 179.074 92.1936 183.626 92.9444 188.124L52.6934 194.843Z"
        fill="#F1323E" />
    <path
        d="M78.9589 188.638C77.2329 188.916 75.6365 187.664 75.4932 185.922L74.9592 179.426C74.8159 177.684 76.1866 176.189 77.9347 176.18L85.9585 176.142C87.5255 176.134 88.8344 177.334 88.9628 178.896L89.3954 184.158C89.5238 185.72 88.4285 187.117 86.8813 187.366L78.9589 188.638Z"
        fill="black" fill-opacity="0.25" />
    <path
        d="M58.7343 187.671L59.742 189.246L58.3729 189.373L57.1187 187.523L57.008 186.329L64.6752 185.618L64.8133 187.108L58.7343 187.671ZM63.3706 184.415L61.2895 184.608L60.5355 183.982L60.0088 184.616L58.0591 184.797L56.7665 183.724L56.4599 180.416L57.5331 179.123L59.4828 178.943L60.1171 179.469L60.7432 178.715L62.8243 178.522L64.1169 179.596L64.4438 183.122L63.3706 184.415ZM59.6783 180.813L59.2594 180.466L58.1422 180.569L57.7944 180.988L57.9731 182.916L58.392 183.264L59.5092 183.16L59.857 182.741L59.6783 180.813ZM62.9103 180.403L62.4914 180.056L61.2646 180.169L60.9168 180.588L61.1158 182.735L61.5347 183.083L62.7615 182.969L63.1093 182.55L62.9103 180.403Z"
        fill="white" />
    <path
        d="M65.8764 115.761C69.1161 109.771 72.8459 104.058 77.0275 98.6824L109.238 123.738C106.438 127.337 103.941 131.162 101.771 135.173L65.8764 115.761Z"
        fill="#F1323E" />
    <path
        d="M65.8764 115.761C69.1161 109.771 72.8459 104.058 77.0275 98.6824L109.238 123.738C106.438 127.337 103.941 131.162 101.771 135.173L65.8764 115.761Z"
        fill="#F1323E" />
    <path
        d="M90.4176 126.993C88.8851 126.152 88.3933 124.184 89.3499 122.721L92.9169 117.266C93.8736 115.803 95.8735 115.464 97.2584 116.531L103.615 121.427C104.857 122.383 105.153 124.134 104.296 125.446L101.406 129.865C100.548 131.176 98.8259 131.607 97.452 130.853L90.4176 126.993Z"
        fill="black" fill-opacity="0.25" />
    <path
        d="M75.0941 113.738L74.9225 115.6L73.7639 114.859L73.91 112.629L74.5557 111.618L81.0438 115.765L80.2382 117.026L75.0941 113.738ZM80.7823 113.968L76.2963 111.101L75.935 109.46L77.724 106.661L79.3648 106.3L80.2917 106.892L79.486 108.153L78.9577 107.815L78.426 107.932L77.3834 109.564L77.5004 110.095L79.0298 111.073L78.851 110.188L80.1483 108.158L81.7891 107.797L83.8745 109.13L84.2358 110.771L82.4231 113.607L80.7823 113.968ZM82.7874 110.668L82.6703 110.136L81.382 109.312L80.8502 109.43L80.0091 110.746L80.2718 111.867L81.1894 112.453L81.7211 112.336L82.7874 110.668Z"
        fill="white" />
    <path
        d="M57.6928 134.437C59.9027 127.995 62.6418 121.746 65.8819 115.756L101.776 135.17C99.6062 139.181 97.7722 143.365 96.2925 147.678L57.6928 134.437Z"
        fill="#F1323E" />
    <path
        d="M57.6928 134.437C59.9027 127.995 62.6418 121.746 65.8819 115.756L101.776 135.17C99.6062 139.181 97.7722 143.365 96.2925 147.678L57.6928 134.437Z"
        fill="#202329" />
    <path
        d="M83.7477 141.477C82.0977 140.899 81.2888 139.039 81.9918 137.439L84.6126 131.471C85.3155 129.871 87.2325 129.208 88.774 130.032L95.8498 133.816C97.2318 134.554 97.8121 136.233 97.182 137.667L95.059 142.501C94.4288 143.936 92.8005 144.644 91.3214 144.127L83.7477 141.477Z"
        fill="black" fill-opacity="0.25" />
    <path
        d="M69.9314 135.298L68.8185 134.823L69.4058 133.447L70.1038 133.745L70.5802 133.553L71.3574 131.732L71.1661 131.256L70.0229 130.768L69.5609 130.954L68.6973 132.977L67.5237 132.476L68.3874 130.453L68.2018 129.991L67.099 129.52L66.6227 129.711L65.8713 131.472L66.0627 131.948L66.7608 132.246L66.1735 133.622L65.0606 133.147L64.4344 131.588L65.7125 128.593L67.2715 127.967L69.1937 128.788L69.4794 129.519L70.2155 129.224L72.1681 130.057L72.7944 131.616L71.4904 134.671L69.9314 135.298ZM72.5332 129.202L71.4203 128.727L72.0076 127.351L72.7056 127.649L73.182 127.458L73.9593 125.636L73.7679 125.16L72.6247 124.672L72.1627 124.858L71.2991 126.881L70.1256 126.38L70.9892 124.357L70.8036 123.895L69.7008 123.424L69.2245 123.616L68.4731 125.376L68.6645 125.852L69.3626 126.15L68.7753 127.526L67.6624 127.051L67.0362 125.492L68.3143 122.498L69.8733 121.871L71.7955 122.692L72.0812 123.424L72.8174 123.128L74.7699 123.961L75.3962 125.52L74.0922 128.576L72.5332 129.202Z"
        fill="white" />
    <path
        d="M52.6902 154.202C53.8101 147.484 55.4838 140.87 57.6941 134.428L96.293 147.672C94.813 151.986 93.6924 156.414 92.9425 160.912L52.6902 154.202Z"
        fill="#F1323E" />
    <path
        d="M52.6902 154.202C53.8101 147.484 55.4838 140.87 57.6941 134.428L96.293 147.672C94.813 151.986 93.6924 156.414 92.9425 160.912L52.6902 154.202Z"
        fill="#F1323E" />
    <path
        d="M79.5472 156.857C77.8247 156.559 76.7208 154.858 77.1508 153.163L78.754 146.846C79.184 145.151 80.9658 144.182 82.622 144.741L90.2239 147.309C91.7085 147.811 92.5571 149.371 92.1716 150.889L90.8729 156.007C90.4874 157.526 88.9978 158.492 87.4537 158.225L79.5472 156.857Z"
        fill="black" fill-opacity="0.25" />
    <path
        d="M64.7563 151.55L62.1949 146.853L61.4359 146.669L60.9975 146.936L60.5772 148.668L60.8443 149.106L61.6033 149.291L61.2504 150.744L60.0532 150.454L59.1789 149.019L59.9158 145.983L61.3505 145.109L62.9753 145.503L65.4321 150.118L65.539 150.144L66.4705 146.306L67.6891 146.602L66.3918 151.947L64.7563 151.55ZM62.3045 142.904L62.7464 144.721L61.4102 144.397L60.8245 142.24L61.1073 141.074L68.5901 142.891L68.2372 144.344L62.3045 142.904Z"
        fill="white" />
    <path
        d="M51.0041 174.522C51.0035 167.712 51.5662 160.913 52.6865 154.195L92.9384 160.907C92.1882 165.406 91.8115 169.958 91.8119 174.518L51.0041 174.522Z"
        fill="#202329" />
    <path
        d="M51.0041 174.522C51.0035 167.712 51.5662 160.913 52.6865 154.195L92.9384 160.907C92.1882 165.406 91.8115 169.958 91.8119 174.518L51.0041 174.522Z"
        fill="#202329" />
    <path
        d="M77.9325 172.723C76.1844 172.712 74.8156 171.215 74.9609 169.473L75.5029 162.978C75.6483 161.236 77.2463 159.987 78.9719 160.266L86.8927 161.548C88.4397 161.799 89.5333 163.197 89.403 164.759L88.9639 170.021C88.8336 171.582 87.5233 172.78 85.9562 172.771L77.9325 172.723Z"
        fill="black" fill-opacity="0.25" />
    <path
        d="M63.1096 167.948L57.7998 167.56L56.7014 166.289L56.9431 162.976L58.2144 161.877L59.3115 161.957L59.2026 163.449L58.5773 163.404L58.1653 163.76L58.0244 165.69L58.3804 166.102L60.1906 166.235L59.6125 165.542L59.7878 163.139L61.0591 162.041L63.5275 162.221L64.6259 163.492L64.381 166.849L63.1096 167.948ZM63.3029 164.09L62.9469 163.678L61.422 163.567L61.01 163.923L60.8963 165.481L61.6607 166.342L62.7468 166.421L63.1588 166.065L63.3029 164.09Z"
        fill="white" />
    <path
        d="M77.0225 98.6938C81.2038 93.3178 85.8226 88.2968 90.8317 83.6823L118.481 113.696C115.127 116.785 112.034 120.147 109.235 123.747L77.0225 98.6938Z"
        fill="#202329" />
    <path
        d="M77.0225 98.6938C81.2038 93.3178 85.8226 88.2968 90.8317 83.6823L118.481 113.696C115.127 116.785 112.034 120.147 109.235 123.747L77.0225 98.6938Z"
        fill="#202329" />
    <path
        d="M99.3821 113.806C98.0088 112.725 97.8475 110.703 99.0318 109.417L103.448 104.623C104.632 103.337 106.66 103.332 107.851 104.612L113.316 110.488C114.383 111.635 114.387 113.411 113.325 114.564L109.748 118.447C108.687 119.599 106.917 119.741 105.686 118.771L99.3821 113.806Z"
        fill="black" fill-opacity="0.25" />
    <path
        d="M92.7515 98.2057L90.2611 100.966L89.1421 99.9569L87.8969 94.2264L89.0979 92.8951L92.8061 96.2402L93.4324 95.5459L94.3798 96.4006L93.7535 97.0949L94.8153 98.0527L93.8133 99.1635L92.7515 98.2057ZM91.8809 97.3314L89.3816 95.0768L89.3521 95.1095L90.2119 98.9517L90.3262 99.0548L91.8809 97.3314Z"
        fill="white" />
    <path
        d="M144.118 54.8107C150.719 53.1347 157.447 52.0077 164.234 51.4411L167.629 92.1074C163.085 92.4868 158.58 93.2414 154.16 94.3636L144.118 54.8107Z"
        fill="#F1323E" />
    <path
        d="M144.118 54.8107C150.719 53.1347 157.447 52.0077 164.234 51.4411L167.629 92.1074C163.085 92.4868 158.58 93.2414 154.16 94.3636L144.118 54.8107Z"
        fill="#202329" />
    <path
        d="M152.485 80.4705C152.066 78.7736 153.18 77.0786 154.904 76.791L161.333 75.7186C163.057 75.431 164.661 76.6726 164.815 78.4139L165.521 86.4067C165.658 87.9677 164.571 89.3718 163.026 89.6296L157.818 90.4983C156.272 90.7561 154.789 89.7808 154.412 88.2596L152.485 80.4705Z"
        fill="black" fill-opacity="0.25" />
    <path
        d="M153.466 64.4252L156.737 60.1914L156.6 59.4224L156.179 59.1285L154.425 59.4399L154.131 59.8608L154.267 60.6298L152.794 60.8913L152.579 59.6782L153.541 58.3009L156.617 57.7548L157.994 58.7169L158.286 60.3631L155.049 64.4682L155.068 64.5765L158.957 63.8862L159.176 65.1209L153.76 66.0823L153.466 64.4252Z"
        fill="white" />
    <path
        d="M124.839 61.4427C131.074 58.7035 137.526 56.4847 144.127 54.8091L154.166 94.3627C149.746 95.4846 145.427 96.9702 141.252 98.8043L124.839 61.4427Z"
        fill="#F1323E" />
    <path
        d="M124.839 61.4427C131.074 58.7035 137.526 56.4847 144.127 54.8091L154.166 94.3627C149.746 95.4846 145.427 96.9702 141.252 98.8043L124.839 61.4427Z"
        fill="#F1323E" />
    <path
        d="M137.314 85.3738C136.62 83.769 137.441 81.9138 139.094 81.3464L145.259 79.2309C146.912 78.6635 148.699 79.6243 149.137 81.3166L151.148 89.0844C151.541 90.6014 150.7 92.1652 149.217 92.6739L144.224 94.3875C142.741 94.8962 141.117 94.1783 140.496 92.7397L137.314 85.3738Z"
        fill="black" fill-opacity="0.25" />
    <path
        d="M133.579 65.4264L132.3 66.7905L131.84 65.4946L133.325 63.8239L134.455 63.423L137.03 70.6797L135.62 71.1799L133.579 65.4264ZM140.884 67.795L137.38 69.0383L136.876 67.6181L138.507 61.9853L140.197 61.3857L141.867 66.0922L142.748 65.7795L143.175 66.982L142.293 67.2947L142.772 68.6424L141.362 69.1426L140.884 67.795ZM140.534 66.6118L139.408 63.4396L139.367 63.4543L138.295 67.2429L138.346 67.388L140.534 66.6118Z"
        fill="white" />
    <path
        d="M106.911 71.1551C112.61 67.4273 118.609 64.1773 124.845 61.4384L141.255 98.8011C137.08 100.635 133.063 102.811 129.247 105.307L106.911 71.1551Z"
        fill="#F1323E" />
    <path
        d="M106.911 71.1551C112.61 67.4273 118.609 64.1773 124.845 61.4384L141.255 98.8011C137.08 100.635 133.063 102.811 129.247 105.307L106.911 71.1551Z"
        fill="#202329" />
    <path
        d="M123.153 92.7077C122.205 91.2389 122.709 89.274 124.246 88.4423L129.979 85.3413C131.517 84.5096 133.437 85.1634 134.147 86.7605L137.409 94.0916C138.046 95.5233 137.474 97.2042 136.095 97.9498L131.452 100.462C130.073 101.207 128.353 100.766 127.504 99.4497L123.153 92.7077Z"
        fill="black" fill-opacity="0.25" />
    <path
        d="M116.022 79.3602L115.436 78.302L116.744 77.5766L117.112 78.2404L117.606 78.3818L119.337 77.4217L119.479 76.9282L118.876 75.8411L118.397 75.704L116.473 76.7708L115.855 75.6548L117.779 74.588L117.916 74.1095L117.334 73.0609L116.841 72.9195L115.167 73.8476L115.026 74.3411L115.394 75.0049L114.085 75.7303L113.498 74.6721L113.961 73.057L116.809 71.4781L118.424 71.941L119.437 73.7689L119.214 74.5219L119.976 74.7405L121.006 76.5972L120.543 78.2123L117.637 79.8232L116.022 79.3602ZM121.915 76.093L121.307 74.9962L122.615 74.2708L123.005 74.9731L123.498 75.1145L125.211 74.1651L125.352 73.6716L124.509 72.1516L124.016 72.0102L120.774 73.8077L118.854 70.3445L123.587 67.7201L124.206 68.8361L120.761 70.7456L121.444 71.977L123.974 70.5742L125.604 71.0414L126.879 73.3406L126.416 74.9557L123.53 76.5559L121.915 76.093Z"
        fill="white" />
    <path
        d="M90.8232 83.6848C95.832 79.07 101.214 74.8774 106.914 71.1499L129.248 105.303C125.432 107.799 121.828 110.606 118.474 113.696L90.8232 83.6848Z"
        fill="#F1323E" />
    <path
        d="M90.8232 83.6848C95.832 79.07 101.214 74.8774 106.914 71.1499L129.248 105.303C125.432 107.799 121.828 110.606 118.474 113.696L90.8232 83.6848Z"
        fill="#F1323E" />
    <path
        d="M110.39 102.272C109.214 100.979 109.387 98.9583 110.767 97.8849L115.912 93.8829C117.291 92.8096 119.293 93.1385 120.257 94.597L124.68 101.291C125.544 102.599 125.256 104.351 124.019 105.313L119.852 108.555C118.615 109.517 116.846 109.365 115.791 108.206L110.39 102.272Z"
        fill="black" fill-opacity="0.25" />
    <path
        d="M101.026 89.754L101.888 84.4742L101.402 83.8627L100.892 83.8044L99.4967 84.9132L99.4384 85.4232L99.9244 86.0346L98.7532 86.9654L97.9867 86.0009L98.1775 84.3317L100.623 82.388L102.292 82.5789L103.333 83.8878L102.438 89.0387L102.507 89.1248L105.598 86.6678L106.379 87.6495L102.073 91.0716L101.026 89.754ZM106.244 86.2389L105.491 85.2916L106.662 84.3608L107.135 84.955L107.645 85.0133L109.195 83.7814L109.253 83.2713L108.48 82.2982L107.985 82.2417L106.263 83.6105L105.469 82.6116L107.191 81.2428L107.248 80.7482L106.502 79.8095L105.992 79.7512L104.493 80.9421L104.435 81.4521L104.907 82.0463L103.736 82.9771L102.983 82.0298L103.174 80.3606L105.723 78.3348L107.392 78.5256L108.693 80.1618L108.596 80.9415L109.384 81.0316L110.705 82.6936L110.514 84.3628L107.913 86.4297L106.244 86.2389Z"
        fill="white" />
</svg>
    