<svg width="14" height="16" viewBox="0 0 14 16" fill="none" xmlns="http://www.w3.org/2000/svg">
<path opacity="0.75" d="M4.35459 6.85714C5.13841 7.68 6.00933 8.04571 7.05443 8.04571C8.09953 8.04571 8.97045 7.68 9.75428 6.85714C10.5381 6.03429 10.8865 5.12 10.8865 4.02286C10.8865 2.92571 10.5381 2.01143 9.75428 1.18857C8.97045 0.365714 8.09953 0 7.05443 0C6.00933 0 5.13841 0.365714 4.35459 1.18857C3.65785 2.01143 3.2224 2.92571 3.2224 4.02286C3.2224 5.12 3.65785 6.12571 4.35459 6.85714ZM13.9347 11.1543C13.8476 10.7886 13.7605 10.3314 13.6734 10.0571C13.5863 9.69143 13.4121 9.32571 13.2379 9.05143C13.0638 8.68571 12.8896 8.41143 12.6283 8.22857C12.367 7.95429 12.1058 7.77143 11.7574 7.68C11.409 7.40571 11.0607 7.40571 10.6252 7.40571C10.5381 7.40571 10.451 7.49714 10.1897 7.58857C9.92846 7.77143 9.75428 7.86286 9.493 8.04571C9.23173 8.22857 8.88336 8.41143 8.4479 8.50286C8.01244 8.68571 7.57698 8.68571 7.14152 8.68571C6.70607 8.68571 6.27061 8.59429 5.83515 8.50286C5.3126 8.41143 4.96423 8.32 4.70295 8.13714C4.44168 7.95429 4.1804 7.77143 4.00622 7.68C3.74495 7.40571 3.57076 7.40571 3.48367 7.40571C3.04821 7.40571 2.69984 7.49714 2.35148 7.58857C2.00311 7.77143 1.74184 7.95429 1.48056 8.13714C1.21928 8.41143 1.0451 8.68571 0.870918 8.96C0.696734 9.32571 0.522551 9.6 0.435459 9.96571C0.348367 10.3314 0.261275 10.6971 0.174183 11.0629C0.0870916 11.4286 0.0870918 11.8857 0 12.16C0 12.5257 0 12.8914 0 13.2571C0 14.08 0.261275 14.72 0.696734 15.2686C1.21928 15.7257 1.82893 16 2.61275 16H11.3219C12.1058 16 12.8025 15.7257 13.2379 15.2686C13.7605 14.8114 13.9347 14.08 13.9347 13.2571C13.9347 12.8914 13.9347 12.5257 13.9347 12.16C14.0218 11.8857 14.0218 11.52 13.9347 11.1543Z" fill="#8033D7"/>
</svg>
