<svg width="13" height="17" viewBox="0 0 13 17" fill="none" xmlns="http://www.w3.org/2000/svg">
<path id="Fire" d="M9.81839 2.06791C8.91729 1.13948 7.81116 0.435661 6.58893 0.0130335C6.52539 -0.00503606 6.45798 -0.00430279 6.39484 0.0151448C6.33171 0.0345923 6.27555 0.0719224 6.23314 0.122627C6.19141 0.173757 6.16533 0.235873 6.15805 0.301496C6.15077 0.367119 6.16259 0.433451 6.19209 0.492504C6.9162 1.83322 7.11852 3.39496 6.75998 4.87624C6.75407 4.89921 6.74087 4.91965 6.72236 4.93447C6.70385 4.94929 6.68104 4.9577 6.65735 4.95843C6.59577 4.95843 6.58209 4.95843 6.58209 4.91049C6.05964 3.64318 5.18 2.55552 4.05052 1.78023C3.99293 1.74221 3.9252 1.72251 3.85623 1.72371C3.78726 1.72491 3.72026 1.74695 3.66403 1.78695C3.6078 1.82695 3.56496 1.88303 3.54113 1.94784C3.5173 2.01265 3.5136 2.08315 3.53052 2.1501C3.9342 3.73236 3.14052 4.68445 2.1621 5.88998C1.18368 7.0955 0 8.50652 0 10.7806C0.0240348 12.2337 0.534821 13.6366 1.45045 14.7644C2.36608 15.8922 3.6335 16.6795 5.04946 17C4.76081 16.796 4.52468 16.5264 4.36053 16.2132C4.19637 15.9 4.10887 15.5522 4.10525 15.1986C4.10525 11.5409 6.49998 10.6299 6.49998 10.6299C6.97893 13.0272 8.89471 13.5752 8.89471 15.1986C8.89129 15.5481 8.80592 15.892 8.64549 16.2025C8.48505 16.513 8.25404 16.7815 7.97103 16.9863C8.97483 16.7683 9.91274 16.3153 10.7079 15.6643C11.4278 15.0669 12.0066 14.3173 12.4029 13.4693C12.7992 12.6214 13.0031 11.6962 13 10.76C13 6.17766 11.2689 3.50632 9.81839 2.06791Z" fill="white"/>
</svg>
