<svg width="18" height="18" viewBox="0 0 18 18" fill="none" xmlns="http://www.w3.org/2000/svg">
<g opacity="0.5" clip-path="url(#clip0_1061_1941)">
<mask id="mask0_1061_1941" style="mask-type:luminance" maskUnits="userSpaceOnUse" x="0" y="0" width="18" height="18">
<path d="M13.5 16.7942C11.596 17.8935 9.3554 18.2579 7.20119 17.8184C5.04696 17.379 3.1281 16.1662 1.80675 14.409C0.48541 12.6517 -0.147011 10.4716 0.0288536 8.28008C0.204718 6.08855 1.1767 4.03719 2.76136 2.51317C4.34601 0.989137 6.43372 0.0978763 8.63047 0.00759647C10.8272 -0.0826832 12.981 0.634261 14.6854 2.02312C16.3897 3.41198 17.5268 5.37667 17.8818 7.54639C18.237 9.71609 17.7856 11.9407 16.6128 13.8005L13.5677 11.8803C14.2714 10.7645 14.5422 9.42966 14.3291 8.12787C14.1161 6.826 13.4338 5.64718 12.4112 4.81387C11.3886 3.98056 10.0963 3.5504 8.7783 3.60456C7.46024 3.65872 6.20761 4.19348 5.25682 5.1079C4.30603 6.02231 3.72284 7.25314 3.61732 8.56808C3.5118 9.88302 3.89125 11.1911 4.68406 12.2454C5.47687 13.2997 6.62819 14.0274 7.92072 14.2911C9.21328 14.5547 10.5576 14.3361 11.7 13.6766L13.5 16.7942Z" fill="white"/>
</mask>
<g mask="url(#mask0_1061_1941)">
<path d="M13.5 16.7942C11.596 17.8935 9.3554 18.2579 7.20119 17.8184C5.04696 17.379 3.1281 16.1662 1.80675 14.409C0.48541 12.6517 -0.147011 10.4716 0.0288536 8.28008C0.204718 6.08855 1.1767 4.03719 2.76136 2.51317C4.34601 0.989137 6.43372 0.0978763 8.63047 0.00759647C10.8272 -0.0826832 12.981 0.634261 14.6854 2.02312C16.3897 3.41198 17.5268 5.37667 17.8818 7.54639C18.237 9.71609 17.7856 11.9407 16.6128 13.8005L13.5677 11.8803C14.2714 10.7645 14.5422 9.42966 14.3291 8.12787C14.1161 6.82601 13.4338 5.64718 12.4112 4.81387C11.3886 3.98056 10.0963 3.5504 8.7783 3.60456C7.46024 3.65872 6.20761 4.19348 5.25682 5.1079C4.30603 6.02231 3.72284 7.25314 3.61732 8.56808C3.5118 9.88302 3.89125 11.1911 4.68406 12.2454C5.47687 13.2997 6.62819 14.0274 7.92072 14.2911C9.21328 14.5547 10.5576 14.3361 11.7 13.6766L13.5 16.7942Z" stroke="white" stroke-width="10"/>
</g>
<path d="M8.99977 12.52C10.9448 12.52 12.5215 10.9433 12.5215 8.9983C12.5215 7.0533 10.9448 5.47656 8.99977 5.47656C7.05476 5.47656 5.47803 7.0533 5.47803 8.9983C5.47803 10.9433 7.05476 12.52 8.99977 12.52Z" fill="white"/>
</g>
<defs>
<clipPath id="clip0_1061_1941">
<rect width="18" height="18" fill="white"/>
</clipPath>
</defs>
</svg>
