<svg width="17" height="17" viewBox="0 0 17 17" fill="none" xmlns="http://www.w3.org/2000/svg">
<path d="M9.48438 9.97656H7.51562V14.823H9.48438V9.97656Z" fill="#E6E2E0"/>
<path d="M7.70922 9.97656H7.51562V14.823H7.70922V9.97656Z" fill="#E6E2E0" fill-opacity="0.901961"/>
<path d="M7.51562 9.97656V12.047C7.87381 12.1927 8.24847 12.2941 8.63125 12.3489C8.74146 12.3639 8.84258 12.4181 8.9161 12.5015C8.98961 12.585 9.0306 12.6921 9.03156 12.8034V14.8213H9.48438V9.97656H7.51562Z" fill="#E6E2E0"/>
<path d="M12.864 10.1768H11.0397V8.86426H12.864C13.4904 8.86339 14.0908 8.61421 14.5336 8.17134C14.9765 7.72847 15.2257 7.12807 15.2265 6.50176V5.25488C15.2265 5.16786 15.192 5.0844 15.1304 5.02286C15.0689 4.96133 14.9854 4.92676 14.8984 4.92676H12.6229V3.61426H14.8984C15.3335 3.61426 15.7508 3.78711 16.0585 4.09479C16.3662 4.40246 16.539 4.81976 16.539 5.25488V6.50176C16.5377 7.47603 16.1501 8.41002 15.4612 9.09894C14.7723 9.78785 13.8383 10.1755 12.864 10.1768Z" fill="#E6E2E0"/>
<path d="M15.9714 4.01758C16.4636 4.58688 16.375 5.06266 16.375 6.33742C16.3738 7.13225 16.1153 7.90533 15.6383 8.54113C15.1614 9.17692 14.4914 9.64127 13.7287 9.86477C13.6607 9.88458 13.5888 9.88619 13.52 9.86943C13.4513 9.85267 13.3881 9.81813 13.3369 9.76927C13.2858 9.7204 13.2483 9.65894 13.2284 9.59105C13.2084 9.52315 13.2067 9.4512 13.2233 9.38242C13.2695 9.19608 13.3041 9.00704 13.3267 8.81641C13.0215 8.87711 13.0232 8.86234 11.0397 8.86234V10.1748H12.864C13.8384 10.1748 14.7729 9.78788 15.4621 9.09904C16.1512 8.4102 16.5386 7.47587 16.539 6.50148C16.539 5.29562 16.6687 4.62297 15.9714 4.01758Z" fill="#E6E2E0"/>
<path d="M5.95867 10.1768H4.13594C3.16167 10.1755 2.22767 9.78785 1.53876 9.09894C0.849844 8.41002 0.46224 7.47603 0.460938 6.50176V5.25488C0.460938 4.81976 0.633789 4.40246 0.941465 4.09479C1.24914 3.78711 1.66644 3.61426 2.10156 3.61426H4.37711V4.92676H2.10156C2.01454 4.92676 1.93108 4.96133 1.86954 5.02286C1.80801 5.0844 1.77344 5.16786 1.77344 5.25488V6.50176C1.77431 7.12807 2.02349 7.72847 2.46636 8.17134C2.90922 8.61421 3.50963 8.86339 4.13594 8.86426H5.95867V10.1768Z" fill="#E6E2E0"/>
<path d="M4.21306 3.61426V4.7627H3.71103L3.72251 3.61426L3.57814 4.39848C3.56038 4.49959 3.50755 4.5912 3.42894 4.65722C3.35032 4.72323 3.25095 4.75942 3.14829 4.75941H1.93751C1.85049 4.75941 1.76703 4.79398 1.70549 4.85552C1.64396 4.91705 1.60939 5.00051 1.60939 5.08754C1.60939 6.33277 1.46501 7.24496 2.38868 8.08168C1.99423 7.64989 1.77488 7.08659 1.77345 6.50176V5.25488C1.77345 5.16786 1.80802 5.0844 1.86955 5.02286C1.93109 4.96133 2.01455 4.92676 2.10157 4.92676H4.37712V3.61426H4.21306Z" fill="#E6E2E0"/>
<path d="M4.37879 3.61426H3.87512V4.92676H4.37879V3.61426Z" fill="#E6E2E0"/>
<path d="M3.9571 8.85596C4.01056 9.13605 4.08964 9.41065 4.19335 9.67627C4.20783 9.71265 4.21318 9.75203 4.20891 9.79096C4.20464 9.82989 4.1909 9.86717 4.16888 9.89955C4.14686 9.93194 4.11724 9.95843 4.0826 9.9767C4.04797 9.99498 4.00938 10.0045 3.97022 10.0044C3.0358 10.0049 2.13656 9.64803 1.45679 9.00689C2.72499 10.3555 4.08179 10.1685 5.95702 10.1685V8.85596C3.90624 8.86416 4.1228 8.86744 3.9571 8.85596Z" fill="#E6E2E0"/>
<path d="M13.2775 1.98682H3.72253V7.36807C3.72253 8.63536 4.22596 9.85074 5.12207 10.7468C6.01818 11.643 7.23356 12.1464 8.50085 12.1464C9.76814 12.1464 10.9835 11.643 11.8796 10.7468C12.7757 9.85074 13.2792 8.63536 13.2792 7.36807L13.2775 1.98682Z" fill="#E6E2E0"/>
<path d="M14.7343 4.7627H14.0781C13.9249 4.76266 13.7769 4.7074 13.6612 4.60705C13.5455 4.5067 13.4698 4.36799 13.4481 4.21637L13.3628 3.61426H12.6229V4.92676C15.0707 4.92676 14.9329 4.91035 15.0329 4.95629C15.0071 4.89872 14.9651 4.84984 14.9122 4.8155C14.8592 4.78116 14.7975 4.76283 14.7343 4.7627Z" fill="#E6E2E0"/>
<path d="M4.02769 7.36807V1.98682H3.72253V7.36807C3.72242 8.00829 3.85103 8.64201 4.10073 9.23154C4.35042 9.82107 4.7161 10.3544 5.17602 10.7998C5.63594 11.2451 6.18071 11.5935 6.77796 11.8241C7.3752 12.0548 8.01272 12.163 8.65261 12.1423C7.41274 12.1027 6.23689 11.5823 5.37376 10.6913C4.51063 9.80035 4.02791 8.60857 4.02769 7.36807Z" fill="#E6E2E0"/>
<path d="M12.6443 1.98682V2.95971H4.02771L11.9798 3.39775C12.158 3.40943 12.325 3.48854 12.4469 3.61898C12.5688 3.74942 12.6365 3.9214 12.6361 4.09994V7.36807C12.636 8.57883 12.1761 9.74439 11.3496 10.6291C10.523 11.5139 9.39138 12.0518 8.18341 12.1341C8.83601 12.1777 9.49061 12.0867 10.1066 11.867C10.7226 11.6472 11.2869 11.3032 11.7645 10.8563C12.2422 10.4095 12.6229 9.8693 12.8832 9.26926C13.1434 8.66922 13.2777 8.02212 13.2776 7.36807V1.98682H12.6443Z" fill="#E6E2E0"/>
<path d="M13.0938 0.625H3.90625C3.54381 0.625 3.25 0.918813 3.25 1.28125V2.30172C3.25 2.66416 3.54381 2.95797 3.90625 2.95797H13.0938C13.4562 2.95797 13.75 2.66416 13.75 2.30172V1.28125C13.75 0.918813 13.4562 0.625 13.0938 0.625Z" fill="#E6E2E0"/>
<path d="M13.4661 0.741699C13.6154 0.958262 13.5826 1.04522 13.5826 2.13459C13.5826 2.30864 13.5135 2.47556 13.3904 2.59863C13.2673 2.7217 13.1004 2.79084 12.9264 2.79084C2.97599 2.79084 3.60763 2.84006 3.36646 2.67436C3.63716 3.06646 3.15646 2.95818 13.0937 2.95818C13.2678 2.95818 13.4347 2.88904 13.5578 2.76597C13.6808 2.6429 13.75 2.47598 13.75 2.30193C13.75 1.26342 13.8238 0.987793 13.4661 0.741699Z" fill="#E6E2E0"/>
<path d="M12.5836 16.3751H4.41654C4.34985 16.3749 4.28432 16.3577 4.22624 16.3249C4.16815 16.2921 4.11947 16.245 4.08487 16.188C4.05027 16.131 4.03092 16.066 4.02866 15.9994C4.02641 15.9327 4.04134 15.8666 4.07201 15.8074L5.17779 13.6877C5.2434 13.5621 5.34215 13.4569 5.46333 13.3834C5.58452 13.3099 5.7235 13.2711 5.86521 13.271H11.1333C11.275 13.2711 11.4139 13.3099 11.5351 13.3834C11.6563 13.4569 11.7551 13.5621 11.8207 13.6877L12.9297 15.8074C12.9605 15.8667 12.9754 15.933 12.9731 15.9998C12.9707 16.0666 12.9512 16.1316 12.9164 16.1887C12.8817 16.2457 12.8327 16.2929 12.7744 16.3255C12.7161 16.3581 12.6504 16.3752 12.5836 16.3751Z" fill="#E6E2E0"/>
<path d="M4.16217 15.8074L5.26795 13.6877C5.33356 13.5621 5.43232 13.4569 5.5535 13.3834C5.67468 13.3099 5.81367 13.2711 5.95538 13.271C5.61084 13.271 5.3385 13.3793 5.17772 13.6877L4.0703 15.8074C4.03963 15.8666 4.0247 15.9327 4.02696 15.9994C4.02921 16.066 4.04857 16.131 4.08317 16.188C4.11777 16.245 4.16645 16.2921 4.22453 16.3249C4.28261 16.3577 4.34814 16.3749 4.41483 16.3751H4.50506C4.43852 16.3747 4.37319 16.3572 4.31533 16.3243C4.25747 16.2914 4.20902 16.2442 4.17461 16.1873C4.1402 16.1303 4.12099 16.0655 4.11881 15.999C4.11664 15.9325 4.13156 15.8665 4.16217 15.8074Z" fill="#E6E2E0"/>
<path d="M12.9297 15.8074L11.8223 13.6877C11.7567 13.5621 11.6579 13.4569 11.5367 13.3834C11.4156 13.3099 11.2766 13.2711 11.1349 13.271H5.86682L10.8658 13.6795C10.9861 13.6894 11.1017 13.7304 11.2012 13.7986C11.3008 13.8668 11.3808 13.9598 11.4335 14.0683L12.1061 15.4596C12.1305 15.5085 12.1423 15.5627 12.1404 15.6173C12.1385 15.6719 12.123 15.7252 12.0953 15.7723C12.0676 15.8194 12.0285 15.8588 11.9817 15.887C11.9349 15.9152 11.8818 15.9313 11.8272 15.9337L4.4165 16.3751H12.5835C12.6504 16.3752 12.7161 16.3581 12.7744 16.3255C12.8327 16.2929 12.8816 16.2457 12.9164 16.1887C12.9512 16.1316 12.9707 16.0666 12.973 15.9998C12.9754 15.933 12.9604 15.8667 12.9297 15.8074Z" fill="#E6E2E0"/>
<path d="M13.0938 0.625H3.90625C3.7322 0.625 3.56528 0.694141 3.44221 0.817211C3.31914 0.940282 3.25 1.1072 3.25 1.28125V2.30172L3.48625 1.17133C3.50401 1.08495 3.55048 1.00712 3.6181 0.950524C3.68572 0.893923 3.77052 0.861879 3.85867 0.859609L13.0938 0.625Z" fill="#E6E2E0" fill-opacity="0.901961"/>
</svg>
