<svg width="9" height="16" viewBox="0 0 9 16" fill="#ffffff" xmlns="http://www.w3.org/2000/svg">
<path d="M8.39167 4.11667C8.3125 4.0375 8.15417 3.95833 8.075 3.95833H7.99583L4.275 4.90833L5.85833 0.554167C5.85833 0.475 5.9375 0.395833 5.9375 0.395833C5.9375 0.316667 5.85833 0.158333 5.77917 0.0791666C5.7 -7.66789e-08 5.62083 0 5.4625 0H2.375C2.21667 0 2.1375 -7.66789e-08 2.05833 0.0791666C1.97917 0.158333 1.97917 0.2375 1.9 0.316667L0 8.15417C0 8.3125 2.24138e-07 8.39167 0.158334 8.55C0.2375 8.62917 0.316667 8.62917 0.475 8.62917C0.554167 8.62917 0.554167 8.62917 0.554167 8.62917L4.43333 7.67917L2.53333 15.3583C2.53333 15.4375 2.53333 15.5167 2.6125 15.675C2.69167 15.7542 2.77083 15.8333 2.85 15.8333C2.92917 15.8333 2.92917 15.8333 3.00833 15.8333C3.16667 15.8333 3.325 15.7542 3.40417 15.5958L8.55 4.59167C8.55 4.43333 8.55 4.275 8.39167 4.11667Z" fill="#8033D7"/>
</svg>
