<svg width="36" height="36" viewBox="0 0 36 36" fill="none" xmlns="http://www.w3.org/2000/svg">
<g opacity="0.75" clip-path="url(#clip0_2693_15509)">
<path d="M8.56371 18.9568L5.14111 24.2029L11.797 30.8588L17.0431 27.4361L8.56371 18.9568Z" fill="#E6E2E0"/>
<path d="M28.3424 18.5781L17.4218 7.65747L7.76557 9.16588L1.76123 15.1702L9.58033 15.499L20.501 26.4197L20.8297 34.2388L26.834 28.2344L28.3424 18.5781Z" fill="#EE3840"/>
<path d="M35.4955 0.504542C29.0412 -1.2866 23.0277 2.0517 20.2054 4.87397C19.3621 5.71716 6.75391 18.3254 6.75391 18.3254L17.6746 29.246C17.6746 29.246 29.0888 17.8318 31.126 15.7946C33.9482 12.9724 37.2865 6.95874 35.4955 0.504542Z" fill="#CCC4C1"/>
<path d="M10.7065 25.2936C10.3811 24.9682 10.3811 24.4405 10.7065 24.1151L22.293 12.5285C22.6185 12.2031 23.1461 12.2031 23.4716 12.5285C23.797 12.8539 23.797 13.3816 23.4716 13.707L11.885 25.2936C11.5595 25.619 11.0319 25.619 10.7065 25.2936Z" fill="#EE3840"/>
<path d="M28.3431 10.7362C30.0438 10.7362 31.4225 9.35751 31.4225 7.6568C31.4225 5.95609 30.0438 4.57739 28.3431 4.57739C26.6424 4.57739 25.2637 5.95609 25.2637 7.6568C25.2637 9.35751 26.6424 10.7362 28.3431 10.7362Z" fill="white"/>
<path d="M0.244055 30.3809C-0.0813516 30.0555 -0.0813516 29.5278 0.244055 29.2024L3.42457 26.0219C3.74998 25.6965 4.27767 25.6965 4.60308 26.0219C4.92848 26.3473 4.92848 26.875 4.60308 27.2004L1.42256 30.3809C1.09716 30.7063 0.569461 30.7064 0.244055 30.3809Z" fill="#FFB14D"/>
<path d="M5.61905 35.7559C5.29365 35.4305 5.29365 34.9028 5.61905 34.5774L8.79957 31.3969C9.12498 31.0715 9.65267 31.0715 9.97808 31.3969C10.3035 31.7223 10.3035 32.25 9.97808 32.5754L6.79756 35.7559C6.47209 36.0814 5.94446 36.0814 5.61905 35.7559Z" fill="#FFB14D"/>
<path d="M1.59122 34.2899C1.26582 33.9645 1.26582 33.4368 1.59122 33.1114L6.05255 28.6501C6.37796 28.3247 6.90565 28.3247 7.23106 28.6501C7.55646 28.9755 7.55646 29.5032 7.23106 29.8286L2.76973 34.2899C2.44432 34.6153 1.9167 34.6153 1.59122 34.2899Z" fill="#FFB14D"/>
</g>
<defs>
<clipPath id="clip0_2693_15509">
<rect width="36" height="36" fill="white"/>
</clipPath>
</defs>
</svg>
