<svg width="15" height="15" viewBox="0 0 15 15" fill="none" xmlns="http://www.w3.org/2000/svg">
<g opacity="0.5" clip-path="url(#clip0_1061_1769)">
<path d="M7.5 0.9375C3.89062 0.9375 0.9375 3.89062 0.9375 7.5C0.9375 11.1094 3.89062 14.0625 7.5 14.0625C11.1094 14.0625 14.0625 11.1094 14.0625 7.5C14.0625 3.89062 11.1094 0.9375 7.5 0.9375ZM10.7812 7.96875H7.5C7.21875 7.96875 7.03125 7.78125 7.03125 7.5V3.28125C7.03125 3 7.21875 2.8125 7.5 2.8125C7.78125 2.8125 7.96875 3 7.96875 3.28125V7.03125H10.7812C11.0625 7.03125 11.25 7.21875 11.25 7.5C11.25 7.78125 11.0625 7.96875 10.7812 7.96875Z" fill="white"/>
</g>
<defs>
<clipPath id="clip0_1061_1769">
<rect width="15" height="15" fill="white"/>
</clipPath>
</defs>
</svg>
