<svg width="23" height="23" viewBox="0 0 23 23" fill="none" xmlns="http://www.w3.org/2000/svg">
<g id="17917263711578289008 (2) 1" clip-path="url(#clip0_148_219)">
<g id="XMLID_100_">
<path id="XMLID_99_" d="M12.7321 23C7.17477 23 2.66965 17.8513 2.66965 11.5C2.66965 5.14871 7.17477 0 12.7321 0C18.2895 0 22.7946 5.14871 22.7946 11.5C22.7946 17.8513 18.2895 23 12.7321 23Z" fill="#FFD949"/>
<path id="XMLID_132_" d="M2.66964 11.5C2.66964 5.62596 6.52419 0.783643 11.5 0.0887143C11.0959 0.0324464 10.6851 0 10.2679 0C4.71048 0 0.205353 5.14871 0.205353 11.5C0.205353 17.8513 4.71048 23 10.2679 23C10.6851 23 11.0959 22.9676 11.5 22.9113C6.52419 22.2164 2.66964 17.374 2.66964 11.5Z" fill="#F4BF1A"/>
<path id="XMLID_115_" d="M12.767 20.7509H12.7317C12.4442 20.7509 12.1547 20.7336 11.8713 20.7C11.6458 20.6728 11.4852 20.4687 11.5119 20.2432C11.539 20.0178 11.7448 19.8605 11.9686 19.8843C12.22 19.9143 12.4767 19.9295 12.7317 19.9295C12.9588 19.9295 13.1601 20.1135 13.1601 20.3402C13.1601 20.5669 12.9946 20.7509 12.767 20.7509ZM15.1554 20.3085C14.9894 20.3085 14.8329 20.2071 14.7709 20.0424C14.6908 19.8301 14.798 19.5931 15.0104 19.5134C15.2469 19.4243 15.4831 19.3195 15.711 19.2025C15.9131 19.0982 16.1604 19.1783 16.2643 19.3803C16.3678 19.582 16.2881 19.8296 16.086 19.9331C15.8302 20.0646 15.5661 20.1812 15.2999 20.2818C15.2527 20.2999 15.2038 20.3085 15.1554 20.3085ZM9.59633 19.9948C9.5339 19.9948 9.47024 19.9804 9.41069 19.95C9.1581 19.8214 8.90798 19.6773 8.66771 19.5196C8.47796 19.3955 8.42498 19.1413 8.54901 18.9511C8.67387 18.7618 8.92769 18.7084 9.11785 18.8324C9.33265 18.9733 9.55649 19.1031 9.78239 19.2177C9.98446 19.3204 10.0654 19.5676 9.96269 19.7697C9.8904 19.9126 9.74583 19.9948 9.59633 19.9948ZM17.8558 18.5334C17.7515 18.5334 17.6467 18.4936 17.5667 18.4143C17.4057 18.2546 17.4044 17.9946 17.5642 17.8336C17.7428 17.6537 17.9166 17.4598 18.0805 17.2578C18.2238 17.082 18.4825 17.0553 18.6583 17.1982C18.8341 17.3411 18.8612 17.5999 18.7179 17.7761C18.5368 17.9987 18.345 18.2127 18.1474 18.4119C18.0669 18.4928 17.9609 18.5334 17.8558 18.5334ZM7.08769 17.9551C6.96899 17.9551 6.85112 17.9038 6.7698 17.8052C6.59155 17.5876 6.42028 17.3576 6.26133 17.1214C6.13442 16.9333 6.18412 16.6778 6.37223 16.5509C6.55992 16.424 6.81539 16.4733 6.9423 16.6618C7.08728 16.877 7.24294 17.0865 7.40517 17.284C7.54892 17.4594 7.52346 17.7182 7.34808 17.8623C7.2721 17.9248 7.17928 17.9551 7.08769 17.9551ZM19.6613 15.8453C19.6063 15.8453 19.5508 15.8342 19.4974 15.8112C19.2892 15.7205 19.1943 15.4785 19.2847 15.2703C19.3878 15.0346 19.4818 14.7898 19.5644 14.5438C19.6367 14.3294 19.8695 14.2131 20.0847 14.2854C20.2995 14.3581 20.4154 14.5906 20.3431 14.8058C20.2527 15.074 20.15 15.341 20.0379 15.5985C19.9702 15.7529 19.819 15.8453 19.6613 15.8453ZM5.52205 15.1196C5.35119 15.1196 5.19142 15.0116 5.1331 14.8411C5.04233 14.575 4.96183 14.301 4.89365 14.0267C4.83862 13.8065 4.97251 13.5839 5.19265 13.5293C5.41198 13.4734 5.63581 13.6081 5.69044 13.8283C5.75328 14.0801 5.82721 14.3318 5.91058 14.5758C5.98369 14.7906 5.8691 15.0239 5.65471 15.097C5.61117 15.1122 5.56599 15.1196 5.52205 15.1196ZM20.4371 12.6976C20.4265 12.6976 20.4158 12.6972 20.4051 12.6964C20.1788 12.6787 20.01 12.4811 20.0272 12.2548C20.0465 12.006 20.0564 11.7517 20.0564 11.5C20.0564 11.2732 20.2404 11.0761 20.4671 11.0761C20.6938 11.0761 20.8778 11.2465 20.8778 11.4733V11.5C20.8778 11.7731 20.8672 12.0483 20.8462 12.3185C20.8298 12.5337 20.6495 12.6976 20.4371 12.6976ZM4.99674 11.9152C4.77003 11.9152 4.58603 11.7357 4.58603 11.509V11.5C4.58603 11.2198 4.59712 10.9381 4.61889 10.6633C4.63696 10.4374 4.83369 10.2699 5.06081 10.2863C5.28712 10.3044 5.45592 10.5023 5.43785 10.7282C5.41773 10.982 5.40746 11.2416 5.40746 11.5C5.40746 11.7267 5.22346 11.9152 4.99674 11.9152ZM20.1669 9.4661C19.9833 9.4661 19.8161 9.34206 19.7693 9.15601C19.7057 8.90342 19.6313 8.65206 19.5475 8.4081C19.474 8.1937 19.5886 7.96001 19.803 7.88649C20.0178 7.81215 20.2515 7.92715 20.3246 8.14195C20.4158 8.40727 20.4967 8.68081 20.5657 8.95476C20.6211 9.1749 20.4877 9.39792 20.2679 9.45336C20.2347 9.4624 20.201 9.4661 20.1669 9.4661ZM5.51671 8.71983C5.47276 8.71983 5.4284 8.71243 5.38446 8.69765C5.16965 8.62495 5.05465 8.39167 5.12735 8.17686C5.21812 7.9099 5.32121 7.64335 5.43415 7.38501C5.52533 7.17677 5.76683 7.08272 5.97506 7.17308C6.18289 7.26384 6.27776 7.50617 6.18699 7.71399C6.08308 7.95097 5.98862 8.19576 5.90565 8.44054C5.84692 8.61181 5.68798 8.71983 5.51671 8.71983ZM18.8526 6.50485C18.7208 6.50485 18.5918 6.4416 18.5121 6.32413C18.3667 6.10974 18.2107 5.90068 18.048 5.70313C17.9039 5.52817 17.9289 5.26901 18.1039 5.12484C18.2788 4.98068 18.538 5.00574 18.6822 5.1807C18.8608 5.39797 19.0325 5.62756 19.1923 5.86372C19.3196 6.05142 19.2703 6.30688 19.0826 6.4342C19.012 6.48185 18.9323 6.50485 18.8526 6.50485ZM7.07578 5.88015C6.9846 5.88015 6.8926 5.84976 6.81621 5.78733C6.64042 5.64399 6.61455 5.38524 6.7583 5.20945C6.93942 4.98767 7.13164 4.7741 7.3296 4.5749C7.48978 4.41472 7.74976 4.41349 7.91035 4.57326C8.07135 4.73343 8.07217 4.99301 7.9124 5.15401C7.73333 5.33431 7.55878 5.52776 7.39408 5.72942C7.31358 5.82881 7.1953 5.88015 7.07578 5.88015ZM16.5559 4.22497C16.4791 4.22497 16.4015 4.20361 16.3325 4.15843C16.1177 4.01838 15.8934 3.88942 15.6663 3.77483C15.4642 3.67256 15.3829 3.42572 15.4852 3.22324C15.5874 3.02158 15.8339 2.93902 16.0367 3.0417C16.2906 3.16943 16.5407 3.3136 16.7805 3.47008C16.9707 3.59411 17.0245 3.84876 16.9005 4.03851C16.8216 4.15967 16.6906 4.22497 16.5559 4.22497ZM9.58155 3.83479C9.43205 3.83479 9.28789 3.75306 9.21519 3.61054C9.1121 3.40847 9.1926 3.16122 9.39467 3.05813C9.65055 2.92793 9.91505 2.81088 10.1816 2.71149C10.3935 2.63181 10.6305 2.73942 10.7102 2.95217C10.7895 3.16451 10.6818 3.40108 10.4691 3.48076C10.2317 3.56947 9.99555 3.67338 9.76719 3.79002C9.70805 3.82042 9.64398 3.83479 9.58155 3.83479ZM13.5269 3.11645C13.5109 3.11645 13.4948 3.11563 13.4788 3.11358C13.2316 3.08483 12.9802 3.07045 12.7317 3.07045C12.505 3.07045 12.3124 2.88645 12.3124 2.65974C12.3124 2.43302 12.4878 2.24902 12.7145 2.24902H12.7317C13.0118 2.24902 13.2952 2.26545 13.5737 2.2979C13.7988 2.32377 13.9606 2.52749 13.9343 2.75297C13.9105 2.96243 13.7322 3.11645 13.5269 3.11645Z" fill="#F4BF1A"/>
<path id="XMLID_114_" d="M2.66882 11.9106H0.205353C0.213567 12.1871 0.229174 12.461 0.254228 12.7321H2.71975C2.69428 12.461 2.67744 12.1871 2.66882 11.9106Z" fill="#DCA815"/>
<path id="XMLID_113_" d="M2.76288 9.85718H0.300242C0.266153 10.1278 0.24151 10.4022 0.22467 10.6786H2.68855C2.7058 10.4022 2.7288 10.1278 2.76288 9.85718Z" fill="#DCA815"/>
<path id="XMLID_112_" d="M2.89472 13.9644H0.430023C0.483416 14.242 0.545023 14.5159 0.615255 14.7858H3.07913C3.00931 14.5159 2.94811 14.242 2.89472 13.9644Z" fill="#DCA815"/>
<path id="XMLID_111_" d="M3.46929 16.0178H1.00336C1.10809 16.2979 1.22391 16.5711 1.34712 16.8393H3.81182C3.68861 16.5715 3.57402 16.2975 3.46929 16.0178Z" fill="#DCA815"/>
<path id="XMLID_110_" d="M3.19208 7.80347H0.730665C0.650576 8.07331 0.575826 8.34643 0.513397 8.6249H2.98056C3.04299 8.34725 3.1124 8.07248 3.19208 7.80347Z" fill="#DCA815"/>
<path id="XMLID_109_" d="M4.01021 5.75H1.54593C1.41039 6.01738 1.28266 6.29091 1.16602 6.57143H3.63194C3.74859 6.29132 3.87468 6.01738 4.01021 5.75Z" fill="#DCA815"/>
<path id="XMLID_108_" d="M5.68635 3.28564H3.21919C2.98549 3.54686 2.76329 3.82081 2.55301 4.10707H5.01935C5.23004 3.82081 5.45265 3.54686 5.68635 3.28564Z" fill="#DCA815"/>
<path id="XMLID_107_" d="M8.19785 1.23218H5.72823C5.30848 1.4745 4.90598 1.74886 4.52237 2.05361H6.99035C7.37437 1.74886 7.77769 1.4745 8.19785 1.23218Z" fill="#DCA815"/>
<path id="XMLID_106_" d="M4.73102 18.4822H2.2655C2.45607 18.7668 2.65732 19.0407 2.87007 19.3036H5.33724C5.12449 19.0407 4.922 18.7668 4.73102 18.4822Z" fill="#DCA815"/>
<path id="XMLID_105_" d="M4.03815 20.5356C4.36795 20.8326 4.71336 21.1082 5.07479 21.3571H7.54483C7.18175 21.1078 6.83265 20.8338 6.50161 20.5356H4.03815Z" fill="#DCA815"/>
</g>
</g>
<defs>
<clipPath id="clip0_148_219">
<rect width="23" height="23" fill="white"/>
</clipPath>
</defs>
</svg>
