<svg width="33" height="33" viewBox="0 0 33 33" fill="none" xmlns="http://www.w3.org/2000/svg">
<path d="M13.0195 15.9111V18.1241C13.0195 20.1779 15.0996 21.8429 17.6654 21.8429C20.2313 21.8429 22.3115 20.1779 22.3115 18.1241V15.9111H13.0195Z" fill="#3C3C4F"/>
<path d="M13.6289 13.5823L14.2339 18.4181C15.0834 19.1628 16.3063 19.6299 17.6654 19.6299L21.3088 13.6766L13.6289 13.5823Z" fill="#929BB7"/>
<path d="M13.0195 13.5823V15.9111C13.0195 16.877 13.4798 17.7568 14.2341 18.4179V13.5823H13.0195Z" fill="#3C3C4F"/>
<path d="M22.3096 15.911V13.6765L17.668 17.301V19.6297C20.2319 19.6279 22.3096 17.9637 22.3096 15.911Z" fill="#3C3C4F"/>
<path d="M13.7734 13.4023L14.2319 16.0895C15.0815 16.8341 16.3043 17.3012 17.6635 17.3012L21.1035 16.082C21.8528 15.422 22.3095 14.5447 22.3095 13.5823V11.3694L13.7734 13.4023Z" fill="#3C3C4F"/>
<path d="M17.668 17.3011C19.0299 17.3002 20.2546 16.8301 21.1039 16.082V11.3708L17.668 11.3759V17.3011Z" fill="#DFE4EF"/>
<path d="M14.2337 16.0892V11.3809L13.0195 11.3826V13.5823C13.0191 14.5482 13.4794 15.428 14.2337 16.0892Z" fill="#DFE4EF"/>
<path d="M13.8281 9.07422L14.2326 13.8759C15.0821 14.6205 16.305 15.0877 17.6641 15.0877L21.1041 13.8684C21.8534 13.2084 22.3101 12.3311 22.3101 11.3688L21.9075 9.07422H13.8281Z" fill="#929BB7"/>
<path d="M13.0199 11.3825C13.0243 12.3434 13.4834 13.2177 14.2341 13.8757V9.07422H13.0195V11.3688C13.0195 11.3734 13.0195 11.3779 13.0195 11.3825H13.0199Z" fill="#3C3C4F"/>
<path d="M17.668 15.0876C19.0299 15.0866 20.2546 14.6166 21.1039 13.8684V9.07373H17.668V15.0876Z" fill="#3C3C4F"/>
<path d="M13.7734 8.90193L14.232 11.5843C15.0818 12.3311 16.3064 12.7998 17.6679 12.7998L21.1038 11.5843L21.1587 12.3488H22.3137V6.86768L13.7734 8.90193Z" fill="#3C3C4F"/>
<path d="M14.2338 11.5842V7.07635L14.1621 6.86768H13.0234V9.08062C13.0234 10.0456 13.4819 10.9236 14.2338 11.5842Z" fill="#DFE4EF"/>
<path d="M17.668 12.7999C19.0293 12.7999 20.2539 12.3312 21.1039 11.5843V7.07642L17.668 8.29198V12.7999Z" fill="#DFE4EF"/>
<path d="M13.8281 4.573L14.2327 9.371C15.0824 10.1184 16.307 10.5866 17.6685 10.5866L21.1044 9.371C21.8562 8.71023 22.3147 7.83185 22.3147 6.86766V4.573H13.8281Z" fill="#929BB7"/>
<path d="M17.668 10.5866C19.0293 10.5866 20.2539 10.1179 21.1039 9.37098V7.07642L17.668 8.29198V10.5866Z" fill="#3C3C4F"/>
<path d="M14.2338 9.37091V7.07634L13.3752 4.573H13.0234V6.86766C13.0234 7.83185 13.4819 8.71023 14.2338 9.37091Z" fill="#3C3C4F"/>
<path d="M22.3154 4.57301C22.3154 5.53719 21.857 6.41567 21.1051 7.07645L17.6693 8.29192C16.3078 8.29192 15.0832 7.82322 14.2334 7.07645L13.0234 4.57301C13.0234 3.45305 13.642 2.44868 14.6206 1.76685L17.6695 0.854492C18.8827 0.854492 19.9874 1.22681 20.8149 1.83644L22.3154 4.57301Z" fill="white"/>
<path d="M22.312 4.46886C22.2764 3.42809 21.7071 2.49439 20.8144 1.83652L18.9651 3.33298L17.6694 2.78945V0.854094C16.5841 0.841961 15.5208 1.16064 14.6211 1.76771L16.2011 3.22233L15.5195 4.46924H13.0267C13.0256 4.50399 13.0234 4.53854 13.0234 4.57339C13.0234 5.53757 13.4819 6.41595 14.2338 7.07673L16.11 5.67326L17.6651 5.98239L17.6688 8.29239H17.6694C19.0308 8.29239 20.2554 7.8236 21.1053 7.07683L19.2666 5.70121L19.9082 4.46856L22.312 4.46886Z" fill="#666684"/>
<path d="M17.6694 6.5368C19.0961 6.5368 20.2528 5.611 20.2528 4.46896C20.2528 3.32693 19.0961 2.40112 17.6694 2.40112C16.2426 2.40112 15.0859 3.32693 15.0859 4.46896C15.0859 5.611 16.2426 6.5368 17.6694 6.5368Z" fill="white"/>
<path d="M17.6688 6.02045C18.7394 6.02045 19.6072 5.32583 19.6072 4.46897C19.6072 3.6121 18.7394 2.91748 17.6688 2.91748C16.5983 2.91748 15.7305 3.6121 15.7305 4.46897C15.7305 5.32583 16.5983 6.02045 17.6688 6.02045Z" fill="#3C3C4F"/>
<path d="M4.01562 23.5112L4.97204 28.2316C5.82199 28.9762 7.04493 29.4434 8.40375 29.4434L11.8436 28.2246C12.5929 27.5646 13.0496 26.6873 13.0496 25.7249V23.512L4.01562 23.5112Z" fill="#4A73BA"/>
<path d="M4.97241 28.2314V23.5112H3.75781V25.7242C3.75781 26.6904 4.21807 27.5702 4.97241 28.2314Z" fill="#DBECFC"/>
<path d="M8.41016 29.4433C9.77209 29.4423 10.9969 28.9722 11.846 28.2241V23.5112H8.41016V29.4433Z" fill="#DBECFC"/>
<path d="M4.01562 21.1826L4.97204 26.0185C5.82199 26.7631 7.04493 27.2303 8.40375 27.2303L11.8437 26.011C12.593 25.351 13.0497 24.4737 13.0497 23.5114V21.1826H4.01562Z" fill="#97BFEF"/>
<path d="M4.97241 21.1826H3.75781V23.5114C3.75781 24.4774 4.21807 25.3571 4.97241 26.0183V21.1826Z" fill="#4A73BA"/>
<path d="M8.41016 27.2302C9.77209 27.2292 10.9969 26.7591 11.846 26.011V21.1826H8.41016V27.2302Z" fill="#4A73BA"/>
<path d="M4.15625 18.9822L4.97378 23.6896C5.82372 24.4341 7.04666 24.9014 8.40549 24.9014L11.8453 23.6823C12.5946 23.0223 13.0513 22.145 13.0513 21.1827V18.9697L4.15625 18.9822Z" fill="#4A73BA"/>
<path d="M4.97192 23.6894V18.9812L3.75781 18.9829V21.1826C3.75733 22.1489 4.21758 23.0284 4.97192 23.6894Z" fill="#DBECFC"/>
<path d="M8.41016 24.9012C9.77209 24.9002 10.9969 24.4302 11.846 23.682V18.9709L8.41016 18.976V24.9012Z" fill="#DBECFC"/>
<path d="M4.01562 16.6062L4.97204 21.4763C5.82199 22.2211 7.04493 22.6882 8.40375 22.6882L11.8437 21.4689C12.593 20.8089 13.0497 19.9316 13.0497 18.9693V16.6748L4.01562 16.6062Z" fill="#97BFEF"/>
<path d="M4.97241 16.6748H3.75781V18.9693C3.75781 19.9352 4.21807 20.815 4.97241 21.4762V16.6748Z" fill="#4A73BA"/>
<path d="M8.41016 22.6881C9.77209 22.6871 10.9969 22.2171 11.846 21.4689V16.6748H8.41016V22.6881Z" fill="#4A73BA"/>
<path d="M4.07422 14.468L4.97512 19.1851C5.82487 19.9318 7.04946 20.4005 8.411 20.4005L11.8469 19.1851C12.5987 18.5243 13.057 17.6458 13.057 16.6817V14.4688L4.07422 14.468Z" fill="#4A73BA"/>
<path d="M4.97204 19.1846V14.6767L4.87547 14.468H3.76172V16.681C3.76172 17.6453 4.22032 18.5238 4.97204 19.1846Z" fill="#DBECFC"/>
<path d="M8.41016 20.4001C9.7715 20.4001 10.9961 19.9313 11.846 19.1845V14.6765L8.41016 15.8922V20.4001Z" fill="#DBECFC"/>
<path d="M4.07422 12.1733L4.97512 16.9713C5.82487 17.7181 7.04946 18.1868 8.411 18.1868L11.8469 16.9713C12.5987 16.3106 13.057 15.4322 13.057 14.468V12.1733H4.07422Z" fill="#97BFEF"/>
<path d="M3.76172 14.4679C3.76172 15.432 4.22022 16.3104 4.97204 16.9711V12.6544L3.76502 12.0691L3.76172 14.4679Z" fill="#4A73BA"/>
<path d="M8.41016 18.1869C9.7715 18.1869 10.9961 17.7182 11.846 16.9713V13.1084H8.41016V18.1869Z" fill="#4A73BA"/>
<path d="M13.0536 12.1734C13.0536 13.1375 12.5953 14.016 11.8435 14.6767L8.40763 15.8923C7.04629 15.8923 5.8216 15.4236 4.97175 14.6767L3.76172 12.1734C3.76172 11.0534 4.38027 10.049 5.35892 9.36719L8.40773 8.45483C9.62097 8.45483 10.7257 8.82705 11.5532 9.43678L13.0536 12.1734Z" fill="white"/>
<path d="M13.0504 12.0691C13.0145 11.0283 12.4456 10.0944 11.5529 9.43676L9.70347 10.9331L8.40773 10.3896V8.45443C7.32264 8.44241 6.25961 8.76108 5.36008 9.36804L6.93962 10.822L6.25788 12.0689H3.76502C3.76385 12.1036 3.76172 12.1381 3.76172 12.173C3.76172 13.1372 4.22022 14.0156 4.97204 14.6764L6.84829 13.2729L8.40356 13.5821L8.40715 15.8921H8.40783C9.76917 15.8921 10.9938 15.4234 11.8437 14.6765L10.005 13.3015L10.6466 12.0688L13.0504 12.0691Z" fill="#7CA8E8"/>
<path d="M8.40763 14.1369C9.83441 14.1369 10.991 13.2111 10.991 12.0691C10.991 10.927 9.83441 10.0012 8.40763 10.0012C6.98085 10.0012 5.82422 10.927 5.82422 12.0691C5.82422 13.2111 6.98085 14.1369 8.40763 14.1369Z" fill="white"/>
<path d="M8.40863 13.7032C9.53608 13.7032 10.4501 12.9716 10.4501 12.0691C10.4501 11.1667 9.53608 10.4351 8.40863 10.4351C7.28117 10.4351 6.36719 11.1667 6.36719 12.0691C6.36719 12.9716 7.28117 13.7032 8.40863 13.7032Z" fill="#7CA8E8"/>
<path d="M21.1594 25.5306V20.8223L19.9453 20.8241V23.0237C19.9452 23.9896 20.4055 24.8694 21.1594 25.5306Z" fill="#C12140"/>
<path d="M19.9453 25.3525V27.5655C19.9453 29.6193 22.0254 31.2843 24.5912 31.2843C27.1571 31.2843 29.2372 29.6193 29.2372 27.5655V25.3525H19.9453Z" fill="#FCDBE5"/>
<path d="M24.5938 31.2846C25.9557 31.2836 27.1805 30.8137 28.0296 30.0654V25.3525H24.5938V31.2846Z" fill="#C12140"/>
<path d="M21.1595 30.0727V25.3525H19.9453V27.5655C19.9453 28.5318 20.4056 29.4115 21.1595 30.0727Z" fill="#C12140"/>
<path d="M20.4922 23.0237L21.1599 27.8595C22.0094 28.6042 23.2323 29.0713 24.5914 29.0713L28.0316 27.8521C28.7809 27.1921 29.2376 26.3148 29.2376 25.3525V23.0237H20.4922Z" fill="#C12140"/>
<path d="M24.5938 29.0713C25.9557 29.0703 27.1805 28.6003 28.0296 27.8521V25.3525H24.5938V29.0713Z" fill="#F487A4"/>
<path d="M21.1595 23.0237H19.9453V25.3525C19.9453 26.3184 20.4056 27.1982 21.1598 27.8593L21.1595 23.0237Z" fill="#F487A4"/>
<path d="M20.4922 20.8233L21.16 25.5307C22.0096 26.2753 23.2324 26.7424 24.5916 26.7424L28.0316 25.5234C28.7809 24.8634 29.2376 23.9861 29.2376 23.0237V20.8108L20.4922 20.8233Z" fill="#FCDBE5"/>
<path d="M24.5938 26.7425C25.9557 26.7416 27.1805 26.2715 28.0296 25.5234V20.8123L24.5938 20.8173V26.7425Z" fill="#C12140"/>
<path d="M21.1594 25.5306V20.8223L19.9453 20.8241V23.0237C19.9452 23.9896 20.4055 24.8694 21.1594 25.5306Z" fill="#C12140"/>
<path d="M20.3008 18.5159L21.1578 23.3176C22.0074 24.0622 23.2302 24.5293 24.5893 24.5293L28.0296 23.3101C28.7789 22.6501 29.2355 21.7729 29.2355 20.8105V18.5159H20.3008Z" fill="#C12140"/>
<path d="M24.5938 24.5292C25.9557 24.5283 27.1805 24.0582 28.0296 23.3101V20.8123L24.5938 20.8173V24.5292Z" fill="#F487A4"/>
<path d="M21.1595 18.5159H19.9453V20.8105C19.9453 21.7765 20.4056 22.6562 21.1598 23.3174L21.1595 18.5159Z" fill="#F487A4"/>
<path d="M20.3008 16.3091L21.1578 21.0258C22.0076 21.7726 23.2322 22.2413 24.5937 22.2413L28.0296 21.0258C28.7814 20.365 29.2398 19.4866 29.2398 18.5224V16.3095L20.3008 16.3091Z" fill="#FCDBE5"/>
<path d="M24.5938 22.2414C25.9552 22.2414 27.1797 21.7726 28.0296 21.0257V16.5178L24.5938 17.7334V22.2414Z" fill="#C12140"/>
<path d="M21.1594 21.0257V16.5178L21.0586 16.3091H19.9492V18.522C19.9495 19.4866 20.4079 20.365 21.1594 21.0257Z" fill="#C12140"/>
<path d="M20.4922 14.0146L21.1599 18.8126C22.0096 19.5594 23.2342 20.0281 24.5957 20.0281L28.0316 18.8126C28.7834 18.1519 29.2418 17.2734 29.2418 16.3092V14.0146H20.4922Z" fill="#C12140"/>
<path d="M24.5938 20.0281C25.9552 20.0281 27.1797 19.5593 28.0296 18.8124V16.5178L24.5938 17.7334V20.0281Z" fill="#F487A4"/>
<path d="M19.9492 16.3092C19.9492 17.2734 20.4076 18.1518 21.1594 18.8126V16.5179L21.1109 14.0146H19.9492V16.3092Z" fill="#F487A4"/>
<path d="M29.2381 13.9103C29.2846 14.8768 28.783 15.8571 28.0312 16.5179L24.5953 17.7333C23.234 17.7333 22.0094 17.2646 21.1594 16.5179L19.9492 14.0145C19.9492 12.8945 20.5678 11.8901 21.5463 11.2083L24.5951 10.2959C25.8084 10.2959 26.9132 10.6682 27.7406 11.2778L29.2381 13.9103Z" fill="#EA4E70"/>
<path d="M29.2378 13.9104C29.2019 12.8696 28.633 11.9358 27.7403 11.2782L25.8909 12.7745L24.5951 12.231V10.2957C23.51 10.2837 22.4469 10.6024 21.5474 11.2094L23.1274 12.6635L22.4458 13.9104H19.9525C19.9513 13.9452 19.9492 13.9797 19.9492 14.0146C19.9492 14.9787 20.4076 15.8571 21.1594 16.5179L23.0358 15.1145L24.5909 15.4236L24.5946 17.7336H24.5951C25.9566 17.7336 27.1811 17.2648 28.031 16.518L26.1926 15.143L26.8343 13.9103L29.2378 13.9104Z" fill="white"/>
<path d="M24.5951 15.9782C26.0219 15.9782 27.1785 15.0524 27.1785 13.9104C27.1785 12.7683 26.0219 11.8425 24.5951 11.8425C23.1684 11.8425 22.0117 12.7683 22.0117 13.9104C22.0117 15.0524 23.1684 15.9782 24.5951 15.9782Z" fill="white"/>
<path d="M24.5954 15.472C25.6729 15.472 26.5463 14.7729 26.5463 13.9105C26.5463 13.048 25.6729 12.3489 24.5954 12.3489C23.518 12.3489 22.6445 13.048 22.6445 13.9105C22.6445 14.7729 23.518 15.472 24.5954 15.472Z" fill="#EA4E70"/>
<path d="M11.1289 26.1323L11.8587 30.9303C12.7084 31.6771 13.933 32.1458 15.2946 32.1458L18.7305 30.9303C19.4823 30.2696 19.9406 29.3911 19.9406 28.427V26.1323H11.1289Z" fill="#FFB655"/>
<path d="M11.8588 30.9302V26.1323H10.6484V28.427C10.6484 29.3911 11.1069 30.2695 11.8588 30.9302Z" fill="#E87B31"/>
<path d="M18.7289 30.9302V26.1323H15.293V32.1459C16.6541 32.1459 17.8791 31.677 18.7289 30.9302Z" fill="#E87B31"/>
<path d="M11.1289 23.9258L11.8588 28.6388C12.7086 29.3877 13.9351 29.8579 15.2987 29.8579L18.7303 28.6461C19.4846 27.985 19.9448 27.105 19.9448 26.1391V23.9262L11.1289 23.9258Z" fill="#E87B31"/>
<path d="M15.2932 29.8577H15.2974C16.6563 29.8577 17.8792 29.3904 18.7289 28.6457V24.1343L15.293 25.3498L15.2932 29.8577Z" fill="#FFE8CC"/>
<path d="M11.8588 28.6387V24.1345L11.7617 23.9258H10.6523V26.1387C10.6528 27.1014 11.1095 27.9784 11.8588 28.6387Z" fill="#FFE8CC"/>
<path d="M11.2539 21.6311L11.8569 26.4258C12.7068 27.1747 13.9332 27.6451 15.2969 27.6451L18.7284 26.4332C19.4827 25.772 19.9429 24.8921 19.9429 23.9262V21.6311H11.2539Z" fill="#FFB655"/>
<path d="M11.8583 26.4252V24.1346L10.6995 21.6313H10.6523V23.9259C10.6523 24.888 11.109 25.7649 11.8583 26.4252Z" fill="#E87B31"/>
<path d="M15.2932 27.6444H15.2974C16.6563 27.6444 17.8792 27.1771 18.7289 26.4324V24.1343L15.293 25.3498L15.2932 27.6444Z" fill="#E87B31"/>
<path d="M19.9404 21.6312C19.9404 22.5953 19.4821 23.4738 18.7302 24.1346L15.2944 25.35C13.9329 25.35 12.7083 24.8813 11.8585 24.1346L10.6484 21.6312C10.6484 20.5112 11.267 19.5068 12.2456 18.825L15.2944 17.9126C16.5077 17.9126 17.6124 18.2849 18.4399 18.8945L19.9404 21.6312Z" fill="white"/>
<path d="M19.9447 21.631C19.9447 20.5018 19.3323 19.5523 18.4396 18.8945L16.5902 20.391L15.2944 19.8474V17.9122C14.2094 17.9002 13.1463 18.2188 12.2468 18.8258L13.8268 20.2799L13.1451 21.5269H10.6517C10.6506 21.5616 10.6484 21.5962 10.6484 21.631C10.6484 22.5952 11.1069 23.4736 11.8588 24.1343L13.735 22.7309L15.2902 23.04L15.2938 25.35H15.2944C16.6558 25.35 17.8804 24.8812 18.7303 24.1344L16.8919 22.7593L17.5335 21.5267L19.9447 21.631Z" fill="#FFB655"/>
<path d="M15.2944 23.5947C16.7211 23.5947 17.8778 22.6689 17.8778 21.5268C17.8778 20.3848 16.7211 19.459 15.2944 19.459C13.8676 19.459 12.7109 20.3848 12.7109 21.5268C12.7109 22.6689 13.8676 23.5947 15.2944 23.5947Z" fill="white"/>
<path d="M15.2943 23.0256C16.3285 23.0256 17.1668 22.3546 17.1668 21.5269C17.1668 20.6991 16.3285 20.0281 15.2943 20.0281C14.2602 20.0281 13.4219 20.6991 13.4219 21.5269C13.4219 22.3546 14.2602 23.0256 15.2943 23.0256Z" fill="#FFB655"/>
</svg>
