<svg width="33" height="33" viewBox="0 0 33 33" fill="none" xmlns="http://www.w3.org/2000/svg">
<path d="M30.25 22.8512V10.149C30.2497 9.66647 30.1226 9.19255 29.8812 8.77477C29.6399 8.35699 29.2928 8.01007 28.875 7.76883L17.875 1.41701C17.4569 1.17565 16.9827 1.04858 16.5 1.04858C16.0173 1.04858 15.5431 1.17565 15.125 1.41701L4.125 7.76883C3.70696 8.01018 3.35981 8.35733 3.11845 8.77537C2.87709 9.19341 2.75001 9.66761 2.75 10.1503V22.8512C2.75025 23.3337 2.87744 23.8076 3.11879 24.2254C3.36014 24.6432 3.70716 24.9901 4.125 25.2313L15.125 31.5818C15.5431 31.8231 16.0173 31.9502 16.5 31.9502C16.9827 31.9502 17.4569 31.8231 17.875 31.5818L28.875 25.2313C29.2928 24.9901 29.6399 24.6432 29.8812 24.2254C30.1226 23.8076 30.2497 23.3337 30.25 22.8512Z" fill="#DBE6F7"/>
<path d="M17.875 31.583L28.875 25.2312C29.293 24.9898 29.6402 24.6427 29.8816 24.2246C30.1229 23.8066 30.25 23.3324 30.25 22.8497V10.1488C30.2497 9.6663 30.1226 9.19238 29.8812 8.7746C29.6399 8.35682 29.2928 8.00989 28.875 7.76865L17.875 1.41684C17.4571 1.17512 16.9828 1.048 16.5 1.04834V31.9515C16.9828 31.9518 17.4571 31.8247 17.875 31.583Z" fill="#AECEE8"/>
<path d="M29.8719 8.75865L16.5 16.4793L3.12811 8.75865C3.36724 8.34648 3.71117 8.00492 4.12499 7.76865L15.125 1.41615C15.5435 1.17626 16.0176 1.05005 16.5 1.05005C16.9824 1.05005 17.4564 1.17626 17.875 1.41615L28.875 7.76865C29.2888 8.00492 29.6327 8.34648 29.8719 8.75865Z" fill="#EFF3F9"/>
<path d="M18.0324 7.64918C18.218 7.71227 18.3792 7.83176 18.4936 7.99095C18.6079 8.15015 18.6697 8.34109 18.6702 8.53709C18.6707 8.73309 18.61 8.92437 18.4965 9.08417C18.383 9.24398 18.2225 9.36434 18.0372 9.42843C17.5623 9.67044 17.0368 9.7966 16.5038 9.7966C15.9707 9.7966 15.4452 9.67044 14.9703 9.42843C14.1198 8.93756 14.1109 8.14006 14.9558 7.64918C15.4325 7.40715 15.9595 7.28101 16.4941 7.28101C17.0287 7.28101 17.5558 7.40715 18.0324 7.64918Z" fill="#0D3B8D"/>
<path d="M12.7187 24.4564C13.0906 24.698 13.4 25.0242 13.6218 25.4082C13.8436 25.7922 13.9713 26.2232 13.9947 26.6661C13.9947 27.4835 13.4172 27.8114 12.7105 27.4031C12.337 27.1611 12.0262 26.8339 11.8037 26.4485C11.5811 26.063 11.4532 25.6303 11.4304 25.1859C11.4331 24.3732 12.0079 24.046 12.7187 24.4564Z" fill="#00286F"/>
<path d="M9.63121 19.008C10.0032 19.2495 10.3127 19.5756 10.5345 19.9596C10.7563 20.3437 10.884 20.7748 10.9072 21.2176C10.9072 22.0351 10.3304 22.363 9.62296 21.9546C9.2494 21.7125 8.93859 21.3853 8.71606 20.9997C8.49353 20.6142 8.36562 20.1813 8.34283 19.7368C8.3449 18.9248 8.91965 18.5969 9.63121 19.008Z" fill="#00286F"/>
<path d="M6.54364 13.5588C6.91529 13.8006 7.22454 14.1268 7.44617 14.5108C7.6678 14.8948 7.79553 15.3257 7.81895 15.7685C7.81895 16.5866 7.24214 16.9138 6.5347 16.5055C6.16119 16.2635 5.85041 15.9363 5.62788 15.5509C5.40535 15.1655 5.27741 14.7328 5.25458 14.2883C5.25664 13.475 5.83208 13.1484 6.54364 13.5588Z" fill="#00286F"/>
<path d="M20.7941 17.5388C21.5057 17.1263 22.0804 17.4556 22.0825 18.273C22.0594 18.7171 21.9314 19.1493 21.7089 19.5343C21.4863 19.9192 21.1757 20.2459 20.8024 20.4874C20.0956 20.8958 19.5161 20.5706 19.5133 19.7587C19.5364 19.3138 19.6646 18.8808 19.8872 18.4949C20.1098 18.1091 20.4206 17.7814 20.7941 17.5388Z" fill="#08105E"/>
<path d="M25.927 14.5749C26.6385 14.1624 27.214 14.4917 27.216 15.3091C27.1926 15.7528 27.0643 16.1846 26.8418 16.5691C26.6193 16.9537 26.3089 17.2801 25.9359 17.5215C25.2285 17.9299 24.6537 17.602 24.6517 16.79C24.6742 16.3463 24.8016 15.9143 25.0232 15.5293C25.2449 15.1442 25.5546 14.8172 25.927 14.5749Z" fill="#08105E"/>
<path d="M20.8106 23.4377C21.5222 23.0252 22.097 23.3545 22.0997 24.1719C22.0757 24.6155 21.9471 25.0472 21.7245 25.4317C21.5019 25.8161 21.1916 26.1426 20.8189 26.3843C20.1121 26.792 19.5326 26.4675 19.5305 25.6549C19.5537 25.2105 19.6818 24.7779 19.9043 24.3926C20.1268 24.0072 20.4374 23.68 20.8106 23.4377Z" fill="#08105E"/>
<path d="M25.9442 20.4738C26.6558 20.0613 27.2305 20.3906 27.2326 21.2081C27.2092 21.6518 27.081 22.0836 26.8585 22.4682C26.636 22.8527 26.3255 23.1791 25.9525 23.4204C25.2457 23.8288 24.671 23.5009 24.6682 22.6889C24.6909 22.2452 24.8184 21.8131 25.0402 21.4281C25.2619 21.0431 25.5717 20.7161 25.9442 20.4738Z" fill="#08105E"/>
</svg>
