<svg width="48" height="48" viewBox="0 0 48 48" fill="none" xmlns="http://www.w3.org/2000/svg">
<path d="M40 41H8C5.8 41 4 39.2 4 37V16.1C4 14.8 4.6 13.6 5.7 12.8L24 0L42.3 12.8C43.4 13.5 44 14.8 44 16.1V37C44 39.2 42.2 41 40 41Z" fill="#78909C"/>
<path d="M34 1H14V32H34V1Z" fill="#AED581"/>
<path d="M13 0V33H35V0H13ZM33 31H15V2H33V31Z" fill="#558B2F"/>
<path d="M34 3C34 4.7 33.7 6 32 6C30.3 6 29 4.7 29 3C29 1.3 30.3 1 32 1C33.7 1 34 1.3 34 3Z" fill="#558B2F"/>
<path d="M16 1C17.7 1 19 1.3 19 3C19 4.7 17.7 6 16 6C14.3 6 14 4.7 14 3C14 1.3 14.3 1 16 1Z" fill="#558B2F"/>
<path d="M24 10C25.1046 10 26 9.10457 26 8C26 6.89543 25.1046 6 24 6C22.8954 6 22 6.89543 22 8C22 9.10457 22.8954 10 24 10Z" fill="#558B2F"/>
<path d="M24 26C27.3137 26 30 23.3137 30 20C30 16.6863 27.3137 14 24 14C20.6863 14 18 16.6863 18 20C18 23.3137 20.6863 26 24 26Z" fill="#558B2F"/>
<path d="M40 41H8C5.8 41 4 39.2 4 37V17L24 30L44 17V37C44 39.2 42.2 41 40 41Z" fill="#CFD8DC"/>
</svg>
