<svg width="41" height="41" viewBox="0 0 41 41" fill="none" xmlns="http://www.w3.org/2000/svg">
<path d="M40.2098 17.7018L38.5344 15.5109C38.0189 14.7376 37.6323 13.8355 37.7611 12.9334V12.8045L37.89 10.2269C37.89 8.42264 36.7301 6.74724 34.9258 6.23173L32.606 5.58734C31.7039 5.32958 30.8018 4.68519 30.2862 3.91193L28.9975 1.84989C27.9664 0.303356 25.9044 -0.46991 23.9712 0.303356L21.9092 1.07662C21.3937 1.2055 20.8782 1.33438 20.4915 1.33438C20.1049 1.33438 19.4605 1.2055 19.0739 1.07662L17.0118 0.303356C15.2076 -0.341032 13.1455 0.303356 11.9856 1.84989L10.6968 3.91193C10.1813 4.68519 9.40807 5.32958 8.37705 5.58734L6.05725 6.23173C4.25296 6.74724 3.09306 8.42264 3.09306 10.2269L3.22194 12.9334C3.22194 13.5777 3.09306 14.0933 2.96419 14.6088C2.83531 14.8665 2.70643 15.1243 2.44868 15.5109L0.773266 17.7018C-0.257755 19.1195 -0.257755 21.1815 0.773266 22.5992L2.44868 24.7901C2.70643 25.0479 2.83531 25.3056 2.96419 25.6922C3.22194 26.2078 3.35082 26.8521 3.22194 27.3677L3.09306 30.0741C3.09306 31.8784 4.25296 33.5538 6.05725 34.0693L7.86153 34.5848L8.37705 34.7137C9.27919 34.9714 10.1813 35.6158 10.6968 36.3891L11.9856 38.4511C13.0166 39.9977 15.0787 40.7709 17.0118 39.9977L19.0739 39.2244C19.8472 38.9666 20.6204 38.8378 21.3937 39.0955C21.6514 39.0955 21.7803 39.2244 22.0381 39.2244L24.1001 39.9977C25.9044 40.6421 27.9664 39.9977 29.1263 38.4511L30.4151 36.3891C30.9306 35.6158 31.7039 34.9714 32.7349 34.7137L35.0547 34.0693C36.859 33.5538 38.0189 31.8784 38.0189 30.0741L37.89 27.3677C37.89 26.4655 38.1478 25.5634 38.6633 24.7901L40.3387 22.5992C41.2408 21.1815 41.2408 19.1195 40.2098 17.7018Z" fill="#FFC533"/>
<path d="M35.6991 18.3461V18.2172C35.4413 16.284 34.7969 14.4798 33.8948 12.8043C33.7659 12.5466 33.637 12.2888 33.5082 12.0311C32.7349 10.7423 31.7039 9.58241 30.544 8.55139C30.4151 8.42251 30.2862 8.29363 30.0285 8.16476C27.322 5.97384 23.9712 4.68506 20.3627 4.68506C11.8567 4.68506 4.89734 11.6445 4.89734 20.1504C4.89734 24.4033 6.57275 28.2697 9.40806 31.105C12.1145 33.9403 15.9808 35.6157 20.2338 35.6157H20.3627C24.8734 35.6157 28.9975 33.6825 31.8328 30.5895C34.2814 27.883 35.828 24.1456 35.828 20.1504C35.828 19.506 35.828 18.8616 35.6991 18.3461Z" fill="#F2AC0F"/>
<path d="M31.8328 18.2173C31.7039 17.1863 31.3173 16.1553 30.9306 15.2532C30.2862 13.7066 29.2552 12.4178 27.9664 11.3868C25.9044 9.58254 23.198 8.55151 20.3627 8.55151C13.9188 8.55151 8.76367 13.7066 8.76367 20.1505C8.76367 26.5944 13.9188 31.7495 20.3627 31.7495C26.8065 31.7495 31.9616 26.5944 31.9616 20.1505C31.9616 19.5061 31.9616 18.8617 31.8328 18.2173Z" fill="#FCEA81"/>
<path d="M24.229 23.3725V26.5944H16.7541V23.3725H18.6873V16.7997H16.4963V13.8355C17.0118 13.8355 17.3985 13.7066 17.914 13.7066C18.4295 13.5778 18.8161 13.4489 19.2028 13.0623H22.2958V23.3725H24.229Z" fill="#F2AC0F"/>
<path d="M35.699 18.0884C34.7968 17.8307 34.1524 17.0574 34.1524 16.0264H34.0236C34.0236 17.1863 33.1214 18.2173 31.8326 18.2173C32.9925 18.2173 34.0236 19.1194 34.0236 20.4082H34.1524C34.1524 19.3772 34.7968 18.6039 35.699 18.3462C35.8278 18.3462 36.0856 18.2173 36.2145 18.2173C36.0856 18.2173 35.8278 18.2173 35.699 18.0884Z" fill="white"/>
<path d="M35.5701 12.4178C34.7969 12.4178 34.1525 12.2889 33.5081 12.0311C32.0904 11.3868 30.9305 10.098 30.5439 8.55144C30.415 8.16481 30.415 7.6493 30.415 7.13379H30.2862C30.2862 7.52042 30.2861 7.77818 30.1573 8.16481C29.8995 9.19583 29.384 10.2269 28.7396 11.0001C28.4819 11.129 28.353 11.3867 28.0952 11.5156C27.1931 12.16 26.1621 12.5466 24.8733 12.5466C27.8375 12.5466 30.1573 14.8664 30.1573 17.8306H30.2862C30.2862 16.9285 30.5439 16.1552 30.9305 15.382C31.1883 14.8664 31.4461 14.4798 31.8327 14.0932C32.3482 13.5777 33.1215 13.0622 33.8947 12.8044C34.4102 12.5466 35.0546 12.4178 35.5701 12.4178Z" fill="white"/>
</svg>
