<svg width="25" height="25" viewBox="0 0 25 25" fill="none" xmlns="http://www.w3.org/2000/svg">
<g opacity="0.9" clipPath="url(#clip0_2654_2671)">
<path d="M12.5 8.59375H4.6875C2.5 8.59375 0.78125 10.3125 0.78125 12.5V20.3125C0.78125 22.5 2.5 24.2188 4.6875 24.2188H12.5C14.6875 24.2188 16.4062 22.5 16.4062 20.3125V12.5C16.4062 10.3125 14.6875 8.59375 12.5 8.59375ZM5.46875 11.7188C6.32812 11.7188 7.03125 12.4219 7.03125 13.2812C7.03125 14.1406 6.32812 14.8438 5.46875 14.8438C4.60938 14.8438 3.90625 14.1406 3.90625 13.2812C3.90625 12.4219 4.60938 11.7188 5.46875 11.7188ZM5.46875 21.0938C4.60938 21.0938 3.90625 20.3906 3.90625 19.5312C3.90625 18.6719 4.60938 17.9688 5.46875 17.9688C6.32812 17.9688 7.03125 18.6719 7.03125 19.5312C7.03125 20.3906 6.32812 21.0938 5.46875 21.0938ZM8.59375 17.9688C7.73438 17.9688 7.03125 17.2656 7.03125 16.4062C7.03125 15.5469 7.73438 14.8438 8.59375 14.8438C9.45312 14.8438 10.1562 15.5469 10.1562 16.4062C10.1562 17.2656 9.45312 17.9688 8.59375 17.9688ZM11.7188 21.0938C10.8594 21.0938 10.1562 20.3906 10.1562 19.5312C10.1562 18.6719 10.8594 17.9688 11.7188 17.9688C12.5781 17.9688 13.2812 18.6719 13.2812 19.5312C13.2812 20.3906 12.5781 21.0938 11.7188 21.0938ZM11.7188 14.8438C10.8594 14.8438 10.1562 14.1406 10.1562 13.2812C10.1562 12.4219 10.8594 11.7188 11.7188 11.7188C12.5781 11.7188 13.2812 12.4219 13.2812 13.2812C13.2812 14.1406 12.5781 14.8438 11.7188 14.8438Z" fill="white"/>
<path d="M20.3125 0.78125H12.5C10.3125 0.78125 8.59375 2.5 8.59375 4.6875V7.03125H12.5C15.5469 7.03125 17.9688 9.45312 17.9688 12.5V16.4062H20.3125C22.5 16.4062 24.2188 14.6875 24.2188 12.5V4.6875C24.2188 2.5 22.5 0.78125 20.3125 0.78125ZM19.5312 7.03125C18.6719 7.03125 17.9688 6.32812 17.9688 5.46875C17.9688 4.60938 18.6719 3.90625 19.5312 3.90625C20.3906 3.90625 21.0938 4.60938 21.0938 5.46875C21.0938 6.32812 20.3906 7.03125 19.5312 7.03125Z" fill="white"/>
</g>
<defs>
<clipPath id="clip0_2654_2671">
<rect width="25" height="25" fill="white"/>
</clipPath>
</defs>
</svg>
