<?xml version="1.0" encoding="UTF-8" standalone="no"?> <svg id="icons" xmlns="http://www.w3.org/2000/svg" viewBox="0 0 340 340"><path d="M134.121,163.932v22.8c0,21.161,21.431,38.315,47.867,38.315s47.868-17.154,47.868-38.315v-22.8Z" style="fill:#3c3c4f"/><path d="M140.4,139.938l6.233,49.824c8.753,7.672,21.352,12.485,35.355,12.485l37.538-61.337Z" style="fill:#929bb7"/><path d="M134.121,139.938v23.994c0,9.952,4.742,19.016,12.514,25.828V139.938Z" style="fill:#3c3c4f"/><path d="M229.856,163.932V140.91l-47.823,37.343v23.993C208.449,202.227,229.856,185.081,229.856,163.932Z" style="fill:#3c3c4f"/><path d="M141.909,138.083l4.724,27.686c8.753,7.672,21.352,12.485,35.355,12.485l35.443-12.562c7.72-6.8,12.425-15.839,12.425-25.754v-22.8Z" style="fill:#3c3c4f"/><path d="M182.033,178.253c14.032-.01,26.65-4.853,35.4-12.561V117.153l-35.4.052Z" style="fill:#dfe4ef"/><path d="M146.635,165.767v-48.51l-12.51.018h0v22.663C134.121,149.89,138.863,158.955,146.635,165.767Z" style="fill:#dfe4ef"/><path d="M142.466,93.493l4.167,49.472c8.753,7.672,21.352,12.485,35.355,12.485l35.443-12.562c7.72-6.8,12.425-15.839,12.425-25.754l-4.148-23.641Z" style="fill:#929bb7"/><path d="M134.125,117.275c.045,9.9,4.775,18.908,12.51,25.688V93.493H134.121v23.641c0,.048,0,.094,0,.141Z" style="fill:#3c3c4f"/><path d="M182.033,155.449c14.032-.01,26.65-4.853,35.4-12.561v-49.4h-35.4Z" style="fill:#3c3c4f"/><path d="M141.909,91.717l4.725,27.637c8.755,7.694,21.372,12.523,35.4,12.523l35.4-12.523L218,127.23h11.9V70.758Z" style="fill:#3c3c4f"/><path d="M146.635,119.353V72.908l-.738-2.15H134.165v22.8C134.165,103.5,138.889,112.546,146.635,119.353Z" style="fill:#dfe4ef"/><path d="M182.033,131.877c14.026,0,26.643-4.829,35.4-12.524V72.908l-35.4,12.524Z" style="fill:#dfe4ef"/><path d="M142.466,47.116l4.168,49.434c8.755,7.7,21.372,12.524,35.4,12.524l35.4-12.524c7.746-6.808,12.469-15.858,12.469-25.792V47.116Z" style="fill:#929bb7"/><path d="M182.033,109.074c14.026,0,26.643-4.83,35.4-12.525V72.908l-35.4,12.524Z" style="fill:#3c3c4f"/><path d="M146.635,96.549V72.908l-8.846-25.792h-3.624V70.758C134.165,80.692,138.889,89.742,146.635,96.549Z" style="fill:#3c3c4f"/><path d="M229.9,47.116c0,9.934-4.723,18.985-12.469,25.793l-35.4,12.523c-14.027,0-26.644-4.829-35.4-12.523L134.165,47.116c0-11.539,6.373-21.887,16.456-28.912l31.412-9.4c12.5,0,23.882,3.836,32.408,10.117Z" style="fill:#fff"/><path d="M229.866,46.043C229.5,35.32,223.634,25.7,214.437,18.922L195.383,34.34l-13.35-5.6V8.8a55.049,55.049,0,0,0-31.406,9.413L166.906,33.2l-7.023,12.847H134.2c-.012.358-.034.714-.034,1.073,0,9.934,4.724,18.984,12.47,25.792l19.331-14.46,16.022,3.185.038,23.8h.007c14.026,0,26.643-4.83,35.4-12.524L198.49,58.74l6.61-12.7Z" style="fill:#666684"/><ellipse cx="182.033" cy="46.043" rx="26.617" ry="21.305" style="fill:#fff"/><ellipse cx="182.033" cy="46.043" rx="19.971" ry="15.985" style="fill:#3c3c4f"/><path d="M41.389,242.238l9.854,48.634C60,298.544,72.6,303.357,86.6,303.357L122.041,290.8c7.72-6.8,12.425-15.839,12.425-25.754v-22.8Z" style="fill:#4a73ba"/><path d="M51.245,290.87V242.238H38.731v22.8C38.731,274.993,43.473,284.058,51.245,290.87Z" style="fill:#dbecfc"/><path d="M86.643,303.356c14.032-.01,26.651-4.853,35.4-12.561V242.238h-35.4Z" style="fill:#dbecfc"/><path d="M41.389,218.244l9.854,49.824C60,275.74,72.6,280.553,86.6,280.553l35.442-12.562c7.72-6.8,12.425-15.839,12.425-25.753V218.244Z" style="fill:#97bfef"/><path d="M51.245,218.244H38.731v23.994c0,9.952,4.742,19.016,12.514,25.828Z" style="fill:#4a73ba"/><path d="M86.643,280.552c14.032-.01,26.651-4.853,35.4-12.561V218.244h-35.4Z" style="fill:#4a73ba"/><path d="M42.82,195.575l8.423,48.5C60,251.746,72.6,256.56,86.6,256.56L122.041,244c7.72-6.8,12.425-15.839,12.425-25.754v-22.8Z" style="fill:#4a73ba"/><path d="M51.245,244.072V195.563l-12.509.018h0v22.663C38.731,228.2,43.473,237.261,51.245,244.072Z" style="fill:#dbecfc"/><path d="M86.643,256.559c14.032-.011,26.651-4.853,35.4-12.562V195.459l-35.4.052Z" style="fill:#dbecfc"/><path d="M41.389,171.093l9.854,50.177C60,228.943,72.6,233.756,86.6,233.756l35.442-12.562c7.72-6.8,12.425-15.839,12.425-25.754V171.8Z" style="fill:#97bfef"/><path d="M51.245,171.8H38.731V195.44c0,9.952,4.742,19.017,12.514,25.829Z" style="fill:#4a73ba"/><path d="M86.643,233.755c14.032-.01,26.651-4.853,35.4-12.561V171.8h-35.4Z" style="fill:#4a73ba"/><path d="M41.962,149.064l9.282,48.6c8.755,7.694,21.372,12.523,35.4,12.523l35.4-12.523c7.746-6.808,12.468-15.859,12.468-25.792v-22.8Z" style="fill:#4a73ba"/><path d="M51.245,197.659V151.214l-.995-2.15H38.775v22.8C38.775,181.8,43.5,190.851,51.245,197.659Z" style="fill:#dbecfc"/><path d="M86.643,210.183c14.026,0,26.643-4.83,35.4-12.524V151.213l-35.4,12.525Z" style="fill:#dbecfc"/><path d="M41.962,125.422l9.282,49.434c8.755,7.694,21.372,12.523,35.4,12.523l35.4-12.523c7.746-6.808,12.468-15.858,12.468-25.792V125.422Z" style="fill:#97bfef"/><path d="M38.775,149.064c0,9.933,4.724,18.983,12.47,25.791V130.379l-12.436-6.03Z" style="fill:#4a73ba"/><path d="M86.643,187.379c14.026,0,26.643-4.829,35.4-12.524v-39.8h-35.4Z" style="fill:#4a73ba"/><path d="M134.51,125.422c0,9.934-4.722,18.985-12.468,25.792l-35.4,12.524c-14.026,0-26.644-4.829-35.4-12.524L38.775,125.422c0-11.539,6.373-21.887,16.456-28.912l31.412-9.4c12.5,0,23.882,3.835,32.408,10.117Z" style="fill:#fff"/><path d="M134.477,124.349c-.37-10.723-6.232-20.345-15.429-27.121L99.993,112.645l-13.35-5.6V87.107a55.048,55.048,0,0,0-31.4,9.413L71.517,111.5l-7.024,12.847H38.809c-.012.358-.034.713-.034,1.073,0,9.934,4.724,18.984,12.47,25.792l19.331-14.46L86.6,139.938l.037,23.8h.007c14.026,0,26.643-4.83,35.4-12.525L103.1,137.046l6.61-12.7Z" style="fill:#7ca8e8"/><ellipse cx="86.643" cy="124.349" rx="26.617" ry="21.305" style="fill:#fff"/><ellipse cx="86.643" cy="124.349" rx="21.033" ry="16.836" style="fill:#7ca8e8"/><path d="M218,263.043v-48.51l-12.509.019h0v22.662C205.49,247.166,210.232,256.231,218,263.043Z" style="fill:#c12140"/><path d="M205.49,261.208v22.8c0,21.161,21.431,38.315,47.867,38.315s47.868-17.154,47.868-38.315v-22.8Z" style="fill:#fcdbe5"/><path d="M253.4,322.326c14.032-.01,26.651-4.852,35.4-12.561V261.208H253.4Z" style="fill:#c12140"/><path d="M218,309.84V261.208H205.49v22.8C205.49,293.964,210.232,303.028,218,309.84Z" style="fill:#c12140"/><path d="M211.121,237.214,218,287.038c8.753,7.672,21.352,12.485,35.355,12.485L288.8,286.961c7.72-6.8,12.425-15.838,12.425-25.753V237.214Z" style="fill:#c12140"/><path d="M253.4,299.523c14.032-.011,26.651-4.853,35.4-12.562V261.208H253.4Z" style="fill:#f487a4"/><path d="M218,237.214H205.49v23.994c0,9.952,4.742,19.016,12.513,25.828Z" style="fill:#f487a4"/><path d="M211.121,214.543l6.881,48.5c8.753,7.672,21.352,12.485,35.355,12.485L288.8,262.968c7.72-6.8,12.425-15.839,12.425-25.754v-22.8Z" style="fill:#fcdbe5"/><path d="M253.4,275.529c14.032-.01,26.651-4.853,35.4-12.561V214.429l-35.4.052Z" style="fill:#c12140"/><path d="M218,263.043v-48.51l-12.509.019h0v22.662C205.49,247.166,210.232,256.231,218,263.043Z" style="fill:#c12140"/><path d="M209.17,190.769,218,240.241c8.753,7.672,21.352,12.485,35.355,12.485L288.8,240.164c7.72-6.8,12.425-15.838,12.425-25.753V190.769Z" style="fill:#c12140"/><path d="M253.4,252.725c14.032-.01,26.651-4.853,35.4-12.561V214.429l-35.4.052Z" style="fill:#f487a4"/><path d="M218,190.769H205.49v23.642c0,9.952,4.742,19.016,12.513,25.828Z" style="fill:#f487a4"/><path d="M209.17,168.034,218,216.63c8.755,7.695,21.372,12.524,35.4,12.524l35.4-12.524c7.746-6.808,12.469-15.858,12.469-25.792v-22.8Z" style="fill:#fcdbe5"/><path d="M253.4,229.154c14.027,0,26.643-4.83,35.4-12.525V170.184l-35.4,12.524Z" style="fill:#c12140"/><path d="M218,216.629V170.184l-1.039-2.15h-11.43v22.8C205.534,200.772,210.257,209.822,218,216.629Z" style="fill:#c12140"/><path d="M211.121,144.393,218,193.826c8.755,7.695,21.372,12.524,35.4,12.524l35.4-12.524c7.746-6.807,12.469-15.858,12.469-25.792V144.393Z" style="fill:#c12140"/><path d="M253.4,206.35c14.027,0,26.643-4.83,35.4-12.525V170.184l-35.4,12.524Z" style="fill:#f487a4"/><path d="M205.534,168.034c0,9.934,4.723,18.984,12.469,25.792V170.184l-.5-25.791H205.534Z" style="fill:#f487a4"/><path d="M301.235,143.319c.479,9.958-4.689,20.058-12.435,26.866l-35.4,12.523c-14.026,0-26.643-4.829-35.4-12.523l-12.469-25.792c0-11.54,6.373-21.888,16.455-28.913l31.412-9.4c12.5,0,23.883,3.836,32.408,10.117Z" style="fill:#ea4e70"/><path d="M301.235,143.319c-.37-10.723-6.232-20.344-15.429-27.12l-19.055,15.417-13.35-5.6V106.077A55.048,55.048,0,0,0,222,115.49l16.279,14.982-7.023,12.847H205.568c-.013.358-.034.714-.034,1.074,0,9.933,4.723,18.983,12.469,25.791l19.332-14.459,16.022,3.184.038,23.8h.006c14.027,0,26.643-4.83,35.4-12.524l-18.941-14.167,6.611-12.7Z" style="fill:#fff"/><ellipse cx="253.401" cy="143.319" rx="26.617" ry="21.305" style="fill:#fff"/><ellipse cx="253.401" cy="143.319" rx="20.1" ry="16.089" style="fill:#ea4e70"/><path d="M114.66,269.242l7.519,49.434c8.755,7.694,21.372,12.523,35.4,12.523l35.4-12.523c7.746-6.808,12.468-15.859,12.468-25.792V269.242Z" style="fill:#ffb655"/><path d="M122.18,318.675V269.242H109.71v23.642C109.71,302.817,114.434,311.867,122.18,318.675Z" style="fill:#e87b31"/><path d="M192.976,318.675V269.242h-35.4V331.2C171.6,331.2,184.221,326.369,192.976,318.675Z" style="fill:#e87b31"/><path d="M114.66,246.507l7.52,48.558c8.756,7.716,21.392,12.561,35.442,12.561l35.355-12.485c7.772-6.812,12.513-15.878,12.513-25.83v-22.8Z" style="fill:#e87b31"/><path d="M157.578,307.626h.044c14,0,26.6-4.815,35.354-12.488V248.657l-35.4,12.524Z" style="fill:#ffe8cc"/><path d="M122.18,295.064V248.657l-1-2.15h-11.43v22.8C109.755,279.226,114.46,288.261,122.18,295.064Z" style="fill:#ffe8cc"/><path d="M115.967,222.865l6.213,49.4c8.756,7.716,21.392,12.562,35.442,12.562l35.355-12.486c7.772-6.812,12.513-15.878,12.513-25.83V222.865Z" style="fill:#ffb655"/><path d="M122.18,272.26v-23.6l-11.939-25.791h-.486v23.641C109.755,256.422,114.46,265.457,122.18,272.26Z" style="fill:#e87b31"/><path d="M157.578,284.822h.044c14,0,26.6-4.815,35.354-12.487V248.657l-35.4,12.524Z" style="fill:#e87b31"/><path d="M205.445,222.866c0,9.933-4.722,18.984-12.468,25.792l-35.4,12.523c-14.027,0-26.644-4.829-35.4-12.523L109.71,222.866c0-11.54,6.373-21.888,16.456-28.913l31.412-9.4c12.5,0,23.882,3.836,32.408,10.117Z" style="fill:#fff"/><path d="M205.49,222.865c0-11.634-6.31-21.417-15.507-28.194l-19.055,15.418-13.35-5.6V184.55a55.046,55.046,0,0,0-31.4,9.413l16.279,14.982-7.024,12.847H109.744c-.012.358-.034.714-.034,1.073,0,9.934,4.724,18.984,12.47,25.792l19.331-14.46,16.023,3.185.037,23.8h.007c14.026,0,26.643-4.83,35.4-12.524l-18.941-14.168,6.61-12.7Z" style="fill:#ffb655"/><ellipse cx="157.578" cy="221.792" rx="26.617" ry="21.305" style="fill:#fff"/><ellipse cx="157.578" cy="221.792" rx="19.292" ry="15.442" style="fill:#ffb655"/></svg>