<svg width="42" height="42" viewBox="0 0 42 42" fill="none" xmlns="http://www.w3.org/2000/svg">
<path d="M14.8772 23.1592H2.625C2.26257 23.1592 1.96875 23.453 1.96875 23.8154V39.3751C1.96875 39.7376 2.26257 40.0314 2.625 40.0314H14.8772C15.2396 40.0314 15.5334 39.7376 15.5334 39.3751V23.8154C15.5334 23.453 15.2396 23.1592 14.8772 23.1592Z" fill="#EF5261"/>
<path d="M39.375 28.3105H27.1228C26.7604 28.3105 26.4666 28.6044 26.4666 28.9668V39.3749C26.4666 39.7374 26.7604 40.0312 27.1228 40.0312H39.375C39.7374 40.0312 40.0312 39.7374 40.0312 39.3749V28.9668C40.0312 28.6044 39.7374 28.3105 39.375 28.3105Z" fill="#64B5F6"/>
<path d="M27.1294 15.5596H14.8772C14.5148 15.5596 14.2209 15.8534 14.2209 16.2158V39.3749C14.2209 39.7373 14.5148 40.0311 14.8772 40.0311H27.1294C27.4918 40.0311 27.7856 39.7373 27.7856 39.3749V16.2158C27.7856 15.8534 27.4918 15.5596 27.1294 15.5596Z" fill="#F6C863"/>
</svg>
