<svg width="94" height="97" viewBox="0 0 94 97" fill="none" xmlns="http://www.w3.org/2000/svg">
<g clip-path="url(#clip0_26_2614)">
<path fill-rule="evenodd" clip-rule="evenodd" d="M46.0502 13.4619L39.8107 25.7374L26.634 35.8134C20.6753 35.7469 15.7075 32.9356 14.1743 28.131C11.9914 21.3242 17.5557 13.0852 26.578 9.75232C33.2344 7.06131 40.8495 8.51204 46.0502 13.4619Z" fill="#F0C419"/>
<path fill-rule="evenodd" clip-rule="evenodd" d="M65.4663 -8.88961L57.3323 5.56683L46.0502 13.4619C40.4216 9.00465 37.92 1.66733 39.6536 -5.29998C41.6918 -14.6998 49.0715 -21.3618 56.1167 -20.1524C61.0885 -19.3063 64.567 -14.7804 65.4663 -8.88961Z" fill="#F0C419"/>
<path fill-rule="evenodd" clip-rule="evenodd" d="M31.2793 55.9297L86.0344 -7.10337L128.897 30.1301C130.289 31.3397 130.438 33.4491 129.228 34.8416L78.8533 92.832C77.6437 94.2245 75.5343 94.3728 74.1418 93.1631L31.2793 55.9297Z" fill="#2980BA"/>
<path d="M74.5228 -19.3152L17.5775 46.2392C16.3679 47.6317 16.5162 49.7411 17.9087 50.9507L27.9939 59.7115C29.3864 60.9211 31.4958 60.7729 32.7055 59.3804L89.6508 -6.17398C90.8604 -7.56647 90.7121 -9.67589 89.3196 -10.8855L79.2344 -19.6463C77.8419 -20.8559 75.7324 -20.7077 74.5228 -19.3152Z" fill="#3B97D3"/>
<path d="M51.5257 7.15877L40.5747 19.7654L98.5651 70.1401L109.516 57.5335L51.5257 7.15877Z" fill="#F3D55B"/>
<path fill-rule="evenodd" clip-rule="evenodd" d="M48.8646 53.5099L44.4842 58.5526C43.8794 59.2488 42.8247 59.323 42.1285 58.7181C41.4322 58.1133 41.3581 57.0586 41.9629 56.3624L46.3433 51.3197C46.9481 50.6235 48.0028 50.5494 48.6991 51.1542C49.3953 51.759 49.4694 52.8137 48.8646 53.5099Z" fill="#F5EFCA"/>
<path fill-rule="evenodd" clip-rule="evenodd" d="M90.4785 5.60491L53.2451 48.4674C52.6403 49.1636 51.5856 49.2378 50.8893 48.6329C50.1931 48.0281 50.119 46.9734 50.7238 46.2772L87.9572 3.4147C88.562 2.71846 89.6167 2.64434 90.313 3.24914C91.0092 3.85395 91.0834 4.90866 90.4785 5.60491Z" fill="#F5EFCA"/>
</g>
<defs>
<clipPath id="clip0_26_2614">
<rect width="93.5135" height="96.8533" fill="white" transform="translate(0.259399 35.6194) rotate(-49.02)"/>
</clipPath>
</defs>
</svg>
