<svg width="13" height="13" viewBox="0 0 13 13" fill="none" xmlns="http://www.w3.org/2000/svg">
<g clip-path="url(#clip0_46_2949)">
<path d="M7.19641 13C4.05529 13 1.50891 10.0899 1.50891 6.5C1.50891 2.91014 4.05529 0 7.19641 0C10.3375 0 12.8839 2.91014 12.8839 6.5C12.8839 10.0899 10.3375 13 7.19641 13Z" fill="#FFD949"/>
<path d="M1.50892 6.5C1.50892 3.17989 3.68758 0.442929 6.49999 0.0501429C6.27156 0.0183393 6.03942 0 5.80356 0C2.66243 0 0.116058 2.91014 0.116058 6.5C0.116058 10.0899 2.66243 13 5.80356 13C6.03942 13 6.27156 12.9817 6.49999 12.9499C3.68758 12.5571 1.50892 9.82011 1.50892 6.5Z" fill="#F4BF1A"/>
<path d="M7.21616 11.7288H7.19619C7.03369 11.7288 6.87003 11.7191 6.70985 11.7C6.58241 11.6847 6.49164 11.5693 6.50673 11.4419C6.52205 11.3144 6.63835 11.2255 6.76487 11.239C6.90694 11.2559 7.05203 11.2645 7.19619 11.2645C7.32457 11.2645 7.43832 11.3685 7.43832 11.4967C7.43832 11.6248 7.34476 11.7288 7.21616 11.7288ZM8.56607 11.4788C8.47228 11.4788 8.38383 11.4215 8.34878 11.3284C8.30351 11.2083 8.3641 11.0744 8.48412 11.0294C8.61783 10.979 8.75132 10.9198 8.88016 10.8536C8.99437 10.7947 9.13412 10.8399 9.19285 10.9542C9.25135 11.0681 9.20632 11.2081 9.0921 11.2666C8.94748 11.3409 8.79821 11.4068 8.64778 11.4637C8.62108 11.4739 8.59346 11.4788 8.56607 11.4788ZM5.42401 11.3014C5.38873 11.3014 5.35274 11.2933 5.31908 11.2761C5.17632 11.2035 5.03494 11.122 4.89914 11.0328C4.79189 10.9627 4.76194 10.819 4.83205 10.7116C4.90262 10.6045 5.04608 10.5744 5.15357 10.6445C5.27498 10.7241 5.40149 10.7975 5.52917 10.8622C5.64339 10.9203 5.68912 11.06 5.63108 11.1742C5.59023 11.255 5.50851 11.3014 5.42401 11.3014ZM10.0924 10.4755C10.0334 10.4755 9.97424 10.453 9.92898 10.4082C9.83798 10.3178 9.83728 10.1709 9.92758 10.0799C10.0286 9.97822 10.1268 9.86865 10.2194 9.75444C10.3004 9.65508 10.4467 9.63999 10.546 9.72078C10.6454 9.80156 10.6607 9.94781 10.5797 10.0474C10.4773 10.1732 10.3689 10.2942 10.2572 10.4068C10.2117 10.4525 10.1518 10.4755 10.0924 10.4755ZM4.00608 10.1486C3.93899 10.1486 3.87237 10.1196 3.82641 10.0639C3.72566 9.94085 3.62885 9.81085 3.53901 9.67737C3.46728 9.57104 3.49537 9.42665 3.60169 9.35492C3.70778 9.28319 3.85217 9.31104 3.92391 9.4176C4.00585 9.53924 4.09383 9.65763 4.18553 9.76929C4.26678 9.86842 4.25239 10.0147 4.15326 10.0962C4.11032 10.1314 4.05785 10.1486 4.00608 10.1486ZM11.1129 8.9561C11.0818 8.9561 11.0505 8.94983 11.0203 8.93683C10.9026 8.88553 10.849 8.74879 10.9 8.6311C10.9583 8.49785 11.0115 8.35949 11.0581 8.22044C11.099 8.09926 11.2306 8.03356 11.3522 8.07442C11.4737 8.11551 11.5391 8.2469 11.4983 8.36854C11.4472 8.52013 11.3892 8.67103 11.3258 8.81658C11.2875 8.90387 11.202 8.9561 11.1129 8.9561ZM3.12116 8.5459C3.02458 8.5459 2.93428 8.48485 2.90132 8.38851C2.85001 8.23808 2.80451 8.08324 2.76598 7.92817C2.73487 7.80374 2.81055 7.67792 2.93498 7.64704C3.05894 7.61547 3.18546 7.69162 3.21633 7.81604C3.25185 7.95835 3.29364 8.10065 3.34076 8.23854C3.38208 8.35995 3.31732 8.49181 3.19614 8.53313C3.17153 8.54172 3.14599 8.5459 3.12116 8.5459ZM11.5514 7.17695C11.5454 7.17695 11.5394 7.17672 11.5333 7.17626C11.4054 7.16628 11.31 7.05462 11.3197 6.9267C11.3307 6.78603 11.3362 6.64233 11.3362 6.50003C11.3362 6.37188 11.4402 6.26045 11.5684 6.26045C11.6965 6.26045 11.8005 6.35679 11.8005 6.48494V6.50003C11.8005 6.6544 11.7945 6.80994 11.7826 6.96269C11.7734 7.08433 11.6714 7.17695 11.5514 7.17695ZM2.82424 6.73472C2.6961 6.73472 2.5921 6.63328 2.5921 6.50513V6.50003C2.5921 6.3417 2.59837 6.18245 2.61067 6.02715C2.62089 5.89947 2.73208 5.80476 2.86046 5.81404C2.98837 5.82426 3.08378 5.93615 3.07357 6.06383C3.06219 6.20729 3.05639 6.35401 3.05639 6.50003C3.05639 6.62817 2.95239 6.73472 2.82424 6.73472ZM11.3987 5.35045C11.2949 5.35045 11.2004 5.28035 11.174 5.17519C11.138 5.03242 11.096 4.89035 11.0486 4.75245C11.007 4.63128 11.0718 4.49919 11.193 4.45763C11.3144 4.41562 11.4465 4.48062 11.4878 4.60203C11.5394 4.75199 11.5851 4.9066 11.6241 5.06144C11.6554 5.18587 11.58 5.31192 11.4558 5.34326C11.437 5.34837 11.4179 5.35045 11.3987 5.35045ZM3.11814 4.92865C3.0933 4.92865 3.06823 4.92447 3.04339 4.91612C2.92198 4.87503 2.85698 4.74317 2.89807 4.62176C2.94937 4.47087 3.00764 4.3202 3.07148 4.17419C3.12301 4.05649 3.25951 4.00333 3.37721 4.0544C3.49467 4.1057 3.5483 4.24267 3.49699 4.36013C3.43826 4.49408 3.38487 4.63244 3.33798 4.77079C3.30478 4.8676 3.21494 4.92865 3.11814 4.92865ZM10.6558 3.6767C10.5813 3.6767 10.5084 3.64095 10.4634 3.57456C10.3812 3.45338 10.293 3.33522 10.201 3.22356C10.1196 3.12467 10.1337 2.97819 10.2326 2.8967C10.3315 2.81522 10.478 2.82938 10.5595 2.92828C10.6605 3.05108 10.7575 3.18085 10.8478 3.31433C10.9198 3.42042 10.8919 3.56481 10.7858 3.63678C10.7459 3.6637 10.7009 3.6767 10.6558 3.6767ZM3.99935 3.32362C3.94782 3.32362 3.89582 3.30644 3.85264 3.27115C3.75328 3.19013 3.73866 3.04388 3.81991 2.94453C3.92228 2.81917 4.03092 2.69845 4.14282 2.58587C4.23335 2.49533 4.3803 2.49463 4.47107 2.58494C4.56207 2.67547 4.56253 2.82219 4.47223 2.91319C4.37101 3.0151 4.27235 3.12444 4.17926 3.23842C4.13376 3.2946 4.06691 3.32362 3.99935 3.32362ZM9.35767 2.38808C9.31426 2.38808 9.27039 2.37601 9.23139 2.35047C9.10998 2.27131 8.98323 2.19842 8.85485 2.13365C8.74064 2.07585 8.69467 1.93633 8.75248 1.82188C8.81028 1.7079 8.94957 1.66124 9.06424 1.71928C9.20771 1.79147 9.34908 1.87295 9.48465 1.9614C9.59214 2.03151 9.62255 2.17544 9.55244 2.28269C9.50787 2.35117 9.43382 2.38808 9.35767 2.38808ZM5.41566 2.16754C5.33116 2.16754 5.24967 2.12135 5.20858 2.04079C5.15032 1.92658 5.19582 1.78683 5.31003 1.72856C5.45466 1.65497 5.60416 1.58881 5.75482 1.53263C5.8746 1.4876 6.00855 1.54842 6.05358 1.66867C6.09839 1.78869 6.03757 1.9224 5.91732 1.96744C5.78314 2.01758 5.64966 2.07631 5.52058 2.14224C5.48716 2.15942 5.45094 2.16754 5.41566 2.16754ZM7.64562 1.76153C7.63657 1.76153 7.62751 1.76106 7.61846 1.7599C7.47871 1.74365 7.33664 1.73553 7.19619 1.73553C7.06805 1.73553 6.95917 1.63153 6.95917 1.50338C6.95917 1.37524 7.0583 1.27124 7.18644 1.27124H7.19619C7.35451 1.27124 7.51469 1.28053 7.67208 1.29887C7.7993 1.31349 7.89076 1.42863 7.87591 1.55608C7.86244 1.67447 7.76169 1.76153 7.64562 1.76153Z" fill="#F4BF1A"/>
<path d="M1.50845 6.73218H0.116058C0.120701 6.88841 0.129523 7.04325 0.143683 7.19646H1.53724C1.52284 7.04325 1.51333 6.88841 1.50845 6.73218Z" fill="#DCA815"/>
<path d="M1.56163 5.57153H0.169698C0.15043 5.72452 0.136501 5.87959 0.126984 6.03582H1.51961C1.52936 5.87959 1.54236 5.72452 1.56163 5.57153Z" fill="#DCA815"/>
<path d="M1.63613 7.89282H0.243042C0.273221 8.04975 0.308042 8.20459 0.347738 8.35711H1.74036C1.7009 8.20459 1.66631 8.04975 1.63613 7.89282Z" fill="#DCA815"/>
<path d="M1.96089 9.05347H0.567108C0.626305 9.21179 0.691769 9.36616 0.761412 9.51775H2.1545C2.08486 9.3664 2.02009 9.21156 1.96089 9.05347Z" fill="#DCA815"/>
<path d="M1.8042 4.41064H0.412965C0.367697 4.56316 0.325447 4.71754 0.290161 4.87493H1.68464C1.71993 4.718 1.75916 4.5627 1.8042 4.41064Z" fill="#DCA815"/>
<path d="M2.26662 3.25H0.873759C0.797152 3.40112 0.724956 3.55573 0.659027 3.71429H2.05281C2.11874 3.55596 2.19001 3.40112 2.26662 3.25Z" fill="#DCA815"/>
<path d="M3.21401 1.85718H1.81953C1.68744 2.00482 1.56185 2.15966 1.44299 2.32146H2.83701C2.9561 2.15966 3.08192 2.00482 3.21401 1.85718Z" fill="#DCA815"/>
<path d="M4.63357 0.696533H3.23769C3.00044 0.833497 2.77294 0.988569 2.55612 1.16082H3.95107C4.16812 0.988569 4.39609 0.833497 4.63357 0.696533Z" fill="#DCA815"/>
<path d="M2.67404 10.4465H1.28049C1.3882 10.6074 1.50195 10.7622 1.6222 10.9108H3.01668C2.89643 10.7622 2.78199 10.6074 2.67404 10.4465Z" fill="#DCA815"/>
<path d="M2.28241 11.6072C2.46882 11.775 2.66405 11.9308 2.86834 12.0715H4.26445C4.05923 11.9306 3.86191 11.7757 3.6748 11.6072H2.28241Z" fill="#DCA815"/>
</g>
<defs>
<clipPath id="clip0_46_2949">
<rect width="13" height="13" fill="white"/>
</clipPath>
</defs>
</svg>
