<svg width="924" height="239" viewBox="0 0 924 239" fill="none" xmlns="http://www.w3.org/2000/svg">
<rect width="924" height="239" rx="10" fill="url(#paint0_linear_2001_77)"/>
<path opacity="0.05" d="M122.675 15.915C117.83 9.30987 122.546 1.13225e-06 130.738 2.74011e-06L221.681 1.52669e-05C222.884 1.57854e-05 224.077 0.217023 225.203 0.640614L265.626 15.8504C273.517 18.8194 274.418 29.6204 267.129 33.8561L182.847 82.8306C178.428 85.3986 172.783 84.2206 169.76 80.0993L122.675 15.915Z" fill="#5F4DFF"/>
<path opacity="0.05" d="M5.82781e-05 201.26C5.95874e-05 197.695 1.89855 194.399 4.98288 192.61L93.2272 141.428C97.2053 139.121 102.244 139.824 105.438 143.133L181.638 222.054C187.768 228.403 183.269 239 174.444 239L10 239C4.4772 239 5.28367e-05 234.523 5.27008e-05 229L5.82781e-05 201.26Z" fill="#5F4DFF"/>
<g clip-path="url(#clip0_2001_77)">
<g clip-path="url(#clip1_2001_77)">
<path fill-rule="evenodd" clip-rule="evenodd" d="M876.05 14.4619L869.811 26.7374L856.634 36.8134C850.675 36.7469 845.708 33.9356 844.174 29.131C841.991 22.3242 847.556 14.0852 856.578 10.7523C863.235 8.06131 870.85 9.51204 876.05 14.4619Z" fill="#F0C419"/>
<path fill-rule="evenodd" clip-rule="evenodd" d="M895.466 -7.88961L887.332 6.56683L876.05 14.4619C870.422 10.0046 867.92 2.66733 869.654 -4.29998C871.692 -13.6998 879.072 -20.3618 886.117 -19.1524C891.089 -18.3063 894.567 -13.7804 895.466 -7.88961Z" fill="#F0C419"/>
<path fill-rule="evenodd" clip-rule="evenodd" d="M861.28 56.9297L916.035 -6.10337L958.897 31.1301C960.29 32.3397 960.438 34.4491 959.228 35.8416L908.854 93.832C907.644 95.2245 905.535 95.3728 904.142 94.1631L861.28 56.9297Z" fill="#2980BA"/>
<path d="M904.523 -18.3152L847.578 47.2392C846.368 48.6317 846.516 50.7411 847.909 51.9507L857.994 60.7115C859.387 61.9211 861.496 61.7729 862.706 60.3804L919.651 -5.17398C920.86 -6.56647 920.712 -8.67589 919.32 -9.88551L909.234 -18.6463C907.842 -19.8559 905.733 -19.7077 904.523 -18.3152Z" fill="#3B97D3"/>
<path d="M881.526 8.15877L870.575 20.7654L928.565 71.1401L939.516 58.5335L881.526 8.15877Z" fill="#F3D55B"/>
<path fill-rule="evenodd" clip-rule="evenodd" d="M878.865 54.5099L874.485 59.5526C873.88 60.2488 872.825 60.323 872.129 59.7181C871.433 59.1133 871.358 58.0586 871.963 57.3624L876.344 52.3197C876.948 51.6235 878.003 51.5494 878.699 52.1542C879.396 52.759 879.47 53.8137 878.865 54.5099Z" fill="#F5EFCA"/>
<path fill-rule="evenodd" clip-rule="evenodd" d="M920.479 6.60491L883.245 49.4674C882.641 50.1636 881.586 50.2378 880.89 49.6329C880.193 49.0281 880.119 47.9734 880.724 47.2772L917.957 4.4147C918.562 3.71846 919.617 3.64434 920.313 4.24914C921.009 4.85395 921.084 5.90866 920.479 6.60491Z" fill="#F5EFCA"/>
</g>
</g>
<defs>
<linearGradient id="paint0_linear_2001_77" x1="1150.65" y1="-66.5" x2="361.674" y2="-10.1111" gradientUnits="userSpaceOnUse">
<stop stop-color="#5F4DFF"/>
<stop offset="1" stop-color="#392E99" stop-opacity="0.3"/>
</linearGradient>
<clipPath id="clip0_2001_77">
<rect x="670" y="1" width="254" height="97" rx="10" fill="white"/>
</clipPath>
<clipPath id="clip1_2001_77">
<rect width="93.5135" height="96.8533" fill="white" transform="translate(830.26 36.6194) rotate(-49.02)"/>
</clipPath>
</defs>
</svg>
