<svg
            width="19"
            height="24"
            viewBox="0 0 19 24"
            fill="none"
            xmlns="http://www.w3.org/2000/svg"
          >
            <path
              d="M2.20833 8.375C1.05771 8.375 0.125 9.3125 0.125 10.4583V11.5V17.75V18.7917C0.125 19.9375 1.05771 20.875 2.20833 20.875H4.29167H14.7083H16.7917C17.9427 20.875 18.875 19.9375 18.875 18.7917V11.5V10.4583C18.875 9.3125 17.9427 8.375 16.7917 8.375H14.7083H2.20833Z"
              fill="#F1C40F"
            />
            <path
              d="M2.20833 11.5C1.05771 11.5 0.125 12.4375 0.125 13.5833V14.625V20.875V21.9167C0.125 23.0625 1.05771 24 2.20833 24H4.29167H14.7083H16.7917C17.9427 24 18.875 23.0625 18.875 21.9167V14.625V13.5833C18.875 12.4375 17.9427 11.5 16.7917 11.5H14.7083H2.20833Z"
              fill="#F39C12"
            />
            <path
              d="M9.50016 0.041748C5.47308 0.041748 2.2085 3.27091 2.2085 7.33341H5.3335C5.3335 5.04175 7.19902 3.16675 9.50016 3.16675C11.8012 3.16675 13.6668 5.04175 13.6668 7.33341H16.7918C16.7918 3.27091 13.5272 0.041748 9.50016 0.041748Z"
              fill="#BDC3C7"
            />
            <path
              d="M2.2085 13.5835V14.6252H16.7918V13.5835H2.2085ZM2.2085 15.6668V16.7085H16.7918V15.6668H2.2085ZM2.2085 17.7502V18.7918H16.7918V17.7502H2.2085ZM2.2085 19.8335V20.8752H16.7918V19.8335H2.2085Z"
              fill="#E67E22"
            />
            <path
              d="M2.2085 8.375V9.41667C2.2085 9.9375 2.90808 10.4583 3.771 10.4583C4.63391 10.4583 5.3335 9.9375 5.3335 9.41667V8.375C5.3335 8.89583 4.63391 9.41667 3.771 9.41667C2.90808 9.41667 2.2085 8.89583 2.2085 8.375Z"
              fill="#7F8C8D"
            />
            <path
              d="M13.6665 8.375V9.41667C13.6665 9.9375 14.3665 10.4583 15.229 10.4583C16.0915 10.4583 16.7915 9.9375 16.7915 9.41667V8.375C16.7915 8.89583 16.0915 9.41667 15.229 9.41667C14.3665 9.41667 13.6665 8.89583 13.6665 8.375Z"
              fill="#7F8C8D"
            />
            <path
              d="M9.50016 1.53906C9.13454 1.53906 8.77204 1.57427 8.4262 1.63667C8.16891 1.68312 7.91891 1.75427 7.67725 1.83208C7.4512 1.90479 7.23672 1.99469 7.0262 2.0925C6.91579 2.14375 6.80652 2.1975 6.70068 2.25521C6.56329 2.3301 6.43891 2.43042 6.31006 2.51562C6.18943 2.59531 6.06464 2.65542 5.95204 2.74354C5.80547 2.85781 5.66048 2.97385 5.52881 3.10156C5.49037 3.13927 5.46829 3.19302 5.4312 3.23177C5.25579 3.41344 5.0861 3.58135 4.94287 3.78521C4.79683 3.99281 4.6612 4.20865 4.55225 4.43625C4.54808 4.445 4.55641 4.4599 4.55225 4.46875C4.43652 4.71448 4.32735 4.98531 4.25933 5.25C3.99579 5.85875 3.27766 6.29167 2.43641 6.29167C2.37391 6.29167 2.34975 6.29354 2.3062 6.29167C2.29527 6.29125 2.2887 6.29312 2.2736 6.29167L2.2085 7.33333V8.375V9.41667H5.3335V8.375V7.33333C5.3335 7.04573 5.37568 6.75823 5.4312 6.48698C5.81964 4.58833 7.48662 3.16667 9.50016 3.16667C11.8012 3.16667 13.6668 5.03219 13.6668 7.33333V8.375V9.41667H16.7918V8.375V7.33333L16.7272 6.29167C16.7116 6.29312 16.7054 6.29125 16.6939 6.29167H16.5637C15.7231 6.29167 15.0043 5.85875 14.7408 5.25C14.6731 4.98531 14.5637 4.71448 14.4481 4.46875C14.4439 4.4599 14.4522 4.445 14.4481 4.43625C14.3387 4.20865 14.2033 3.99281 14.0575 3.78521C13.9137 3.58135 13.745 3.41344 13.5689 3.23177C13.5314 3.19219 13.5116 3.14 13.471 3.10156C13.3397 2.97385 13.195 2.85781 13.0481 2.74354C12.9397 2.65844 12.8064 2.59271 12.6897 2.51562C12.5627 2.43135 12.4356 2.32937 12.3002 2.25521C12.195 2.19792 12.0835 2.14333 11.9741 2.0925C11.7637 1.99469 11.5491 1.90479 11.3231 1.83208C11.0814 1.75427 10.8314 1.68312 10.5741 1.63667C10.2283 1.57427 9.86579 1.53906 9.50016 1.53906Z"
              fill="#95A5A6"
            />
          </svg>