<svg width="1512" height="196" viewBox="0 0 1512 196" fill="none" xmlns="http://www.w3.org/2000/svg">
<g filter="url(#filter0_d_1061_1650)">
<path d="M765.863 137.889L769.287 130.184L781.095 130.184L792.785 130.184L784.047 137.6C775.191 145.016 776.372 144.438 788.77 135.096L795.265 130.184L807.072 130.28C818.172 130.28 818.644 130.376 815.574 131.725C813.803 132.495 812.386 133.362 812.386 133.651C812.386 133.94 814.275 133.266 816.637 132.206C821.36 129.895 817.345 130.087 872.606 130.28C884.65 130.376 895.514 130.376 896.813 130.376C898.111 130.376 914.052 130.376 932.236 130.376C950.42 130.376 966.597 130.472 968.25 130.376C969.903 130.376 993.755 130.28 1021.39 130.087L1071.57 129.798L1029.06 129.22C1005.68 128.931 987.852 128.546 989.505 128.45C991.158 128.257 991.866 127.968 991.276 127.679C990.567 127.487 985.018 127.872 978.759 128.546C965.298 129.895 908.739 129.702 911.572 128.257C913.816 127.101 913.698 127.101 903.897 128.546C898.82 129.22 888.311 129.606 876.739 129.413C859.263 129.124 858.083 129.028 860.798 127.679C862.806 126.716 862.924 126.427 861.389 126.813C853.95 128.931 850.171 129.22 837.773 129.028L823.958 128.739L839.308 121.804L854.54 114.773L876.267 114.869L897.993 114.869L881.108 120.263C871.898 123.249 864.459 125.849 864.695 126.042C864.931 126.235 873.551 123.73 883.942 120.552L902.717 114.773L935.542 114.966L968.368 115.255L941.092 120.937C926.214 124.116 914.17 126.813 914.406 127.005C914.643 127.198 928.576 124.597 945.461 121.13L976.162 114.773L1026.23 114.869L1076.29 114.966L1034.49 120.841C1011.47 124.116 993.283 126.909 993.874 127.005C994.582 127.198 1015.84 124.501 1041.11 121.034L1087.16 114.773L1162.02 114.966L1236.88 115.255L1213.85 117.374C1144.19 123.73 1111.95 126.813 1114.08 127.101C1115.38 127.198 1147.38 124.501 1185.16 121.034L1253.77 114.773L1367.59 114.869C1430.18 114.966 1480.24 115.158 1478.94 115.351C1477.64 115.447 1441.98 117.663 1399.83 120.263C1357.56 122.767 1324.49 124.983 1326.15 125.175C1327.92 125.368 1351.3 124.116 1378.1 122.478C1473.16 116.699 1489.69 115.736 1500.55 115.158C1529.24 113.425 1501.97 112.847 1395.34 112.751C1294.5 112.654 1281.04 112.462 1292.38 111.402C1326.97 108.031 1507.87 91.6576 1509.52 91.6576C1510.59 91.6576 1511.41 91.2723 1511.41 90.6944C1511.41 90.0202 1470.91 89.7313 1392.39 89.635C1326.97 89.635 1273.96 89.4423 1274.67 89.2497C1276.08 88.7681 1508.23 56.9842 1510.12 56.9842C1510.82 56.9842 1511.41 56.31 1511.41 55.5395C1511.41 54.2874 1497.13 54.0947 1392.51 53.9021C1279.98 53.6132 1273.96 53.5168 1281.16 52.0721C1285.41 51.2053 1338.66 40.2254 1399.48 27.7044C1460.29 15.1835 1510.47 4.9741 1510.82 4.9741C1511.18 4.9741 1511.41 4.10726 1511.41 3.0478C1511.41 1.1215 1510.47 1.1215 1391.92 0.928857L1272.3 0.639904L1280.57 -1.9606C1285.17 -3.40533 1299.93 -8.02844 1313.63 -12.17C1359.33 -26.232 1419.55 -44.9171 1462.41 -58.1122C1485.79 -65.4322 1506.34 -71.789 1508.11 -72.2705C1510.71 -73.0411 1511.41 -73.8116 1511.41 -76.0268L1511.41 -78.82L1394.4 -79.0126L1277.38 -79.3015L1393.93 -132.756L1510.35 -186.211L1501.14 -186.5L1491.93 -186.789L1377.39 -132.756L1262.86 -78.82L1167.45 -78.82C1082.79 -78.82 1067.67 -79.1089 1073.1 -80.9389C1073.7 -81.0352 1103.33 -103.38 1138.99 -130.349C1174.65 -157.413 1205.94 -181.203 1208.54 -183.129L1213.26 -186.596L1203.23 -186.596L1193.19 -186.596L1125.3 -132.756L1057.4 -78.82L961.284 -78.82C870.363 -78.82 865.285 -78.9163 866.112 -80.4574C866.584 -81.4205 877.211 -104.729 889.846 -132.275C902.48 -159.821 913.344 -183.322 913.934 -184.478C914.997 -186.693 914.997 -186.693 905.196 -186.693L895.159 -186.693L875.795 -138.343C865.049 -111.663 855.367 -87.392 854.186 -84.31L852.061 -78.82L755.708 -78.82L659.356 -78.82L657.23 -84.31C656.049 -87.392 646.367 -111.663 635.622 -138.246L616.257 -186.693L606.22 -186.693C600.67 -186.693 596.419 -186.404 596.656 -185.922C597.01 -185.537 607.873 -162.036 620.862 -133.72C633.851 -105.403 644.832 -81.4205 645.304 -80.4574C646.131 -78.9163 641.053 -78.82 550.132 -78.82L454.016 -78.82L386.121 -132.756L318.225 -186.597L308.189 -186.597L298.152 -186.597L305.591 -181.107C336.409 -158.184 439.138 -80.0721 439.138 -79.4942C439.256 -79.109 396.394 -78.82 343.848 -78.82L248.559 -78.82L134.022 -132.756L19.4852 -186.789L10.2751 -186.5L1.06492 -186.211L117.491 -132.756L234.035 -79.3016L117.019 -79.0127L0.00219332 -78.8201L0.00219302 -76.0269C0.00219279 -73.8117 0.710667 -73.0412 3.19033 -72.2706C5.07959 -71.7891 39.6768 -61.0018 80.2959 -48.4808C120.915 -35.9599 165.785 -22.0905 180.073 -17.66C194.36 -13.2295 213.135 -7.45063 221.873 -4.75381C230.611 -2.05699 238.05 0.350885 238.286 0.63983C238.64 0.928775 185.15 1.1214 119.498 1.1214C0.828738 1.12139 0.00218476 1.12139 0.00218455 3.04769C0.00218444 4.10715 0.238342 4.97399 0.59258 4.97399C0.946817 4.97399 51.1304 15.1834 111.941 27.7043C172.752 40.2253 226.005 51.2052 230.256 52.072C237.459 53.5168 231.437 53.6131 118.908 53.902C14.2897 54.0946 0.00217906 54.2873 0.00217892 55.5394C0.00217884 56.3099 0.592574 56.9841 1.30105 56.9841C3.30839 56.9841 235.334 88.7681 236.751 89.2496C237.341 89.4423 184.442 89.6349 118.908 89.6349C40.5033 89.7312 0.00217523 90.0201 0.00217516 90.6943C0.00217509 91.2722 0.828728 91.6575 1.89144 91.6575C3.54455 91.6575 184.442 108.031 219.039 111.402C230.374 112.462 216.913 112.654 115.956 112.75C9.4485 112.847 -17.8278 113.425 10.8654 115.158C21.7287 115.736 38.2598 116.699 133.313 122.478C160.117 124.116 183.497 125.368 185.268 125.175C186.921 124.982 153.741 122.767 111.587 120.263C69.3146 117.663 33.7728 115.447 32.4739 115.351C31.175 115.158 81.2406 114.966 143.822 114.869L257.651 114.773L326.255 121.034C364.04 124.501 396.039 127.198 397.338 127.101C399.464 126.812 367.228 123.73 297.561 117.374L274.536 115.255L349.398 114.966L424.26 114.773L470.311 121.034C495.58 124.501 516.834 127.198 517.543 127.005C518.133 126.909 499.949 124.116 476.923 120.841L435.123 114.966L485.307 114.869L535.491 114.773L567.726 121.419C585.556 125.079 600.316 128.354 600.67 128.642C602.087 129.798 543.756 129.702 532.657 128.546C526.399 127.872 520.731 127.487 520.14 127.679C519.432 127.968 520.258 128.257 521.912 128.45C523.565 128.546 505.735 128.931 482.355 129.22L439.847 129.798L490.03 130.087C517.661 130.28 541.513 130.376 543.166 130.376C544.819 130.472 560.996 130.376 579.18 130.376C597.364 130.376 613.305 130.376 614.604 130.376C615.903 130.376 626.766 130.376 638.81 130.28C694.071 130.087 690.056 129.895 694.779 132.206C697.141 133.266 699.03 133.94 699.03 133.651C699.03 133.362 697.613 132.495 695.724 131.725C692.772 130.376 693.244 130.28 704.344 130.28L716.152 130.184L722.646 135.096C735.044 144.438 736.225 145.016 727.369 137.6L718.631 130.184L730.321 130.184L742.129 130.184L745.553 137.889C747.443 142.223 749.096 145.498 749.45 145.305C749.686 145.016 748.505 141.741 746.852 137.792C745.199 133.94 743.9 130.665 743.9 130.472C743.9 130.28 749.214 130.184 755.708 130.184C762.202 130.184 767.516 130.28 767.516 130.472C767.516 130.665 766.217 133.94 764.564 137.792C762.911 141.741 761.73 145.016 761.966 145.305C762.321 145.498 763.974 142.223 765.863 137.889ZM572.331 121.419L543.048 115.255L575.874 114.966L608.7 114.773L627.474 120.552C637.865 123.73 646.485 126.235 646.721 126.042C646.957 125.849 639.518 123.249 630.308 120.263L613.423 114.869L635.149 114.869L656.876 114.773L669.983 120.745C677.186 124.019 684.152 127.198 685.333 127.872C687.222 128.931 681.2 129.124 652.389 129.124C633.024 129.124 616.965 129.317 616.729 129.509C615.903 130.184 602.441 127.776 572.331 121.419ZM805.892 121.997L815.338 114.869L833.64 114.773L851.943 114.773L836.592 121.997L821.242 129.124L808.844 129.124L796.445 129.124L805.892 121.997ZM773.184 121.997L776.372 114.773L794.674 114.773L812.976 114.869L803.766 121.997L794.438 129.22L782.276 129.22L769.996 129.22L773.184 121.997ZM740.594 122.671C739.177 119.011 737.996 115.833 737.996 115.447C737.996 115.062 745.908 114.773 755.708 114.773C765.391 114.773 773.42 115.062 773.42 115.447C773.42 115.833 772.239 119.011 770.822 122.671L768.224 129.22L755.708 129.22L743.192 129.22L740.594 122.671ZM707.65 121.997L698.44 114.869L716.742 114.773L735.044 114.773L738.232 121.997L741.421 129.22L729.14 129.22L716.978 129.22L707.65 121.997ZM674.824 121.997L659.474 114.773L677.776 114.773L696.078 114.869L705.525 121.997L714.971 129.124L702.573 129.124L690.174 129.124L674.824 121.997ZM1112.31 111.402C1117.15 110.728 1151.39 106.009 1188.35 100.904L1255.54 91.6576L1370.78 91.7539L1486.03 91.8502L1457.1 94.6434C1441.16 96.0881 1418.84 98.207 1407.5 99.2665C1396.17 100.422 1363.22 103.408 1334.3 106.105C1305.37 108.705 1278.56 111.306 1274.67 111.787C1270.77 112.269 1230.62 112.558 1185.52 112.654C1114.67 112.654 1104.63 112.462 1112.31 111.402ZM1037.33 102.252L1088.1 91.6576L1164.85 91.7539L1241.6 91.8502L1222.71 94.547C1212.32 96.0881 1194.02 98.6886 1181.97 100.326C1169.93 101.963 1145.49 105.431 1127.66 108.031L1095.19 112.654L1040.87 112.654L986.553 112.751L1037.33 102.252ZM910.51 112.462C910.746 112.269 925.86 107.55 944.044 101.867L977.106 91.6576L1027.88 91.7539C1071.1 91.8502 1077.83 92.0428 1073.34 93.1023C1070.39 93.7765 1051.02 97.8217 1030.24 102.252C1009.46 106.586 990.095 110.728 987.143 111.402C983.483 112.269 970.848 112.654 945.933 112.751C926.214 112.751 910.274 112.654 910.51 112.462ZM859.736 112.462C859.972 112.269 870.245 107.55 882.525 101.867L904.724 91.6575L937.668 91.8502L970.612 92.1391L938.376 102.349L906.259 112.654L882.761 112.751C869.772 112.847 859.5 112.654 859.736 112.462ZM827.972 105.334C833.404 101.096 839.662 96.377 842.142 94.6433L846.393 91.6575L873.079 91.8502L899.883 92.1391L878.274 102.445L856.666 112.654L837.419 112.751L818.172 112.847L827.972 105.334ZM782.158 102.252L786.999 91.6575L814.63 91.6575L842.142 91.6575L828.799 102.252L815.338 112.751L796.327 112.847L777.317 112.847L782.158 102.252ZM732.447 102.734C730.321 97.4364 728.55 92.8133 728.55 92.4281C728.55 91.9465 740.712 91.6575 755.708 91.6575C770.586 91.6575 782.866 91.9465 782.866 92.2354C782.866 92.9096 775.663 111.209 774.955 112.173C774.719 112.558 765.863 112.751 755.354 112.654L736.343 112.365L732.447 102.734ZM682.617 102.252L669.274 91.6575L696.787 91.6575L724.417 91.6575L729.258 102.252L734.1 112.847L715.089 112.847L696.078 112.751L682.617 102.252ZM633.614 102.541L611.534 92.1391L638.338 91.8502L665.023 91.6575L669.274 94.6433C671.754 96.377 678.012 101.096 683.444 105.334L693.244 112.847L674.47 112.847L655.577 112.847L633.614 102.541ZM573.63 102.541L540.804 92.1391L573.748 91.8502L606.692 91.6575L628.891 101.867C641.171 107.55 651.444 112.269 651.68 112.462C651.917 112.654 641.88 112.847 629.364 112.847L606.456 112.847L573.63 102.541ZM522.738 111.017C518.133 109.957 498.296 105.816 478.813 101.674C459.33 97.629 441.027 93.7764 438.075 93.1022C433.588 92.0428 440.319 91.8501 483.536 91.7538L534.31 91.6575L567.372 101.867C585.556 107.55 600.67 112.269 600.906 112.462C601.143 112.654 585.674 112.847 566.309 112.847C535.491 112.847 530.295 112.654 522.738 111.017ZM363.922 105.142C333.575 100.904 300.041 96.1843 289.296 94.6433L269.813 91.8501L346.564 91.7538L423.316 91.6575L474.09 102.252L524.864 112.751L471.964 112.751L419.065 112.847L363.922 105.142ZM208.412 109.187C176.176 106.008 118.79 100.615 60.3406 95.3175L25.5073 92.1391L140.634 91.8501L255.643 91.6575L322.948 100.904C359.907 106.008 394.268 110.728 399.109 111.402C406.785 112.462 396.275 112.654 323.539 112.462L239.112 112.269L208.412 109.187ZM1100.62 89.346C1100.85 89.1534 1136.28 81.7371 1179.26 72.9725L1257.31 56.9842L1373.5 57.0805C1437.26 57.1768 1488.27 57.4658 1486.62 57.6584C1484.96 57.851 1433.48 65.171 1372.08 73.8393L1260.5 89.5386L1180.32 89.635C1136.16 89.7313 1100.38 89.5386 1100.62 89.346ZM989.505 88.0939C993.047 86.8418 1042.05 71.5277 1078.89 60.2589L1089.64 56.9842L1166.62 57.1768L1243.61 57.4657L1228.97 60.4515C1205.94 65.2673 1147.14 77.6919 1118.21 83.856L1091.64 89.5386L1038.51 89.5386C989.623 89.5386 985.726 89.4423 989.505 88.0939ZM910.746 89.1534C911.1 88.8644 926.923 81.4482 945.933 72.7798L980.413 56.9842L1030.36 57.1768L1080.43 57.4657L1029.89 73.5503L979.468 89.5386L944.753 89.6349C925.624 89.7313 910.274 89.4423 910.746 89.1534ZM851.352 87.4197C853.005 86.1676 862.688 78.8477 872.961 71.0461L891.617 56.9841L933.063 56.9842L974.627 56.9842L939.911 73.3577L905.078 89.7312L876.739 89.7312L848.4 89.7312L851.352 87.4197ZM788.77 88.8644C788.77 88.4791 791.958 81.1592 795.737 72.7798L802.704 57.4657L844.267 57.1768L885.831 56.9841L865.404 73.2614L844.858 89.6349L816.755 89.7312C801.405 89.7312 788.77 89.346 788.77 88.8644ZM721.347 74.6098C718.041 66.2304 714.971 58.8141 714.617 58.2362C714.262 57.2731 723 56.9841 755.708 56.9841C788.416 56.9841 797.154 57.2731 796.8 58.2362C796.445 58.8141 793.375 66.2304 790.069 74.6098L783.811 89.7312L755.708 89.7312L727.605 89.7312L721.347 74.6098ZM646.013 73.2614L625.585 56.9841L667.149 57.1768L708.713 57.4657L715.679 72.7798C719.458 81.1592 722.646 88.4791 722.646 88.8644C722.646 89.346 710.012 89.7312 694.543 89.7312L666.558 89.6349L646.013 73.2614ZM571.505 73.3577L536.79 56.9841L578.353 56.9841L619.799 56.9841L638.456 71.0461C648.728 78.8476 658.411 86.1676 660.064 87.4197L663.016 89.7312L634.677 89.7312L606.338 89.7312L571.505 73.3577ZM482.119 73.6466L430.991 57.4657L481.056 57.1768L531.004 56.9841L565.483 72.7798C584.493 81.4481 600.316 88.8644 600.67 89.1533C601.143 89.4423 586.029 89.7312 567.372 89.7312L533.247 89.7312L482.119 73.6466ZM393.442 83.856C378.091 80.5813 350.343 74.7061 331.804 70.8535C313.266 66.9046 291.303 62.2814 283.038 60.6441L267.805 57.4657L344.793 57.1767L421.781 56.9841L432.526 60.2588C469.366 71.5277 518.369 86.8418 521.912 88.0939C525.69 89.4423 521.912 89.5386 473.735 89.6349L421.544 89.7312L393.442 83.856ZM146.538 74.7061C87.7349 66.423 35.544 59.103 30.7027 58.4288C23.1457 57.3693 38.7321 57.1767 137.919 57.0804L254.108 56.9841L332.159 72.9724C375.139 81.7371 410.563 89.1533 410.799 89.346C411.035 89.5386 375.848 89.7312 332.395 89.7312L253.518 89.7312L146.538 74.7061ZM1102.27 53.2279C1105.93 51.9758 1152.93 37.4322 1205 21.3476C1230.98 13.3535 1253.53 6.4188 1255.18 5.93723C1257.07 5.26302 1300.52 5.0704 1374.44 5.16672L1490.63 5.45567L1480.12 7.5746C1474.22 8.82669 1460.17 11.7161 1448.83 14.124C1437.5 16.5319 1416.71 20.9624 1402.78 23.8518C1388.85 26.7413 1371.49 30.4012 1364.41 31.9423C1357.2 33.4833 1338.66 37.4322 1323.08 40.7069C1307.49 43.9817 1287.06 48.2195 1277.62 50.2421L1260.5 53.9021L1180.2 53.9984C1136.04 53.9984 1100.97 53.6131 1102.27 53.2279ZM988.914 53.2279C989.623 52.7463 1013.36 41.7664 1041.93 28.6676L1093.65 4.97407L1169.34 5.1667L1245.03 5.45565L1197.8 20.2882C1171.94 28.4749 1137.34 39.3585 1121.16 44.5595L1091.64 53.9984L1039.69 53.9984C1010.17 54.0947 988.324 53.7094 988.914 53.2279ZM899.174 51.3016C901.181 49.7605 915.705 38.6843 931.528 26.7412L960.339 4.97406L1022.45 4.97406C1059.88 4.97406 1083.85 5.35932 1082.79 5.93721C1081.84 6.41879 1058.46 17.3987 1030.83 30.4012L980.649 54.0947L938.14 54.0947L895.632 54.0947L899.174 51.3016ZM808.489 45.2337C810.733 40.3216 815.81 29.2454 819.707 20.6734L826.792 4.97405L889.019 4.97405L951.129 5.07037L920.428 29.5344L889.728 53.9984L847.101 54.0947L804.357 54.0947L808.489 45.2337ZM703.163 29.5344L693.599 5.45561L724.653 5.16667C741.775 5.07036 769.641 5.07036 786.763 5.16667L817.818 5.45562L808.608 28.5712C803.53 41.2848 799.161 52.2647 798.807 52.9389C798.453 53.9021 789.124 54.0947 755.59 53.9021L712.845 53.6131L703.163 29.5344ZM590.988 29.5344L560.287 5.07034L622.397 4.97403L684.625 4.97404L691.709 20.6734C695.606 29.2454 700.683 40.3216 702.927 45.2337L707.06 54.0947L664.315 54.0947L621.688 53.9984L590.988 29.5344ZM480.584 30.4012C452.953 17.3987 429.574 6.41874 428.629 5.93717C427.566 5.35928 451.536 4.97402 488.968 4.97402L551.077 4.97403L579.888 26.7412C595.711 38.6843 610.235 49.7605 612.242 51.3015L615.784 54.0947L573.276 54.0947L530.768 54.0947L480.584 30.4012ZM385.885 43.1148C366.874 37.1432 332.159 26.1633 308.897 18.8434L266.389 5.45558L342.077 5.16664L417.766 4.97402L469.484 28.6675C498.06 41.7664 521.794 52.7463 522.384 53.2278C523.092 53.7094 501.366 54.0947 472.082 54.0947L420.482 54.0947L385.885 43.1148ZM224.47 48.2194C209.12 45.041 189.519 40.8995 180.899 39.0695C147.483 32.0385 133.077 28.9564 108.635 23.8517C94.7016 20.9623 73.9197 16.5318 62.5841 14.1239C51.2485 11.716 37.1971 8.82659 31.2931 7.57449L20.7841 5.45556L136.974 5.16663C210.891 5.07032 254.344 5.26295 256.234 5.93716C257.887 6.41873 280.44 13.3534 306.417 21.3476C358.49 37.4322 405.486 51.9757 409.146 53.2278C410.445 53.6131 375.73 53.9983 331.922 53.9983L252.337 54.0947L224.47 48.2194ZM1104.63 0.254632C1105.34 -0.226943 1141.35 -16.8894 1184.81 -36.8266L1263.68 -73.0411L1377.87 -72.8484C1485.67 -72.5595 1491.69 -72.4632 1486.62 -70.9221C1481.42 -69.3811 1289.43 -8.70265 1269.35 -2.24955L1259.32 1.02516L1181.38 1.02516C1134.62 1.12147 1104.04 0.736207 1104.63 0.254632ZM967.07 -0.226953C968.014 -0.997473 990.095 -17.66 1016.07 -37.3082L1063.3 -73.0411L1156.59 -73.0411C1215.15 -73.0411 1249.16 -72.6558 1248.1 -72.0779C1247.15 -71.5963 1212.08 -54.9339 1170.17 -35.093L1094 0.928836L1029.65 1.02515C974.272 1.12146 965.653 0.928827 967.07 -0.226953ZM829.271 -0.034333C829.508 -0.708538 837.183 -17.4673 846.157 -37.1156L862.57 -73.0411L956.443 -73.0411L1050.32 -73.0411L1046.77 -70.3443C1044.77 -68.8032 1023.75 -52.1407 999.896 -33.263L956.561 1.12146L892.562 1.12145C841.906 1.12145 828.799 0.832502 829.271 -0.034333ZM676.949 -35.4783C669.038 -55.3192 662.426 -71.8853 662.426 -72.2706C662.426 -72.7522 704.344 -73.0411 755.708 -73.0411C806.954 -73.0411 848.991 -72.7522 848.991 -72.4632C848.991 -71.6927 820.534 -0.515909 819.825 0.447241C819.589 0.832501 790.541 1.02513 755.472 0.928812L691.473 0.639862L676.949 -35.4783ZM511.521 -33.263C487.669 -52.1408 466.651 -68.8033 464.643 -70.3443L461.101 -73.0411L554.974 -73.0411L648.847 -73.0411L665.26 -37.1156C674.234 -17.4674 681.909 -0.708548 682.145 -0.0343435C682.617 0.832492 669.51 1.12144 618.854 1.12143L554.856 1.12143L511.521 -33.263ZM343.494 -34.1299C302.285 -53.4892 266.979 -70.1517 265.09 -71.2112C261.547 -72.9448 262.728 -73.0411 354.83 -73.0411L448.112 -73.0411L495.344 -37.3083C521.321 -17.66 543.402 -0.997503 544.347 -0.226983C545.764 0.928797 537.38 1.12143 482.119 1.12142L418.356 1.12142L343.494 -34.1299ZM213.489 -11.3032C65.5361 -58.1123 29.522 -69.5738 24.7988 -70.9222C19.7214 -72.4633 25.8615 -72.5596 133.55 -72.8485L247.732 -73.0411L326.609 -36.8267C370.062 -16.8895 406.076 -0.226993 406.666 0.254582C407.375 0.736157 377.029 1.12141 330.269 1.12141L252.809 1.12141L213.489 -11.3032Z" fill="#F200F2" fill-opacity="0.05"/>
<path d="M1483.31 186.809C1478.71 186.616 1470.91 186.616 1466.19 186.809C1461.58 186.905 1465.36 187.097 1474.81 187.097C1484.26 187.097 1488.03 186.905 1483.31 186.809Z" fill="#F200F2" fill-opacity="0.05"/>
<path d="M1230.03 186.809C1228.26 186.616 1225.42 186.616 1223.54 186.809C1221.76 187.001 1223.3 187.194 1226.84 187.194C1230.38 187.194 1231.92 187.001 1230.03 186.809Z" fill="#F200F2" fill-opacity="0.05"/>
<path d="M774 186.527C774.354 185.95 773.881 185.853 772.937 186.142C770.811 186.816 770.457 187.491 772.11 187.491C772.819 187.491 773.645 187.105 774 186.527Z" fill="#F200F2" fill-opacity="0.05"/>
<path d="M740.352 187.105C740.352 186.913 739.525 186.431 738.462 186.142C737.518 185.853 737.045 185.95 737.4 186.527C738.108 187.491 740.352 187.876 740.352 187.105Z" fill="#F200F2" fill-opacity="0.05"/>
<path d="M287.764 186.809C285.993 186.616 283.159 186.616 281.269 186.809C279.498 187.001 281.033 187.194 284.576 187.194C288.118 187.194 289.653 187.001 287.764 186.809Z" fill="#F200F2" fill-opacity="0.05"/>
<path d="M45.0994 186.809C40.4943 186.616 32.7011 186.616 27.978 186.809C23.3729 186.905 27.1514 187.097 36.5977 187.097C46.0441 187.097 49.8226 186.905 45.0994 186.809Z" fill="#F200F2" fill-opacity="0.05"/>
<path d="M651.791 167.26C650.846 166.778 649.429 166.297 648.839 166.297C648.13 166.297 648.485 166.778 649.429 167.26C650.374 167.742 651.673 168.223 652.381 168.223C652.972 168.223 652.735 167.742 651.791 167.26Z" fill="#F200F2" fill-opacity="0.05"/>
<path d="M1496.29 180.074C1491.69 179.882 1483.9 179.882 1479.17 180.074C1474.57 180.17 1478.35 180.363 1487.79 180.363C1497.24 180.363 1501.02 180.17 1496.29 180.074Z" fill="#F200F2" fill-opacity="0.05"/>
<path d="M1244.2 180.074C1241.13 179.882 1236.29 179.882 1233.57 180.074C1230.86 180.267 1233.34 180.363 1239.24 180.363C1245.03 180.363 1247.27 180.267 1244.2 180.074Z" fill="#F200F2" fill-opacity="0.05"/>
<path d="M1079.47 180.074C1077.35 179.882 1074.16 179.882 1072.39 180.074C1070.62 180.267 1072.39 180.459 1076.29 180.459C1080.18 180.459 1081.6 180.267 1079.47 180.074Z" fill="#F200F2" fill-opacity="0.05"/>
<path d="M970.842 180.074C969.425 179.882 967.063 179.882 965.528 180.074C964.111 180.267 965.292 180.459 968.244 180.459C971.196 180.459 972.377 180.267 970.842 180.074Z" fill="#F200F2" fill-opacity="0.05"/>
<path d="M898.809 180.074C898.1 179.882 896.683 179.882 895.857 180.074C895.148 180.363 895.739 180.556 897.392 180.556C899.045 180.556 899.635 180.363 898.809 180.074Z" fill="#F200F2" fill-opacity="0.05"/>
<path d="M850.404 180.073C849.577 179.784 848.515 179.88 848.16 180.169C847.688 180.458 848.396 180.747 849.695 180.651C850.994 180.651 851.348 180.362 850.404 180.073Z" fill="#F200F2" fill-opacity="0.05"/>
<path d="M800.572 179.783C801.517 179.302 801.753 178.82 801.162 178.82C800.454 178.82 799.155 179.302 798.211 179.783C797.266 180.265 796.912 180.747 797.62 180.747C798.211 180.747 799.627 180.265 800.572 179.783Z" fill="#F200F2" fill-opacity="0.05"/>
<path d="M713.189 179.783C712.245 179.302 710.828 178.82 710.237 178.82C709.529 178.82 709.883 179.302 710.828 179.783C711.772 180.265 713.071 180.747 713.78 180.747C714.37 180.747 714.134 180.265 713.189 179.783Z" fill="#F200F2" fill-opacity="0.05"/>
<path d="M662.654 180.073C661.827 179.784 660.765 179.88 660.41 180.169C659.938 180.458 660.646 180.747 661.945 180.651C663.244 180.651 663.598 180.362 662.654 180.073Z" fill="#F200F2" fill-opacity="0.05"/>
<path d="M615.426 180.074C614.717 179.882 613.301 179.882 612.474 180.074C611.765 180.363 612.356 180.556 614.009 180.556C615.662 180.556 616.253 180.363 615.426 180.074Z" fill="#F200F2" fill-opacity="0.05"/>
<path d="M545.756 180.074C544.339 179.882 541.977 179.882 540.442 180.074C539.025 180.267 540.206 180.459 543.158 180.459C546.11 180.459 547.291 180.267 545.756 180.074Z" fill="#F200F2" fill-opacity="0.05"/>
<path d="M438.302 180.074C436.176 179.882 432.988 179.882 431.217 180.074C429.446 180.267 431.217 180.459 435.114 180.459C439.01 180.459 440.427 180.267 438.302 180.074Z" fill="#F200F2" fill-opacity="0.05"/>
<path d="M277.131 180.074C274.061 179.882 269.22 179.882 266.504 180.074C263.788 180.267 266.268 180.363 272.172 180.363C277.958 180.363 280.201 180.267 277.131 180.074Z" fill="#F200F2" fill-opacity="0.05"/>
<path d="M32.1151 180.074C27.51 179.882 19.7168 179.882 14.9936 180.074C10.3885 180.17 14.167 180.363 23.6134 180.363C33.0597 180.363 36.8382 180.17 32.1151 180.074Z" fill="#F200F2" fill-opacity="0.05"/>
<path d="M1277.26 179.113C1274.19 178.921 1269.23 178.921 1266.04 179.113C1262.97 179.306 1265.57 179.402 1271.71 179.402C1277.85 179.402 1280.44 179.306 1277.26 179.113Z" fill="#F200F2" fill-opacity="0.05"/>
<path d="M1100.73 179.113C1098.61 178.921 1095.42 178.921 1093.65 179.113C1091.88 179.306 1093.65 179.498 1097.54 179.498C1101.44 179.498 1102.86 179.306 1100.73 179.113Z" fill="#F200F2" fill-opacity="0.05"/>
<path d="M985.022 179.113C983.605 178.921 981.243 178.921 979.708 179.113C978.291 179.306 979.472 179.498 982.424 179.498C985.376 179.498 986.557 179.306 985.022 179.113Z" fill="#F200F2" fill-opacity="0.05"/>
<path d="M907.665 179.113C906.602 178.921 904.949 178.921 904.123 179.113C903.414 179.402 904.241 179.595 906.248 179.595C908.137 179.595 908.846 179.402 907.665 179.113Z" fill="#F200F2" fill-opacity="0.05"/>
<path d="M857.488 179.113C856.78 178.921 855.363 178.921 854.536 179.113C853.828 179.402 854.418 179.595 856.072 179.595C857.725 179.595 858.315 179.402 857.488 179.113Z" fill="#F200F2" fill-opacity="0.05"/>
<path d="M823.24 179.112C822.413 178.823 821.35 178.919 820.996 179.208C820.524 179.497 821.232 179.786 822.531 179.69C823.83 179.69 824.184 179.401 823.24 179.112Z" fill="#F200F2" fill-opacity="0.05"/>
<path d="M689.818 179.112C688.991 178.823 687.929 178.919 687.574 179.208C687.102 179.497 687.811 179.786 689.109 179.69C690.408 179.69 690.762 179.401 689.818 179.112Z" fill="#F200F2" fill-opacity="0.05"/>
<path d="M656.754 179.113C656.046 178.921 654.629 178.921 653.802 179.113C653.094 179.402 653.684 179.595 655.337 179.595C656.99 179.595 657.581 179.402 656.754 179.113Z" fill="#F200F2" fill-opacity="0.05"/>
<path d="M606.571 179.113C605.508 178.921 603.855 178.921 603.029 179.113C602.32 179.402 603.147 179.595 605.154 179.595C607.043 179.595 607.752 179.402 606.571 179.113Z" fill="#F200F2" fill-opacity="0.05"/>
<path d="M531.592 179.113C530.175 178.921 527.813 178.921 526.278 179.113C524.861 179.306 526.042 179.498 528.994 179.498C531.946 179.498 533.127 179.306 531.592 179.113Z" fill="#F200F2" fill-opacity="0.05"/>
<path d="M417.052 179.113C414.926 178.921 411.738 178.921 409.967 179.113C408.196 179.306 409.967 179.498 413.864 179.498C417.76 179.498 419.177 179.306 417.052 179.113Z" fill="#F200F2" fill-opacity="0.05"/>
<path d="M245.249 179.113C242.178 178.921 237.219 178.921 234.031 179.113C230.961 179.306 233.559 179.402 239.699 179.402C245.839 179.402 248.437 179.306 245.249 179.113Z" fill="#F200F2" fill-opacity="0.05"/>
<path d="M1319.76 177.191C1318.7 176.999 1316.81 176.999 1315.63 177.191C1314.57 177.48 1315.51 177.673 1317.75 177.673C1320 177.673 1320.94 177.48 1319.76 177.191Z" fill="#F200F2" fill-opacity="0.05"/>
<path d="M1129.07 177.182C1128.24 176.893 1127.18 176.99 1126.82 177.279C1126.35 177.568 1127.06 177.856 1128.36 177.76C1129.66 177.76 1130.01 177.471 1129.07 177.182Z" fill="#F200F2" fill-opacity="0.05"/>
<path d="M1003.9 177.182C1003.08 176.893 1002.01 176.99 1001.66 177.279C1001.19 177.568 1001.9 177.856 1003.2 177.76C1004.49 177.76 1004.85 177.471 1003.9 177.182Z" fill="#F200F2" fill-opacity="0.05"/>
<path d="M509.154 177.182C508.327 176.893 507.265 176.99 506.91 177.279C506.438 177.568 507.146 177.856 508.445 177.76C509.744 177.76 510.098 177.471 509.154 177.182Z" fill="#F200F2" fill-opacity="0.05"/>
<path d="M383.99 177.182C383.163 176.893 382.1 176.99 381.746 177.279C381.274 177.568 381.982 177.856 383.281 177.76C384.58 177.76 384.934 177.471 383.99 177.182Z" fill="#F200F2" fill-opacity="0.05"/>
<path d="M195.661 177.191C194.598 176.999 192.709 176.999 191.528 177.191C190.465 177.48 191.41 177.673 193.653 177.673C195.897 177.673 196.841 177.48 195.661 177.191Z" fill="#F200F2" fill-opacity="0.05"/>
<path d="M1337.48 176.223C1336.42 176.03 1334.53 176.03 1333.35 176.223C1332.29 176.512 1333.23 176.704 1335.47 176.704C1337.72 176.704 1338.66 176.512 1337.48 176.223Z" fill="#F200F2" fill-opacity="0.05"/>
<path d="M1142.06 176.223C1141.35 176.03 1139.93 176.03 1139.11 176.223C1138.4 176.512 1138.99 176.704 1140.64 176.704C1142.29 176.704 1142.89 176.512 1142.06 176.223Z" fill="#F200F2" fill-opacity="0.05"/>
<path d="M372.184 176.223C371.475 176.03 370.058 176.03 369.232 176.223C368.523 176.512 369.114 176.704 370.767 176.704C372.42 176.704 373.01 176.512 372.184 176.223Z" fill="#F200F2" fill-opacity="0.05"/>
<path d="M177.942 176.223C176.879 176.03 174.99 176.03 173.809 176.223C172.746 176.512 173.691 176.704 175.934 176.704C178.178 176.704 179.123 176.512 177.942 176.223Z" fill="#F200F2" fill-opacity="0.05"/>
<path d="M1367.01 175.254C1365.23 175.061 1362.64 175.061 1361.1 175.254C1359.68 175.446 1361.1 175.639 1364.41 175.639C1367.6 175.639 1368.9 175.446 1367.01 175.254Z" fill="#F200F2" fill-opacity="0.05"/>
<path d="M1160.95 175.254C1160.24 175.061 1158.82 175.061 1158 175.254C1157.29 175.543 1157.88 175.735 1159.53 175.735C1161.19 175.735 1161.78 175.543 1160.95 175.254Z" fill="#F200F2" fill-opacity="0.05"/>
<path d="M1025.16 175.254C1024.45 175.061 1023.03 175.061 1022.21 175.254C1021.5 175.543 1022.09 175.735 1023.74 175.735C1025.4 175.735 1025.99 175.543 1025.16 175.254Z" fill="#F200F2" fill-opacity="0.05"/>
<path d="M489.074 175.254C488.366 175.061 486.949 175.061 486.122 175.254C485.414 175.543 486.004 175.735 487.657 175.735C489.311 175.735 489.901 175.543 489.074 175.254Z" fill="#F200F2" fill-opacity="0.05"/>
<path d="M353.884 175.254C352.821 175.061 351.168 175.061 350.341 175.254C349.633 175.543 350.459 175.735 352.467 175.735C354.356 175.735 355.064 175.543 353.884 175.254Z" fill="#F200F2" fill-opacity="0.05"/>
<path d="M149.607 175.254C147.836 175.061 145.239 175.061 143.703 175.254C142.287 175.446 143.703 175.639 147.01 175.639C150.198 175.639 151.497 175.446 149.607 175.254Z" fill="#F200F2" fill-opacity="0.05"/>
<path d="M1387.08 174.293C1385.3 174.1 1382.71 174.1 1381.17 174.293C1379.76 174.486 1381.17 174.678 1384.48 174.678C1387.67 174.678 1388.97 174.486 1387.08 174.293Z" fill="#F200F2" fill-opacity="0.05"/>
<path d="M1173.34 174.293C1172.28 174.1 1170.63 174.1 1169.8 174.293C1169.09 174.582 1169.92 174.774 1171.93 174.774C1173.82 174.774 1174.53 174.582 1173.34 174.293Z" fill="#F200F2" fill-opacity="0.05"/>
<path d="M1034.02 174.293C1032.96 174.1 1031.31 174.1 1030.48 174.293C1029.77 174.582 1030.6 174.774 1032.61 174.774C1034.5 174.774 1035.21 174.582 1034.02 174.293Z" fill="#F200F2" fill-opacity="0.05"/>
<path d="M940.138 174.292C939.312 174.003 938.249 174.099 937.895 174.388C937.422 174.677 938.131 174.966 939.43 174.87C940.729 174.87 941.083 174.581 940.138 174.292Z" fill="#F200F2" fill-opacity="0.05"/>
<path d="M572.919 174.292C572.093 174.003 571.03 174.099 570.676 174.388C570.204 174.677 570.912 174.966 572.211 174.87C573.51 174.87 573.864 174.581 572.919 174.292Z" fill="#F200F2" fill-opacity="0.05"/>
<path d="M480.227 174.293C479.165 174.1 477.512 174.1 476.685 174.293C475.977 174.582 476.803 174.774 478.81 174.774C480.7 174.774 481.408 174.582 480.227 174.293Z" fill="#F200F2" fill-opacity="0.05"/>
<path d="M340.891 174.293C339.829 174.1 338.176 174.1 337.349 174.293C336.641 174.582 337.467 174.774 339.475 174.774C341.364 174.774 342.072 174.582 340.891 174.293Z" fill="#F200F2" fill-opacity="0.05"/>
<path d="M129.529 174.293C127.758 174.1 125.16 174.1 123.625 174.293C122.208 174.486 123.625 174.678 126.932 174.678C130.12 174.678 131.419 174.486 129.529 174.293Z" fill="#F200F2" fill-opacity="0.05"/>
<path d="M1415.41 173.332C1413.64 173.139 1410.81 173.139 1408.92 173.332C1407.15 173.525 1408.68 173.717 1412.22 173.717C1415.77 173.717 1417.3 173.525 1415.41 173.332Z" fill="#F200F2" fill-opacity="0.05"/>
<path d="M1191.65 173.332C1190.23 173.139 1188.11 173.139 1186.93 173.332C1185.87 173.621 1187.05 173.814 1189.64 173.717C1192.24 173.717 1193.19 173.525 1191.65 173.332Z" fill="#F200F2" fill-opacity="0.05"/>
<path d="M1045.82 173.332C1044.76 173.139 1043.11 173.139 1042.28 173.332C1041.57 173.621 1042.4 173.814 1044.4 173.814C1046.29 173.814 1047 173.621 1045.82 173.332Z" fill="#F200F2" fill-opacity="0.05"/>
<path d="M948.412 173.339C947.585 173.05 946.522 173.146 946.168 173.435C945.696 173.724 946.404 174.013 947.703 173.916C949.002 173.916 949.356 173.627 948.412 173.339Z" fill="#F200F2" fill-opacity="0.05"/>
<path d="M564.654 173.339C563.827 173.05 562.765 173.146 562.41 173.435C561.938 173.724 562.646 174.013 563.945 173.916C565.244 173.916 565.598 173.627 564.654 173.339Z" fill="#F200F2" fill-opacity="0.05"/>
<path d="M468.415 173.332C467.352 173.139 465.699 173.139 464.873 173.332C464.164 173.621 464.991 173.814 466.998 173.814C468.887 173.814 469.596 173.621 468.415 173.332Z" fill="#F200F2" fill-opacity="0.05"/>
<path d="M323.768 173.332C322.352 173.139 320.226 173.139 319.045 173.332C317.983 173.621 319.163 173.814 321.761 173.717C324.359 173.717 325.304 173.525 323.768 173.332Z" fill="#F200F2" fill-opacity="0.05"/>
<path d="M102.373 173.332C100.602 173.139 97.768 173.139 95.8788 173.332C94.1076 173.525 95.6426 173.717 99.185 173.717C102.727 173.717 104.262 173.525 102.373 173.332Z" fill="#F200F2" fill-opacity="0.05"/>
<path d="M1437.37 172.371C1435.24 172.178 1431.47 172.178 1429.1 172.371C1426.62 172.564 1428.28 172.756 1432.88 172.756C1437.37 172.756 1439.38 172.564 1437.37 172.371Z" fill="#F200F2" fill-opacity="0.05"/>
<path d="M1205.82 172.371C1204.41 172.178 1202.28 172.178 1201.1 172.371C1200.04 172.66 1201.22 172.853 1203.82 172.756C1206.41 172.756 1207.36 172.564 1205.82 172.371Z" fill="#F200F2" fill-opacity="0.05"/>
<path d="M1055.27 172.371C1054.2 172.178 1052.55 172.178 1051.72 172.371C1051.02 172.66 1051.84 172.853 1053.85 172.853C1055.74 172.853 1056.45 172.66 1055.27 172.371Z" fill="#F200F2" fill-opacity="0.05"/>
<path d="M954.318 172.37C953.491 172.081 952.429 172.177 952.074 172.466C951.602 172.755 952.311 173.044 953.609 172.948C954.908 172.948 955.262 172.659 954.318 172.37Z" fill="#F200F2" fill-opacity="0.05"/>
<path d="M888.185 172.37C887.359 172.081 886.296 172.177 885.942 172.466C885.469 172.755 886.178 173.044 887.477 172.948C888.775 172.948 889.13 172.659 888.185 172.37Z" fill="#F200F2" fill-opacity="0.05"/>
<path d="M624.873 172.37C624.046 172.081 622.983 172.177 622.629 172.466C622.157 172.755 622.865 173.044 624.164 172.948C625.463 172.948 625.817 172.659 624.873 172.37Z" fill="#F200F2" fill-opacity="0.05"/>
<path d="M558.748 172.37C557.921 172.081 556.858 172.177 556.504 172.466C556.032 172.755 556.74 173.044 558.039 172.948C559.338 172.948 559.692 172.659 558.748 172.37Z" fill="#F200F2" fill-opacity="0.05"/>
<path d="M458.97 172.371C457.907 172.178 456.254 172.178 455.427 172.371C454.719 172.66 455.545 172.853 457.553 172.853C459.442 172.853 460.15 172.66 458.97 172.371Z" fill="#F200F2" fill-opacity="0.05"/>
<path d="M309.604 172.371C308.187 172.178 306.062 172.178 304.881 172.371C303.819 172.66 304.999 172.853 307.597 172.756C310.195 172.756 311.139 172.564 309.604 172.371Z" fill="#F200F2" fill-opacity="0.05"/>
<path d="M83.0104 172.371C80.885 172.178 77.1065 172.178 74.7449 172.371C72.2652 172.564 73.9183 172.756 78.5234 172.756C83.0104 172.756 85.0178 172.564 83.0104 172.371Z" fill="#F200F2" fill-opacity="0.05"/>
<path d="M1462.05 171.41C1459.33 171.217 1455.08 171.217 1452.6 171.41C1450.24 171.603 1452.48 171.795 1457.68 171.795C1462.87 171.795 1464.88 171.603 1462.05 171.41Z" fill="#F200F2" fill-opacity="0.05"/>
<path d="M1224.12 171.41C1222.34 171.217 1219.75 171.217 1218.21 171.41C1216.79 171.603 1218.21 171.795 1221.52 171.795C1224.71 171.795 1226 171.603 1224.12 171.41Z" fill="#F200F2" fill-opacity="0.05"/>
<path d="M1067.08 171.41C1066.02 171.217 1064.13 171.217 1062.95 171.41C1061.89 171.699 1062.83 171.892 1065.08 171.892C1067.32 171.892 1068.26 171.699 1067.08 171.41Z" fill="#F200F2" fill-opacity="0.05"/>
<path d="M962.574 171.41C961.866 171.217 960.449 171.217 959.622 171.41C958.914 171.699 959.504 171.892 961.157 171.892C962.811 171.892 963.401 171.699 962.574 171.41Z" fill="#F200F2" fill-opacity="0.05"/>
<path d="M551.66 171.41C550.952 171.217 549.535 171.217 548.708 171.41C548 171.699 548.59 171.892 550.243 171.892C551.896 171.892 552.487 171.699 551.66 171.41Z" fill="#F200F2" fill-opacity="0.05"/>
<path d="M448.34 171.41C447.278 171.217 445.388 171.217 444.207 171.41C443.145 171.699 444.089 171.892 446.333 171.892C448.576 171.892 449.521 171.699 448.34 171.41Z" fill="#F200F2" fill-opacity="0.05"/>
<path d="M292.475 171.41C290.703 171.217 288.106 171.217 286.571 171.41C285.154 171.603 286.571 171.795 289.877 171.795C293.065 171.795 294.364 171.603 292.475 171.41Z" fill="#F200F2" fill-opacity="0.05"/>
<path d="M58.0859 171.41C55.3701 171.217 51.1193 171.217 48.6396 171.41C46.278 171.603 48.5215 171.795 53.717 171.795C58.9125 171.795 60.9198 171.603 58.0859 171.41Z" fill="#F200F2" fill-opacity="0.05"/>
<path d="M1498.42 170.153L1512 169.575L1494.88 169.382C1485.43 169.286 1476.93 169.671 1475.99 170.153C1474.1 171.212 1474.69 171.212 1498.42 170.153Z" fill="#F200F2" fill-opacity="0.05"/>
<path d="M1238.76 170.732C1239.24 170.346 1291.78 169.961 1355.66 169.865L1471.85 169.672L1376.21 169.191C1323.54 168.902 1282.45 168.42 1284.7 168.131C1286.94 167.842 1283.75 167.746 1277.61 167.939C1271.47 168.227 1258.72 168.709 1249.39 168.998C1225.89 169.961 1102.62 169.191 1106.99 168.131C1109.82 167.457 1109.35 167.457 1104.86 167.746C1101.79 168.035 1093.41 168.516 1086.21 168.805C1079.12 169.191 1072.98 169.961 1072.51 170.443C1072.04 171.117 1073.22 171.213 1075.81 170.732C1080.66 169.961 1225.18 169.961 1232.74 170.732C1235.69 171.021 1238.41 171.021 1238.76 170.732Z" fill="#F200F2" fill-opacity="0.05"/>
<path d="M438.898 170.443C438.426 169.961 432.286 169.191 425.201 168.805C417.998 168.516 409.614 168.035 406.544 167.746C402.057 167.457 401.585 167.457 404.419 168.131C408.788 169.191 285.513 169.961 262.016 168.998C252.687 168.709 239.935 168.227 233.795 167.939C227.655 167.746 224.467 167.842 226.71 168.131C228.954 168.42 187.744 168.902 135.199 169.191L39.5547 169.672L155.272 170.057C218.917 170.25 273.115 170.443 275.713 170.443C278.311 170.443 314.443 170.346 356.007 170.25C397.57 170.154 433.348 170.346 435.592 170.732C438.19 171.213 439.37 171.117 438.898 170.443Z" fill="#F200F2" fill-opacity="0.05"/>
<path d="M35.422 170.155C33.7689 169.288 -1.0644 168.71 0.116388 169.577C0.352546 169.77 8.85424 170.155 18.891 170.444C30.6989 170.829 36.6028 170.733 35.422 170.155Z" fill="#F200F2" fill-opacity="0.05"/>
<path d="M1314.8 166.299L1323.07 165.721L1315.99 165.625C1312.09 165.625 1305.12 165.914 1300.64 166.299L1292.37 166.973L1299.45 166.973C1303.35 166.973 1310.2 166.684 1314.8 166.299Z" fill="#F200F2" fill-opacity="0.05"/>
<path d="M210.767 166.299C206.162 165.914 199.314 165.625 195.417 165.625L188.332 165.625L197.188 166.299C202.029 166.684 208.996 166.973 212.538 166.973C218.797 166.973 218.797 166.973 210.767 166.299Z" fill="#F200F2" fill-opacity="0.05"/>
</g>
<defs>
<filter id="filter0_d_1061_1650" x="-3.99805" y="-186.789" width="1520" height="382.305" filterUnits="userSpaceOnUse" color-interpolation-filters="sRGB">
<feFlood flood-opacity="0" result="BackgroundImageFix"/>
<feColorMatrix in="SourceAlpha" type="matrix" values="0 0 0 0 0 0 0 0 0 0 0 0 0 0 0 0 0 0 127 0" result="hardAlpha"/>
<feOffset dy="4"/>
<feGaussianBlur stdDeviation="2"/>
<feComposite in2="hardAlpha" operator="out"/>
<feColorMatrix type="matrix" values="0 0 0 0 0 0 0 0 0 0 0 0 0 0 0 0 0 0 0.25 0"/>
<feBlend mode="normal" in2="BackgroundImageFix" result="effect1_dropShadow_1061_1650"/>
<feBlend mode="normal" in="SourceGraphic" in2="effect1_dropShadow_1061_1650" result="shape"/>
</filter>
</defs>
</svg>
