<svg width="51" height="51" viewBox="0 0 51 51" fill="none" xmlns="http://www.w3.org/2000/svg">
<path d="M34.9662 37.9202C43.7095 37.9202 50.7974 30.8323 50.7974 22.089C50.7974 13.3457 43.7095 6.25781 34.9662 6.25781C26.2229 6.25781 19.135 13.3457 19.135 22.089C19.135 30.8323 26.2229 37.9202 34.9662 37.9202Z" fill="#DC3546"/>
<path d="M31.2152 29.2372C36.8424 29.2372 41.4041 24.6755 41.4041 19.0483C41.4041 13.4211 36.8424 8.85938 31.2152 8.85938C25.588 8.85938 21.0262 13.4211 21.0262 19.0483C21.0262 24.6755 25.588 29.2372 31.2152 29.2372Z" fill="#EF5764"/>
<path d="M29.5757 18.6017C30.5704 15.5511 29.9419 12.6101 28.1718 12.033C26.4017 11.4558 24.1604 13.4609 23.1656 16.5115C22.1709 19.5621 22.7994 22.5031 24.5695 23.0802C26.3396 23.6574 28.581 21.6523 29.5757 18.6017Z" fill="#F47785"/>
<path d="M24.5574 28.8508C24.9279 28.8508 25.2282 28.3753 25.2282 27.7887C25.2282 27.2021 24.9279 26.7266 24.5574 26.7266C24.1869 26.7266 23.8866 27.2021 23.8866 27.7887C23.8866 28.3753 24.1869 28.8508 24.5574 28.8508Z" fill="#303030"/>
<path d="M24.3226 27.3595C23.2827 27.3554 20.4662 27.4633 17.6145 28.2539C15.3561 28.88 14.5735 29.0812 11.9797 32.9228C10.8856 34.5432 8.2133 34.9067 6.25541 34.3539C5.61502 34.1731 5.12685 33.9121 4.82434 33.7278" stroke="#5B5B5B" stroke-width="5" stroke-miterlimit="10" stroke-linecap="round" stroke-linejoin="round"/>
<path d="M4.02145 33.3194L0.130859 35.8258L4.02145 34.8906L2.07616 40.5394L5.14374 35.0028L6.9394 37.6589L6.45308 34.928L10.194 36.6488L6.41566 33.5438L9.59547 31.2244L6.67753 32.0848L8.09909 27.1094L4.91928 32.4589L2.26321 31.1122L4.02145 33.3194Z" fill="#FFEC00"/>
<path d="M5.5749 14.1872C6.1929 14.1872 6.69388 13.6862 6.69388 13.0682C6.69388 12.4502 6.1929 11.9492 5.5749 11.9492C4.95691 11.9492 4.45593 12.4502 4.45593 13.0682C4.45593 13.6862 4.95691 14.1872 5.5749 14.1872Z" fill="#008689"/>
<path d="M6.13444 47.8455C6.44343 47.8455 6.69392 47.595 6.69392 47.286C6.69392 46.9771 6.44343 46.7266 6.13444 46.7266C5.82544 46.7266 5.57495 46.9771 5.57495 47.286C5.57495 47.595 5.82544 47.8455 6.13444 47.8455Z" fill="#E805D0"/>
<path d="M10.7912 44.5135C11.1002 44.5135 11.3507 44.263 11.3507 43.954C11.3507 43.645 11.1002 43.3945 10.7912 43.3945C10.4822 43.3945 10.2317 43.645 10.2317 43.954C10.2317 44.263 10.4822 44.5135 10.7912 44.5135Z" fill="#F90847"/>
<path d="M11.3507 18.283C11.6597 18.283 11.9102 18.0325 11.9102 17.7235C11.9102 17.4146 11.6597 17.1641 11.3507 17.1641C11.0417 17.1641 10.7913 17.4146 10.7913 17.7235C10.7913 18.0325 11.0417 18.283 11.3507 18.283Z" fill="#F47785"/>
<path d="M16.1258 49.6095C17.0999 49.6095 17.8895 48.8199 17.8895 47.8458C17.8895 46.8717 17.0999 46.082 16.1258 46.082C15.1517 46.082 14.3621 46.8717 14.3621 47.8458C14.3621 48.8199 15.1517 49.6095 16.1258 49.6095Z" fill="#FFEC00"/>
<path d="M10.7912 5.48047C10.9576 5.69152 11.041 5.90256 11.1034 6.11362C11.1619 6.32467 11.1897 6.53571 11.1896 6.74676C11.1895 6.95781 11.1646 7.16886 11.1045 7.37991C11.0423 7.59096 10.9586 7.802 10.7912 8.01306C10.6238 7.802 10.5401 7.59096 10.4779 7.37991C10.4178 7.16886 10.3929 6.95781 10.3928 6.74676C10.3927 6.53571 10.4205 6.32467 10.479 6.11362C10.5414 5.90256 10.6247 5.69152 10.7912 5.48047Z" fill="#D7E51C"/>
<path d="M12.0575 6.789C11.8464 6.95545 11.6354 7.03877 11.4243 7.10122C11.2133 7.15974 11.0022 7.18748 10.7912 7.18738C10.5801 7.18732 10.3691 7.16242 10.158 7.10229C9.947 7.04012 9.73595 6.95642 9.5249 6.789C9.73595 6.62159 9.947 6.53789 10.158 6.47571C10.3691 6.41559 10.5801 6.39069 10.7912 6.39063C11.0022 6.39053 11.2133 6.41827 11.4243 6.47679C11.6354 6.53923 11.8464 6.62256 12.0575 6.789Z" fill="#D7E51C"/>
</svg>
