<svg width="67" height="67" viewBox="0 0 67 67" fill="none" xmlns="http://www.w3.org/2000/svg">
<g opacity="0.75">
<path fill-rule="evenodd" clip-rule="evenodd" d="M15.4435 32.6953C17.7215 33.7338 19.296 36.0453 19.296 38.7253V44.8558C19.296 45.1238 19.095 45.3248 18.8605 45.3248H5.36C5.1255 45.3248 4.9245 45.1238 4.9245 44.8558V38.7253C4.9245 36.0453 6.499 33.7338 8.8105 32.6953C9.581 33.6668 10.787 34.2698 12.127 34.2698C13.4335 34.2698 14.6395 33.6668 15.4435 32.6953Z" fill="#7E6DD1"/>
<path fill-rule="evenodd" clip-rule="evenodd" d="M16.817 45.3222H14.8405V38.5887C14.8405 38.0527 15.3095 37.6172 15.8455 37.6172C16.3815 37.6172 16.817 38.0527 16.817 38.5887V45.3222Z" fill="#9789DA"/>
<path fill-rule="evenodd" clip-rule="evenodd" d="M9.38 45.3222H7.4035V38.5887C7.4035 38.0527 7.839 37.6172 8.375 37.6172C8.9445 37.6172 9.38 38.0527 9.38 38.5887V45.3222Z" fill="#9789DA"/>
<path d="M12.127 31.2252C14.8837 31.2252 17.1185 28.9904 17.1185 26.2337C17.1185 23.477 14.8837 21.2422 12.127 21.2422C9.37027 21.2422 7.1355 23.477 7.1355 26.2337C7.1355 28.9904 9.37027 31.2252 12.127 31.2252Z" fill="#FFC7AB"/>
<path fill-rule="evenodd" clip-rule="evenodd" d="M58.1895 32.6328C60.501 33.6713 62.0755 35.9828 62.0755 38.6293V44.7933C62.0755 45.0278 61.8745 45.2288 61.64 45.2288H48.1395C47.905 45.2288 47.704 45.0278 47.704 44.7933V38.6293C47.704 35.9828 49.2785 33.6713 51.5565 32.6328C52.3605 33.5708 53.5665 34.1738 54.873 34.1738C56.213 34.1738 57.419 33.5708 58.1895 32.6328Z" fill="#FFC839"/>
<path fill-rule="evenodd" clip-rule="evenodd" d="M59.5965 45.2284H57.62V38.4949C57.62 37.9589 58.0555 37.5234 58.625 37.5234C59.161 37.5234 59.5965 37.9589 59.5965 38.4949V45.2284Z" fill="#FFA22E"/>
<path fill-rule="evenodd" clip-rule="evenodd" d="M52.1595 45.2284H50.183V38.4949C50.183 37.9589 50.6185 37.5234 51.1545 37.5234C51.6905 37.5234 52.1595 37.9589 52.1595 38.4949V45.2284Z" fill="#FFA22E"/>
<path d="M54.873 31.1236C57.6297 31.1236 59.8645 28.8889 59.8645 26.1321C59.8645 23.3754 57.6297 21.1406 54.873 21.1406C52.1162 21.1406 49.8815 23.3754 49.8815 26.1321C49.8815 28.8889 52.1162 31.1236 54.873 31.1236Z" fill="#FFC7AB"/>
<path fill-rule="evenodd" clip-rule="evenodd" d="M38.123 32.6953C41.3055 34.1358 43.5165 37.3518 43.5165 41.0703V49.6128C43.5165 49.9813 43.2485 50.2493 42.88 50.2493H24.12C23.7515 50.2493 23.4835 49.9813 23.4835 49.6128V41.0703C23.4835 37.3518 25.6945 34.1358 28.877 32.6953C29.9825 34.0353 31.624 34.8728 33.5 34.8728C35.376 34.8728 37.0175 34.0353 38.123 32.6953Z" fill="#1689FC"/>
<path fill-rule="evenodd" clip-rule="evenodd" d="M40.0325 50.2512H37.319V40.8712C37.319 40.1342 37.922 39.5312 38.6925 39.5312C39.4295 39.5312 40.0325 40.1342 40.0325 40.8712V50.2512Z" fill="#42A0FC"/>
<path fill-rule="evenodd" clip-rule="evenodd" d="M29.681 50.2512H26.9675V40.8712C26.9675 40.1342 27.5705 39.5312 28.3075 39.5312C29.078 39.5312 29.681 40.1342 29.681 40.8712V50.2512Z" fill="#42A0FC"/>
<path d="M33.5 30.619C37.3298 30.619 40.4345 27.5143 40.4345 23.6845C40.4345 19.8547 37.3298 16.75 33.5 16.75C29.6702 16.75 26.5655 19.8547 26.5655 23.6845C26.5655 27.5143 29.6702 30.619 33.5 30.619Z" fill="#FFC7AB"/>
</g>
</svg>
