<svg width="60" height="60" viewBox="0 0 60 60" fill="none" xmlns="http://www.w3.org/2000/svg">
<g opacity="0.25" clipPath="url(#clip0_2469_1737)">
<path fill-rule="evenodd" clip-rule="evenodd" d="M30 0C46.5686 0 60 13.4314 60 30C60 46.5686 46.5686 60 30 60C13.4314 60 0 46.5686 0 30C0 13.4314 13.4314 0 30 0Z" fill="#9945FF"/>
<mask id="mask0_2469_1737" style="mask-type:luminance" maskUnits="userSpaceOnUse" x="0" y="0" width="60" height="60">
<path fill-rule="evenodd" clip-rule="evenodd" d="M30 0C46.5686 0 60 13.4314 60 30C60 46.5686 46.5686 60 30 60C13.4314 60 0 46.5686 0 30C0 13.4314 13.4314 0 30 0Z" fill="white"/>
</mask>
<g mask="url(#mask0_2469_1737)">
<path fill-rule="evenodd" clip-rule="evenodd" d="M35.5337 15.1621L111.259 90.8877L111.377 91.0137L111.491 91.1425L111.602 91.2741L111.71 91.4085L111.815 91.5451L111.917 91.6847L112.016 91.8265L112.111 91.9707L112.203 92.1175L112.291 92.2665L112.376 92.4177L112.457 92.5711L112.535 92.7267L112.609 92.8845L112.679 93.0441L112.745 93.2059L112.808 93.3695L112.866 93.5349L112.921 93.7021L112.971 93.8711L113.018 94.0419L113.06 94.2141L113.098 94.3881L113.132 94.5635L113.161 94.7403L113.187 94.9185L113.207 95.0981L113.224 95.2789L113.235 95.4611L113.242 95.6443L113.244 95.8287L37.5191 20.1033L37.5169 19.9189L37.5099 19.7355L37.4981 19.5535L37.4821 19.3727L37.4613 19.1931L37.4361 19.0149L37.4067 18.8381L37.3729 18.6625L37.3347 18.4887L37.2925 18.3165L37.2461 18.1457L37.1955 17.9767L37.1409 17.8095L37.0823 17.6439L37.0199 17.4805L36.9535 17.3187L36.8833 17.1591L36.8095 17.0013L36.7319 16.8457L36.6507 16.6923L36.5659 16.5411L36.4775 16.3921L36.3857 16.2453L36.2907 16.1011L36.1921 15.9591L36.0903 15.8197L35.9851 15.6829L35.8769 15.5487L35.7655 15.4171L35.6511 15.2883L35.5337 15.1621Z" fill="#7927DC"/>
<path fill-rule="evenodd" clip-rule="evenodd" d="M37.519 20.1033L113.244 95.8287V101.932L37.519 26.2065V20.1033Z" fill="#7927DC"/>
<path fill-rule="evenodd" clip-rule="evenodd" d="M41.2461 26.6714L116.971 102.397L117.074 102.509L117.165 102.631L117.244 102.762L117.311 102.9L117.365 103.045L117.404 103.196L117.428 103.352L117.436 103.513L41.7107 27.7876L41.7025 27.6268L41.6785 27.4704L41.6393 27.3192L41.5859 27.1742L41.5191 27.0362L41.4395 26.9058L41.3483 26.784L41.2461 26.6714Z" fill="#7927DC"/>
<path fill-rule="evenodd" clip-rule="evenodd" d="M41.7104 27.7876L117.436 103.513V121.211L41.7104 45.4854V27.7876Z" fill="#7927DC"/>
<path fill-rule="evenodd" clip-rule="evenodd" d="M41.7104 45.4856L117.436 121.211L117.428 121.372L117.403 121.529L117.364 121.68L117.311 121.825L117.244 121.963L117.165 122.093L117.073 122.215L116.971 122.328L116.859 122.43L116.737 122.521L116.607 122.601L116.468 122.667L116.323 122.721L116.172 122.76L116.016 122.784L115.855 122.792L40.1294 47.0668L40.2904 47.0586L40.447 47.0344L40.5982 46.9954L40.7432 46.942L40.8812 46.8752L41.0116 46.7956L41.1334 46.7044L41.2458 46.6022L41.3482 46.4896L41.4394 46.3678L41.5188 46.2374L41.5856 46.0994L41.639 45.9544L41.6782 45.8032L41.7022 45.6466L41.7104 45.4856Z" fill="#7927DC"/>
<path fill-rule="evenodd" clip-rule="evenodd" d="M40.1297 47.0667L115.855 122.792H95.5955L19.8701 47.0667H40.1297Z" fill="#7927DC"/>
<path fill-rule="evenodd" clip-rule="evenodd" d="M19.87 47.0667L95.5954 122.792L95.4342 122.784L95.2778 122.76L95.1264 122.721L94.9814 122.667L94.8432 122.601L94.7128 122.521L94.591 122.43L94.4786 122.328L18.7534 46.6023L18.8658 46.7045L18.9876 46.7959L19.118 46.8751L19.256 46.9419L19.4012 46.9953L19.5524 47.0343L19.709 47.0585L19.87 47.0667Z" fill="#7927DC"/>
<path fill-rule="evenodd" clip-rule="evenodd" d="M35.4135 15.0389C36.7127 16.3381 37.5193 18.1309 37.5193 20.1031V26.2065H40.1297C40.9989 26.2065 41.7107 26.9195 41.7107 27.7875V45.4853C41.7094 45.9042 41.5424 46.3056 41.2462 46.6019C40.95 46.8981 40.5486 47.0652 40.1297 47.0665H19.8701C19.4511 47.0654 19.0496 46.8984 18.7533 46.6021C18.4571 46.3058 18.2902 45.9043 18.2891 45.4853V27.7875C18.2891 26.9183 19.0021 26.2065 19.8701 26.2065H22.4805V20.1031C22.4805 18.1309 23.2871 16.3381 24.5863 15.0389C25.8855 13.7397 27.6783 12.9331 29.6505 12.9331H30.3491C32.3213 12.9331 34.1141 13.7397 35.4133 15.0389H35.4135Z" fill="#7927DC"/>
</g>
<path d="M19.8701 26.2065H40.1297C40.9989 26.2065 41.7107 26.9195 41.7107 27.7875V45.4853C41.7094 45.9043 41.5424 46.3057 41.2462 46.6019C40.95 46.8982 40.5486 47.0652 40.1297 47.0665H19.8701C19.4511 47.0654 19.0496 46.8984 18.7533 46.6021C18.4571 46.3058 18.2902 45.9043 18.2891 45.4853V27.7875C18.2891 26.9183 19.0021 26.2065 19.8701 26.2065ZM25.2961 40.9399C25.3301 41.001 25.3758 41.0548 25.4307 41.0981C25.4855 41.1414 25.5484 41.1735 25.6157 41.1925C25.683 41.2115 25.7534 41.217 25.8228 41.2087C25.8922 41.2004 25.9593 41.1785 26.0202 41.1442C26.0811 41.1099 26.1347 41.0639 26.1778 41.0089C26.2209 40.9538 26.2527 40.8908 26.2714 40.8234C26.29 40.7561 26.2952 40.6857 26.2866 40.6163C26.278 40.5469 26.2558 40.4799 26.2213 40.4191C25.8555 39.7707 25.7381 38.9591 25.8125 38.1441C25.8943 37.2459 26.2085 36.3547 26.6807 35.6731C27.9287 33.8715 29.3943 33.4741 30.6991 33.8045C31.5691 34.0247 32.3819 34.5577 33.0269 35.2157C33.6719 35.8737 34.1399 36.6451 34.3235 37.3457C34.4967 38.0069 34.3995 38.5881 33.9095 38.8647C33.3895 39.1581 32.9045 38.5755 32.3967 37.9649C31.7171 37.1483 31.0095 36.2979 29.8575 36.4635C29.6132 36.4991 29.3778 36.5798 29.1631 36.7015C28.7922 36.912 28.4967 37.2334 28.3179 37.6205C28.1363 38.0095 28.0591 38.4757 28.1331 38.9915C28.1879 39.3733 28.3271 39.7861 28.5709 40.2177C28.8451 40.7033 29.2513 41.2117 29.8183 41.7231C30.3159 42.1719 30.9437 42.6299 31.7235 43.0845C31.8456 43.1553 31.9908 43.1746 32.1271 43.1382C32.2634 43.1019 32.3798 43.0128 32.4505 42.8907C32.5212 42.7686 32.5405 42.6234 32.5041 42.4871C32.4678 42.3508 32.3788 42.2344 32.2567 42.1637C31.5477 41.7503 30.9791 41.3359 30.5307 40.9313C30.0489 40.4967 29.7131 40.0813 29.4959 39.6967C29.3229 39.3903 29.2247 39.1027 29.1871 38.8413C29.1437 38.5391 29.1833 38.2781 29.2801 38.0705C29.3648 37.884 29.5059 37.7287 29.6835 37.6265C29.7837 37.5704 29.8935 37.5335 30.0073 37.5177C30.5745 37.4363 31.0873 38.0525 31.5797 38.6443C32.3775 39.6031 33.1391 40.5183 34.4301 39.7899C35.4153 39.2339 35.6475 38.2059 35.3525 37.0793C35.1227 36.2025 34.5567 35.2573 33.7851 34.4701C33.0139 33.6831 32.0283 33.0425 30.9573 32.7713C29.2519 32.3395 27.3633 32.8203 25.8057 35.0691C25.2329 35.8961 24.8525 36.9705 24.7541 38.0483C24.6615 39.0633 24.8181 40.0921 25.2963 40.9401L25.2961 40.9399ZM35.1785 41.1157C35.2917 41.0318 35.367 40.9062 35.3877 40.7667C35.4084 40.6272 35.3729 40.4852 35.2889 40.3719C35.2049 40.2587 35.0793 40.1834 34.9398 40.1627C34.8003 40.142 34.6583 40.1775 34.5451 40.2615C34.5433 40.2627 33.9267 40.7301 32.4683 40.2973C32.1965 40.2167 31.9097 40.0153 31.6169 39.6955C31.2973 39.3467 30.9805 38.8667 30.6763 38.2583C30.6129 38.1329 30.5025 38.0377 30.3691 37.9935C30.2357 37.9494 30.0903 37.9599 29.9646 38.0227C29.839 38.0855 29.7433 38.1955 29.6986 38.3287C29.6539 38.4619 29.6638 38.6074 29.7261 38.7333C30.0745 39.4303 30.4479 39.9913 30.8335 40.4123C31.2611 40.8793 31.7109 41.1825 32.1681 41.3183C34.1363 41.9023 35.1753 41.1181 35.1783 41.1159L35.1785 41.1157ZM33.1061 37.8429C33.1732 37.9668 33.2866 38.059 33.4216 38.0993C33.5566 38.1396 33.702 38.1248 33.8261 38.0581C33.9501 37.9914 34.0427 37.8782 34.0834 37.7433C34.1242 37.6085 34.1098 37.463 34.0435 37.3387C33.5127 36.3497 32.8629 35.6165 32.1739 35.1343C31.3925 34.5875 30.5583 34.3607 29.7783 34.4439C28.7031 34.5585 27.7261 35.2179 27.0827 36.1617C26.7897 36.5921 26.5722 37.0692 26.4393 37.5725C26.2996 38.0995 26.2574 38.6475 26.3147 39.1895C26.4537 40.4935 27.1787 41.8443 28.7633 42.9245C28.8799 43.0031 29.0228 43.0323 29.1609 43.0059C29.299 42.9794 29.421 42.8993 29.5003 42.7832C29.5795 42.667 29.6096 42.5242 29.5839 42.386C29.5583 42.2478 29.4789 42.1253 29.3633 42.0453C28.0699 41.1635 27.4817 40.0941 27.3733 39.0771C27.3297 38.6635 27.362 38.2454 27.4687 37.8433C27.5707 37.4575 27.7375 37.0917 27.9621 36.7617C28.4361 36.0665 29.1361 35.5829 29.8909 35.5023C30.4203 35.4459 31.0027 35.6111 31.5657 36.0051C32.1219 36.3943 32.6563 37.0043 33.1063 37.8429H33.1061ZM26.4387 32.3795C26.3561 32.4934 26.3221 32.6353 26.3439 32.7743C26.3656 32.9132 26.4416 33.0379 26.555 33.121C26.6684 33.2041 26.8101 33.239 26.9492 33.218C27.0882 33.1969 27.2133 33.1217 27.2971 33.0087C27.4325 32.8269 27.5947 32.6666 27.7783 32.5333C28.4199 32.0617 29.3281 31.8467 30.2563 31.8753C31.1927 31.9043 32.1359 32.1831 32.8371 32.6987C33.0727 32.8694 33.2811 33.0748 33.4553 33.3079C33.4964 33.3647 33.5484 33.4128 33.6082 33.4495C33.668 33.4861 33.7344 33.5106 33.8037 33.5214C33.873 33.5323 33.9437 33.5294 34.0119 33.5128C34.08 33.4962 34.1442 33.4664 34.2008 33.4249C34.2573 33.3834 34.3052 33.3312 34.3415 33.2712C34.3778 33.2112 34.4019 33.1446 34.4124 33.0753C34.4228 33.0059 34.4195 32.9352 34.4026 32.8672C34.3857 32.7991 34.3554 32.7351 34.3137 32.6787C34.0753 32.3579 33.7896 32.0752 33.4663 31.8401C32.5901 31.1959 31.4287 30.8479 30.2855 30.8125C29.1341 30.7769 27.9869 31.0589 27.1493 31.6745C26.8781 31.872 26.6385 32.1096 26.4389 32.3791L26.4387 32.3795ZM27.2889 29.9891C27.235 30.0335 27.1903 30.0879 27.1575 30.1495C27.1247 30.2111 27.1043 30.2785 27.0975 30.3479C27.0838 30.4882 27.1264 30.6281 27.2159 30.7369C27.3053 30.8458 27.4344 30.9146 27.5746 30.9283C27.7149 30.942 27.8548 30.8994 27.9637 30.8099C28.5999 30.2853 29.3365 29.9599 30.1223 29.9605C30.8201 29.9609 31.5741 30.2195 32.3547 30.8245C32.4664 30.9099 32.6073 30.9476 32.7467 30.9294C32.8861 30.9111 33.0126 30.8384 33.0986 30.7271C33.1845 30.6159 33.2229 30.4751 33.2053 30.3356C33.1878 30.1961 33.1157 30.0692 33.0049 29.9827C32.0249 29.2233 31.0483 28.8987 30.1223 28.8979C29.0707 28.8971 28.1061 29.3151 27.2889 29.9891Z" fill="#FFFFFE"/>
<path d="M36.9859 27.2733H34.1915C34.2615 27.2733 34.3309 27.2595 34.3956 27.2327C34.4603 27.2059 34.5191 27.1666 34.5686 27.1171C34.6182 27.0676 34.6575 27.0087 34.6843 26.944C34.7111 26.8793 34.7249 26.81 34.7249 26.7399V20.5101C34.7215 19.258 34.2226 18.0582 33.3372 17.1728C32.4518 16.2875 31.252 15.7886 29.9999 15.7853C28.7478 15.7886 27.5479 16.2875 26.6625 17.1728C25.7772 18.0582 25.2783 19.258 25.2749 20.5101V26.7399C25.2749 26.81 25.2887 26.8793 25.3155 26.944C25.3423 27.0087 25.3816 27.0676 25.4311 27.1171C25.4806 27.1666 25.5394 27.2059 25.6041 27.2327C25.6689 27.2595 25.7382 27.2733 25.8083 27.2733H23.0139C22.9438 27.2733 22.8745 27.2595 22.8097 27.2327C22.745 27.2059 22.6862 27.1666 22.6367 27.1171C22.5872 27.0676 22.5479 27.0087 22.5211 26.944C22.4943 26.8793 22.4805 26.81 22.4805 26.7399V20.1031C22.4805 18.1309 23.2871 16.3381 24.5863 15.0389C25.8855 13.7397 27.6783 12.9331 29.6505 12.9331H30.3491C32.3213 12.9331 34.1141 13.7397 35.4133 15.0389C36.7125 16.3381 37.5191 18.1309 37.5191 20.1031V26.7399C37.5191 26.81 37.5053 26.8793 37.4785 26.944C37.4517 27.0087 37.4124 27.0676 37.3628 27.1171C37.3133 27.1666 37.2545 27.2059 37.1898 27.2327C37.1251 27.2595 37.0557 27.2733 36.9857 27.2733H36.9859Z" fill="#FFFFFE"/>
</g>
<defs>
<clipPath id="clip0_2469_1737">
<rect width="60" height="60" fill="white"/>
</clipPath>
</defs>
</svg>
