<svg width="645" height="221" viewBox="0 0 645 221" fill="none" xmlns="http://www.w3.org/2000/svg">
<g clipPath="url(#clip0_148_105)">
<mask id="mask0_148_105" style="mask-type:luminance" maskUnits="userSpaceOnUse" x="0" y="0" width="645" height="221">
<path d="M629.191 0H15.8088C7.07785 0 0 7.04235 0 15.7295V205.27C0 213.958 7.07785 221 15.8088 221H629.191C637.922 221 645 213.958 645 205.27V15.7295C645 7.04235 637.922 0 629.191 0Z" fill="white"/>
</mask>
<g mask="url(#mask0_148_105)">
<path d="M629.191 0H15.8088C7.07779 0 -6.10352e-05 7.04235 -6.10352e-05 15.7295V205.27C-6.10352e-05 213.958 7.07779 221 15.8088 221H629.191C637.922 221 645 213.958 645 205.27V15.7295C645 7.04235 637.922 0 629.191 0Z" fill="#090A0C"/>
<g filter="url(#filter0_d_148_105)">
<path d="M160.46 368.858C356.906 368.858 516.158 220.44 516.158 37.3577C516.158 -145.725 356.906 -294.142 160.46 -294.142C-35.9874 -294.142 -195.239 -145.725 -195.239 37.3577C-195.239 220.44 -35.9874 368.858 160.46 368.858Z" fill="url(#paint0_radial_148_105)"/>
</g>
<path d="M74.1307 114.039H69.7114L79.6416 86.5841H84.4514L94.3809 114.039H89.9616L82.1607 91.5712H81.9449L74.1307 114.039ZM74.8717 103.288H89.2075V106.773H74.8717V103.288ZM121.18 93.7961C121.037 92.5275 120.444 91.5444 119.402 90.8468C118.36 90.1414 117.048 89.7882 115.468 89.7882C114.336 89.7882 113.357 89.9668 112.53 90.3246C111.704 90.673 111.062 91.1551 110.604 91.7725C110.155 92.3797 109.93 93.0726 109.93 93.8504C109.93 94.5024 110.083 95.0655 110.388 95.539C110.703 96.0132 111.111 96.4104 111.614 96.732C112.126 97.0451 112.674 97.3085 113.258 97.5232C113.842 97.7285 114.404 97.8984 114.942 98.0329L117.637 98.7297C118.517 98.9444 119.42 99.2346 120.345 99.6011C121.27 99.9676 122.128 100.451 122.918 101.049C123.709 101.648 124.347 102.39 124.832 103.274C125.326 104.16 125.573 105.218 125.573 106.451C125.573 108.007 125.169 109.387 124.36 110.594C123.561 111.8 122.397 112.753 120.87 113.449C119.353 114.146 117.516 114.495 115.36 114.495C113.294 114.495 111.507 114.169 109.998 113.516C108.489 112.864 107.307 111.939 106.454 110.742C105.6 109.535 105.129 108.105 105.039 106.451H109.216C109.297 107.444 109.62 108.27 110.186 108.932C110.761 109.584 111.493 110.071 112.382 110.393C113.28 110.705 114.264 110.862 115.333 110.862C116.509 110.862 117.556 110.679 118.472 110.312C119.398 109.937 120.125 109.419 120.655 108.757C121.185 108.087 121.45 107.305 121.45 106.411C121.45 105.598 121.216 104.932 120.749 104.414C120.291 103.895 119.667 103.467 118.877 103.127C118.095 102.787 117.21 102.487 116.222 102.229L112.962 101.344C110.752 100.745 109 99.8646 107.707 98.703C106.423 97.5413 105.781 96.0038 105.781 94.0911C105.781 92.5095 106.211 91.1284 107.074 89.9487C107.936 88.769 109.104 87.8535 110.577 87.2007C112.05 86.5393 113.712 86.209 115.562 86.209C117.43 86.209 119.078 86.5346 120.507 87.1874C121.944 87.8401 123.076 88.7383 123.902 89.8818C124.728 91.0167 125.16 92.3215 125.195 93.7961H121.18ZM138.747 93.4477V96.6652H127.443V93.4477H138.747ZM130.474 88.5141H134.503V107.993C134.503 108.771 134.619 109.356 134.853 109.749C135.086 110.134 135.387 110.397 135.756 110.54C136.133 110.675 136.541 110.742 136.982 110.742C137.305 110.742 137.588 110.719 137.831 110.675C138.073 110.63 138.261 110.594 138.397 110.567L139.124 113.878C138.891 113.968 138.558 114.057 138.127 114.146C137.696 114.245 137.156 114.299 136.51 114.307C135.45 114.326 134.462 114.138 133.546 113.744C132.63 113.351 131.889 112.743 131.323 111.921C130.757 111.099 130.474 110.067 130.474 108.824V88.5141ZM150.56 114.455C148.619 114.455 146.926 114.013 145.481 113.128C144.034 112.243 142.912 111.005 142.112 109.414C141.313 107.824 140.913 105.964 140.913 103.837C140.913 101.701 141.313 99.8331 142.112 98.2334C142.912 96.6337 144.034 95.3919 145.481 94.5071C146.926 93.6223 148.619 93.1795 150.56 93.1795C152.5 93.1795 154.193 93.6223 155.639 94.5071C157.085 95.3919 158.208 96.6337 159.007 98.2334C159.807 99.8331 160.206 101.701 160.206 103.837C160.206 105.964 159.807 107.824 159.007 109.414C158.208 111.005 157.085 112.243 155.639 113.128C154.193 114.013 152.5 114.455 150.56 114.455ZM150.573 111.09C151.831 111.09 152.873 110.76 153.699 110.098C154.526 109.437 155.137 108.556 155.532 107.457C155.936 106.358 156.138 105.147 156.138 103.824C156.138 102.51 155.936 101.304 155.532 100.204C155.137 99.0962 154.526 98.2067 153.699 97.5366C152.873 96.8665 151.831 96.5315 150.573 96.5315C149.307 96.5315 148.256 96.8665 147.42 97.5366C146.594 98.2067 145.979 99.0962 145.575 100.204C145.179 101.304 144.982 102.51 144.982 103.824C144.982 105.147 145.179 106.358 145.575 107.457C145.979 108.556 146.594 109.437 147.42 110.098C148.256 110.76 149.307 111.09 150.573 111.09ZM163.565 114.039V93.4477H167.459V96.7187H167.675C168.052 95.6105 168.716 94.7391 169.669 94.1044C170.63 93.4611 171.717 93.1394 172.929 93.1394C173.181 93.1394 173.477 93.1481 173.819 93.1662C174.169 93.1842 174.443 93.2063 174.641 93.233V97.0671C174.479 97.023 174.191 96.9735 173.778 96.92C173.365 96.8571 172.952 96.8264 172.539 96.8264C171.586 96.8264 170.738 97.027 169.992 97.4296C169.255 97.8229 168.671 98.3726 168.241 99.0781C167.81 99.7757 167.594 100.571 167.594 101.464V114.039H163.565ZM185.167 114.455C183.128 114.455 181.372 114.021 179.899 113.154C178.435 112.278 177.303 111.05 176.504 109.468C175.713 107.877 175.318 106.013 175.318 103.878C175.318 101.769 175.713 99.9094 176.504 98.3011C177.303 96.6919 178.417 95.4367 179.845 94.5338C181.282 93.631 182.962 93.1795 184.884 93.1795C186.052 93.1795 187.183 93.3722 188.279 93.756C189.375 94.1406 190.359 94.7438 191.23 95.5657C192.101 96.3884 192.788 97.4564 193.291 98.7698C193.795 100.075 194.046 101.661 194.046 103.529V104.95H177.595V101.947H190.098C190.098 100.893 189.883 99.959 189.451 99.145C189.02 98.3231 188.414 97.675 187.632 97.2016C186.86 96.7281 185.953 96.4914 184.911 96.4914C183.779 96.4914 182.791 96.7682 181.947 97.3219C181.111 97.8669 180.465 98.5826 180.006 99.4674C179.557 100.343 179.333 101.294 179.333 102.322V104.668C179.333 106.045 179.575 107.216 180.061 108.181C180.555 109.146 181.242 109.884 182.121 110.393C183.002 110.893 184.03 111.143 185.207 111.143C185.971 111.143 186.667 111.036 187.296 110.822C187.924 110.598 188.468 110.268 188.926 109.83C189.384 109.392 189.734 108.851 189.977 108.208L193.79 108.892C193.484 110.009 192.936 110.987 192.146 111.828C191.365 112.658 190.381 113.306 189.195 113.771C188.019 114.227 186.676 114.455 185.167 114.455ZM215.94 93.4477V96.6652H204.636V93.4477H215.94ZM207.668 88.5141H211.697V107.993C211.697 108.771 211.814 109.356 212.047 109.749C212.281 110.134 212.581 110.397 212.949 110.54C213.326 110.675 213.735 110.742 214.175 110.742C214.499 110.742 214.782 110.719 215.024 110.675C215.267 110.63 215.456 110.594 215.59 110.567L216.318 113.878C216.084 113.968 215.752 114.057 215.321 114.146C214.89 114.245 214.351 114.299 213.704 114.307C212.644 114.326 211.656 114.138 210.74 113.744C209.824 113.351 209.083 112.743 208.517 111.921C207.951 111.099 207.668 110.067 207.668 108.824V88.5141ZM227.754 114.455C225.814 114.455 224.121 114.013 222.674 113.128C221.228 112.243 220.105 111.005 219.306 109.414C218.506 107.824 218.107 105.964 218.107 103.837C218.107 101.701 218.506 99.8331 219.306 98.2334C220.105 96.6337 221.228 95.3919 222.674 94.5071C224.121 93.6223 225.814 93.1795 227.754 93.1795C229.694 93.1795 231.387 93.6223 232.833 94.5071C234.28 95.3919 235.402 96.6337 236.202 98.2334C237.001 99.8331 237.401 101.701 237.401 103.837C237.401 105.964 237.001 107.824 236.202 109.414C235.402 111.005 234.28 112.243 232.833 113.128C231.387 114.013 229.694 114.455 227.754 114.455ZM227.767 111.09C229.025 111.09 230.066 110.76 230.893 110.098C231.719 109.437 232.33 108.556 232.725 107.457C233.129 106.358 233.332 105.147 233.332 103.824C233.332 102.51 233.129 101.304 232.725 100.204C232.33 99.0962 231.719 98.2067 230.893 97.5366C230.066 96.8665 229.025 96.5315 227.767 96.5315C226.501 96.5315 225.449 96.8665 224.615 97.5366C223.788 98.2067 223.173 99.0962 222.768 100.204C222.373 101.304 222.175 102.51 222.175 103.824C222.175 105.147 222.373 106.358 222.768 107.457C223.173 108.556 223.788 109.437 224.615 110.098C225.449 110.76 226.501 111.09 227.767 111.09ZM371.268 114.039H366.848L376.779 86.5841H381.588L391.519 114.039H387.099L379.298 91.5712H379.083L371.268 114.039ZM372.009 103.288H386.345V106.773H372.009V103.288ZM394.365 114.039V86.5841H398.393V96.7855H398.636C398.87 96.3569 399.207 95.8606 399.647 95.2975C400.086 94.7352 400.697 94.2436 401.479 93.8229C402.26 93.3942 403.293 93.1795 404.578 93.1795C406.249 93.1795 407.739 93.5995 409.051 94.4403C410.362 95.2802 411.39 96.4906 412.137 98.073C412.891 99.6546 413.268 101.559 413.268 103.784C413.268 106.009 412.895 107.917 412.15 109.508C411.405 111.09 410.38 112.31 409.078 113.168C407.776 114.017 406.289 114.441 404.618 114.441C403.36 114.441 402.332 114.231 401.533 113.811C400.742 113.391 400.123 112.9 399.674 112.337C399.224 111.773 398.879 111.273 398.636 110.835H398.299V114.039H394.365ZM398.313 103.743C398.313 105.191 398.524 106.461 398.946 107.551C399.368 108.641 399.979 109.495 400.778 110.112C401.578 110.719 402.557 111.023 403.715 111.023C404.919 111.023 405.925 110.705 406.733 110.071C407.542 109.427 408.153 108.556 408.566 107.457C408.988 106.358 409.199 105.12 409.199 103.743C409.199 102.385 408.992 101.165 408.58 100.084C408.175 99.0026 407.565 98.1485 406.747 97.5232C405.939 96.898 404.928 96.585 403.715 96.585C402.548 96.585 401.56 96.8838 400.751 97.4831C399.952 98.0816 399.346 98.9177 398.932 99.9896C398.519 101.062 398.313 102.314 398.313 103.743ZM425.371 114.455C423.43 114.455 421.737 114.013 420.292 113.128C418.845 112.243 417.723 111.005 416.923 109.414C416.124 107.824 415.724 105.964 415.724 103.837C415.724 101.701 416.124 99.8331 416.923 98.2334C417.723 96.6337 418.845 95.3919 420.292 94.5071C421.737 93.6223 423.43 93.1795 425.371 93.1795C427.311 93.1795 429.004 93.6223 430.45 94.5071C431.897 95.3919 433.019 96.6337 433.818 98.2334C434.618 99.8331 435.018 101.701 435.018 103.837C435.018 105.964 434.618 107.824 433.818 109.414C433.019 111.005 431.897 112.243 430.45 113.128C429.004 114.013 427.311 114.455 425.371 114.455ZM425.384 111.09C426.642 111.09 427.684 110.76 428.51 110.098C429.337 109.437 429.948 108.556 430.343 107.457C430.747 106.358 430.949 105.147 430.949 103.824C430.949 102.51 430.747 101.304 430.343 100.204C429.948 99.0962 429.337 98.2067 428.51 97.5366C427.684 96.8665 426.642 96.5315 425.384 96.5315C424.118 96.5315 423.067 96.8665 422.231 97.5366C421.405 98.2067 420.79 99.0962 420.386 100.204C419.99 101.304 419.793 102.51 419.793 103.824C419.793 105.147 419.99 106.358 420.386 107.457C420.79 108.556 421.405 109.437 422.231 110.098C423.067 110.76 424.118 111.09 425.384 111.09ZM451.486 105.5V93.4477H455.528V114.039H451.567V110.473H451.351C450.875 111.573 450.112 112.488 449.061 113.221C448.019 113.946 446.721 114.307 445.167 114.307C443.837 114.307 442.661 114.017 441.637 113.436C440.622 112.846 439.823 111.975 439.238 110.822C438.664 109.669 438.376 108.244 438.376 106.546V93.4477H442.405V106.063C442.405 107.466 442.795 108.583 443.577 109.414C444.359 110.245 445.374 110.661 446.622 110.661C447.377 110.661 448.127 110.473 448.872 110.098C449.626 109.722 450.251 109.155 450.745 108.396C451.248 107.636 451.495 106.671 451.486 105.5ZM469.463 93.4477V96.6652H458.159V93.4477H469.463ZM461.191 88.5141H465.22V107.993C465.22 108.771 465.336 109.356 465.57 109.749C465.803 110.134 466.104 110.397 466.472 110.54C466.849 110.675 467.258 110.742 467.698 110.742C468.022 110.742 468.305 110.719 468.547 110.675C468.79 110.63 468.978 110.594 469.113 110.567L469.84 113.878C469.607 113.968 469.274 114.057 468.844 114.146C468.412 114.245 467.874 114.299 467.226 114.307C466.166 114.326 465.178 114.138 464.262 113.744C463.346 113.351 462.605 112.743 462.04 111.921C461.474 111.099 461.191 110.067 461.191 108.824V88.5141Z" fill="white"/>
<path d="M249.986 114.039V86.5841H267.097V90.15H254.149V98.515H265.87V102.068H254.149V114.039H249.986ZM295.048 100.311C295.048 103.243 294.509 105.763 293.431 107.872C292.353 109.973 290.875 111.59 288.998 112.726C287.13 113.851 285.005 114.414 282.625 114.414C280.236 114.414 278.102 113.851 276.225 112.726C274.357 111.59 272.884 109.968 271.806 107.859C270.728 105.75 270.189 103.234 270.189 100.311C270.189 97.3801 270.728 94.8642 271.806 92.7643C272.884 90.6549 274.357 89.0372 276.225 87.9109C278.102 86.776 280.236 86.209 282.625 86.209C285.005 86.209 287.13 86.776 288.998 87.9109C290.875 89.0372 292.353 90.6549 293.431 92.7643C294.509 94.8642 295.048 97.3801 295.048 100.311ZM290.925 100.311C290.925 98.0777 290.561 96.1957 289.833 94.6675C289.115 93.1308 288.127 91.9691 286.869 91.1827C285.621 90.3868 284.206 89.9888 282.625 89.9888C281.035 89.9888 279.616 90.3868 278.367 91.1827C277.119 91.9691 276.131 93.1308 275.403 94.6675C274.685 96.1957 274.326 98.0777 274.326 100.311C274.326 102.546 274.685 104.432 275.403 105.969C276.131 107.497 277.119 108.659 278.367 109.454C279.616 110.241 281.035 110.634 282.625 110.634C284.206 110.634 285.621 110.241 286.869 109.454C288.127 108.659 289.115 107.497 289.833 105.969C290.561 104.432 290.925 102.546 290.925 100.311ZM299.1 86.5841H304.153L312.937 107.926H313.26L322.045 86.5841H327.098V114.039H323.137V94.1721H322.881L314.743 113.999H311.455L303.317 94.1587H303.061V114.039H299.1V86.5841ZM355.981 100.311C355.981 103.243 355.443 105.763 354.365 107.872C353.287 109.973 351.809 111.59 349.932 112.726C348.064 113.851 345.94 114.414 343.56 114.414C341.17 114.414 339.037 113.851 337.159 112.726C335.291 111.59 333.818 109.968 332.74 107.859C331.662 105.75 331.124 103.234 331.124 100.311C331.124 97.3801 331.662 94.8642 332.74 92.7643C333.818 90.6549 335.291 89.0372 337.159 87.9109C339.037 86.776 341.17 86.209 343.56 86.209C345.94 86.209 348.064 86.776 349.932 87.9109C351.809 89.0372 353.287 90.6549 354.365 92.7643C355.443 94.8642 355.981 97.3801 355.981 100.311ZM351.859 100.311C351.859 98.0777 351.495 96.1957 350.768 94.6675C350.049 93.1308 349.061 91.9691 347.803 91.1827C346.555 90.3868 345.141 89.9888 343.56 89.9888C341.969 89.9888 340.55 90.3868 339.302 91.1827C338.053 91.9691 337.065 93.1308 336.337 94.6675C335.619 96.1957 335.26 98.0777 335.26 100.311C335.26 102.546 335.619 104.432 336.337 105.969C337.065 107.497 338.053 108.659 339.302 109.454C340.55 110.241 341.969 110.634 343.56 110.634C345.141 110.634 346.555 110.241 347.803 109.454C349.061 108.659 350.049 107.497 350.768 105.969C351.495 104.432 351.859 102.546 351.859 100.311Z" fill="#5F4DFF"/>
<path d="M135.956 36.9644H82.9963C75.1384 36.9644 68.7683 43.3025 68.7683 51.1209C68.7683 58.9394 75.1384 65.2775 82.9963 65.2775H135.956C143.814 65.2775 150.184 58.9394 150.184 51.1209C150.184 43.3025 143.814 36.9644 135.956 36.9644Z" fill="#5F4DFF"/>
<path d="M100.265 50.0335C100.229 49.692 100.074 49.4261 99.8018 49.2358C99.5315 49.0455 99.1805 48.9504 98.7481 48.9504C98.4446 48.9504 98.1838 48.996 97.9664 49.0873C97.749 49.1785 97.5822 49.3023 97.4668 49.4587C97.3522 49.6151 97.2929 49.7937 97.2905 49.9944C97.2905 50.1612 97.3285 50.3058 97.4044 50.4284C97.4826 50.5509 97.5893 50.6552 97.7229 50.7412C97.8565 50.8246 98.0043 50.895 98.1664 50.9523C98.3292 51.0097 98.4928 51.0579 98.658 51.097L99.4121 51.2847C99.7164 51.3551 100.008 51.4502 100.289 51.5701C100.572 51.69 100.825 51.8412 101.048 52.0237C101.273 52.2061 101.451 52.4264 101.582 52.6845C101.712 52.9426 101.778 53.2449 101.778 53.5916C101.778 54.0608 101.658 54.474 101.417 54.8311C101.176 55.1856 100.827 55.4632 100.371 55.6639C99.918 55.8621 99.3694 55.9611 98.7244 55.9611C98.0984 55.9611 97.5546 55.8647 97.0937 55.6717C96.6353 55.4789 96.2764 55.1973 96.0171 54.8272C95.7603 54.457 95.6211 54.0061 95.6006 53.4743H97.0352C97.0558 53.7532 97.1419 53.9852 97.2945 54.1703C97.4463 54.3554 97.6439 54.4935 97.8873 54.5847C98.1339 54.676 98.409 54.7216 98.7126 54.7216C99.0295 54.7216 99.3078 54.6747 99.5457 54.5808C99.7868 54.4844 99.9757 54.3515 100.112 54.182C100.248 54.01 100.318 53.8093 100.32 53.5799C100.318 53.3714 100.256 53.1993 100.135 53.0638C100.015 52.9256 99.846 52.8109 99.6287 52.7197C99.4137 52.6259 99.1623 52.5424 98.8738 52.4694L97.9585 52.2348C97.2953 52.0654 96.7712 51.8086 96.3863 51.4646C96.0037 51.1179 95.8124 50.6578 95.8124 50.0843C95.8124 49.6125 95.9413 49.1993 96.1982 48.8448C96.4574 48.4903 96.81 48.2153 97.255 48.0198C97.7 47.8217 98.2043 47.7227 98.7679 47.7227C99.3394 47.7227 99.8397 47.8217 100.269 48.0198C100.701 48.2153 101.04 48.4877 101.287 48.837C101.533 49.1837 101.66 49.5825 101.668 50.0335H100.265ZM106.029 49.834V50.9289H102.559V49.834H106.029ZM103.416 48.3952H104.838V54.0334C104.838 54.2238 104.867 54.3697 104.925 54.4713C104.985 54.5704 105.064 54.6382 105.161 54.6747C105.257 54.7112 105.365 54.7295 105.483 54.7295C105.572 54.7295 105.653 54.7229 105.726 54.7099C105.803 54.6968 105.861 54.6851 105.899 54.6747L106.139 55.7812C106.063 55.8073 105.955 55.8359 105.813 55.8673C105.674 55.8986 105.504 55.9168 105.302 55.922C104.946 55.9325 104.625 55.879 104.34 55.7617C104.054 55.6418 103.828 55.4567 103.659 55.2065C103.495 54.9562 103.413 54.6434 103.416 54.268V48.3952ZM109.787 55.9571C109.198 55.9571 108.686 55.8282 108.254 55.5701C107.822 55.312 107.486 54.951 107.249 54.487C107.012 54.023 106.894 53.4808 106.894 52.8604C106.894 52.24 107.012 51.6966 107.249 51.2299C107.486 50.7633 107.822 50.401 108.254 50.143C108.686 49.8849 109.198 49.7559 109.787 49.7559C110.376 49.7559 110.887 49.8849 111.319 50.143C111.752 50.401 112.086 50.7633 112.322 51.2299C112.56 51.6966 112.679 52.24 112.679 52.8604C112.679 53.4808 112.56 54.023 112.322 54.487C112.086 54.951 111.752 55.312 111.319 55.5701C110.887 55.8282 110.376 55.9571 109.787 55.9571ZM109.795 54.8233C110.115 54.8233 110.382 54.736 110.597 54.5613C110.811 54.384 110.971 54.1468 111.076 53.8497C111.183 53.5525 111.237 53.2215 111.237 52.8565C111.237 52.4889 111.183 52.1567 111.076 51.8594C110.971 51.5597 110.811 51.3212 110.597 51.1439C110.382 50.9666 110.115 50.8781 109.795 50.8781C109.467 50.8781 109.195 50.9666 108.977 51.1439C108.762 51.3212 108.602 51.5597 108.494 51.8594C108.389 52.1567 108.337 52.4889 108.337 52.8565C108.337 53.2215 108.389 53.5525 108.494 53.8497C108.602 54.1468 108.762 54.384 108.977 54.5613C109.195 54.736 109.467 54.8233 109.795 54.8233ZM113.887 55.8399V49.834H115.266V50.8351H115.329C115.439 50.4883 115.627 50.2211 115.894 50.0335C116.165 49.8432 116.472 49.7481 116.818 49.7481C116.897 49.7481 116.984 49.7519 117.082 49.7598C117.181 49.765 117.263 49.7741 117.329 49.7872V51.0892C117.269 51.0683 117.173 51.0501 117.042 51.0344C116.914 51.0162 116.789 51.0071 116.669 51.0071C116.41 51.0071 116.177 51.0631 115.969 51.1752C115.765 51.2847 115.604 51.4372 115.486 51.6327C115.368 51.8281 115.309 52.0536 115.309 52.3091V55.8399H113.887ZM120.698 55.9571C120.092 55.9571 119.57 55.8321 119.13 55.5818C118.693 55.329 118.356 54.9718 118.12 54.5105C117.884 54.0465 117.766 53.5004 117.766 52.8722C117.766 52.2544 117.884 51.7122 118.12 51.2456C118.358 50.7764 118.691 50.4115 119.118 50.1507C119.545 49.8875 120.047 49.7559 120.624 49.7559C120.995 49.7559 121.346 49.8158 121.676 49.9357C122.009 50.053 122.302 50.2355 122.557 50.4831C122.813 50.7308 123.015 51.0461 123.162 51.4293C123.309 51.8099 123.382 52.2635 123.382 52.7901V53.2241H118.434V52.27H122.018C122.016 51.9989 121.957 51.7578 121.842 51.5467C121.726 51.3329 121.565 51.1648 121.358 51.0423C121.154 50.9198 120.915 50.8585 120.643 50.8585C120.352 50.8585 120.096 50.9289 119.877 51.0697C119.657 51.2078 119.485 51.3902 119.362 51.6171C119.241 51.8412 119.179 52.0875 119.177 52.356V53.1889C119.177 53.5382 119.241 53.8379 119.37 54.0882C119.498 54.3358 119.677 54.5261 119.908 54.6591C120.138 54.7894 120.409 54.8546 120.718 54.8546C120.925 54.8546 121.112 54.8259 121.28 54.7685C121.447 54.7086 121.593 54.6212 121.716 54.5066C121.838 54.3919 121.932 54.2498 121.995 54.0804L123.323 54.2289C123.239 54.5782 123.079 54.8832 122.843 55.1439C122.611 55.402 122.312 55.6027 121.948 55.7461C121.583 55.8868 121.167 55.9571 120.698 55.9571Z" fill="white"/>
<path d="M197.61 44.8292C203.722 44.8292 208.676 39.8996 208.676 33.8185C208.676 27.7375 203.722 22.8079 197.61 22.8079C191.499 22.8079 186.544 27.7375 186.544 33.8185C186.544 39.8996 191.499 44.8292 197.61 44.8292Z" fill="#A756B3"/>
<path d="M228.437 33.8185C231.493 33.8185 233.971 31.3537 233.971 28.3132C233.971 25.2727 231.493 22.8079 228.437 22.8079C225.382 22.8079 222.904 25.2727 222.904 28.3132C222.904 31.3537 225.382 33.8185 228.437 33.8185Z" fill="#A756B3"/>
<path opacity="0.5" d="M76.1506 153.719C76.0982 153.232 75.8774 152.852 75.4882 152.58C75.1027 152.308 74.6012 152.172 73.9836 152.172C73.5495 152.172 73.1772 152.238 72.8665 152.367C72.5559 152.498 72.3182 152.675 72.1535 152.898C71.9888 153.122 71.9046 153.377 71.9009 153.663C71.9009 153.902 71.9551 154.109 72.0637 154.283C72.176 154.459 72.3275 154.607 72.5184 154.731C72.7093 154.849 72.9207 154.95 73.1528 155.032C73.3848 155.114 73.6188 155.183 73.8546 155.239L74.9324 155.507C75.3665 155.608 75.7839 155.744 76.1843 155.914C76.5885 156.086 76.9497 156.302 77.2678 156.562C77.5896 156.823 77.8442 157.138 78.0313 157.506C78.2184 157.875 78.312 158.307 78.312 158.802C78.312 159.472 78.1399 160.063 77.7955 160.573C77.4511 161.08 76.9534 161.476 76.3022 161.763C75.6547 162.046 74.8707 162.187 73.95 162.187C73.0555 162.187 72.2789 162.05 71.6202 161.774C70.9653 161.498 70.4525 161.096 70.0819 160.568C69.7152 160.039 69.5169 159.394 69.4869 158.635H71.536C71.5659 159.033 71.6894 159.365 71.9065 159.629C72.1236 159.894 72.4062 160.09 72.7542 160.221C73.106 160.352 73.4989 160.417 73.9331 160.417C74.386 160.417 74.7827 160.35 75.1233 160.216C75.4676 160.078 75.7371 159.888 75.9317 159.646C76.1263 159.4 76.2255 159.114 76.2292 158.786C76.2255 158.488 76.1375 158.242 75.9654 158.048C75.7932 157.851 75.5518 157.687 75.2412 157.556C74.9343 157.423 74.575 157.303 74.1633 157.199L72.8553 156.864C71.9083 156.622 71.1599 156.256 70.6096 155.764C70.0633 155.269 69.79 154.611 69.79 153.792C69.79 153.118 69.9734 152.528 70.3402 152.021C70.7107 151.515 71.2141 151.122 71.8503 150.842C72.4866 150.56 73.207 150.418 74.0117 150.418C74.8276 150.418 75.5425 150.56 76.1562 150.842C76.7737 151.122 77.2584 151.511 77.6103 152.01C77.9621 152.506 78.1436 153.075 78.1548 153.719H76.1506ZM82.2445 162.187C81.6976 162.187 81.2059 162.091 80.768 161.897C80.3333 161.7 79.9894 161.409 79.7349 161.026C79.4843 160.642 79.3586 160.169 79.3586 159.607C79.3586 159.122 79.4487 158.722 79.6282 158.406C79.8076 158.089 80.0526 157.836 80.3633 157.646C80.6739 157.457 81.0241 157.313 81.413 157.216C81.8066 157.115 82.2121 157.043 82.6319 156.998C83.137 156.946 83.5464 156.9 83.861 156.859C84.1756 156.814 84.404 156.747 84.5455 156.658C84.6917 156.565 84.7645 156.421 84.7645 156.227V156.194C84.7645 155.773 84.6396 155.447 84.389 155.217C84.1376 154.985 83.7764 154.87 83.3053 154.87C82.8073 154.87 82.4129 154.978 82.1204 155.194C81.8327 155.41 81.6375 155.665 81.5371 155.959L79.6392 155.691C79.7886 155.17 80.036 154.734 80.3807 154.384C80.7245 154.03 81.1458 153.766 81.6438 153.591C82.141 153.412 82.6911 153.323 83.2942 153.323C83.7092 153.323 84.1226 153.371 84.5344 153.468C84.9463 153.565 85.3225 153.725 85.6632 153.948C86.0039 154.168 86.2766 154.468 86.4829 154.848C86.6924 155.228 86.7967 155.702 86.7967 156.272V162.014H84.8435V160.835H84.7763C84.6522 161.074 84.4783 161.298 84.2538 161.506C84.0333 161.711 83.7543 161.877 83.4176 162.003C83.084 162.126 82.6935 162.187 82.2445 162.187ZM82.7718 160.702C83.1796 160.702 83.5337 160.621 83.8325 160.462C84.1321 160.297 84.3621 160.082 84.5234 159.814C84.6878 159.545 84.7708 159.253 84.7708 158.937V157.925C84.7068 157.977 84.5985 158.026 84.4451 158.071C84.2949 158.116 84.1266 158.154 83.9392 158.188C83.7527 158.222 83.5669 158.251 83.3836 158.278C83.2002 158.304 83.0413 158.326 82.9069 158.345C82.6034 158.385 82.3323 158.452 82.0928 158.545C81.8533 158.639 81.6644 158.769 81.5252 158.937C81.3869 159.1 81.3181 159.313 81.3181 159.573C81.3181 159.946 81.4541 160.227 81.7276 160.417C82.0011 160.606 82.3489 160.702 82.7718 160.702ZM90.3766 159.322L90.3711 156.881H90.6967L93.7961 153.435H96.1705L92.359 157.657H91.9377L90.3766 159.322ZM88.5246 162.014V150.575H90.5568V162.014H88.5246ZM93.936 162.014L91.1291 158.11L92.4989 156.685L96.3674 162.014H93.936ZM100.671 162.182C99.8066 162.182 99.0596 162.003 98.4312 161.645C97.806 161.284 97.3254 160.774 96.9886 160.115C96.6511 159.452 96.4828 158.672 96.4828 157.774C96.4828 156.892 96.6511 156.117 96.9886 155.451C97.3293 154.781 97.8044 154.26 98.4146 153.887C99.024 153.511 99.741 153.323 100.565 153.323C101.096 153.323 101.598 153.409 102.069 153.58C102.545 153.748 102.964 154.008 103.326 154.362C103.693 154.716 103.982 155.166 104.191 155.714C104.401 156.257 104.506 156.905 104.506 157.657V158.278H97.4376V156.915H102.557C102.553 156.527 102.47 156.182 102.304 155.881C102.14 155.575 101.91 155.335 101.614 155.161C101.323 154.985 100.982 154.898 100.592 154.898C100.177 154.898 99.8121 154.999 99.4975 155.199C99.1837 155.397 98.9379 155.658 98.7624 155.982C98.5901 156.302 98.5023 156.654 98.4984 157.037V158.227C98.4984 158.726 98.5901 159.155 98.7735 159.512C98.9568 159.866 99.2137 160.138 99.5426 160.327C99.8722 160.514 100.258 160.606 100.699 160.606C100.995 160.606 101.263 160.566 101.502 160.484C101.742 160.398 101.949 160.273 102.125 160.109C102.301 159.946 102.434 159.743 102.523 159.501L104.421 159.713C104.302 160.212 104.073 160.647 103.737 161.02C103.403 161.389 102.976 161.675 102.456 161.881C101.936 162.081 101.341 162.182 100.671 162.182ZM110.777 165.232C110.5 165.232 110.244 165.21 110.008 165.165C109.776 165.124 109.591 165.075 109.452 165.019L109.923 163.444C110.219 163.53 110.483 163.571 110.715 163.567C110.947 163.564 111.151 163.49 111.327 163.349C111.507 163.211 111.658 162.981 111.782 162.657L111.956 162.193L108.829 153.435H110.984L112.972 159.914H113.061L115.055 153.435H117.216L113.763 163.053C113.602 163.508 113.39 163.896 113.123 164.22C112.858 164.548 112.532 164.798 112.147 164.969C111.765 165.144 111.308 165.232 110.777 165.232ZM121.774 162.182C120.932 162.182 120.202 161.998 119.585 161.629C118.967 161.26 118.488 160.744 118.147 160.082C117.81 159.419 117.642 158.644 117.642 157.758C117.642 156.871 117.81 156.095 118.147 155.428C118.488 154.762 118.967 154.245 119.585 153.876C120.202 153.507 120.932 153.323 121.774 153.323C122.616 153.323 123.346 153.507 123.963 153.876C124.581 154.245 125.058 154.762 125.395 155.428C125.735 156.095 125.906 156.871 125.906 157.758C125.906 158.644 125.735 159.419 125.395 160.082C125.058 160.744 124.581 161.26 123.963 161.629C123.346 161.998 122.616 162.182 121.774 162.182ZM121.786 160.562C122.242 160.562 122.623 160.437 122.931 160.188C123.238 159.935 123.466 159.596 123.615 159.171C123.769 158.746 123.845 158.274 123.845 157.752C123.845 157.227 123.769 156.753 123.615 156.328C123.466 155.899 123.238 155.559 122.931 155.306C122.623 155.052 122.242 154.926 121.786 154.926C121.318 154.926 120.928 155.052 120.617 155.306C120.311 155.559 120.081 155.899 119.927 156.328C119.777 156.753 119.703 157.227 119.703 157.752C119.703 158.274 119.777 158.746 119.927 159.171C120.081 159.596 120.311 159.935 120.617 160.188C120.928 160.437 121.318 160.562 121.786 160.562ZM132.811 158.406V153.435H134.843V162.014H132.872V160.489H132.783C132.588 160.97 132.268 161.362 131.823 161.668C131.381 161.973 130.836 162.126 130.189 162.126C129.624 162.126 129.124 162.001 128.69 161.752C128.259 161.498 127.923 161.132 127.68 160.651C127.436 160.168 127.315 159.582 127.315 158.897V153.435H129.347V158.584C129.347 159.128 129.496 159.56 129.796 159.881C130.095 160.201 130.488 160.361 130.975 160.361C131.274 160.361 131.564 160.288 131.845 160.143C132.126 159.998 132.356 159.781 132.536 159.495C132.719 159.205 132.811 158.842 132.811 158.406ZM136.617 162.014V153.435H138.587V154.864H138.677C138.834 154.369 139.103 153.987 139.485 153.719C139.871 153.447 140.31 153.312 140.804 153.312C140.917 153.312 141.042 153.317 141.181 153.328C141.323 153.335 141.441 153.349 141.534 153.368V155.228C141.449 155.198 141.312 155.172 141.125 155.149C140.941 155.123 140.763 155.111 140.591 155.111C140.221 155.111 139.887 155.19 139.592 155.35C139.3 155.507 139.07 155.725 138.901 156.004C138.733 156.283 138.649 156.606 138.649 156.971V162.014H136.617ZM146.263 162.014V150.575H153.629V152.311H148.346V155.417H153.123V157.155H148.346V162.014H146.263ZM165.484 156.294C165.484 157.527 165.251 158.583 164.787 159.461C164.327 160.337 163.699 161.007 162.901 161.472C162.108 161.938 161.207 162.171 160.201 162.171C159.194 162.171 158.292 161.938 157.495 161.472C156.702 161.003 156.073 160.331 155.609 159.456C155.149 158.577 154.919 157.523 154.919 156.294C154.919 155.062 155.149 154.008 155.609 153.133C156.073 152.254 156.702 151.582 157.495 151.116C158.292 150.651 159.194 150.418 160.201 150.418C161.207 150.418 162.108 150.651 162.901 151.116C163.699 151.582 164.327 152.254 164.787 153.133C165.251 154.008 165.484 155.062 165.484 156.294ZM163.39 156.294C163.39 155.427 163.253 154.695 162.979 154.099C162.711 153.5 162.336 153.047 161.857 152.742C161.378 152.433 160.826 152.278 160.201 152.278C159.576 152.278 159.024 152.433 158.545 152.742C158.066 153.047 157.69 153.5 157.416 154.099C157.147 154.695 157.012 155.427 157.012 156.294C157.012 157.162 157.147 157.895 157.416 158.496C157.69 159.091 158.066 159.543 158.545 159.852C159.024 160.158 159.576 160.311 160.201 160.311C160.826 160.311 161.378 160.158 161.857 159.852C162.336 159.543 162.711 159.091 162.979 158.496C163.253 157.895 163.39 157.162 163.39 156.294ZM167.136 150.575H169.686L173.099 158.864H173.233L176.646 150.575H179.195V162.014H177.196V154.155H177.09L173.913 161.98H172.419L169.242 154.138H169.135V162.014H167.136V150.575ZM191.42 156.294C191.42 157.527 191.189 158.583 190.725 159.461C190.264 160.337 189.635 161.007 188.838 161.472C188.044 161.938 187.145 162.171 186.138 162.171C185.131 162.171 184.229 161.938 183.432 161.472C182.638 161.003 182.01 160.331 181.545 159.456C181.085 158.577 180.855 157.523 180.855 156.294C180.855 155.062 181.085 154.008 181.545 153.133C182.01 152.254 182.638 151.582 183.432 151.116C184.229 150.651 185.131 150.418 186.138 150.418C187.145 150.418 188.044 150.651 188.838 151.116C189.635 151.582 190.264 152.254 190.725 153.133C191.189 154.008 191.42 155.062 191.42 156.294ZM189.326 156.294C189.326 155.427 189.19 154.695 188.917 154.099C188.647 153.5 188.273 153.047 187.794 152.742C187.315 152.433 186.763 152.278 186.138 152.278C185.513 152.278 184.961 152.433 184.482 152.742C184.003 153.047 183.627 153.5 183.353 154.099C183.084 154.695 182.949 155.427 182.949 156.294C182.949 157.162 183.084 157.895 183.353 158.496C183.627 159.091 184.003 159.543 184.482 159.852C184.961 160.158 185.513 160.311 186.138 160.311C186.763 160.311 187.315 160.158 187.794 159.852C188.273 159.543 188.647 159.091 188.917 158.496C189.19 157.895 189.326 157.162 189.326 156.294ZM200.895 153.435V154.999H195.938V153.435H200.895ZM197.161 151.379H199.193V159.434C199.193 159.705 199.235 159.914 199.317 160.059C199.403 160.201 199.515 160.297 199.654 160.35C199.793 160.402 199.946 160.428 200.114 160.428C200.242 160.428 200.358 160.418 200.462 160.4C200.571 160.381 200.653 160.364 200.71 160.35L201.052 161.93C200.944 161.968 200.788 162.009 200.586 162.054C200.388 162.098 200.144 162.124 199.856 162.131C199.347 162.146 198.888 162.07 198.481 161.903C198.073 161.731 197.749 161.467 197.51 161.109C197.274 160.752 197.157 160.305 197.161 159.769V151.379ZM205.947 162.182C205.104 162.182 204.375 161.998 203.758 161.629C203.14 161.26 202.661 160.744 202.32 160.082C201.984 159.419 201.815 158.644 201.815 157.758C201.815 156.871 201.984 156.095 202.32 155.428C202.661 154.762 203.14 154.245 203.758 153.876C204.375 153.507 205.104 153.323 205.947 153.323C206.789 153.323 207.518 153.507 208.137 153.876C208.754 154.245 209.231 154.762 209.568 155.428C209.909 156.095 210.079 156.871 210.079 157.758C210.079 158.644 209.909 159.419 209.568 160.082C209.231 160.744 208.754 161.26 208.137 161.629C207.518 161.998 206.789 162.182 205.947 162.182ZM205.958 160.562C206.415 160.562 206.797 160.437 207.103 160.188C207.41 159.935 207.639 159.596 207.788 159.171C207.941 158.746 208.018 158.274 208.018 157.752C208.018 157.227 207.941 156.753 207.788 156.328C207.639 155.899 207.41 155.559 207.103 155.306C206.797 155.052 206.415 154.926 205.958 154.926C205.49 154.926 205.101 155.052 204.791 155.306C204.483 155.559 204.253 155.899 204.1 156.328C203.95 156.753 203.875 157.227 203.875 157.752C203.875 158.274 203.95 158.746 204.1 159.171C204.253 159.596 204.483 159.935 204.791 160.188C205.101 160.437 205.49 160.562 205.958 160.562ZM213.34 159.322L213.334 156.881H213.66L216.759 153.435H219.133L215.322 157.657H214.9L213.34 159.322ZM211.487 162.014V150.575H213.519V162.014H211.487ZM216.899 162.014L214.093 158.11L215.462 156.685L219.33 162.014H216.899ZM223.634 162.182C222.769 162.182 222.023 162.003 221.394 161.645C220.769 161.284 220.288 160.774 219.951 160.115C219.615 159.452 219.446 158.672 219.446 157.774C219.446 156.892 219.615 156.117 219.951 155.451C220.292 154.781 220.767 154.26 221.377 153.887C221.987 153.511 222.704 153.323 223.527 153.323C224.059 153.323 224.56 153.409 225.032 153.58C225.507 153.748 225.926 154.008 226.29 154.362C226.657 154.716 226.944 155.166 227.154 155.714C227.364 156.257 227.468 156.905 227.468 157.657V158.278H220.4V156.915H225.521C225.517 156.527 225.432 156.182 225.268 155.881C225.103 155.575 224.873 155.335 224.577 155.161C224.285 154.985 223.945 154.898 223.556 154.898C223.14 154.898 222.776 154.999 222.461 155.199C222.146 155.397 221.901 155.658 221.725 155.982C221.553 156.302 221.465 156.654 221.462 157.037V158.227C221.462 158.726 221.553 159.155 221.737 159.512C221.92 159.866 222.176 160.138 222.506 160.327C222.835 160.514 223.221 160.606 223.662 160.606C223.958 160.606 224.225 160.566 224.465 160.484C224.704 160.398 224.912 160.273 225.088 160.109C225.264 159.946 225.397 159.743 225.487 159.501L227.385 159.713C227.264 160.212 227.036 160.647 226.699 161.02C226.366 161.389 225.94 161.675 225.42 161.881C224.899 162.081 224.304 162.182 223.634 162.182ZM230.904 156.987V162.014H228.871V153.435H230.814V154.893H230.915C231.113 154.412 231.429 154.03 231.864 153.748C232.302 153.464 232.843 153.323 233.486 153.323C234.081 153.323 234.6 153.449 235.042 153.703C235.487 153.956 235.831 154.322 236.074 154.803C236.321 155.284 236.443 155.866 236.439 156.551V162.014H234.407V156.864C234.407 156.291 234.257 155.842 233.958 155.518C233.662 155.194 233.252 155.032 232.728 155.032C232.373 155.032 232.056 155.111 231.779 155.266C231.506 155.42 231.291 155.641 231.134 155.932C230.98 156.222 230.904 156.573 230.904 156.987ZM245.004 155.702L243.152 155.903C243.099 155.717 243.008 155.542 242.876 155.378C242.749 155.214 242.577 155.082 242.36 154.982C242.143 154.881 241.877 154.831 241.563 154.831C241.14 154.831 240.784 154.922 240.496 155.104C240.212 155.287 240.071 155.523 240.075 155.814C240.071 156.064 240.163 156.267 240.35 156.423C240.541 156.579 240.855 156.708 241.293 156.809L242.764 157.121C243.58 157.296 244.186 157.574 244.583 157.954C244.984 158.334 245.185 158.831 245.189 159.445C245.185 159.985 245.026 160.462 244.712 160.875C244.401 161.284 243.97 161.604 243.416 161.836C242.861 162.066 242.225 162.182 241.507 162.182C240.451 162.182 239.602 161.962 238.958 161.523C238.314 161.08 237.931 160.463 237.807 159.674L239.789 159.484C239.878 159.871 240.07 160.164 240.361 160.361C240.654 160.558 241.033 160.657 241.501 160.657C241.984 160.657 242.371 160.558 242.663 160.361C242.959 160.164 243.106 159.92 243.106 159.629C243.106 159.383 243.012 159.181 242.82 159.02C242.633 158.86 242.341 158.737 241.945 158.651L240.473 158.345C239.647 158.173 239.035 157.884 238.638 157.479C238.241 157.069 238.044 156.551 238.048 155.926C238.044 155.397 238.189 154.939 238.481 154.551C238.776 154.16 239.186 153.859 239.71 153.647C240.238 153.431 240.846 153.323 241.535 153.323C242.545 153.323 243.34 153.537 243.921 153.965C244.505 154.393 244.866 154.972 245.004 155.702ZM254.46 153.435V154.999H249.503V153.435H254.46ZM250.727 151.379H252.759V159.434C252.759 159.705 252.8 159.914 252.883 160.059C252.969 160.201 253.081 160.297 253.219 160.35C253.358 160.402 253.511 160.428 253.679 160.428C253.807 160.428 253.923 160.418 254.028 160.4C254.136 160.381 254.218 160.364 254.275 160.35L254.617 161.93C254.509 161.968 254.354 162.009 254.151 162.054C253.953 162.098 253.709 162.124 253.422 162.131C252.913 162.146 252.454 162.07 252.046 161.903C251.638 161.731 251.314 161.467 251.075 161.109C250.839 160.752 250.723 160.305 250.727 159.769V151.379ZM259.512 162.182C258.67 162.182 257.941 161.998 257.323 161.629C256.705 161.26 256.226 160.744 255.886 160.082C255.549 159.419 255.38 158.644 255.38 157.758C255.38 156.871 255.549 156.095 255.886 155.428C256.226 154.762 256.705 154.245 257.323 153.876C257.941 153.507 258.67 153.323 259.512 153.323C260.354 153.323 261.084 153.507 261.702 153.876C262.319 154.245 262.796 154.762 263.133 155.428C263.474 156.095 263.644 156.871 263.644 157.758C263.644 158.644 263.474 159.419 263.133 160.082C262.796 160.744 262.319 161.26 261.702 161.629C261.084 161.998 260.354 162.182 259.512 162.182ZM259.523 160.562C259.98 160.562 260.362 160.437 260.668 160.188C260.975 159.935 261.204 159.596 261.354 159.171C261.507 158.746 261.584 158.274 261.584 157.752C261.584 157.227 261.507 156.753 261.354 156.328C261.204 155.899 260.975 155.559 260.668 155.306C260.362 155.052 259.98 154.926 259.523 154.926C259.055 154.926 258.666 155.052 258.356 155.306C258.049 155.559 257.819 155.899 257.665 156.328C257.515 156.753 257.44 157.227 257.44 157.752C257.44 158.274 257.515 158.746 257.665 159.171C257.819 159.596 258.049 159.935 258.356 160.188C258.666 160.437 259.055 160.562 259.523 160.562ZM268.658 162.014V153.435H270.628V154.864H270.718C270.875 154.369 271.145 153.987 271.527 153.719C271.912 153.447 272.352 153.312 272.846 153.312C272.958 153.312 273.083 153.317 273.222 153.328C273.365 153.335 273.482 153.349 273.576 153.368V155.228C273.489 155.198 273.353 155.172 273.166 155.149C272.983 155.123 272.805 155.111 272.633 155.111C272.262 155.111 271.929 155.19 271.633 155.35C271.341 155.507 271.111 155.725 270.943 156.004C270.774 156.283 270.69 156.606 270.69 156.971V162.014H268.658ZM278.072 162.182C277.208 162.182 276.461 162.003 275.832 161.645C275.207 161.284 274.726 160.774 274.389 160.115C274.052 159.452 273.884 158.672 273.884 157.774C273.884 156.892 274.052 156.117 274.389 155.451C274.73 154.781 275.205 154.26 275.815 153.887C276.425 153.511 277.142 153.323 277.966 153.323C278.497 153.323 278.998 153.409 279.47 153.58C279.945 153.748 280.365 154.008 280.728 154.362C281.094 154.716 281.383 155.166 281.592 155.714C281.802 156.257 281.906 156.905 281.906 157.657V158.278H274.839V156.915H279.958C279.954 156.527 279.871 156.182 279.705 155.881C279.541 155.575 279.311 155.335 279.015 155.161C278.723 154.985 278.383 154.898 277.993 154.898C277.578 154.898 277.213 154.999 276.899 155.199C276.584 155.397 276.339 155.658 276.164 155.982C275.991 156.302 275.903 156.654 275.9 157.037V158.227C275.9 158.726 275.991 159.155 276.175 159.512C276.358 159.866 276.614 160.138 276.944 160.327C277.273 160.514 277.658 160.606 278.1 160.606C278.396 160.606 278.664 160.566 278.903 160.484C279.143 160.398 279.35 160.273 279.526 160.109C279.702 159.946 279.835 159.743 279.924 159.501L281.822 159.713C281.702 160.212 281.474 160.647 281.137 161.02C280.804 161.389 280.377 161.675 279.857 161.881C279.337 162.081 278.742 162.182 278.072 162.182ZM287.071 162.182C286.21 162.182 285.471 161.994 284.854 161.618C284.239 161.242 283.766 160.722 283.433 160.059C283.104 159.393 282.939 158.625 282.939 157.758C282.939 156.886 283.108 156.117 283.444 155.451C283.781 154.781 284.256 154.26 284.87 153.887C285.488 153.511 286.217 153.323 287.06 153.323C287.759 153.323 288.379 153.451 288.918 153.708C289.46 153.961 289.893 154.321 290.214 154.786C290.536 155.248 290.719 155.788 290.765 156.406H288.822C288.743 155.993 288.557 155.648 288.261 155.372C287.969 155.093 287.578 154.954 287.087 154.954C286.672 154.954 286.307 155.066 285.993 155.289C285.679 155.508 285.433 155.825 285.258 156.238C285.085 156.652 284.999 157.148 284.999 157.724C284.999 158.309 285.085 158.812 285.258 159.232C285.43 159.649 285.671 159.972 285.982 160.199C286.296 160.422 286.665 160.534 287.087 160.534C287.387 160.534 287.655 160.478 287.89 160.367C288.13 160.251 288.33 160.085 288.491 159.869C288.652 159.653 288.762 159.391 288.822 159.081H290.765C290.716 159.689 290.536 160.227 290.225 160.696C289.915 161.162 289.492 161.527 288.957 161.791C288.422 162.051 287.793 162.182 287.071 162.182ZM295.935 162.182C295.07 162.182 294.324 162.003 293.695 161.645C293.069 161.284 292.589 160.774 292.252 160.115C291.915 159.452 291.747 158.672 291.747 157.774C291.747 156.892 291.915 156.117 292.252 155.451C292.593 154.781 293.068 154.26 293.678 153.887C294.288 153.511 295.004 153.323 295.828 153.323C296.359 153.323 296.861 153.409 297.332 153.58C297.808 153.748 298.227 154.008 298.59 154.362C298.957 154.716 299.245 155.166 299.455 155.714C299.664 156.257 299.769 156.905 299.769 157.657V158.278H292.701V156.915H297.821C297.818 156.527 297.733 156.182 297.569 155.881C297.403 155.575 297.173 155.335 296.878 155.161C296.586 154.985 296.245 154.898 295.857 154.898C295.441 154.898 295.076 154.999 294.762 155.199C294.447 155.397 294.202 155.658 294.026 155.982C293.854 156.302 293.766 156.654 293.762 157.037V158.227C293.762 158.726 293.854 159.155 294.037 159.512C294.22 159.866 294.477 160.138 294.806 160.327C295.136 160.514 295.521 160.606 295.962 160.606C296.259 160.606 296.526 160.566 296.766 160.484C297.005 160.398 297.213 160.273 297.388 160.109C297.565 159.946 297.697 159.743 297.788 159.501L299.685 159.713C299.565 160.212 299.337 160.647 299 161.02C298.667 161.389 298.241 161.675 297.72 161.881C297.2 162.081 296.605 162.182 295.935 162.182ZM301.172 162.014V153.435H303.204V162.014H301.172ZM302.194 152.217C301.872 152.217 301.595 152.111 301.363 151.899C301.131 151.682 301.015 151.424 301.015 151.122C301.015 150.816 301.131 150.558 301.363 150.345C301.595 150.13 301.872 150.021 302.194 150.021C302.519 150.021 302.797 150.13 303.025 150.345C303.257 150.558 303.373 150.816 303.373 151.122C303.373 151.424 303.257 151.682 303.025 151.899C302.797 152.111 302.519 152.217 302.194 152.217ZM312.68 153.435L309.609 162.014H307.364L304.293 153.435H306.46L308.442 159.808H308.531L310.519 153.435H312.68ZM317.295 162.182C316.43 162.182 315.683 162.003 315.055 161.645C314.43 161.284 313.949 160.774 313.612 160.115C313.275 159.452 313.106 158.672 313.106 157.774C313.106 156.892 313.275 156.117 313.612 155.451C313.952 154.781 314.428 154.26 315.038 153.887C315.648 153.511 316.365 153.323 317.188 153.323C317.719 153.323 318.221 153.409 318.692 153.58C319.167 153.748 319.587 154.008 319.95 154.362C320.317 154.716 320.605 155.166 320.815 155.714C321.024 156.257 321.129 156.905 321.129 157.657V158.278H314.061V156.915H319.181C319.177 156.527 319.093 156.182 318.928 155.881C318.764 155.575 318.534 155.335 318.238 155.161C317.946 154.985 317.606 154.898 317.216 154.898C316.801 154.898 316.436 154.999 316.121 155.199C315.807 155.397 315.561 155.658 315.386 155.982C315.214 156.302 315.126 156.654 315.122 157.037V158.227C315.122 158.726 315.214 159.155 315.397 159.512C315.58 159.866 315.837 160.138 316.166 160.327C316.496 160.514 316.881 160.606 317.323 160.606C317.618 160.606 317.886 160.566 318.126 160.484C318.365 160.398 318.573 160.273 318.749 160.109C318.925 159.946 319.058 159.743 319.147 159.501L321.045 159.713C320.925 160.212 320.697 160.647 320.359 161.02C320.027 161.389 319.6 161.675 319.08 161.881C318.56 162.081 317.964 162.182 317.295 162.182ZM326.137 162.014V153.435H328.08V154.893H328.181C328.36 154.401 328.658 154.017 329.073 153.742C329.489 153.462 329.985 153.323 330.561 153.323C331.145 153.323 331.637 153.464 332.037 153.748C332.441 154.027 332.726 154.408 332.891 154.893H332.98C333.172 154.416 333.493 154.036 333.946 153.753C334.402 153.466 334.944 153.323 335.568 153.323C336.362 153.323 337.009 153.572 337.511 154.072C338.012 154.57 338.263 155.298 338.263 156.256V162.014H336.225V156.568C336.225 156.035 336.083 155.646 335.798 155.401C335.515 155.151 335.166 155.026 334.754 155.026C334.264 155.026 333.881 155.179 333.604 155.484C333.331 155.786 333.194 156.179 333.194 156.663V162.014H331.201V156.484C331.201 156.041 331.066 155.687 330.796 155.423C330.531 155.159 330.183 155.026 329.752 155.026C329.461 155.026 329.195 155.101 328.955 155.25C328.716 155.395 328.525 155.602 328.382 155.87C328.24 156.135 328.17 156.444 328.17 156.797V162.014H326.137ZM345.505 158.406V153.435H347.537V162.014H345.567V160.489H345.477C345.282 160.97 344.962 161.362 344.517 161.668C344.075 161.973 343.53 162.126 342.883 162.126C342.318 162.126 341.818 162.001 341.384 161.752C340.954 161.498 340.617 161.132 340.373 160.651C340.131 160.168 340.009 159.582 340.009 158.897V153.435H342.041V158.584C342.041 159.128 342.191 159.56 342.49 159.881C342.79 160.201 343.183 160.361 343.669 160.361C343.968 160.361 344.258 160.288 344.539 160.143C344.82 159.998 345.05 159.781 345.23 159.495C345.413 159.205 345.505 158.842 345.505 158.406ZM351.343 150.575V162.014H349.311V150.575H351.343ZM357.422 153.435V154.999H352.466V153.435H357.422ZM353.689 151.379H355.721V159.434C355.721 159.705 355.763 159.914 355.845 160.059C355.931 160.201 356.043 160.297 356.181 160.35C356.321 160.402 356.474 160.428 356.642 160.428C356.77 160.428 356.886 160.418 356.99 160.4C357.098 160.381 357.181 160.364 357.237 160.35L357.58 161.93C357.471 161.968 357.316 162.009 357.113 162.054C356.915 162.098 356.672 162.124 356.384 162.131C355.875 162.146 355.416 162.07 355.008 161.903C354.601 161.731 354.276 161.467 354.037 161.109C353.801 160.752 353.685 160.305 353.689 159.769V151.379ZM358.806 162.014V153.435H360.838V162.014H358.806ZM359.828 152.217C359.506 152.217 359.229 152.111 358.997 151.899C358.765 151.682 358.648 151.424 358.648 151.122C358.648 150.816 358.765 150.558 358.997 150.345C359.229 150.13 359.506 150.021 359.828 150.021C360.153 150.021 360.43 150.13 360.659 150.345C360.891 150.558 361.006 150.816 361.006 151.122C361.006 151.424 360.891 151.682 360.659 151.899C360.43 152.111 360.153 152.217 359.828 152.217ZM362.612 165.232V153.435H364.61V154.853H364.728C364.833 154.645 364.981 154.423 365.172 154.189C365.362 153.95 365.621 153.748 365.947 153.58C366.272 153.409 366.687 153.323 367.192 153.323C367.859 153.323 368.459 153.492 368.995 153.831C369.534 154.166 369.96 154.663 370.275 155.322C370.593 155.978 370.752 156.783 370.752 157.736C370.752 158.678 370.597 159.479 370.286 160.138C369.975 160.797 369.553 161.299 369.017 161.645C368.482 161.992 367.876 162.165 367.199 162.165C366.705 162.165 366.294 162.083 365.969 161.919C365.643 161.755 365.381 161.558 365.183 161.327C364.989 161.092 364.837 160.871 364.728 160.662H364.644V165.232H362.612ZM364.604 157.724C364.604 158.279 364.683 158.765 364.841 159.182C365.001 159.599 365.231 159.925 365.531 160.16C365.834 160.391 366.201 160.506 366.631 160.506C367.08 160.506 367.456 160.387 367.76 160.149C368.063 159.906 368.291 159.577 368.444 159.16C368.602 158.739 368.681 158.26 368.681 157.724C368.681 157.192 368.604 156.719 368.45 156.305C368.297 155.892 368.068 155.568 367.765 155.334C367.462 155.099 367.084 154.982 366.631 154.982C366.197 154.982 365.829 155.096 365.525 155.322C365.223 155.549 364.992 155.868 364.835 156.278C364.681 156.687 364.604 157.17 364.604 157.724ZM374.208 150.575V162.014H372.176V150.575H374.208ZM375.982 162.014V153.435H378.014V162.014H375.982ZM377.003 152.217C376.682 152.217 376.405 152.111 376.173 151.899C375.941 151.682 375.825 151.424 375.825 151.122C375.825 150.816 375.941 150.558 376.173 150.345C376.405 150.13 376.682 150.021 377.003 150.021C377.329 150.021 377.606 150.13 377.835 150.345C378.066 150.558 378.183 150.816 378.183 151.122C378.183 151.424 378.066 151.682 377.835 151.899C377.606 152.111 377.329 152.217 377.003 152.217ZM383.605 162.182C382.741 162.182 381.994 162.003 381.365 161.645C380.74 161.284 380.259 160.774 379.922 160.115C379.586 159.452 379.417 158.672 379.417 157.774C379.417 156.892 379.586 156.117 379.922 155.451C380.263 154.781 380.738 154.26 381.348 153.887C381.959 153.511 382.675 153.323 383.498 153.323C384.03 153.323 384.531 153.409 385.003 153.58C385.478 153.748 385.897 154.008 386.261 154.362C386.628 154.716 386.915 155.166 387.125 155.714C387.335 156.257 387.439 156.905 387.439 157.657V158.278H380.371V156.915H385.492C385.488 156.527 385.403 156.182 385.239 155.881C385.074 155.575 384.844 155.335 384.548 155.161C384.256 154.985 383.916 154.898 383.527 154.898C383.111 154.898 382.747 154.999 382.432 155.199C382.117 155.397 381.872 155.658 381.696 155.982C381.525 156.302 381.436 156.654 381.433 157.037V158.227C381.433 158.726 381.525 159.155 381.708 159.512C381.891 159.866 382.147 160.138 382.477 160.327C382.806 160.514 383.192 160.606 383.633 160.606C383.929 160.606 384.196 160.566 384.436 160.484C384.675 160.398 384.883 160.273 385.059 160.109C385.235 159.946 385.368 159.743 385.458 159.501L387.356 159.713C387.236 160.212 387.007 160.647 386.67 161.02C386.338 161.389 385.911 161.675 385.391 161.881C384.871 162.081 384.275 162.182 383.605 162.182ZM388.842 162.014V153.435H390.813V154.864H390.903C391.06 154.369 391.329 153.987 391.711 153.719C392.097 153.447 392.536 153.312 393.03 153.312C393.143 153.312 393.268 153.317 393.406 153.328C393.549 153.335 393.667 153.349 393.761 153.368V155.228C393.674 155.198 393.538 155.172 393.35 155.149C393.167 155.123 392.989 155.111 392.818 155.111C392.447 155.111 392.113 155.19 391.818 155.35C391.526 155.507 391.296 155.725 391.128 156.004C390.959 156.283 390.875 156.606 390.875 156.971V162.014H388.842ZM401.61 155.702L399.757 155.903C399.705 155.717 399.613 155.542 399.482 155.378C399.355 155.214 399.182 155.082 398.966 154.982C398.748 154.881 398.483 154.831 398.168 154.831C397.745 154.831 397.39 154.922 397.102 155.104C396.817 155.287 396.677 155.523 396.68 155.814C396.677 156.064 396.768 156.267 396.956 156.423C397.147 156.579 397.461 156.708 397.899 156.809L399.37 157.121C400.185 157.296 400.792 157.574 401.188 157.954C401.589 158.334 401.792 158.831 401.795 159.445C401.792 159.985 401.632 160.462 401.318 160.875C401.007 161.284 400.575 161.604 400.021 161.836C399.467 162.066 398.831 162.182 398.112 162.182C397.057 162.182 396.207 161.962 395.564 161.523C394.919 161.08 394.536 160.463 394.413 159.674L396.394 159.484C396.484 159.871 396.675 160.164 396.967 160.361C397.259 160.558 397.638 160.657 398.106 160.657C398.589 160.657 398.977 160.558 399.268 160.361C399.564 160.164 399.712 159.92 399.712 159.629C399.712 159.383 399.617 159.181 399.426 159.02C399.238 158.86 398.947 158.737 398.55 158.651L397.079 158.345C396.252 158.173 395.64 157.884 395.243 157.479C394.847 157.069 394.651 156.551 394.654 155.926C394.651 155.397 394.794 154.939 395.086 154.551C395.382 154.16 395.792 153.859 396.316 153.647C396.843 153.431 397.452 153.323 398.14 153.323C399.151 153.323 399.946 153.537 400.526 153.965C401.11 154.393 401.471 154.972 401.61 155.702ZM411.127 153.435V154.999H406.03V153.435H411.127ZM407.304 162.014V152.624C407.304 152.047 407.424 151.567 407.664 151.184C407.907 150.8 408.233 150.513 408.641 150.323C409.049 150.133 409.501 150.039 409.999 150.039C410.35 150.039 410.663 150.066 410.936 150.122C411.21 150.178 411.412 150.228 411.543 150.273L411.138 151.837C411.052 151.811 410.944 151.785 410.813 151.759C410.682 151.729 410.536 151.714 410.375 151.714C409.997 151.714 409.729 151.805 409.573 151.987C409.418 152.167 409.342 152.423 409.342 152.759V162.014H407.304ZM415.84 162.182C414.997 162.182 414.268 161.998 413.65 161.629C413.033 161.26 412.554 160.744 412.213 160.082C411.877 159.419 411.708 158.644 411.708 157.758C411.708 156.871 411.877 156.095 412.213 155.428C412.554 154.762 413.033 154.245 413.65 153.876C414.268 153.507 414.997 153.323 415.84 153.323C416.682 153.323 417.411 153.507 418.03 153.876C418.647 154.245 419.124 154.762 419.461 155.428C419.802 156.095 419.972 156.871 419.972 157.758C419.972 158.644 419.802 159.419 419.461 160.082C419.124 160.744 418.647 161.26 418.03 161.629C417.411 161.998 416.682 162.182 415.84 162.182ZM415.851 160.562C416.308 160.562 416.69 160.437 416.996 160.188C417.303 159.935 417.532 159.596 417.681 159.171C417.834 158.746 417.912 158.274 417.912 157.752C417.912 157.227 417.834 156.753 417.681 156.328C417.532 155.899 417.303 155.559 416.996 155.306C416.69 155.052 416.308 154.926 415.851 154.926C415.383 154.926 414.994 155.052 414.684 155.306C414.376 155.559 414.146 155.899 413.993 156.328C413.843 156.753 413.768 157.227 413.768 157.752C413.768 158.274 413.843 158.746 413.993 159.171C414.146 159.596 414.376 159.935 414.684 160.188C414.994 160.437 415.383 160.562 415.851 160.562ZM421.38 162.014V153.435H423.351V154.864H423.441C423.598 154.369 423.868 153.987 424.249 153.719C424.634 153.447 425.075 153.312 425.569 153.312C425.681 153.312 425.806 153.317 425.944 153.328C426.086 153.335 426.204 153.349 426.298 153.368V155.228C426.212 155.198 426.075 155.172 425.888 155.149C425.705 155.123 425.527 155.111 425.355 155.111C424.985 155.111 424.652 155.19 424.355 155.35C424.064 155.507 423.834 155.725 423.665 156.004C423.497 156.283 423.412 156.606 423.412 156.971V162.014H421.38ZM432.201 165.232C431.923 165.232 431.667 165.21 431.431 165.165C431.199 165.124 431.014 165.075 430.876 165.019L431.347 163.444C431.642 163.53 431.906 163.571 432.139 163.567C432.37 163.564 432.574 163.49 432.751 163.349C432.93 163.211 433.082 162.981 433.205 162.657L433.379 162.193L430.252 153.435H432.408L434.396 159.914H434.485L436.478 153.435H438.639L435.187 163.053C435.026 163.508 434.813 163.896 434.547 164.22C434.281 164.548 433.956 164.798 433.57 164.969C433.189 165.144 432.732 165.232 432.201 165.232ZM443.198 162.182C442.355 162.182 441.626 161.998 441.008 161.629C440.391 161.26 439.912 160.744 439.571 160.082C439.235 159.419 439.066 158.644 439.066 157.758C439.066 156.871 439.235 156.095 439.571 155.428C439.912 154.762 440.391 154.245 441.008 153.876C441.626 153.507 442.355 153.323 443.198 153.323C444.04 153.323 444.769 153.507 445.387 153.876C446.005 154.245 446.482 154.762 446.819 155.428C447.16 156.095 447.33 156.871 447.33 157.758C447.33 158.644 447.16 159.419 446.819 160.082C446.482 160.744 446.005 161.26 445.387 161.629C444.769 161.998 444.04 162.182 443.198 162.182ZM443.209 160.562C443.666 160.562 444.048 160.437 444.354 160.188C444.661 159.935 444.889 159.596 445.039 159.171C445.192 158.746 445.269 158.274 445.269 157.752C445.269 157.227 445.192 156.753 445.039 156.328C444.889 155.899 444.661 155.559 444.354 155.306C444.048 155.052 443.666 154.926 443.209 154.926C442.741 154.926 442.352 155.052 442.042 155.306C441.734 155.559 441.504 155.899 441.351 156.328C441.201 156.753 441.126 157.227 441.126 157.752C441.126 158.274 441.201 158.746 441.351 159.171C441.504 159.596 441.734 159.935 442.042 160.188C442.352 160.437 442.741 160.562 443.209 160.562ZM454.234 158.406V153.435H456.266V162.014H454.296V160.489H454.206C454.012 160.97 453.692 161.362 453.246 161.668C452.805 161.973 452.26 162.126 451.613 162.126C451.048 162.126 450.547 162.001 450.114 161.752C449.684 161.498 449.347 161.132 449.103 160.651C448.86 160.168 448.738 159.582 448.738 158.897V153.435H450.77V158.584C450.77 159.128 450.921 159.56 451.219 159.881C451.519 160.201 451.912 160.361 452.399 160.361C452.698 160.361 452.988 160.288 453.269 160.143C453.55 159.998 453.78 159.781 453.959 159.495C454.142 159.205 454.234 158.842 454.234 158.406ZM458.04 162.014V153.435H460.011V154.864H460.101C460.258 154.369 460.527 153.987 460.909 153.719C461.294 153.447 461.734 153.312 462.228 153.312C462.341 153.312 462.466 153.317 462.604 153.328C462.746 153.335 462.864 153.349 462.958 153.368V155.228C462.872 155.198 462.735 155.172 462.548 155.149C462.365 155.123 462.187 155.111 462.015 155.111C461.644 155.111 461.311 155.19 461.015 155.35C460.724 155.507 460.494 155.725 460.325 156.004C460.157 156.283 460.072 156.606 460.072 156.971V162.014H458.04ZM467.597 165.232V153.435H469.596V154.853H469.713C469.818 154.645 469.966 154.423 470.157 154.189C470.348 153.95 470.607 153.748 470.932 153.58C471.257 153.409 471.673 153.323 472.178 153.323C472.844 153.323 473.445 153.492 473.98 153.831C474.519 154.166 474.946 154.663 475.26 155.322C475.578 155.978 475.737 156.783 475.737 157.736C475.737 158.678 475.582 159.479 475.272 160.138C474.961 160.797 474.538 161.299 474.002 161.645C473.467 161.992 472.861 162.165 472.183 162.165C471.689 162.165 471.28 162.083 470.954 161.919C470.629 161.755 470.367 161.558 470.169 161.327C469.973 161.092 469.822 160.871 469.713 160.662H469.63V165.232H467.597ZM469.59 157.724C469.59 158.279 469.669 158.765 469.826 159.182C469.987 159.599 470.217 159.925 470.516 160.16C470.819 160.391 471.186 160.506 471.617 160.506C472.066 160.506 472.442 160.387 472.745 160.149C473.048 159.906 473.277 159.577 473.43 159.16C473.587 158.739 473.666 158.26 473.666 157.724C473.666 157.192 473.589 156.719 473.435 156.305C473.282 155.892 473.054 155.568 472.751 155.334C472.447 155.099 472.07 154.982 471.617 154.982C471.183 154.982 470.814 155.096 470.511 155.322C470.207 155.549 469.977 155.868 469.82 156.278C469.667 156.687 469.59 157.17 469.59 157.724ZM480.923 162.182C480.081 162.182 479.351 161.998 478.733 161.629C478.116 161.26 477.637 160.744 477.296 160.082C476.959 159.419 476.791 158.644 476.791 157.758C476.791 156.871 476.959 156.095 477.296 155.428C477.637 154.762 478.116 154.245 478.733 153.876C479.351 153.507 480.081 153.323 480.923 153.323C481.765 153.323 482.495 153.507 483.112 153.876C483.729 154.245 484.207 154.762 484.544 155.428C484.884 156.095 485.055 156.871 485.055 157.758C485.055 158.644 484.884 159.419 484.544 160.082C484.207 160.744 483.729 161.26 483.112 161.629C482.495 161.998 481.765 162.182 480.923 162.182ZM480.934 160.562C481.391 160.562 481.772 160.437 482.079 160.188C482.386 159.935 482.614 159.596 482.764 159.171C482.918 158.746 482.994 158.274 482.994 157.752C482.994 157.227 482.918 156.753 482.764 156.328C482.614 155.899 482.386 155.559 482.079 155.306C481.772 155.052 481.391 154.926 480.934 154.926C480.466 154.926 480.077 155.052 479.766 155.306C479.459 155.559 479.229 155.899 479.076 156.328C478.926 156.753 478.852 157.227 478.852 157.752C478.852 158.274 478.926 158.746 479.076 159.171C479.229 159.596 479.459 159.935 479.766 160.188C480.077 160.437 480.466 160.562 480.934 160.562ZM486.464 162.014V153.435H488.496V162.014H486.464ZM487.485 152.217C487.163 152.217 486.886 152.111 486.654 151.899C486.422 151.682 486.306 151.424 486.306 151.122C486.306 150.816 486.422 150.558 486.654 150.345C486.886 150.13 487.163 150.021 487.485 150.021C487.81 150.021 488.088 150.13 488.316 150.345C488.548 150.558 488.664 150.816 488.664 151.122C488.664 151.424 488.548 151.682 488.316 151.899C488.088 152.111 487.81 152.217 487.485 152.217ZM492.302 156.987V162.014H490.27V153.435H492.212V154.893H492.313C492.511 154.412 492.827 154.03 493.261 153.748C493.699 153.464 494.24 153.323 494.884 153.323C495.479 153.323 495.997 153.449 496.439 153.703C496.884 153.956 497.229 154.322 497.472 154.803C497.719 155.284 497.84 155.866 497.836 156.551V162.014H495.804V156.864C495.804 156.291 495.655 155.842 495.355 155.518C495.06 155.194 494.65 155.032 494.126 155.032C493.77 155.032 493.454 155.111 493.178 155.266C492.904 155.42 492.689 155.641 492.532 155.932C492.378 156.222 492.302 156.573 492.302 156.987ZM503.893 153.435V154.999H498.935V153.435H503.893ZM500.16 151.379H502.192V159.434C502.192 159.705 502.233 159.914 502.315 160.059C502.401 160.201 502.513 160.297 502.652 160.35C502.79 160.402 502.943 160.428 503.112 160.428C503.239 160.428 503.355 160.418 503.46 160.4C503.569 160.381 503.651 160.364 503.707 160.35L504.049 161.93C503.941 161.968 503.786 162.009 503.584 162.054C503.385 162.098 503.142 162.124 502.854 162.131C502.345 162.146 501.887 162.07 501.479 161.903C501.07 161.731 500.747 161.467 500.507 161.109C500.272 160.752 500.156 160.305 500.16 159.769V151.379ZM511.968 155.702L510.115 155.903C510.063 155.717 509.971 155.542 509.84 155.378C509.713 155.214 509.54 155.082 509.324 154.982C509.107 154.881 508.841 154.831 508.526 154.831C508.103 154.831 507.748 154.922 507.46 155.104C507.175 155.287 507.035 155.523 507.039 155.814C507.035 156.064 507.126 156.267 507.314 156.423C507.504 156.579 507.819 156.708 508.257 156.809L509.728 157.121C510.544 157.296 511.15 157.574 511.547 157.954C511.947 158.334 512.149 158.831 512.153 159.445C512.149 159.985 511.99 160.462 511.675 160.875C511.365 161.284 510.932 161.604 510.379 161.836C509.825 162.066 509.189 162.182 508.47 162.182C507.415 162.182 506.565 161.962 505.922 161.523C505.278 161.08 504.894 160.463 504.771 159.674L506.753 159.484C506.842 159.871 507.033 160.164 507.325 160.361C507.617 160.558 507.997 160.657 508.465 160.657C508.948 160.657 509.335 160.558 509.627 160.361C509.922 160.164 510.07 159.92 510.07 159.629C510.07 159.383 509.974 159.181 509.784 159.02C509.597 158.86 509.305 158.737 508.908 158.651L507.437 158.345C506.61 158.173 505.999 157.884 505.602 157.479C505.205 157.069 505.008 156.551 505.012 155.926C505.008 155.397 505.153 154.939 505.444 154.551C505.74 154.16 506.149 153.859 506.674 153.647C507.202 153.431 507.809 153.323 508.498 153.323C509.509 153.323 510.304 153.537 510.884 153.965C511.468 154.393 511.829 154.972 511.968 155.702ZM71.5921 190.327L69.1557 181.748H71.2272L72.743 187.78H72.8215L74.371 181.748H76.4201L77.9695 187.747H78.0538L79.5468 181.748H81.624L79.1824 190.327H77.0657L75.4489 184.529H75.331L73.7142 190.327H71.5921ZM84.7589 185.3V190.327H82.7267V178.888H84.7147V183.206H84.8151C85.0174 182.721 85.3296 182.34 85.7525 182.061C86.1794 181.778 86.7224 181.636 87.3808 181.636C87.98 181.636 88.5017 181.76 88.9475 182.01C89.3925 182.26 89.7371 182.625 89.9798 183.105C90.2272 183.586 90.3505 184.172 90.3505 184.865V190.327H88.3183V185.178C88.3183 184.6 88.1689 184.151 87.8693 183.831C87.5737 183.507 87.1579 183.345 86.6228 183.345C86.2639 183.345 85.9422 183.424 85.6577 183.579C85.3771 183.733 85.1557 183.954 84.9953 184.245C84.838 184.535 84.7589 184.887 84.7589 185.3ZM92.1061 190.327V181.748H94.1383V190.327H92.1061ZM93.1281 180.53C92.8056 180.53 92.529 180.424 92.2966 180.212C92.065 179.995 91.9488 179.737 91.9488 179.435C91.9488 179.13 92.065 178.871 92.2966 178.658C92.529 178.443 92.8056 178.334 93.1281 178.334C93.453 178.334 93.7304 178.443 93.9589 178.658C94.1905 178.871 94.3067 179.13 94.3067 179.435C94.3067 179.737 94.1905 179.995 93.9589 180.212C93.7304 180.424 93.453 180.53 93.1281 180.53ZM99.673 190.495C98.8122 190.495 98.0731 190.307 97.4558 189.931C96.8416 189.555 96.3681 189.035 96.0354 188.372C95.7058 187.706 95.5413 186.938 95.5413 186.071C95.5413 185.2 95.7097 184.43 96.0464 183.764C96.3832 183.094 96.859 182.573 97.4724 182.2C98.0897 181.824 98.8201 181.636 99.6619 181.636C100.362 181.636 100.981 181.764 101.52 182.021C102.062 182.275 102.495 182.634 102.817 183.1C103.139 183.561 103.322 184.101 103.368 184.719H101.425C101.346 184.306 101.159 183.962 100.863 183.686C100.572 183.406 100.18 183.267 99.6904 183.267C99.2746 183.267 98.9094 183.379 98.5956 183.602C98.281 183.822 98.036 184.139 97.8597 184.552C97.6874 184.965 97.602 185.461 97.602 186.037C97.602 186.622 97.6874 187.125 97.8597 187.546C98.032 187.962 98.2731 188.285 98.5838 188.512C98.8983 188.736 99.2675 188.847 99.6904 188.847C99.9892 188.847 100.257 188.791 100.493 188.68C100.732 188.564 100.933 188.398 101.093 188.183C101.255 187.966 101.365 187.704 101.425 187.395H103.368C103.318 188.002 103.139 188.54 102.828 189.009C102.518 189.475 102.095 189.84 101.56 190.104C101.025 190.364 100.395 190.495 99.673 190.495ZM106.752 185.3V190.327H104.72V178.888H106.707V183.206H106.808C107.01 182.721 107.323 182.34 107.746 182.061C108.173 181.778 108.715 181.636 109.374 181.636C109.972 181.636 110.495 181.76 110.94 182.01C111.386 182.26 111.73 182.625 111.973 183.105C112.22 183.586 112.344 184.172 112.344 184.865V190.327H110.312V185.178C110.312 184.6 110.161 184.151 109.862 183.831C109.566 183.507 109.151 183.345 108.616 183.345C108.256 183.345 107.935 183.424 107.65 183.579C107.37 183.733 107.149 183.954 106.988 184.245C106.83 184.535 106.752 184.887 106.752 185.3ZM121.454 193.723C120.724 193.723 120.097 193.625 119.573 193.428C119.049 193.234 118.629 192.973 118.31 192.645C117.992 192.318 117.772 191.955 117.648 191.556L119.478 191.115C119.56 191.282 119.68 191.448 119.837 191.612C119.994 191.78 120.206 191.918 120.472 192.025C120.741 192.137 121.08 192.193 121.488 192.193C122.064 192.193 122.541 192.054 122.919 191.774C123.298 191.498 123.487 191.044 123.487 190.412V188.786H123.385C123.28 188.994 123.127 189.208 122.925 189.428C122.726 189.648 122.463 189.832 122.133 189.981C121.808 190.13 121.398 190.205 120.904 190.205C120.242 190.205 119.641 190.05 119.102 189.741C118.567 189.428 118.14 188.963 117.822 188.345C117.508 187.723 117.35 186.944 117.35 186.01C117.35 185.067 117.508 184.272 117.822 183.624C118.14 182.973 118.568 182.479 119.108 182.144C119.647 181.805 120.247 181.636 120.91 181.636C121.415 181.636 121.83 181.722 122.156 181.893C122.485 182.061 122.748 182.264 122.942 182.502C123.136 182.736 123.284 182.958 123.385 183.167H123.498V181.748H125.501V190.467C125.501 191.2 125.326 191.808 124.974 192.288C124.622 192.769 124.141 193.128 123.531 193.366C122.921 193.605 122.229 193.723 121.454 193.723ZM121.471 188.618C121.901 188.618 122.268 188.514 122.571 188.305C122.874 188.097 123.105 187.797 123.262 187.406C123.419 187.015 123.498 186.546 123.498 185.999C123.498 185.458 123.419 184.986 123.262 184.58C123.108 184.174 122.88 183.859 122.577 183.635C122.277 183.409 121.909 183.295 121.471 183.295C121.018 183.295 120.64 183.412 120.337 183.647C120.034 183.881 119.806 184.204 119.652 184.613C119.499 185.019 119.422 185.481 119.422 185.999C119.422 186.523 119.499 186.983 119.652 187.378C119.809 187.769 120.039 188.074 120.342 188.294C120.65 188.51 121.025 188.618 121.471 188.618ZM131.086 190.495C130.221 190.495 129.474 190.316 128.846 189.959C128.221 189.598 127.74 189.087 127.403 188.428C127.067 187.765 126.898 186.985 126.898 186.087C126.898 185.205 127.067 184.43 127.403 183.764C127.744 183.094 128.219 182.573 128.829 182.2C129.439 181.824 130.156 181.636 130.979 181.636C131.51 181.636 132.012 181.722 132.483 181.893C132.959 182.061 133.378 182.321 133.741 182.675C134.108 183.029 134.396 183.48 134.606 184.027C134.815 184.57 134.92 185.218 134.92 185.97V186.591H127.852V185.228H132.972C132.968 184.84 132.884 184.496 132.72 184.194C132.555 183.888 132.325 183.649 132.029 183.474C131.737 183.299 131.397 183.211 131.007 183.211C130.592 183.211 130.227 183.312 129.912 183.513C129.598 183.71 129.353 183.971 129.177 184.295C129.005 184.615 128.917 184.967 128.913 185.351V186.541C128.913 187.039 129.005 187.468 129.188 187.825C129.371 188.179 129.628 188.451 129.957 188.64C130.287 188.827 130.673 188.92 131.114 188.92C131.409 188.92 131.677 188.879 131.917 188.797C132.156 188.711 132.364 188.586 132.54 188.423C132.716 188.259 132.849 188.056 132.939 187.814L134.836 188.026C134.716 188.525 134.488 188.96 134.151 189.333C133.818 189.702 133.392 189.988 132.871 190.194C132.351 190.394 131.755 190.495 131.086 190.495ZM140.629 181.748V183.312H135.672V181.748H140.629ZM136.896 179.692H138.928V187.747C138.928 188.018 138.969 188.228 139.051 188.372C139.137 188.514 139.25 188.611 139.389 188.663C139.527 188.715 139.68 188.741 139.849 188.741C139.976 188.741 140.092 188.732 140.197 188.713C140.306 188.695 140.388 188.677 140.444 188.663L140.786 190.243C140.678 190.281 140.522 190.322 140.321 190.367C140.122 190.412 139.879 190.437 139.59 190.445C139.081 190.46 138.623 190.383 138.215 190.216C137.807 190.044 137.484 189.78 137.244 189.422C137.008 189.065 136.892 188.618 136.896 188.082V179.692ZM148.704 184.015L146.852 184.216C146.799 184.03 146.707 183.855 146.577 183.691C146.45 183.528 146.277 183.395 146.06 183.295C145.843 183.194 145.577 183.144 145.263 183.144C144.84 183.144 144.485 183.235 144.196 183.417C143.912 183.6 143.772 183.837 143.776 184.127C143.772 184.377 143.863 184.58 144.051 184.736C144.241 184.892 144.556 185.021 144.994 185.122L146.465 185.434C147.28 185.609 147.887 185.887 148.284 186.267C148.683 186.647 148.886 187.144 148.89 187.758C148.886 188.298 148.727 188.775 148.412 189.188C148.102 189.598 147.669 189.918 147.115 190.149C146.562 190.379 145.926 190.495 145.207 190.495C144.151 190.495 143.302 190.275 142.658 189.836C142.015 189.393 141.63 188.776 141.507 187.987L143.489 187.797C143.579 188.184 143.769 188.477 144.062 188.674C144.353 188.872 144.734 188.97 145.202 188.97C145.684 188.97 146.071 188.872 146.364 188.674C146.659 188.477 146.807 188.233 146.807 187.942C146.807 187.697 146.711 187.494 146.521 187.333C146.334 187.174 146.041 187.05 145.645 186.964L144.174 186.658C143.346 186.486 142.735 186.198 142.338 185.792C141.941 185.382 141.745 184.865 141.749 184.239C141.745 183.71 141.889 183.252 142.181 182.865C142.477 182.474 142.886 182.172 143.41 181.96C143.938 181.744 144.546 181.636 145.235 181.636C146.246 181.636 147.041 181.85 147.621 182.279C148.204 182.706 148.566 183.285 148.704 184.015ZM155.118 193.545C154.84 193.545 154.584 193.523 154.349 193.478C154.116 193.437 153.931 193.388 153.793 193.333L154.264 191.757C154.56 191.843 154.824 191.884 155.056 191.88C155.288 191.877 155.492 191.804 155.668 191.662C155.847 191.524 155.999 191.294 156.122 190.97L156.296 190.506L153.169 181.748H155.325L157.313 188.227H157.402L159.396 181.748H161.557L158.104 191.366C157.943 191.821 157.73 192.209 157.464 192.533C157.198 192.861 156.872 193.111 156.488 193.282C156.106 193.458 155.649 193.545 155.118 193.545ZM166.115 190.495C165.272 190.495 164.543 190.311 163.926 189.942C163.307 189.573 162.828 189.057 162.488 188.395C162.151 187.732 161.983 186.957 161.983 186.071C161.983 185.185 162.151 184.408 162.488 183.741C162.828 183.075 163.307 182.558 163.926 182.189C164.543 181.82 165.272 181.636 166.115 181.636C166.957 181.636 167.687 181.82 168.304 182.189C168.922 182.558 169.399 183.075 169.736 183.741C170.076 184.408 170.247 185.185 170.247 186.071C170.247 186.957 170.076 187.732 169.736 188.395C169.399 189.057 168.922 189.573 168.304 189.942C167.687 190.311 166.957 190.495 166.115 190.495ZM166.126 188.875C166.582 188.875 166.964 188.75 167.272 188.501C167.578 188.248 167.807 187.909 167.956 187.484C168.109 187.06 168.186 186.587 168.186 186.065C168.186 185.54 168.109 185.066 167.956 184.641C167.807 184.213 167.578 183.872 167.272 183.619C166.964 183.365 166.582 183.239 166.126 183.239C165.658 183.239 165.269 183.365 164.958 183.619C164.651 183.872 164.421 184.213 164.268 184.641C164.118 185.066 164.043 185.54 164.043 186.065C164.043 186.587 164.118 187.06 164.268 187.484C164.421 187.909 164.651 188.248 164.958 188.501C165.269 188.75 165.658 188.875 166.126 188.875ZM177.151 186.719V181.748H179.183V190.327H177.213V188.802H177.124C176.928 189.283 176.609 189.675 176.163 189.981C175.721 190.286 175.177 190.439 174.529 190.439C173.964 190.439 173.465 190.314 173.031 190.065C172.601 189.811 172.263 189.445 172.02 188.964C171.777 188.481 171.655 187.896 171.655 187.211V181.748H173.688V186.898C173.688 187.441 173.837 187.874 174.136 188.194C174.436 188.514 174.829 188.674 175.316 188.674C175.615 188.674 175.905 188.601 176.186 188.456C176.467 188.311 176.697 188.095 176.876 187.808C177.06 187.518 177.151 187.155 177.151 186.719ZM187.044 190.5C186.497 190.5 186.005 190.404 185.567 190.21C185.133 190.013 184.788 189.723 184.534 189.339C184.283 188.955 184.159 188.482 184.159 187.92C184.159 187.436 184.248 187.035 184.427 186.719C184.607 186.402 184.853 186.15 185.163 185.959C185.474 185.77 185.824 185.626 186.213 185.529C186.606 185.428 187.012 185.356 187.431 185.311C187.936 185.259 188.346 185.213 188.661 185.172C188.975 185.127 189.203 185.06 189.345 184.971C189.492 184.878 189.564 184.734 189.564 184.54V184.507C189.564 184.086 189.439 183.76 189.188 183.53C188.938 183.299 188.576 183.183 188.104 183.183C187.607 183.183 187.212 183.292 186.92 183.507C186.632 183.723 186.437 183.978 186.336 184.272L184.439 184.004C184.589 183.483 184.836 183.047 185.18 182.697C185.524 182.343 185.945 182.079 186.443 181.904C186.941 181.725 187.491 181.636 188.093 181.636C188.509 181.636 188.922 181.684 189.334 181.782C189.746 181.878 190.122 182.038 190.462 182.261C190.803 182.481 191.076 182.781 191.282 183.161C191.491 183.541 191.597 184.015 191.597 184.585V190.327H189.643V189.148H189.575C189.452 189.387 189.278 189.611 189.054 189.819C188.832 190.024 188.554 190.19 188.217 190.316C187.884 190.439 187.493 190.5 187.044 190.5ZM187.572 189.015C187.979 189.015 188.333 188.935 188.632 188.775C188.932 188.611 189.162 188.395 189.323 188.127C189.488 187.859 189.57 187.566 189.57 187.25V186.238C189.507 186.29 189.398 186.339 189.244 186.384C189.095 186.429 188.926 186.467 188.739 186.501C188.552 186.535 188.367 186.564 188.183 186.591C188 186.617 187.841 186.639 187.706 186.658C187.403 186.699 187.131 186.765 186.892 186.858C186.652 186.952 186.463 187.082 186.325 187.25C186.187 187.413 186.117 187.626 186.117 187.886C186.117 188.259 186.254 188.54 186.527 188.73C186.8 188.92 187.149 189.015 187.572 189.015ZM193.324 190.327V181.748H195.267V183.206H195.368C195.547 182.714 195.844 182.33 196.26 182.055C196.675 181.775 197.172 181.636 197.748 181.636C198.332 181.636 198.824 181.778 199.224 182.061C199.628 182.34 199.913 182.721 200.077 183.206H200.167C200.358 182.729 200.68 182.349 201.133 182.066C201.589 181.779 202.13 181.636 202.755 181.636C203.549 181.636 204.196 181.885 204.697 182.385C205.199 182.883 205.45 183.612 205.45 184.569V190.327H203.412V184.881C203.412 184.349 203.27 183.959 202.985 183.714C202.701 183.465 202.353 183.34 201.941 183.34C201.451 183.34 201.068 183.492 200.79 183.797C200.517 184.099 200.381 184.492 200.381 184.976V190.327H198.388V184.798C198.388 184.354 198.253 184 197.983 183.736C197.718 183.472 197.37 183.34 196.939 183.34C196.647 183.34 196.382 183.414 196.142 183.563C195.903 183.708 195.712 183.915 195.569 184.183C195.427 184.448 195.356 184.757 195.356 185.11V190.327H193.324ZM209.677 190.5C209.13 190.5 208.638 190.404 208.201 190.21C207.767 190.013 207.422 189.723 207.167 189.339C206.917 188.955 206.791 188.482 206.791 187.92C206.791 187.436 206.881 187.035 207.061 186.719C207.24 186.402 207.485 186.15 207.796 185.959C208.106 185.77 208.457 185.626 208.846 185.529C209.239 185.428 209.645 185.356 210.064 185.311C210.57 185.259 210.979 185.213 211.294 185.172C211.608 185.127 211.837 185.06 211.979 184.971C212.124 184.878 212.198 184.734 212.198 184.54V184.507C212.198 184.086 212.072 183.76 211.822 183.53C211.571 183.299 211.21 183.183 210.738 183.183C210.24 183.183 209.845 183.292 209.553 183.507C209.265 183.723 209.071 183.978 208.97 184.272L207.072 184.004C207.222 183.483 207.469 183.047 207.813 182.697C208.157 182.343 208.578 182.079 209.076 181.904C209.574 181.725 210.124 181.636 210.727 181.636C211.142 181.636 211.556 181.684 211.967 181.782C212.379 181.878 212.755 182.038 213.096 182.261C213.436 182.481 213.709 182.781 213.915 183.161C214.125 183.541 214.23 184.015 214.23 184.585V190.327H212.276V189.148H212.209C212.086 189.387 211.911 189.611 211.686 189.819C211.466 190.024 211.187 190.19 210.85 190.316C210.517 190.439 210.126 190.5 209.677 190.5ZM210.204 189.015C210.612 189.015 210.966 188.935 211.266 188.775C211.565 188.611 211.795 188.395 211.956 188.127C212.121 187.859 212.203 187.566 212.203 187.25V186.238C212.139 186.29 212.031 186.339 211.878 186.384C211.728 186.429 211.559 186.467 211.373 186.501C211.185 186.535 211 186.564 210.816 186.591C210.633 186.617 210.474 186.639 210.34 186.658C210.036 186.699 209.765 186.765 209.525 186.858C209.286 186.952 209.097 187.082 208.959 187.25C208.819 187.413 208.751 187.626 208.751 187.886C208.751 188.259 208.887 188.54 209.16 188.73C209.434 188.92 209.781 189.015 210.204 189.015ZM215.845 190.327V189.042L220.291 183.496V183.424H215.99V181.748H222.778V183.127L218.545 188.579V188.651H222.924V190.327H215.845ZM224.518 190.327V181.748H226.55V190.327H224.518ZM225.54 180.53C225.218 180.53 224.941 180.424 224.709 180.212C224.477 179.995 224.36 179.737 224.36 179.435C224.36 179.13 224.477 178.871 224.709 178.658C224.941 178.443 225.218 178.334 225.54 178.334C225.865 178.334 226.142 178.443 226.37 178.658C226.603 178.871 226.718 179.13 226.718 179.435C226.718 179.737 226.603 179.995 226.37 180.212C226.142 180.424 225.865 180.53 225.54 180.53ZM230.356 185.3V190.327H228.324V181.748H230.267V183.206H230.367C230.565 182.725 230.881 182.343 231.316 182.061C231.754 181.778 232.295 181.636 232.938 181.636C233.533 181.636 234.052 181.763 234.494 182.016C234.939 182.269 235.283 182.636 235.526 183.116C235.774 183.597 235.895 184.179 235.891 184.865V190.327H233.859V185.178C233.859 184.604 233.71 184.155 233.41 183.831C233.114 183.507 232.704 183.345 232.18 183.345C231.825 183.345 231.509 183.424 231.232 183.579C230.959 183.733 230.743 183.954 230.586 184.245C230.433 184.535 230.356 184.887 230.356 185.3ZM241.391 193.723C240.662 193.723 240.035 193.625 239.511 193.428C238.987 193.234 238.565 192.973 238.248 192.645C237.929 192.318 237.709 191.955 237.585 191.556L239.415 191.115C239.497 191.282 239.617 191.448 239.775 191.612C239.931 191.78 240.143 191.918 240.409 192.025C240.678 192.137 241.017 192.193 241.425 192.193C242.001 192.193 242.478 192.054 242.857 191.774C243.235 191.498 243.423 191.044 243.423 190.412V188.786H243.322C243.218 188.994 243.064 189.208 242.862 189.428C242.664 189.648 242.4 189.832 242.07 189.981C241.745 190.13 241.335 190.205 240.841 190.205C240.179 190.205 239.578 190.05 239.039 189.741C238.504 189.428 238.077 188.963 237.759 188.345C237.445 187.723 237.287 186.944 237.287 186.01C237.287 185.067 237.445 184.272 237.759 183.624C238.077 182.973 238.505 182.479 239.044 182.144C239.583 181.805 240.184 181.636 240.847 181.636C241.352 181.636 241.767 181.722 242.093 181.893C242.422 182.061 242.684 182.264 242.879 182.502C243.073 182.736 243.221 182.958 243.322 183.167H243.434V181.748H245.439V190.467C245.439 191.2 245.263 191.808 244.911 192.288C244.559 192.769 244.079 193.128 243.468 193.366C242.858 193.605 242.166 193.723 241.391 193.723ZM241.408 188.618C241.839 188.618 242.205 188.514 242.508 188.305C242.812 188.097 243.042 187.797 243.199 187.406C243.356 187.015 243.434 186.546 243.434 185.999C243.434 185.458 243.356 184.986 243.199 184.58C243.046 184.174 242.817 183.859 242.514 183.635C242.215 183.409 241.846 183.295 241.408 183.295C240.955 183.295 240.577 183.412 240.274 183.647C239.971 183.881 239.742 184.204 239.589 184.613C239.436 185.019 239.359 185.481 239.359 185.999C239.359 186.523 239.436 186.983 239.589 187.378C239.746 187.769 239.976 188.074 240.28 188.294C240.587 188.51 240.963 188.618 241.408 188.618ZM250.811 190.327V181.748H252.781V183.178H252.871C253.028 182.682 253.298 182.301 253.679 182.032C254.065 181.76 254.505 181.625 254.999 181.625C255.111 181.625 255.237 181.631 255.375 181.642C255.517 181.649 255.635 181.662 255.728 181.681V183.541C255.642 183.511 255.505 183.485 255.319 183.462C255.135 183.436 254.958 183.424 254.785 183.424C254.415 183.424 254.082 183.503 253.786 183.664C253.494 183.82 253.264 184.038 253.095 184.317C252.927 184.596 252.843 184.919 252.843 185.284V190.327H250.811ZM260.225 190.495C259.36 190.495 258.613 190.316 257.985 189.959C257.36 189.598 256.879 189.087 256.542 188.428C256.205 187.765 256.036 186.985 256.036 186.087C256.036 185.205 256.205 184.43 256.542 183.764C256.882 183.094 257.358 182.573 257.968 182.2C258.578 181.824 259.295 181.636 260.118 181.636C260.649 181.636 261.151 181.722 261.623 181.893C262.098 182.061 262.517 182.321 262.88 182.675C263.247 183.029 263.535 183.48 263.745 184.027C263.954 184.57 264.059 185.218 264.059 185.97V186.591H256.991V185.228H262.111C262.107 184.84 262.023 184.496 261.858 184.194C261.694 183.888 261.464 183.649 261.168 183.474C260.876 183.299 260.536 183.211 260.146 183.211C259.731 183.211 259.366 183.312 259.051 183.513C258.737 183.71 258.492 183.971 258.316 184.295C258.144 184.615 258.056 184.967 258.052 185.351V186.541C258.052 187.039 258.144 187.468 258.327 187.825C258.511 188.179 258.767 188.451 259.096 188.64C259.426 188.827 259.811 188.92 260.253 188.92C260.548 188.92 260.816 188.879 261.056 188.797C261.295 188.711 261.503 188.586 261.679 188.423C261.855 188.259 261.988 188.056 262.077 187.814L263.975 188.026C263.855 188.525 263.627 188.96 263.29 189.333C262.957 189.702 262.53 189.988 262.01 190.194C261.49 190.394 260.895 190.495 260.225 190.495ZM267.195 190.327L264.759 181.748H266.831L268.346 187.78H268.425L269.974 181.748H272.023L273.573 187.747H273.657L275.15 181.748H277.227L274.786 190.327H272.669L271.053 184.529H270.934L269.317 190.327H267.195ZM280.811 190.5C280.265 190.5 279.773 190.404 279.336 190.21C278.901 190.013 278.557 189.723 278.302 189.339C278.052 188.955 277.926 188.482 277.926 187.92C277.926 187.436 278.016 187.035 278.196 186.719C278.375 186.402 278.62 186.15 278.931 185.959C279.241 185.77 279.592 185.626 279.981 185.529C280.373 185.428 280.78 185.356 281.199 185.311C281.704 185.259 282.114 185.213 282.429 185.172C282.743 185.127 282.971 185.06 283.113 184.971C283.259 184.878 283.332 184.734 283.332 184.54V184.507C283.332 184.086 283.207 183.76 282.957 183.53C282.705 183.299 282.344 183.183 281.873 183.183C281.375 183.183 280.98 183.292 280.688 183.507C280.4 183.723 280.205 183.978 280.105 184.272L278.207 184.004C278.356 183.483 278.604 183.047 278.947 182.697C279.292 182.343 279.713 182.079 280.211 181.904C280.709 181.725 281.259 181.636 281.862 181.636C282.277 181.636 282.69 181.684 283.102 181.782C283.514 181.878 283.89 182.038 284.231 182.261C284.571 182.481 284.844 182.781 285.05 183.161C285.26 183.541 285.364 184.015 285.364 184.585V190.327H283.411V189.148H283.344C283.22 189.387 283.046 189.611 282.821 189.819C282.601 190.024 282.322 190.19 281.985 190.316C281.652 190.439 281.261 190.5 280.811 190.5ZM281.339 189.015C281.747 189.015 282.101 188.935 282.4 188.775C282.7 188.611 282.93 188.395 283.091 188.127C283.255 187.859 283.338 187.566 283.338 187.25V186.238C283.274 186.29 283.166 186.339 283.013 186.384C282.862 186.429 282.694 186.467 282.507 186.501C282.32 186.535 282.134 186.564 281.951 186.591C281.768 186.617 281.609 186.639 281.474 186.658C281.171 186.699 280.9 186.765 280.66 186.858C280.421 186.952 280.232 187.082 280.093 187.25C279.954 187.413 279.886 187.626 279.886 187.886C279.886 188.259 280.022 188.54 280.295 188.73C280.569 188.92 280.916 189.015 281.339 189.015ZM287.092 190.327V181.748H289.063V183.178H289.152C289.309 182.682 289.579 182.301 289.961 182.032C290.346 181.76 290.786 181.625 291.28 181.625C291.392 181.625 291.518 181.631 291.656 181.642C291.798 181.649 291.916 181.662 292.009 181.681V183.541C291.923 183.511 291.787 183.485 291.6 183.462C291.417 183.436 291.239 183.424 291.066 183.424C290.696 183.424 290.363 183.503 290.067 183.664C289.776 183.82 289.545 184.038 289.377 184.317C289.208 184.596 289.124 184.919 289.124 185.284V190.327H287.092ZM295.888 190.478C295.211 190.478 294.605 190.305 294.069 189.959C293.534 189.612 293.111 189.11 292.801 188.451C292.49 187.792 292.335 186.991 292.335 186.049C292.335 185.096 292.492 184.291 292.806 183.635C293.125 182.976 293.553 182.479 294.092 182.144C294.631 181.805 295.231 181.636 295.894 181.636C296.4 181.636 296.815 181.722 297.14 181.893C297.466 182.061 297.724 182.264 297.915 182.502C298.106 182.736 298.254 182.958 298.358 183.167H298.443V178.888H300.481V190.327H298.482V188.975H298.358C298.254 189.184 298.102 189.406 297.904 189.64C297.705 189.871 297.444 190.069 297.118 190.232C296.792 190.397 296.382 190.478 295.888 190.478ZM296.456 188.819C296.886 188.819 297.252 188.704 297.556 188.473C297.859 188.239 298.089 187.912 298.246 187.495C298.403 187.078 298.482 186.592 298.482 186.037C298.482 185.483 298.403 185.001 298.246 184.591C298.093 184.181 297.864 183.863 297.562 183.635C297.262 183.409 296.894 183.295 296.456 183.295C296.003 183.295 295.625 183.412 295.321 183.647C295.019 183.881 294.79 184.205 294.637 184.618C294.483 185.032 294.406 185.505 294.406 186.037C294.406 186.574 294.483 187.052 294.637 187.473C294.793 187.89 295.024 188.22 295.327 188.462C295.634 188.7 296.01 188.819 296.456 188.819ZM309.145 184.015L307.293 184.216C307.24 184.03 307.149 183.855 307.018 183.691C306.89 183.528 306.718 183.395 306.501 183.295C306.284 183.194 306.018 183.144 305.704 183.144C305.281 183.144 304.925 183.235 304.638 183.417C304.353 183.6 304.212 183.837 304.216 184.127C304.212 184.377 304.304 184.58 304.491 184.736C304.683 184.892 304.996 185.021 305.434 185.122L306.905 185.434C307.721 185.609 308.327 185.887 308.724 186.267C309.125 186.647 309.327 187.144 309.33 187.758C309.327 188.298 309.168 188.775 308.854 189.188C308.543 189.598 308.111 189.918 307.557 190.149C307.003 190.379 306.366 190.495 305.648 190.495C304.592 190.495 303.743 190.275 303.099 189.836C302.455 189.393 302.072 188.776 301.948 187.987L303.93 187.797C304.02 188.184 304.211 188.477 304.502 188.674C304.795 188.872 305.174 188.97 305.642 188.97C306.125 188.97 306.512 188.872 306.804 188.674C307.1 188.477 307.248 188.233 307.248 187.942C307.248 187.697 307.153 187.494 306.961 187.333C306.774 187.174 306.482 187.05 306.086 186.964L304.615 186.658C303.788 186.486 303.176 186.198 302.779 185.792C302.382 185.382 302.186 184.865 302.19 184.239C302.186 183.71 302.33 183.252 302.622 182.865C302.918 182.474 303.328 182.172 303.851 181.96C304.379 181.744 304.987 181.636 305.676 181.636C306.686 181.636 307.482 181.85 308.062 182.279C308.646 182.706 309.007 183.285 309.145 184.015ZM318.663 181.748V183.312H313.566V181.748H318.663ZM314.84 190.327V180.938C314.84 180.36 314.96 179.88 315.199 179.497C315.442 179.113 315.768 178.826 316.176 178.636C316.584 178.446 317.037 178.352 317.534 178.352C317.886 178.352 318.199 178.379 318.472 178.435C318.745 178.491 318.948 178.541 319.078 178.586L318.674 180.15C318.588 180.124 318.48 180.098 318.349 180.072C318.217 180.042 318.072 180.027 317.911 180.027C317.533 180.027 317.265 180.118 317.108 180.301C316.954 180.48 316.878 180.736 316.878 181.072V190.327H314.84ZM319.938 190.327V181.748H321.909V183.178H321.999C322.156 182.682 322.426 182.301 322.807 182.032C323.192 181.76 323.633 181.625 324.127 181.625C324.239 181.625 324.364 181.631 324.502 181.642C324.644 181.649 324.763 181.662 324.856 181.681V183.541C324.77 183.511 324.633 183.485 324.446 183.462C324.263 183.436 324.086 183.424 323.913 183.424C323.543 183.424 323.21 183.503 322.914 183.664C322.622 183.82 322.392 184.038 322.223 184.317C322.055 184.596 321.97 184.919 321.97 185.284V190.327H319.938ZM329.296 190.495C328.454 190.495 327.725 190.311 327.107 189.942C326.489 189.573 326.01 189.057 325.67 188.395C325.333 187.732 325.165 186.957 325.165 186.071C325.165 185.185 325.333 184.408 325.67 183.741C326.01 183.075 326.489 182.558 327.107 182.189C327.725 181.82 328.454 181.636 329.296 181.636C330.139 181.636 330.868 181.82 331.486 182.189C332.103 182.558 332.58 183.075 332.917 183.741C333.258 184.408 333.429 185.185 333.429 186.071C333.429 186.957 333.258 187.732 332.917 188.395C332.58 189.057 332.103 189.573 331.486 189.942C330.868 190.311 330.139 190.495 329.296 190.495ZM329.307 188.875C329.764 188.875 330.146 188.75 330.453 188.501C330.76 188.248 330.988 187.909 331.138 187.484C331.291 187.06 331.368 186.587 331.368 186.065C331.368 185.54 331.291 185.066 331.138 184.641C330.988 184.213 330.76 183.872 330.453 183.619C330.146 183.365 329.764 183.239 329.307 183.239C328.84 183.239 328.45 183.365 328.14 183.619C327.833 183.872 327.603 184.213 327.45 184.641C327.3 185.066 327.225 185.54 327.225 186.065C327.225 186.587 327.3 187.06 327.45 187.484C327.603 187.909 327.833 188.248 328.14 188.501C328.45 188.75 328.84 188.875 329.307 188.875ZM334.837 190.327V181.748H336.779V183.206H336.88C337.06 182.714 337.358 182.33 337.773 182.055C338.189 181.775 338.684 181.636 339.26 181.636C339.845 181.636 340.337 181.778 340.737 182.061C341.142 182.34 341.426 182.721 341.591 183.206H341.68C341.871 182.729 342.193 182.349 342.646 182.066C343.103 181.779 343.643 181.636 344.269 181.636C345.062 181.636 345.709 181.885 346.211 182.385C346.712 182.883 346.963 183.612 346.963 184.569V190.327H344.926V184.881C344.926 184.349 344.783 183.959 344.499 183.714C344.214 183.465 343.866 183.34 343.455 183.34C342.964 183.34 342.58 183.492 342.304 183.797C342.03 184.099 341.893 184.492 341.893 184.976V190.327H339.901V184.798C339.901 184.354 339.766 184 339.497 183.736C339.23 183.472 338.883 183.34 338.453 183.34C338.16 183.34 337.895 183.414 337.655 183.563C337.416 183.708 337.225 183.915 337.083 184.183C336.941 184.448 336.869 184.757 336.869 185.11V190.327H334.837ZM356.075 190.495C355.233 190.495 354.503 190.311 353.886 189.942C353.268 189.573 352.789 189.057 352.448 188.395C352.111 187.732 351.943 186.957 351.943 186.071C351.943 185.185 352.111 184.408 352.448 183.741C352.789 183.075 353.268 182.558 353.886 182.189C354.503 181.82 355.233 181.636 356.075 181.636C356.917 181.636 357.647 181.82 358.264 182.189C358.882 182.558 359.359 183.075 359.696 183.741C360.036 184.408 360.207 185.185 360.207 186.071C360.207 186.957 360.036 187.732 359.696 188.395C359.359 189.057 358.882 189.573 358.264 189.942C357.647 190.311 356.917 190.495 356.075 190.495ZM356.087 188.875C356.543 188.875 356.924 188.75 357.231 188.501C357.539 188.248 357.767 187.909 357.916 187.484C358.07 187.06 358.146 186.587 358.146 186.065C358.146 185.54 358.07 185.066 357.916 184.641C357.767 184.213 357.539 183.872 357.231 183.619C356.924 183.365 356.543 183.239 356.087 183.239C355.619 183.239 355.229 183.365 354.918 183.619C354.612 183.872 354.382 184.213 354.228 184.641C354.078 185.066 354.004 185.54 354.004 186.065C354.004 186.587 354.078 187.06 354.228 187.484C354.382 187.909 354.612 188.248 354.918 188.501C355.229 188.75 355.619 188.875 356.087 188.875ZM367.112 186.719V181.748H369.144V190.327H367.173V188.802H367.083C366.889 189.283 366.569 189.675 366.124 189.981C365.682 190.286 365.137 190.439 364.49 190.439C363.925 190.439 363.425 190.314 362.991 190.065C362.56 189.811 362.224 189.445 361.981 188.964C361.737 188.481 361.616 187.896 361.616 187.211V181.748H363.648V186.898C363.648 187.441 363.797 187.874 364.097 188.194C364.396 188.514 364.789 188.674 365.276 188.674C365.575 188.674 365.865 188.601 366.146 188.456C366.427 188.311 366.657 188.095 366.837 187.808C367.02 187.518 367.112 187.155 367.112 186.719ZM370.918 190.327V181.748H372.888V183.178H372.978C373.135 182.682 373.404 182.301 373.786 182.032C374.172 181.76 374.611 181.625 375.105 181.625C375.218 181.625 375.343 181.631 375.482 181.642C375.624 181.649 375.742 181.662 375.835 181.681V183.541C375.75 183.511 375.613 183.485 375.426 183.462C375.242 183.436 375.064 183.424 374.892 183.424C374.521 183.424 374.188 183.503 373.893 183.664C373.601 183.82 373.371 184.038 373.202 184.317C373.034 184.596 372.95 184.919 372.95 185.284V190.327H370.918ZM387.29 184.015L385.437 184.216C385.385 184.03 385.293 183.855 385.162 183.691C385.035 183.528 384.863 183.395 384.645 183.295C384.429 183.194 384.163 183.144 383.848 183.144C383.426 183.144 383.07 183.235 382.781 183.417C382.498 183.6 382.357 183.837 382.361 184.127C382.357 184.377 382.449 184.58 382.636 184.736C382.826 184.892 383.141 185.021 383.579 185.122L385.05 185.434C385.866 185.609 386.472 185.887 386.869 186.267C387.27 186.647 387.471 187.144 387.475 187.758C387.471 188.298 387.312 188.775 386.998 189.188C386.687 189.598 386.255 189.918 385.701 190.149C385.147 190.379 384.511 190.495 383.792 190.495C382.737 190.495 381.887 190.275 381.243 189.836C380.6 189.393 380.216 188.776 380.093 187.987L382.075 187.797C382.164 188.184 382.355 188.477 382.647 188.674C382.939 188.872 383.319 188.97 383.787 188.97C384.27 188.97 384.657 188.872 384.949 188.674C385.244 188.477 385.392 188.233 385.392 187.942C385.392 187.697 385.297 187.494 385.106 187.333C384.919 187.174 384.627 187.05 384.23 186.964L382.759 186.658C381.932 186.486 381.321 186.198 380.924 185.792C380.527 185.382 380.33 184.865 380.334 184.239C380.33 183.71 380.474 183.252 380.767 182.865C381.062 182.474 381.472 182.172 381.996 181.96C382.524 181.744 383.132 181.636 383.82 181.636C384.831 181.636 385.626 181.85 386.206 182.279C386.79 182.706 387.151 183.285 387.29 184.015ZM393.14 181.748V183.312H388.183V181.748H393.14ZM389.407 179.692H391.439V187.747C391.439 188.018 391.481 188.228 391.563 188.372C391.649 188.514 391.762 188.611 391.9 188.663C392.038 188.715 392.192 188.741 392.36 188.741C392.487 188.741 392.603 188.732 392.709 188.713C392.817 188.695 392.899 188.677 392.955 188.663L393.297 190.243C393.189 190.281 393.034 190.322 392.832 190.367C392.633 190.412 392.39 190.437 392.102 190.445C391.593 190.46 391.135 190.383 390.726 190.216C390.318 190.044 389.995 189.78 389.755 189.422C389.52 189.065 389.404 188.618 389.407 188.082V179.692ZM398.193 190.495C397.351 190.495 396.62 190.311 396.003 189.942C395.386 189.573 394.907 189.057 394.566 188.395C394.229 187.732 394.061 186.957 394.061 186.071C394.061 185.185 394.229 184.408 394.566 183.741C394.907 183.075 395.386 182.558 396.003 182.189C396.62 181.82 397.351 181.636 398.193 181.636C399.034 181.636 399.765 181.82 400.382 182.189C400.999 182.558 401.477 183.075 401.814 183.741C402.154 184.408 402.324 185.185 402.324 186.071C402.324 186.957 402.154 187.732 401.814 188.395C401.477 189.057 400.999 189.573 400.382 189.942C399.765 190.311 399.034 190.495 398.193 190.495ZM398.204 188.875C398.661 188.875 399.042 188.75 399.349 188.501C399.656 188.248 399.884 187.909 400.034 187.484C400.188 187.06 400.264 186.587 400.264 186.065C400.264 185.54 400.188 185.066 400.034 184.641C399.884 184.213 399.656 183.872 399.349 183.619C399.042 183.365 398.661 183.239 398.204 183.239C397.736 183.239 397.347 183.365 397.036 183.619C396.729 183.872 396.5 184.213 396.345 184.641C396.196 185.066 396.121 185.54 396.121 186.065C396.121 186.587 396.196 187.06 396.345 187.484C396.5 187.909 396.729 188.248 397.036 188.501C397.347 188.75 397.736 188.875 398.204 188.875ZM403.733 190.327V181.748H405.703V183.178H405.793C405.951 182.682 406.22 182.301 406.602 182.032C406.987 181.76 407.427 181.625 407.921 181.625C408.034 181.625 408.158 181.631 408.298 181.642C408.44 181.649 408.558 181.662 408.651 181.681V183.541C408.565 183.511 408.428 183.485 408.241 183.462C408.058 183.436 407.88 183.424 407.708 183.424C407.337 183.424 407.004 183.503 406.709 183.664C406.416 183.82 406.186 184.038 406.018 184.317C405.85 184.596 405.765 184.919 405.765 185.284V190.327H403.733ZM413.147 190.495C412.283 190.495 411.536 190.316 410.908 189.959C410.282 189.598 409.802 189.087 409.464 188.428C409.128 187.765 408.959 186.985 408.959 186.087C408.959 185.205 409.128 184.43 409.464 183.764C409.805 183.094 410.281 182.573 410.89 182.2C411.5 181.824 412.217 181.636 413.041 181.636C413.572 181.636 414.073 181.722 414.545 181.893C415.02 182.061 415.44 182.321 415.803 182.675C416.17 183.029 416.457 183.48 416.668 184.027C416.877 184.57 416.981 185.218 416.981 185.97V186.591H409.914V185.228H415.034C415.03 184.84 414.946 184.496 414.781 184.194C414.616 183.888 414.386 183.649 414.091 183.474C413.798 183.299 413.458 183.211 413.069 183.211C412.653 183.211 412.289 183.312 411.974 183.513C411.659 183.71 411.414 183.971 411.239 184.295C411.067 184.615 410.979 184.967 410.975 185.351V186.541C410.975 187.039 411.066 187.468 411.25 187.825C411.433 188.179 411.689 188.451 412.019 188.64C412.349 188.827 412.734 188.92 413.175 188.92C413.471 188.92 413.739 188.879 413.979 188.797C414.218 188.711 414.425 188.586 414.601 188.423C414.777 188.259 414.91 188.056 415 187.814L416.898 188.026C416.777 188.525 416.549 188.96 416.212 189.333C415.88 189.702 415.453 189.988 414.933 190.194C414.412 190.394 413.817 190.495 413.147 190.495Z" fill="white"/>
</g>
</g>
<defs>
<filter id="filter0_d_148_105" x="-199.239" y="-294.142" width="719.397" height="671" filterUnits="userSpaceOnUse" color-interpolation-filters="sRGB">
<feFlood flood-opacity="0" result="BackgroundImageFix"/>
<feColorMatrix in="SourceAlpha" type="matrix" values="0 0 0 0 0 0 0 0 0 0 0 0 0 0 0 0 0 0 127 0" result="hardAlpha"/>
<feOffset dy="4"/>
<feGaussianBlur stdDeviation="2"/>
<feComposite in2="hardAlpha" operator="out"/>
<feColorMatrix type="matrix" values="0 0 0 0 0 0 0 0 0 0 0 0 0 0 0 0 0 0 0.25 0"/>
<feBlend mode="normal" in2="BackgroundImageFix" result="effect1_dropShadow_148_105"/>
<feBlend mode="normal" in="SourceGraphic" in2="effect1_dropShadow_148_105" result="shape"/>
</filter>
<radialGradient id="paint0_radial_148_105" cx="0" cy="0" r="1" gradientUnits="userSpaceOnUse" gradientTransform="translate(120.795 37.3577) rotate(180) scale(290.536 270.771)">
<stop stop-color="#7536A2"/>
<stop offset="1" stop-color="#7536A2" stop-opacity="0"/>
</radialGradient>
<clipPath id="clip0_148_105">
<rect width="645" height="221" fill="white"/>
</clipPath>
</defs>
</svg>
