<svg width="20" height="20" viewBox="0 0 20 20" fill="none" xmlns="http://www.w3.org/2000/svg">
  <g opacity="0.5">
    <path d="M5 6.25H17.5L16.25 13.75H5V2.5H2.5" stroke="white" />
    <path d="M6.25 17.5C6.94036 17.5 7.5 16.9404 7.5 16.25C7.5 15.5596 6.94036 15 6.25 15C5.55964 15 5 15.5596 5 16.25C5 16.9404 5.55964 17.5 6.25 17.5Z" stroke="white" />
    <path d="M15 17.5C15.6904 17.5 16.25 16.9404 16.25 16.25C16.25 15.5596 15.6904 15 15 15C14.3096 15 13.75 15.5596 13.75 16.25C13.75 16.9404 14.3096 17.5 15 17.5Z" stroke="white" />
  </g>
</svg>