<svg width="17" height="17" viewBox="0 0 17 17" fill="#9945FF" xmlns="http://www.w3.org/2000/svg">
  <g opacity="0.75" clip-path="url(#clip0_239_461)">
    <path d="M1.78827 3.5415C1.7884 3.54243 2.51472 9.42566 2.51472 9.42566L12.0481 10.6248L13.1746 3.5415H1.78827Z" />
    <path d="M13.1746 3.935V3.14795H1.78827C1.67547 3.14795 1.56813 3.19633 1.49346 3.28083C1.41878 3.36533 1.38388 3.47782 1.39776 3.58975C1.39939 3.60267 2.12415 9.47388 2.12415 9.47388C2.14623 9.65264 2.28688 9.79362 2.46561 9.81607L11.9989 11.0152L12.0971 10.2343L9.25419 9.87673L9.39739 8.42004L12.3926 8.65595L12.4544 7.87136L9.47436 7.63668L9.61773 6.17827L12.7845 6.2958L12.8137 5.50932L9.69483 5.39354L9.83823 3.93496L13.1746 3.935ZM5.3149 3.935L5.28841 5.22998L2.37991 5.12201C2.30899 4.54769 2.26307 4.17575 2.23335 3.93496H5.31487L5.3149 3.935ZM2.4776 5.91324L5.27227 6.01696L5.24594 7.30369L2.62372 7.09716C2.56844 6.64912 2.52003 6.25679 2.4776 5.91324ZM2.72217 7.89437L5.22984 8.09186L5.20374 9.36726L2.86773 9.07341C2.81534 8.64881 2.76693 8.25678 2.72217 7.89437ZM8.47302 9.77848L5.98893 9.46604L6.01575 8.15378L8.61257 8.35828L8.47302 9.77848ZM8.6896 7.57492L6.03189 7.36561L6.05888 6.04618L8.82972 6.14905L8.6896 7.57492ZM8.90692 5.36432L6.07505 5.2592L6.10218 3.93503H9.04743L8.90692 5.36432Z" />
    <path d="M11.67 14.1667H3.0126C2.79526 14.1667 2.61908 13.9905 2.61908 13.7732C2.61908 13.5558 2.79526 13.3796 3.0126 13.3796H11.3301L13.2482 0.336248C13.2767 0.143139 13.4424 0 13.6376 0H15.2117C15.429 0 15.6052 0.176209 15.6052 0.393523C15.6052 0.610838 15.429 0.787047 15.2117 0.787047H13.9775L12.0594 13.8304C12.0309 14.0235 11.8652 14.1667 11.67 14.1667Z" />
    <path d="M4.03591 16.9999C4.60098 16.9999 5.05907 16.5418 5.05907 15.9768C5.05907 15.4117 4.60098 14.9536 4.03591 14.9536C3.47084 14.9536 3.01276 15.4117 3.01276 15.9768C3.01276 16.5418 3.47084 16.9999 4.03591 16.9999Z" />
    <path d="M10.6471 16.9999C11.2121 16.9999 11.6702 16.5418 11.6702 15.9768C11.6702 15.4117 11.2121 14.9536 10.6471 14.9536C10.082 14.9536 9.6239 15.4117 9.6239 15.9768C9.6239 16.5418 10.082 16.9999 10.6471 16.9999Z" />
  </g>
  <defs>
    <clipPath id="clip0_239_461">
      <rect width="17" height="17" fill="white" />
    </clipPath>
  </defs>
</svg>