<svg width="10" height="17" viewBox="0 0 10 17" fill="none" xmlns="http://www.w3.org/2000/svg">
<path d="M9.01276 4.49167C8.93359 4.4125 8.77526 4.33333 8.69609 4.33333H8.61693L4.89609 5.28333L6.47943 0.929167C6.47943 0.85 6.55859 0.770833 6.55859 0.770833C6.55859 0.691667 6.47943 0.533333 6.40026 0.454167C6.32109 0.375 6.24193 0.375 6.08359 0.375H2.99609C2.83776 0.375 2.75859 0.375 2.67943 0.454167C2.60026 0.533333 2.60026 0.6125 2.52109 0.691667L0.621094 8.52917C0.621094 8.6875 0.621094 8.76667 0.779427 8.925C0.858594 9.00417 0.93776 9.00417 1.09609 9.00417C1.17526 9.00417 1.17526 9.00417 1.17526 9.00417L5.05443 8.05417L3.15443 15.7333C3.15443 15.8125 3.15443 15.8917 3.23359 16.05C3.31276 16.1292 3.39193 16.2083 3.47109 16.2083C3.55026 16.2083 3.55026 16.2083 3.62943 16.2083C3.78776 16.2083 3.94609 16.1292 4.02526 15.9708L9.17109 4.96667C9.17109 4.80833 9.17109 4.65 9.01276 4.49167Z" fill="url(#paint0_linear_4378_1429)"/>
<defs>
<linearGradient id="paint0_linear_4378_1429" x1="0.64144" y1="8.26515" x2="9.14109" y2="8.26515" gradientUnits="userSpaceOnUse">
<stop stop-color="#1245C6"/>
<stop offset="1" stop-color="#9909B7"/>
</linearGradient>
</defs>
</svg>
