<svg width="47" height="47" viewBox="0 0 47 47" fill="none" xmlns="http://www.w3.org/2000/svg">
<circle cx="23.4521" cy="23.4546" r="16.7515" fill="#6E1FDE"/>
<path d="M40.0898 25.8224C40.3328 24.0857 40.3017 22.3217 39.9974 20.5946L37.6921 21.0008C37.9538 22.4865 37.9807 24.004 37.7716 25.498L40.0898 25.8224Z" fill="#8663FF"/>
<path d="M36.7478 13.2472C35.6745 11.8604 34.3902 10.6507 32.9417 9.66231L31.6223 11.5959C32.8684 12.4461 33.9733 13.4868 34.8966 14.6798L36.7478 13.2472Z" fill="#8663FF"/>
<path d="M25.8572 6.91808C24.121 6.67132 22.3569 6.6987 20.6292 6.99922L21.0304 9.3054C22.5166 9.04688 24.0342 9.02332 25.5278 9.2356L25.8572 6.91808Z" fill="#8663FF"/>
<path d="M13.59 9.99657C12.1762 11.034 10.934 12.287 9.90889 13.7097L11.8081 15.0781C12.6899 13.8542 13.7585 12.7763 14.9748 11.8838L13.59 9.99657Z" fill="#8663FF"/>
<path d="M7.02907 20.4428C6.70948 22.167 6.66261 23.9308 6.89018 25.6695L9.21119 25.3658C9.01543 23.87 9.05575 22.3527 9.33067 20.8694L7.02907 20.4428Z" fill="#8663FF"/>
<path d="M9.61765 32.8759C10.5991 34.3292 11.8026 35.6193 13.1843 36.6992L14.6258 34.8549C13.4372 33.9259 12.4018 32.816 11.5575 31.5659L9.61765 32.8759Z" fill="#8663FF"/>
<path d="M20.761 40.0241C22.491 40.3108 24.2553 40.3241 25.9894 40.0635L25.6416 37.7487C24.1497 37.9729 22.632 37.9614 21.1437 37.7148L20.761 40.0241Z" fill="#8663FF"/>
<path d="M33.5172 36.9207C34.9227 35.872 36.1549 34.6092 37.1686 33.1783L35.2586 31.8251C34.3865 33.056 33.3265 34.1424 32.1174 35.0445L33.5172 36.9207Z" fill="#8663FF"/>
<path d="M20.4319 21.7195L18.9219 22.4995V21.2495L20.7019 20.2695H21.7919V27.2695H20.4319V21.7195ZM23.1402 20.2695H27.5302L28.5302 21.2695V23.2295L28.1302 23.6395L28.8402 24.3595V26.1895L27.7602 27.2695H23.1402V20.2695ZM26.8302 23.1995L27.1902 22.8395V21.7595L26.8402 21.4095H24.4702V23.1995H26.8302ZM27.0702 26.1295L27.5002 25.6995V24.7195L27.0702 24.2895H24.4702V26.1295H27.0702Z" fill="#F0F0F0"/>
</svg>
