<svg width="44" height="41" viewBox="0 0 44 41" fill="none" xmlns="http://www.w3.org/2000/svg">
<g clip-path="url(#clip0_3363_27473)">
<path fill-rule="evenodd" clip-rule="evenodd" d="M39.4482 1.78072L39.4483 7.58906L1.51721 6.07054L37.6882 0.277388C38.1281 0.206033 38.577 0.33179 38.916 0.621291C39.2549 0.910792 39.4495 1.33477 39.4482 1.78072Z" fill="#A56A43"/>
<path d="M40.9655 6.07031H1.51724C0.679292 6.07031 0 6.75018 0 7.58883V39.4777C0 40.3164 0.679292 40.9962 1.51724 40.9962H40.9655C41.8035 40.9962 42.4828 40.3164 42.4828 39.4777V7.58883C42.4828 6.75018 41.8035 6.07031 40.9655 6.07031Z" fill="#F29C1F"/>
<path fill-rule="evenodd" clip-rule="evenodd" d="M32.6207 18.9766H42.4828C43.3207 18.9766 44 19.6564 44 20.4951V26.5692C44 27.4078 43.3207 28.0877 42.4828 28.0877H32.6207C30.1068 28.0877 28.069 26.0481 28.069 23.5321C28.069 21.0162 30.1068 18.9766 32.6207 18.9766Z" fill="#E57E25"/>
<path d="M32.6207 25.0527C33.4586 25.0527 34.1379 24.3728 34.1379 23.5341C34.1379 22.6955 33.4586 22.0156 32.6207 22.0156C31.7827 22.0156 31.1035 22.6955 31.1035 23.5341C31.1035 24.3728 31.7827 25.0527 32.6207 25.0527Z" fill="#F3D55B"/>
<path fill-rule="evenodd" clip-rule="evenodd" d="M3.79307 9.87008H2.27583C1.85686 9.87008 1.51721 9.53015 1.51721 9.11082C1.51721 8.69149 1.85686 8.35156 2.27583 8.35156H3.79307C4.21205 8.35156 4.55169 8.69149 4.55169 9.11082C4.55169 9.53015 4.21205 9.87008 3.79307 9.87008Z" fill="#F5EFCA"/>
<path fill-rule="evenodd" clip-rule="evenodd" d="M8.34483 9.87008H6.82759C6.40862 9.87008 6.06897 9.53015 6.06897 9.11082C6.06897 8.69149 6.40862 8.35156 6.82759 8.35156H8.34483C8.76381 8.35156 9.10345 8.69149 9.10345 9.11082C9.10345 9.53015 8.76381 9.87008 8.34483 9.87008Z" fill="#F5EFCA"/>
<path fill-rule="evenodd" clip-rule="evenodd" d="M12.8965 9.87008H11.3793C10.9603 9.87008 10.6207 9.53015 10.6207 9.11082C10.6207 8.69149 10.9603 8.35156 11.3793 8.35156H12.8965C13.3155 8.35156 13.6551 8.69149 13.6551 9.11082C13.6551 9.53015 13.3155 9.87008 12.8965 9.87008Z" fill="#F5EFCA"/>
<path fill-rule="evenodd" clip-rule="evenodd" d="M17.4483 9.87008H15.931C15.5121 9.87008 15.1724 9.53015 15.1724 9.11082C15.1724 8.69149 15.5121 8.35156 15.931 8.35156H17.4483C17.8673 8.35156 18.2069 8.69149 18.2069 9.11082C18.2069 9.53015 17.8673 9.87008 17.4483 9.87008Z" fill="#F5EFCA"/>
<path fill-rule="evenodd" clip-rule="evenodd" d="M22 9.87008H20.4827C20.0638 9.87008 19.7241 9.53015 19.7241 9.11082C19.7241 8.69149 20.0638 8.35156 20.4827 8.35156H22C22.419 8.35156 22.7586 8.69149 22.7586 9.11082C22.7586 9.53015 22.419 9.87008 22 9.87008Z" fill="#F5EFCA"/>
<path fill-rule="evenodd" clip-rule="evenodd" d="M26.5517 9.87008H25.0345C24.6155 9.87008 24.2759 9.53015 24.2759 9.11082C24.2759 8.69149 24.6155 8.35156 25.0345 8.35156H26.5517C26.9707 8.35156 27.3104 8.69149 27.3104 9.11082C27.3104 9.53015 26.9707 9.87008 26.5517 9.87008Z" fill="#F5EFCA"/>
<path fill-rule="evenodd" clip-rule="evenodd" d="M31.1034 9.87008H29.5862C29.1672 9.87008 28.8276 9.53015 28.8276 9.11082C28.8276 8.69149 29.1672 8.35156 29.5862 8.35156H31.1034C31.5224 8.35156 31.8621 8.69149 31.8621 9.11082C31.8621 9.53015 31.5224 9.87008 31.1034 9.87008Z" fill="#F5EFCA"/>
<path fill-rule="evenodd" clip-rule="evenodd" d="M35.6552 9.87008H34.138C33.719 9.87008 33.3793 9.53015 33.3793 9.11082C33.3793 8.69149 33.719 8.35156 34.138 8.35156H35.6552C36.0742 8.35156 36.4138 8.69149 36.4138 9.11082C36.4138 9.53015 36.0742 9.87008 35.6552 9.87008Z" fill="#F5EFCA"/>
<path fill-rule="evenodd" clip-rule="evenodd" d="M40.2069 9.87008H38.6897C38.2707 9.87008 37.931 9.53015 37.931 9.11082C37.931 8.69149 38.2707 8.35156 38.6897 8.35156H40.2069C40.6259 8.35156 40.9655 8.69149 40.9655 9.11082C40.9655 9.53015 40.6259 9.87008 40.2069 9.87008Z" fill="#F5EFCA"/>
<path fill-rule="evenodd" clip-rule="evenodd" d="M3.79307 38.7216H2.27583C1.85686 38.7216 1.51721 38.3817 1.51721 37.9624C1.51721 37.5431 1.85686 37.2031 2.27583 37.2031H3.79307C4.21205 37.2031 4.55169 37.5431 4.55169 37.9624C4.55169 38.3817 4.21205 38.7216 3.79307 38.7216Z" fill="#F5EFCA"/>
<path fill-rule="evenodd" clip-rule="evenodd" d="M8.34483 38.7216H6.82759C6.40862 38.7216 6.06897 38.3817 6.06897 37.9624C6.06897 37.5431 6.40862 37.2031 6.82759 37.2031H8.34483C8.76381 37.2031 9.10345 37.5431 9.10345 37.9624C9.10345 38.3817 8.76381 38.7216 8.34483 38.7216Z" fill="#F5EFCA"/>
<path fill-rule="evenodd" clip-rule="evenodd" d="M12.8965 38.7216H11.3793C10.9603 38.7216 10.6207 38.3817 10.6207 37.9624C10.6207 37.5431 10.9603 37.2031 11.3793 37.2031H12.8965C13.3155 37.2031 13.6551 37.5431 13.6551 37.9624C13.6551 38.3817 13.3155 38.7216 12.8965 38.7216Z" fill="#F5EFCA"/>
<path fill-rule="evenodd" clip-rule="evenodd" d="M17.4483 38.7216H15.931C15.5121 38.7216 15.1724 38.3817 15.1724 37.9624C15.1724 37.5431 15.5121 37.2031 15.931 37.2031H17.4483C17.8673 37.2031 18.2069 37.5431 18.2069 37.9624C18.2069 38.3817 17.8673 38.7216 17.4483 38.7216Z" fill="#F5EFCA"/>
<path fill-rule="evenodd" clip-rule="evenodd" d="M22 38.7216H20.4827C20.0638 38.7216 19.7241 38.3817 19.7241 37.9624C19.7241 37.5431 20.0638 37.2031 20.4827 37.2031H22C22.419 37.2031 22.7586 37.5431 22.7586 37.9624C22.7586 38.3817 22.419 38.7216 22 38.7216Z" fill="#F5EFCA"/>
<path fill-rule="evenodd" clip-rule="evenodd" d="M26.5517 38.7216H25.0345C24.6155 38.7216 24.2759 38.3817 24.2759 37.9624C24.2759 37.5431 24.6155 37.2031 25.0345 37.2031H26.5517C26.9707 37.2031 27.3104 37.5431 27.3104 37.9624C27.3104 38.3817 26.9707 38.7216 26.5517 38.7216Z" fill="#F5EFCA"/>
<path fill-rule="evenodd" clip-rule="evenodd" d="M31.1034 38.7216H29.5862C29.1672 38.7216 28.8276 38.3817 28.8276 37.9624C28.8276 37.5431 29.1672 37.2031 29.5862 37.2031H31.1034C31.5224 37.2031 31.8621 37.5431 31.8621 37.9624C31.8621 38.3817 31.5224 38.7216 31.1034 38.7216Z" fill="#F5EFCA"/>
<path fill-rule="evenodd" clip-rule="evenodd" d="M35.6552 38.7216H34.138C33.719 38.7216 33.3793 38.3817 33.3793 37.9624C33.3793 37.5431 33.719 37.2031 34.138 37.2031H35.6552C36.0742 37.2031 36.4138 37.5431 36.4138 37.9624C36.4138 38.3817 36.0742 38.7216 35.6552 38.7216Z" fill="#F5EFCA"/>
<path fill-rule="evenodd" clip-rule="evenodd" d="M40.2069 38.7216H38.6897C38.2707 38.7216 37.931 38.3817 37.931 37.9624C37.931 37.5431 38.2707 37.2031 38.6897 37.2031H40.2069C40.6259 37.2031 40.9655 37.5431 40.9655 37.9624C40.9655 38.3817 40.6259 38.7216 40.2069 38.7216Z" fill="#F5EFCA"/>
</g>
<defs>
<clipPath id="clip0_3363_27473">
<rect width="44" height="41" fill="white"/>
</clipPath>
</defs>
</svg>
