<svg width="50" height="50" viewBox="0 0 50 50" fill="none" xmlns="http://www.w3.org/2000/svg">
<path d="M46.6672 0.456055H3.33281C2.5699 0.456055 1.83824 0.759119 1.29878 1.29858C0.759318 1.83804 0.456253 2.5697 0.456253 3.33262V46.667C0.456253 47.4299 0.759318 48.1616 1.29878 48.701C1.83824 49.2405 2.5699 49.5436 3.33281 49.5436H46.6672C47.4301 49.5436 48.1618 49.2405 48.7012 48.701C49.2407 48.1616 49.5438 47.4299 49.5438 46.667V3.33262C49.5438 2.5697 49.2407 1.83804 48.7012 1.29858C48.1618 0.759119 47.4301 0.456055 46.6672 0.456055ZM10.1688 15.2982C9.24938 15.2982 8.35065 15.0256 7.58622 14.5148C6.82179 14.0041 6.22599 13.2781 5.87416 12.4287C5.52233 11.5793 5.43027 10.6446 5.60963 9.74294C5.78899 8.84123 6.23172 8.01296 6.88181 7.36286C7.53191 6.71277 8.36018 6.27005 9.26189 6.09068C10.1636 5.91132 11.0982 6.00338 11.9476 6.35521C12.797 6.70704 13.523 7.30284 14.0338 8.06727C14.5446 8.8317 14.8172 9.73043 14.8172 10.6498C14.8172 11.8826 14.3274 13.065 13.4557 13.9367C12.5839 14.8085 11.4016 15.2982 10.1688 15.2982ZM39.8313 44.0092C38.9119 44.0092 38.0131 43.7366 37.2487 43.2258C36.4843 42.715 35.8885 41.989 35.5367 41.1396C35.1848 40.2902 35.0928 39.3556 35.2721 38.4539C35.4515 37.5522 35.8942 36.7239 36.5443 36.0738C37.1944 35.4237 38.0227 34.981 38.9244 34.8016C39.8261 34.6223 40.7607 34.7143 41.6101 35.0661C42.4595 35.418 43.1855 36.0138 43.6963 36.7782C44.2071 37.5426 44.4797 38.4414 44.4797 39.3607C44.4768 40.5927 43.9861 41.7734 43.115 42.6445C42.2439 43.5156 41.0632 44.0063 39.8313 44.0092Z" fill="#202329"/>
</svg>
