<svg width="50" height="50" viewBox="0 0 50 50" fill="none" xmlns="http://www.w3.org/2000/svg">
<path d="M46.6672 0.456055H3.3328C2.56989 0.456055 1.83822 0.759119 1.29876 1.29858C0.759303 1.83804 0.456238 2.5697 0.456238 3.33262V46.667C0.456238 47.4299 0.759303 48.1616 1.29876 48.701C1.83822 49.2405 2.56989 49.5436 3.3328 49.5436H46.6672C47.4301 49.5436 48.1617 49.2405 48.7012 48.701C49.2407 48.1616 49.5437 47.4299 49.5437 46.667V3.33262C49.5437 2.5697 49.2407 1.83804 48.7012 1.29858C48.1617 0.759119 47.4301 0.456055 46.6672 0.456055ZM25 30.0639C24.0806 30.0639 23.1819 29.7912 22.4175 29.2805C21.653 28.7697 21.0572 28.0437 20.7054 27.1943C20.3536 26.3449 20.2615 25.4103 20.4409 24.5086C20.6202 23.6069 21.063 22.7786 21.713 22.1285C22.3631 21.4784 23.1914 21.0357 24.0931 20.8563C24.9948 20.6769 25.9295 20.769 26.7789 21.1208C27.6283 21.4727 28.3542 22.0685 28.865 22.8329C29.3758 23.5973 29.6484 24.4961 29.6484 25.4154C29.6484 26.6483 29.1587 27.8306 28.2869 28.7024C27.4152 29.5741 26.2328 30.0639 25 30.0639Z" fill="#202329"/>
</svg>
