<svg width="50" height="50" viewBox="0 0 50 50" fill="none" xmlns="http://www.w3.org/2000/svg">
<path d="M46.6672 0.456055H3.3328C2.56989 0.456055 1.83822 0.759119 1.29876 1.29858C0.759303 1.83804 0.456238 2.5697 0.456238 3.33262V46.667C0.456238 47.4299 0.759303 48.1616 1.29876 48.701C1.83822 49.2405 2.56989 49.5436 3.3328 49.5436H46.6672C47.4301 49.5436 48.1617 49.2405 48.7012 48.701C49.2407 48.1616 49.5437 47.4299 49.5437 46.667V3.33262C49.5437 2.5697 49.2407 1.83804 48.7012 1.29858C48.1617 0.759119 47.4301 0.456055 46.6672 0.456055ZM10.1687 44.0092C9.24936 44.0092 8.35064 43.7366 7.5862 43.2258C6.82177 42.715 6.22597 41.989 5.87414 41.1396C5.52231 40.2902 5.43026 39.3556 5.60962 38.4539C5.78898 37.5522 6.2317 36.7239 6.8818 36.0738C7.53189 35.4237 8.36016 34.981 9.26187 34.8016C10.1636 34.6223 11.0982 34.7143 11.9476 35.0661C12.797 35.418 13.523 36.0138 14.0338 36.7782C14.5445 37.5426 14.8172 38.4414 14.8172 39.3607C14.8172 40.5936 14.3274 41.7759 13.4557 42.6477C12.5839 43.5194 11.4016 44.0092 10.1687 44.0092ZM10.1687 30.0639C9.24936 30.0639 8.35064 29.7912 7.5862 29.2805C6.82177 28.7697 6.22597 28.0437 5.87414 27.1943C5.52231 26.3449 5.43026 25.4103 5.60962 24.5086C5.78898 23.6069 6.2317 22.7786 6.8818 22.1285C7.53189 21.4784 8.36016 21.0357 9.26187 20.8563C10.1636 20.6769 11.0982 20.769 11.9476 21.1208C12.797 21.4727 13.523 22.0685 14.0338 22.8329C14.5445 23.5973 14.8172 24.4961 14.8172 25.4154C14.8172 26.6483 14.3274 27.8306 13.4557 28.7024C12.5839 29.5741 11.4016 30.0639 10.1687 30.0639ZM10.1687 15.2982C9.24936 15.2982 8.35064 15.0256 7.5862 14.5148C6.82177 14.0041 6.22597 13.2781 5.87414 12.4287C5.52231 11.5793 5.43026 10.6446 5.60962 9.74294C5.78898 8.84123 6.2317 8.01296 6.8818 7.36286C7.53189 6.71277 8.36016 6.27005 9.26187 6.09068C10.1636 5.91132 11.0982 6.00338 11.9476 6.35521C12.797 6.70704 13.523 7.30284 14.0338 8.06727C14.5445 8.8317 14.8172 9.73043 14.8172 10.6498C14.8172 11.8826 14.3274 13.065 13.4557 13.9367C12.5839 14.8085 11.4016 15.2982 10.1687 15.2982ZM39.8312 44.0092C38.9119 44.0092 38.0131 43.7366 37.2487 43.2258C36.4843 42.715 35.8885 41.989 35.5366 41.1396C35.1848 40.2902 35.0928 39.3556 35.2721 38.4539C35.4515 37.5522 35.8942 36.7239 36.5443 36.0738C37.1944 35.4237 38.0227 34.981 38.9244 34.8016C39.8261 34.6223 40.7607 34.7143 41.6101 35.0661C42.4595 35.418 43.1855 36.0138 43.6963 36.7782C44.207 37.5426 44.4797 38.4414 44.4797 39.3607C44.4768 40.5927 43.9861 41.7734 43.115 42.6445C42.2439 43.5156 41.0632 44.0063 39.8312 44.0092ZM39.8312 30.0639C38.9119 30.0639 38.0131 29.7912 37.2487 29.2805C36.4843 28.7697 35.8885 28.0437 35.5366 27.1943C35.1848 26.3449 35.0928 25.4103 35.2721 24.5086C35.4515 23.6069 35.8942 22.7786 36.5443 22.1285C37.1944 21.4784 38.0227 21.0357 38.9244 20.8563C39.8261 20.6769 40.7607 20.769 41.6101 21.1208C42.4595 21.4727 43.1855 22.0685 43.6963 22.8329C44.207 23.5973 44.4797 24.4961 44.4797 25.4154C44.4768 26.6474 43.9861 27.8281 43.115 28.6992C42.2439 29.5703 41.0632 30.061 39.8312 30.0639ZM39.8312 15.2982C38.9119 15.2982 38.0131 15.0256 37.2487 14.5148C36.4843 14.0041 35.8885 13.2781 35.5366 12.4287C35.1848 11.5793 35.0928 10.6446 35.2721 9.74294C35.4515 8.84123 35.8942 8.01296 36.5443 7.36286C37.1944 6.71277 38.0227 6.27005 38.9244 6.09068C39.8261 5.91132 40.7607 6.00338 41.6101 6.35521C42.4595 6.70704 43.1855 7.30284 43.6963 8.06727C44.207 8.8317 44.4797 9.73043 44.4797 10.6498C44.4768 11.8818 43.9861 13.0624 43.115 13.9336C42.2439 14.8047 41.0632 15.2954 39.8312 15.2982Z" fill="#202329"/>
</svg>
