<svg width="50" height="50" viewBox="0 0 50 50" fill="none" xmlns="http://www.w3.org/2000/svg">
<path d="M46.6672 0.456055H3.33281C2.5699 0.456055 1.83824 0.759119 1.29878 1.29858C0.759318 1.83804 0.456253 2.5697 0.456253 3.33262V46.667C0.456253 47.4299 0.759318 48.1616 1.29878 48.701C1.83824 49.2405 2.5699 49.5436 3.33281 49.5436H46.6672C47.4301 49.5436 48.1618 49.2405 48.7012 48.701C49.2407 48.1616 49.5438 47.4299 49.5438 46.667V3.33262C49.5438 2.5697 49.2407 1.83804 48.7012 1.29858C48.1618 0.759119 47.4301 0.456055 46.6672 0.456055ZM10.1688 44.0092C9.24938 44.0092 8.35065 43.7366 7.58622 43.2258C6.82179 42.715 6.22599 41.989 5.87416 41.1396C5.52233 40.2902 5.43027 39.3556 5.60963 38.4539C5.78899 37.5522 6.23172 36.7239 6.88181 36.0738C7.53191 35.4237 8.36018 34.981 9.26189 34.8016C10.1636 34.6223 11.0982 34.7143 11.9476 35.0661C12.797 35.418 13.523 36.0138 14.0338 36.7782C14.5446 37.5426 14.8172 38.4414 14.8172 39.3607C14.8172 40.5936 14.3274 41.7759 13.4557 42.6477C12.5839 43.5194 11.4016 44.0092 10.1688 44.0092ZM10.1688 15.2982C9.24938 15.2982 8.35065 15.0256 7.58622 14.5148C6.82179 14.0041 6.22599 13.2781 5.87416 12.4287C5.52233 11.5793 5.43027 10.6446 5.60963 9.74294C5.78899 8.84123 6.23172 8.01296 6.88181 7.36286C7.53191 6.71277 8.36018 6.27005 9.26189 6.09068C10.1636 5.91132 11.0982 6.00338 11.9476 6.35521C12.797 6.70704 13.523 7.30284 14.0338 8.06727C14.5446 8.8317 14.8172 9.73043 14.8172 10.6498C14.8172 11.8826 14.3274 13.065 13.4557 13.9367C12.5839 14.8085 11.4016 15.2982 10.1688 15.2982ZM25 30.0639C24.0806 30.0639 23.1819 29.7912 22.4175 29.2805C21.653 28.7697 21.0572 28.0437 20.7054 27.1943C20.3536 26.3449 20.2615 25.4103 20.4409 24.5086C20.6202 23.6069 21.063 22.7786 21.7131 22.1285C22.3632 21.4784 23.1914 21.0357 24.0931 20.8563C24.9948 20.6769 25.9295 20.769 26.7789 21.1208C27.6283 21.4727 28.3543 22.0685 28.865 22.8329C29.3758 23.5973 29.6484 24.4961 29.6484 25.4154C29.6484 26.6483 29.1587 27.8306 28.2869 28.7024C27.4152 29.5741 26.2328 30.0639 25 30.0639ZM39.8313 44.0092C38.9119 44.0092 38.0131 43.7366 37.2487 43.2258C36.4843 42.715 35.8885 41.989 35.5367 41.1396C35.1848 40.2902 35.0928 39.3556 35.2721 38.4539C35.4515 37.5522 35.8942 36.7239 36.5443 36.0738C37.1944 35.4237 38.0227 34.981 38.9244 34.8016C39.8261 34.6223 40.7607 34.7143 41.6101 35.0661C42.4595 35.418 43.1855 36.0138 43.6963 36.7782C44.2071 37.5426 44.4797 38.4414 44.4797 39.3607C44.4768 40.5927 43.9861 41.7734 43.115 42.6445C42.2439 43.5156 41.0632 44.0063 39.8313 44.0092ZM39.8313 15.2982C38.9119 15.2982 38.0131 15.0256 37.2487 14.5148C36.4843 14.0041 35.8885 13.2781 35.5367 12.4287C35.1848 11.5793 35.0928 10.6446 35.2721 9.74294C35.4515 8.84123 35.8942 8.01296 36.5443 7.36286C37.1944 6.71277 38.0227 6.27005 38.9244 6.09068C39.8261 5.91132 40.7607 6.00338 41.6101 6.35521C42.4595 6.70704 43.1855 7.30284 43.6963 8.06727C44.2071 8.8317 44.4797 9.73043 44.4797 10.6498C44.4768 11.8818 43.9861 13.0624 43.115 13.9336C42.2439 14.8047 41.0632 15.2954 39.8313 15.2982Z" fill="#202329"/>
</svg>
