<svg width="51" height="51" viewBox="0 0 51 51" fill="none" xmlns="http://www.w3.org/2000/svg">
<path d="M47.1523 0H2.93516C2.15671 0 1.41014 0.309239 0.859689 0.859689C0.309239 1.41014 0 2.15671 0 2.93516V47.1523C0 47.9308 0.309239 48.6774 0.859689 49.2278C1.41014 49.7783 2.15671 50.0875 2.93516 50.0875H47.1523C47.9308 50.0875 48.6774 49.7783 49.2278 49.2278C49.7783 48.6774 50.0875 47.9308 50.0875 47.1523V2.93516C50.0875 2.15671 49.7783 1.41014 49.2278 0.859689C48.6774 0.309239 47.9308 0 47.1523 0ZM9.91036 44.4404C8.97226 44.4404 8.05522 44.1622 7.27522 43.641C6.49521 43.1198 5.88727 42.3791 5.52828 41.5124C5.16928 40.6457 5.07535 39.692 5.25836 38.7719C5.44138 37.8518 5.89312 37.0067 6.55646 36.3433C7.2198 35.68 8.06494 35.2283 8.98502 35.0452C9.9051 34.8622 10.8588 34.9562 11.7255 35.3152C12.5922 35.6742 13.3329 36.2821 13.8541 37.0621C14.3753 37.8421 14.6535 38.7591 14.6535 39.6972C14.6535 40.9552 14.1538 42.1616 13.2643 43.0511C12.3748 43.9407 11.1683 44.4404 9.91036 44.4404ZM9.91036 15.1445C8.97226 15.1445 8.05522 14.8664 7.27522 14.3452C6.49521 13.824 5.88727 13.0832 5.52828 12.2165C5.16928 11.3498 5.07535 10.3962 5.25836 9.47608C5.44138 8.556 5.89312 7.71085 6.55646 7.04751C7.2198 6.38417 8.06494 5.93243 8.98502 5.74942C9.9051 5.5664 10.8588 5.66033 11.7255 6.01933C12.5922 6.37833 13.3329 6.98627 13.8541 7.76627C14.3753 8.54628 14.6535 9.46331 14.6535 10.4014C14.6535 11.6594 14.1538 12.8658 13.2643 13.7553C12.3748 14.6448 11.1683 15.1445 9.91036 15.1445ZM40.1771 44.4404C39.239 44.4404 38.322 44.1622 37.542 43.641C36.762 43.1198 36.154 42.3791 35.7951 41.5124C35.4361 40.6457 35.3421 39.692 35.5251 38.7719C35.7082 37.8518 36.1599 37.0067 36.8232 36.3433C37.4866 35.68 38.3317 35.2283 39.2518 35.0452C40.1719 34.8622 41.1256 34.9562 41.9923 35.3152C42.859 35.6742 43.5997 36.2821 44.1209 37.0621C44.6421 37.8421 44.9203 38.7591 44.9203 39.6972C44.9173 40.9543 44.4167 42.159 43.5278 43.0479C42.6389 43.9368 41.4342 44.4374 40.1771 44.4404ZM40.1771 15.1445C39.239 15.1445 38.322 14.8664 37.542 14.3452C36.762 13.824 36.154 13.0832 35.7951 12.2165C35.4361 11.3498 35.3421 10.3962 35.5251 9.47608C35.7082 8.556 36.1599 7.71085 36.8232 7.04751C37.4866 6.38417 38.3317 5.93243 39.2518 5.74942C40.1719 5.5664 41.1256 5.66033 41.9923 6.01933C42.859 6.37833 43.5997 6.98627 44.1209 7.76627C44.6421 8.54628 44.9203 9.46331 44.9203 10.4014C44.9173 11.6585 44.4167 12.8632 43.5278 13.7521C42.6389 14.6409 41.4342 15.1416 40.1771 15.1445Z" fill="#202329"/>
</svg>
