<svg width="207" height="29" viewBox="0 0 207 29" fill="none" xmlns="http://www.w3.org/2000/svg">
<path d="M19.032 20.064C19.032 20.288 19 22.208 17.784 24.16C16.664 26.016 14.36 28.192 9.656 28.192C5.944 28.192 3.032 26.624 1.464 23.84C0.728 22.496 0.44 21.184 0.344 20.352C0.344 20.288 0.312 20.224 0.312 20.16C0.312 19.84 0.568 19.552 0.888 19.52H4.824C5.08 19.552 5.272 19.712 5.336 19.968V20C5.336 20.032 5.368 20.064 5.368 20.096C5.432 20.48 5.592 21.024 5.912 21.504C6.584 22.624 7.832 23.2 9.656 23.2C11.608 23.2 12.856 22.656 13.528 21.568C13.976 20.832 14.04 20.032 14.04 20.032C14.04 19.136 13.816 18.08 12.152 17.408C10.936 16.896 9.656 16.864 9.656 16.864C9.432 16.864 7.384 16.832 5.272 16C2.04 14.688 0.28 12.128 0.28 8.768C0.28 8.448 0.344 5.472 2.68 3.136C4.344 1.44 6.712 0.575998 9.656 0.575998C11.544 0.575998 14.264 0.991999 16.344 3.104C18.36 5.152 18.872 7.744 19 9.024V9.088C19 9.472 18.744 9.76 18.392 9.76H14.52C14.264 9.728 14.04 9.504 13.976 9.248V9.152C13.88 8.704 13.72 8.064 13.4 7.424C12.952 6.624 12.088 5.568 9.656 5.568C8.088 5.568 6.936 5.92 6.2 6.656C5.336 7.52 5.272 8.768 5.272 8.768C5.272 9.664 5.496 10.688 7.16 11.36C8.376 11.84 9.656 11.872 9.656 11.872C9.88 11.872 11.928 11.904 14.04 12.768C17.272 14.112 19.032 16.704 19.032 20.064ZM42.2645 19.552C42.2645 22.208 41.1765 24.512 39.1605 26.112C37.4645 27.424 35.2565 28.16 32.8885 28.16C30.5205 28.16 28.3125 27.424 26.6165 26.112C24.6005 24.512 23.5125 22.208 23.5125 19.552V1.312C23.5125 0.959999 23.8005 0.639999 24.1525 0.639999H27.8965C28.2485 0.639999 28.5045 0.959999 28.5045 1.312V19.552C28.5045 23.04 32.4405 23.168 32.8885 23.168C33.3365 23.168 37.2725 23.04 37.2725 19.552V1.312C37.2725 0.959999 37.5605 0.639999 37.8805 0.639999H41.6565C41.9765 0.639999 42.2645 0.959999 42.2645 1.312V19.552ZM64.9072 2.944C66.7952 4.416 67.8512 6.528 67.8512 8.768C67.8512 10.976 66.7952 13.088 64.9072 14.592C63.0512 16.096 60.4592 16.864 57.4512 16.896H53.0032V27.488C53.0032 27.84 52.7472 28.128 52.3952 28.128H48.6512C48.2992 28.128 48.0112 27.84 48.0112 27.488V11.872H52.9392L48.0112 3.84V1.28C48.0112 0.927999 48.2992 0.639999 48.6512 0.639999H57.3872C60.4272 0.639999 63.0192 1.44 64.9072 2.944ZM54.9872 5.632L58.7312 11.808C61.4512 11.456 62.8592 10.112 62.8592 8.768C62.8592 7.2 60.9712 5.632 57.3872 5.632H54.9872ZM89.9657 27.52C89.9657 27.872 89.6777 28.16 89.3577 28.16H71.8537C71.5017 28.16 71.2137 27.872 71.2137 27.52V1.28C71.2137 0.927999 71.5017 0.639999 71.8537 0.639999H88.7177C89.0697 0.639999 89.3577 0.927999 89.3577 1.28V5.024C89.3577 5.376 89.0697 5.632 88.7177 5.632H76.2057V11.904H88.0777C88.4297 11.904 88.7177 12.16 88.7177 12.512V16.256C88.7177 16.608 88.4297 16.896 88.0777 16.896H76.2057V23.136H89.3577C89.6777 23.136 89.9657 23.424 89.9657 23.776V27.52ZM113.023 27.136L113.055 27.2C113.119 27.296 113.119 27.392 113.119 27.488C113.119 27.872 112.863 28.16 112.511 28.16H108.223C107.999 28.16 107.807 28.032 107.711 27.872L107.647 27.776L102.175 18.112L101.503 16.896H99.1032V27.52C99.1032 27.872 98.8152 28.16 98.4952 28.16H94.7512C94.3992 28.16 94.1112 27.872 94.1112 27.52V11.904H98.6872L94.4312 4.416V4.384L94.1112 3.808V1.28C94.1112 0.959999 94.3992 0.671999 94.7512 0.671999H104.095C107.007 0.671999 109.535 1.472 111.327 3.008C113.087 4.48 114.111 6.592 114.111 8.8C114.111 12.16 111.711 15.584 107.071 16.608L107.231 16.896L107.935 18.112L113.023 27.136ZM103.743 10.72L104.415 11.904C104.735 11.904 105.055 11.872 105.343 11.84C107.935 11.488 109.087 10.08 109.087 8.8C109.087 7.296 107.551 5.664 104.095 5.664H100.895L103.743 10.72Z" fill="white"/>
<path d="M136.636 14.4C138.3 15.872 139.228 17.888 139.228 20.032C139.228 24.064 135.804 28.16 129.244 28.16H119.868C119.516 28.16 119.228 27.84 119.228 27.488V11.904H124.572L119.228 3.904V1.312C119.228 0.927999 119.516 0.639999 119.868 0.639999H129.244C132.156 0.639999 134.652 1.44 136.476 2.976C138.236 4.48 139.228 6.592 139.228 8.768C139.228 10.816 138.364 12.864 136.636 14.4ZM126.396 5.632L130.524 11.808C133.052 11.456 134.236 10.08 134.236 8.768C134.236 7.264 132.668 5.632 129.244 5.632H126.396ZM124.22 23.136H129.244C132.668 23.136 134.236 21.536 134.236 20.032C134.236 18.528 132.668 16.896 129.244 16.896H124.22V23.136ZM162.783 27.52C162.783 27.872 162.495 28.16 162.175 28.16H144.671C144.319 28.16 144.031 27.872 144.031 27.52V1.28C144.031 0.927999 144.319 0.639999 144.671 0.639999H161.535C161.887 0.639999 162.175 0.927999 162.175 1.28V5.024C162.175 5.376 161.887 5.632 161.535 5.632H149.023V11.904H160.895C161.247 11.904 161.535 12.16 161.535 12.512V16.256C161.535 16.608 161.247 16.896 160.895 16.896H149.023V23.136H162.175C162.495 23.136 162.783 23.424 162.783 23.776V27.52ZM184.873 4.992C184.873 5.344 184.521 5.632 184.105 5.632H177.993V27.36C177.993 27.776 177.705 28.128 177.385 28.128H173.609C173.289 28.128 173.001 27.776 173.001 27.36V5.632H166.761C166.409 5.632 166.121 5.344 166.121 4.992V1.248C166.121 0.895998 166.409 0.639999 166.761 0.639999H184.105C184.521 0.639999 184.873 0.895998 184.873 1.248V4.992ZM206.524 20.064C206.524 20.288 206.492 22.208 205.276 24.16C204.156 26.016 201.852 28.192 197.148 28.192C193.436 28.192 190.524 26.624 188.956 23.84C188.22 22.496 187.932 21.184 187.836 20.352C187.836 20.288 187.804 20.224 187.804 20.16C187.804 19.84 188.06 19.552 188.38 19.52H192.316C192.572 19.552 192.764 19.712 192.828 19.968V20C192.828 20.032 192.86 20.064 192.86 20.096C192.924 20.48 193.084 21.024 193.404 21.504C194.076 22.624 195.324 23.2 197.148 23.2C199.1 23.2 200.348 22.656 201.02 21.568C201.468 20.832 201.532 20.032 201.532 20.032C201.532 19.136 201.308 18.08 199.644 17.408C198.428 16.896 197.148 16.864 197.148 16.864C196.924 16.864 194.876 16.832 192.764 16C189.532 14.688 187.772 12.128 187.772 8.768C187.772 8.448 187.836 5.472 190.172 3.136C191.836 1.44 194.204 0.575998 197.148 0.575998C199.036 0.575998 201.756 0.991999 203.836 3.104C205.852 5.152 206.364 7.744 206.492 9.024V9.088C206.492 9.472 206.236 9.76 205.884 9.76H202.012C201.756 9.728 201.532 9.504 201.468 9.248V9.152C201.372 8.704 201.212 8.064 200.892 7.424C200.444 6.624 199.58 5.568 197.148 5.568C195.58 5.568 194.428 5.92 193.692 6.656C192.828 7.52 192.764 8.768 192.764 8.768C192.764 9.664 192.988 10.688 194.652 11.36C195.868 11.84 197.148 11.872 197.148 11.872C197.372 11.872 199.42 11.904 201.532 12.768C204.764 14.112 206.524 16.704 206.524 20.064Z" fill="#5F4DFF"/>
</svg>
