<svg width="22" height="22" viewBox="0 0 22 22" fill="none" xmlns="http://www.w3.org/2000/svg">
<g opacity="0.5">
<path d="M11 19.25C15.5563 19.25 19.25 15.5563 19.25 11C19.25 6.44365 15.5563 2.75 11 2.75C6.44365 2.75 2.75 6.44365 2.75 11C2.75 15.5563 6.44365 19.25 11 19.25Z" stroke="#F0F0F0"/>
<path d="M9.62407 16.3281C8.441 16.0252 7.39239 15.3372 6.64356 14.3724C5.89473 13.4077 5.48828 12.2212 5.48828 11C5.48828 9.77877 5.89473 8.59226 6.64356 7.62755C7.39239 6.66284 8.441 5.97479 9.62407 5.67188" stroke="#F0F0F0"/>
<path d="M12.375 5.67188C13.5581 5.97479 14.6067 6.66284 15.3555 7.62755C16.1043 8.59226 16.5108 9.77877 16.5108 11C16.5108 12.2212 16.1043 13.4077 15.3555 14.3724C14.6067 15.3372 13.5581 16.0252 12.375 16.3281" stroke="#F0F0F0"/>
<path d="M10.3125 11C9.94783 11 9.59809 10.8551 9.34023 10.5973C9.08237 10.3394 8.9375 9.98967 8.9375 9.625C8.9375 9.26033 9.08237 8.91059 9.34023 8.65273C9.59809 8.39487 9.94783 8.25 10.3125 8.25" stroke="#F0F0F0"/>
<path d="M11.6875 11C12.0522 11 12.4019 11.1449 12.6598 11.4027C12.9176 11.6606 13.0625 12.0103 13.0625 12.375C13.0625 12.7397 12.9176 13.0894 12.6598 13.3473C12.4019 13.6051 12.0522 13.75 11.6875 13.75" stroke="#F0F0F0"/>
<path d="M11 6.875V8.25" stroke="#F0F0F0"/>
<path d="M11 13.75V15.125" stroke="#F0F0F0"/>
<path d="M10.3125 11H11.6875" stroke="#F0F0F0"/>
<path d="M13.0625 8.9375C13.0625 8.9375 12.375 8.25 11.6875 8.25H10.3125" stroke="#F0F0F0"/>
<path d="M8.9375 13.0625C8.9375 13.0625 9.625 13.75 10.3125 13.75H11.6875" stroke="#F0F0F0"/>
</g>
</svg>
